ISO-10303-21;
HEADER;
FILE_DESCRIPTION(('FreeCAD Model'),'2;1');
FILE_NAME('Open CASCADE Shape Model','2026-08-04T09:25:47',('Author'),(
    ''),'Open CASCADE STEP processor 7.8','FreeCAD','Unknown');
FILE_SCHEMA(('AUTOMOTIVE_DESIGN { 1 0 10303 214 1 1 1 1 }'));
ENDSEC;
DATA;
#1 = APPLICATION_PROTOCOL_DEFINITION('international standard',
  'automotive_design',2000,#2);
#2 = APPLICATION_CONTEXT(
  'core data for automotive mechanical design processes');
#3 = SHAPE_DEFINITION_REPRESENTATION(#4,#10);
#4 = PRODUCT_DEFINITION_SHAPE('','',#5);
#5 = PRODUCT_DEFINITION('design','',#6,#9);
#6 = PRODUCT_DEFINITION_FORMATION('','',#7);
#7 = PRODUCT('Body','Body','',(#8));
#8 = PRODUCT_CONTEXT('',#2,'mechanical');
#9 = PRODUCT_DEFINITION_CONTEXT('part definition',#2,'design');
#10 = ADVANCED_BREP_SHAPE_REPRESENTATION('',(#11,#15),#925);
#11 = AXIS2_PLACEMENT_3D('',#12,#13,#14);
#12 = CARTESIAN_POINT('',(0.,0.,0.));
#13 = DIRECTION('',(0.,0.,1.));
#14 = DIRECTION('',(1.,0.,-0.));
#15 = MANIFOLD_SOLID_BREP('',#16);
#16 = CLOSED_SHELL('',(#17,#59,#90,#259,#283,#445,#462,#479,#496,#513,
    #525,#542,#567,#592,#609,#634,#659,#684,#701,#726,#743,#768,#785,
    #802,#827,#852,#877,#889,#901,#913));
#17 = ADVANCED_FACE('',(#18),#54,.T.);
#18 = FACE_BOUND('',#19,.T.);
#19 = EDGE_LOOP('',(#20,#30,#39,#47));
#20 = ORIENTED_EDGE('',*,*,#21,.T.);
#21 = EDGE_CURVE('',#22,#24,#26,.T.);
#22 = VERTEX_POINT('',#23);
#23 = CARTESIAN_POINT('',(123.,59.5,17.1));
#24 = VERTEX_POINT('',#25);
#25 = CARTESIAN_POINT('',(123.,55.5,17.1));
#26 = LINE('',#27,#28);
#27 = CARTESIAN_POINT('',(123.,55.5,17.1));
#28 = VECTOR('',#29,1.);
#29 = DIRECTION('',(0.,-1.,0.));
#30 = ORIENTED_EDGE('',*,*,#31,.T.);
#31 = EDGE_CURVE('',#24,#32,#34,.T.);
#32 = VERTEX_POINT('',#33);
#33 = CARTESIAN_POINT('',(126.,55.5,20.1));
#34 = CIRCLE('',#35,3.);
#35 = AXIS2_PLACEMENT_3D('',#36,#37,#38);
#36 = CARTESIAN_POINT('',(126.,55.5,17.1));
#37 = DIRECTION('',(0.,1.,-0.));
#38 = DIRECTION('',(-0.707106781187,0.,0.707106781187));
#39 = ORIENTED_EDGE('',*,*,#40,.T.);
#40 = EDGE_CURVE('',#32,#41,#43,.T.);
#41 = VERTEX_POINT('',#42);
#42 = CARTESIAN_POINT('',(126.,59.5,20.1));
#43 = LINE('',#44,#45);
#44 = CARTESIAN_POINT('',(126.,55.5,20.1));
#45 = VECTOR('',#46,1.);
#46 = DIRECTION('',(0.,1.,0.));
#47 = ORIENTED_EDGE('',*,*,#48,.F.);
#48 = EDGE_CURVE('',#22,#41,#49,.T.);
#49 = CIRCLE('',#50,3.);
#50 = AXIS2_PLACEMENT_3D('',#51,#52,#53);
#51 = CARTESIAN_POINT('',(126.,59.5,17.1));
#52 = DIRECTION('',(0.,1.,-0.));
#53 = DIRECTION('',(-0.707106781187,0.,0.707106781187));
#54 = CYLINDRICAL_SURFACE('',#55,3.);
#55 = AXIS2_PLACEMENT_3D('',#56,#57,#58);
#56 = CARTESIAN_POINT('',(126.,55.5,17.1));
#57 = DIRECTION('',(0.,1.,0.));
#58 = DIRECTION('',(-0.707106781187,0.,0.707106781187));
#59 = ADVANCED_FACE('',(#60),#85,.T.);
#60 = FACE_BOUND('',#61,.T.);
#61 = EDGE_LOOP('',(#62,#63,#71,#79));
#62 = ORIENTED_EDGE('',*,*,#21,.F.);
#63 = ORIENTED_EDGE('',*,*,#64,.F.);
#64 = EDGE_CURVE('',#65,#22,#67,.T.);
#65 = VERTEX_POINT('',#66);
#66 = CARTESIAN_POINT('',(123.,59.5,-39.9));
#67 = LINE('',#68,#69);
#68 = CARTESIAN_POINT('',(123.,59.5,20.1));
#69 = VECTOR('',#70,1.);
#70 = DIRECTION('',(0.,0.,1.));
#71 = ORIENTED_EDGE('',*,*,#72,.F.);
#72 = EDGE_CURVE('',#73,#65,#75,.T.);
#73 = VERTEX_POINT('',#74);
#74 = CARTESIAN_POINT('',(123.,55.5,-39.9));
#75 = LINE('',#76,#77);
#76 = CARTESIAN_POINT('',(123.,55.5,-39.9));
#77 = VECTOR('',#78,1.);
#78 = DIRECTION('',(0.,1.,0.));
#79 = ORIENTED_EDGE('',*,*,#80,.F.);
#80 = EDGE_CURVE('',#24,#73,#81,.T.);
#81 = LINE('',#82,#83);
#82 = CARTESIAN_POINT('',(123.,55.5,20.1));
#83 = VECTOR('',#84,1.);
#84 = DIRECTION('',(0.,0.,-1.));
#85 = PLANE('',#86);
#86 = AXIS2_PLACEMENT_3D('',#87,#88,#89);
#87 = CARTESIAN_POINT('',(123.,55.5,-42.9));
#88 = DIRECTION('',(-1.,0.,0.));
#89 = DIRECTION('',(0.,0.,1.));
#90 = ADVANCED_FACE('',(#91,#144,#155,#166,#177,#188,#199,#210,#221,#232
    ,#243),#254,.T.);
#91 = FACE_BOUND('',#92,.T.);
#92 = EDGE_LOOP('',(#93,#94,#95,#104,#112,#121,#129,#138));
#93 = ORIENTED_EDGE('',*,*,#31,.F.);
#94 = ORIENTED_EDGE('',*,*,#80,.T.);
#95 = ORIENTED_EDGE('',*,*,#96,.F.);
#96 = EDGE_CURVE('',#97,#73,#99,.T.);
#97 = VERTEX_POINT('',#98);
#98 = CARTESIAN_POINT('',(126.,55.5,-42.9));
#99 = CIRCLE('',#100,3.);
#100 = AXIS2_PLACEMENT_3D('',#101,#102,#103);
#101 = CARTESIAN_POINT('',(126.,55.5,-39.9));
#102 = DIRECTION('',(0.,1.,0.));
#103 = DIRECTION('',(-0.707106781187,0.,-0.707106781187));
#104 = ORIENTED_EDGE('',*,*,#105,.T.);
#105 = EDGE_CURVE('',#97,#106,#108,.T.);
#106 = VERTEX_POINT('',#107);
#107 = CARTESIAN_POINT('',(204.,55.5,-42.9));
#108 = LINE('',#109,#110);
#109 = CARTESIAN_POINT('',(123.,55.5,-42.9));
#110 = VECTOR('',#111,1.);
#111 = DIRECTION('',(1.,0.,0.));
#112 = ORIENTED_EDGE('',*,*,#113,.F.);
#113 = EDGE_CURVE('',#114,#106,#116,.T.);
#114 = VERTEX_POINT('',#115);
#115 = CARTESIAN_POINT('',(207.,55.5,-39.9));
#116 = CIRCLE('',#117,3.);
#117 = AXIS2_PLACEMENT_3D('',#118,#119,#120);
#118 = CARTESIAN_POINT('',(204.,55.5,-39.9));
#119 = DIRECTION('',(0.,1.,0.));
#120 = DIRECTION('',(0.707106781187,0.,-0.707106781187));
#121 = ORIENTED_EDGE('',*,*,#122,.T.);
#122 = EDGE_CURVE('',#114,#123,#125,.T.);
#123 = VERTEX_POINT('',#124);
#124 = CARTESIAN_POINT('',(207.,55.5,17.1));
#125 = LINE('',#126,#127);
#126 = CARTESIAN_POINT('',(207.,55.5,-42.9));
#127 = VECTOR('',#128,1.);
#128 = DIRECTION('',(0.,0.,1.));
#129 = ORIENTED_EDGE('',*,*,#130,.F.);
#130 = EDGE_CURVE('',#131,#123,#133,.T.);
#131 = VERTEX_POINT('',#132);
#132 = CARTESIAN_POINT('',(204.,55.5,20.1));
#133 = CIRCLE('',#134,3.);
#134 = AXIS2_PLACEMENT_3D('',#135,#136,#137);
#135 = CARTESIAN_POINT('',(204.,55.5,17.1));
#136 = DIRECTION('',(-0.,1.,0.));
#137 = DIRECTION('',(0.707106781187,0.,0.707106781187));
#138 = ORIENTED_EDGE('',*,*,#139,.T.);
#139 = EDGE_CURVE('',#131,#32,#140,.T.);
#140 = LINE('',#141,#142);
#141 = CARTESIAN_POINT('',(207.,55.5,20.1));
#142 = VECTOR('',#143,1.);
#143 = DIRECTION('',(-1.,0.,0.));
#144 = FACE_BOUND('',#145,.T.);
#145 = EDGE_LOOP('',(#146));
#146 = ORIENTED_EDGE('',*,*,#147,.T.);
#147 = EDGE_CURVE('',#148,#148,#150,.T.);
#148 = VERTEX_POINT('',#149);
#149 = CARTESIAN_POINT('',(132.4,55.5,8.45));
#150 = CIRCLE('',#151,2.6);
#151 = AXIS2_PLACEMENT_3D('',#152,#153,#154);
#152 = CARTESIAN_POINT('',(135.,55.5,8.45));
#153 = DIRECTION('',(0.,1.,-2.2E-16));
#154 = DIRECTION('',(-1.,0.,0.));
#155 = FACE_BOUND('',#156,.T.);
#156 = EDGE_LOOP('',(#157));
#157 = ORIENTED_EDGE('',*,*,#158,.F.);
#158 = EDGE_CURVE('',#159,#159,#161,.T.);
#159 = VERTEX_POINT('',#160);
#160 = CARTESIAN_POINT('',(144.04422569274,55.5,8.1));
#161 = CIRCLE('',#162,5.);
#162 = AXIS2_PLACEMENT_3D('',#163,#164,#165);
#163 = CARTESIAN_POINT('',(149.04422569274,55.5,8.1));
#164 = DIRECTION('',(-0.,-1.,-0.));
#165 = DIRECTION('',(-1.,0.,0.));
#166 = FACE_BOUND('',#167,.T.);
#167 = EDGE_LOOP('',(#168));
#168 = ORIENTED_EDGE('',*,*,#169,.F.);
#169 = EDGE_CURVE('',#170,#170,#172,.T.);
#170 = VERTEX_POINT('',#171);
#171 = CARTESIAN_POINT('',(157.08845138549,55.5,-1.900000000001));
#172 = CIRCLE('',#173,5.);
#173 = AXIS2_PLACEMENT_3D('',#174,#175,#176);
#174 = CARTESIAN_POINT('',(162.08845138549,55.5,-1.900000000001));
#175 = DIRECTION('',(-0.,-1.,-0.));
#176 = DIRECTION('',(-1.,0.,0.));
#177 = FACE_BOUND('',#178,.T.);
#178 = EDGE_LOOP('',(#179));
#179 = ORIENTED_EDGE('',*,*,#180,.T.);
#180 = EDGE_CURVE('',#181,#181,#183,.T.);
#181 = VERTEX_POINT('',#182);
#182 = CARTESIAN_POINT('',(131.4,55.5,-31.25));
#183 = CIRCLE('',#184,3.6);
#184 = AXIS2_PLACEMENT_3D('',#185,#186,#187);
#185 = CARTESIAN_POINT('',(135.,55.5,-31.25));
#186 = DIRECTION('',(0.,1.,-2.2E-16));
#187 = DIRECTION('',(-1.,0.,0.));
#188 = FACE_BOUND('',#189,.T.);
#189 = EDGE_LOOP('',(#190));
#190 = ORIENTED_EDGE('',*,*,#191,.F.);
#191 = EDGE_CURVE('',#192,#192,#194,.T.);
#192 = VERTEX_POINT('',#193);
#193 = CARTESIAN_POINT('',(157.08845138549,55.5,-21.9));
#194 = CIRCLE('',#195,5.);
#195 = AXIS2_PLACEMENT_3D('',#196,#197,#198);
#196 = CARTESIAN_POINT('',(162.08845138549,55.5,-21.9));
#197 = DIRECTION('',(-0.,-1.,-0.));
#198 = DIRECTION('',(-1.,0.,0.));
#199 = FACE_BOUND('',#200,.T.);
#200 = EDGE_LOOP('',(#201));
#201 = ORIENTED_EDGE('',*,*,#202,.F.);
#202 = EDGE_CURVE('',#203,#203,#205,.T.);
#203 = VERTEX_POINT('',#204);
#204 = CARTESIAN_POINT('',(144.04422569275,55.5,-31.9));
#205 = CIRCLE('',#206,5.);
#206 = AXIS2_PLACEMENT_3D('',#207,#208,#209);
#207 = CARTESIAN_POINT('',(149.04422569275,55.5,-31.9));
#208 = DIRECTION('',(-0.,-1.,-0.));
#209 = DIRECTION('',(-1.,0.,0.));
#210 = FACE_BOUND('',#211,.T.);
#211 = EDGE_LOOP('',(#212));
#212 = ORIENTED_EDGE('',*,*,#213,.F.);
#213 = EDGE_CURVE('',#214,#214,#216,.T.);
#214 = VERTEX_POINT('',#215);
#215 = CARTESIAN_POINT('',(175.95577430725,55.5,8.1));
#216 = CIRCLE('',#217,5.);
#217 = AXIS2_PLACEMENT_3D('',#218,#219,#220);
#218 = CARTESIAN_POINT('',(180.95577430725,55.5,8.1));
#219 = DIRECTION('',(-0.,-1.,-0.));
#220 = DIRECTION('',(-1.,0.,0.));
#221 = FACE_BOUND('',#222,.T.);
#222 = EDGE_LOOP('',(#223));
#223 = ORIENTED_EDGE('',*,*,#224,.T.);
#224 = EDGE_CURVE('',#225,#225,#227,.T.);
#225 = VERTEX_POINT('',#226);
#226 = CARTESIAN_POINT('',(192.4,55.5,8.45));
#227 = CIRCLE('',#228,2.6);
#228 = AXIS2_PLACEMENT_3D('',#229,#230,#231);
#229 = CARTESIAN_POINT('',(195.,55.5,8.45));
#230 = DIRECTION('',(0.,1.,-2.2E-16));
#231 = DIRECTION('',(-1.,0.,0.));
#232 = FACE_BOUND('',#233,.T.);
#233 = EDGE_LOOP('',(#234));
#234 = ORIENTED_EDGE('',*,*,#235,.F.);
#235 = EDGE_CURVE('',#236,#236,#238,.T.);
#236 = VERTEX_POINT('',#237);
#237 = CARTESIAN_POINT('',(175.95577430725,55.5,-31.9));
#238 = CIRCLE('',#239,5.);
#239 = AXIS2_PLACEMENT_3D('',#240,#241,#242);
#240 = CARTESIAN_POINT('',(180.95577430725,55.5,-31.9));
#241 = DIRECTION('',(-0.,-1.,-0.));
#242 = DIRECTION('',(-1.,0.,0.));
#243 = FACE_BOUND('',#244,.T.);
#244 = EDGE_LOOP('',(#245));
#245 = ORIENTED_EDGE('',*,*,#246,.T.);
#246 = EDGE_CURVE('',#247,#247,#249,.T.);
#247 = VERTEX_POINT('',#248);
#248 = CARTESIAN_POINT('',(191.4,55.5,-31.25));
#249 = CIRCLE('',#250,3.6);
#250 = AXIS2_PLACEMENT_3D('',#251,#252,#253);
#251 = CARTESIAN_POINT('',(195.,55.5,-31.25));
#252 = DIRECTION('',(0.,1.,-2.2E-16));
#253 = DIRECTION('',(-1.,0.,0.));
#254 = PLANE('',#255);
#255 = AXIS2_PLACEMENT_3D('',#256,#257,#258);
#256 = CARTESIAN_POINT('',(165.,55.5,-11.4));
#257 = DIRECTION('',(-0.,-1.,-0.));
#258 = DIRECTION('',(0.,0.,-1.));
#259 = ADVANCED_FACE('',(#260),#278,.T.);
#260 = FACE_BOUND('',#261,.T.);
#261 = EDGE_LOOP('',(#262,#263,#264,#272));
#262 = ORIENTED_EDGE('',*,*,#40,.F.);
#263 = ORIENTED_EDGE('',*,*,#139,.F.);
#264 = ORIENTED_EDGE('',*,*,#265,.F.);
#265 = EDGE_CURVE('',#266,#131,#268,.T.);
#266 = VERTEX_POINT('',#267);
#267 = CARTESIAN_POINT('',(204.,59.5,20.1));
#268 = LINE('',#269,#270);
#269 = CARTESIAN_POINT('',(204.,55.5,20.1));
#270 = VECTOR('',#271,1.);
#271 = DIRECTION('',(0.,-1.,0.));
#272 = ORIENTED_EDGE('',*,*,#273,.F.);
#273 = EDGE_CURVE('',#41,#266,#274,.T.);
#274 = LINE('',#275,#276);
#275 = CARTESIAN_POINT('',(207.,59.5,20.1));
#276 = VECTOR('',#277,1.);
#277 = DIRECTION('',(1.,0.,0.));
#278 = PLANE('',#279);
#279 = AXIS2_PLACEMENT_3D('',#280,#281,#282);
#280 = CARTESIAN_POINT('',(123.,55.5,20.1));
#281 = DIRECTION('',(0.,0.,1.));
#282 = DIRECTION('',(1.,0.,0.));
#283 = ADVANCED_FACE('',(#284,#330,#341,#352,#363,#374,#385,#396,#407,
    #418,#429),#440,.T.);
#284 = FACE_BOUND('',#285,.T.);
#285 = EDGE_LOOP('',(#286,#287,#288,#297,#305,#314,#322,#329));
#286 = ORIENTED_EDGE('',*,*,#48,.T.);
#287 = ORIENTED_EDGE('',*,*,#273,.T.);
#288 = ORIENTED_EDGE('',*,*,#289,.T.);
#289 = EDGE_CURVE('',#266,#290,#292,.T.);
#290 = VERTEX_POINT('',#291);
#291 = CARTESIAN_POINT('',(207.,59.5,17.1));
#292 = CIRCLE('',#293,3.);
#293 = AXIS2_PLACEMENT_3D('',#294,#295,#296);
#294 = CARTESIAN_POINT('',(204.,59.5,17.1));
#295 = DIRECTION('',(-0.,1.,0.));
#296 = DIRECTION('',(0.707106781187,0.,0.707106781187));
#297 = ORIENTED_EDGE('',*,*,#298,.T.);
#298 = EDGE_CURVE('',#290,#299,#301,.T.);
#299 = VERTEX_POINT('',#300);
#300 = CARTESIAN_POINT('',(207.,59.5,-39.9));
#301 = LINE('',#302,#303);
#302 = CARTESIAN_POINT('',(207.,59.5,-42.9));
#303 = VECTOR('',#304,1.);
#304 = DIRECTION('',(0.,0.,-1.));
#305 = ORIENTED_EDGE('',*,*,#306,.T.);
#306 = EDGE_CURVE('',#299,#307,#309,.T.);
#307 = VERTEX_POINT('',#308);
#308 = CARTESIAN_POINT('',(204.,59.5,-42.9));
#309 = CIRCLE('',#310,3.);
#310 = AXIS2_PLACEMENT_3D('',#311,#312,#313);
#311 = CARTESIAN_POINT('',(204.,59.5,-39.9));
#312 = DIRECTION('',(0.,1.,0.));
#313 = DIRECTION('',(0.707106781187,0.,-0.707106781187));
#314 = ORIENTED_EDGE('',*,*,#315,.T.);
#315 = EDGE_CURVE('',#307,#316,#318,.T.);
#316 = VERTEX_POINT('',#317);
#317 = CARTESIAN_POINT('',(126.,59.5,-42.9));
#318 = LINE('',#319,#320);
#319 = CARTESIAN_POINT('',(123.,59.5,-42.9));
#320 = VECTOR('',#321,1.);
#321 = DIRECTION('',(-1.,0.,0.));
#322 = ORIENTED_EDGE('',*,*,#323,.T.);
#323 = EDGE_CURVE('',#316,#65,#324,.T.);
#324 = CIRCLE('',#325,3.);
#325 = AXIS2_PLACEMENT_3D('',#326,#327,#328);
#326 = CARTESIAN_POINT('',(126.,59.5,-39.9));
#327 = DIRECTION('',(0.,1.,0.));
#328 = DIRECTION('',(-0.707106781187,0.,-0.707106781187));
#329 = ORIENTED_EDGE('',*,*,#64,.T.);
#330 = FACE_BOUND('',#331,.T.);
#331 = EDGE_LOOP('',(#332));
#332 = ORIENTED_EDGE('',*,*,#333,.F.);
#333 = EDGE_CURVE('',#334,#334,#336,.T.);
#334 = VERTEX_POINT('',#335);
#335 = CARTESIAN_POINT('',(131.4,59.5,-31.25));
#336 = CIRCLE('',#337,3.6);
#337 = AXIS2_PLACEMENT_3D('',#338,#339,#340);
#338 = CARTESIAN_POINT('',(135.,59.5,-31.25));
#339 = DIRECTION('',(0.,1.,-0.));
#340 = DIRECTION('',(-1.,0.,0.));
#341 = FACE_BOUND('',#342,.T.);
#342 = EDGE_LOOP('',(#343));
#343 = ORIENTED_EDGE('',*,*,#344,.F.);
#344 = EDGE_CURVE('',#345,#345,#347,.T.);
#345 = VERTEX_POINT('',#346);
#346 = CARTESIAN_POINT('',(146.49422569275,59.5,-31.9));
#347 = CIRCLE('',#348,2.55);
#348 = AXIS2_PLACEMENT_3D('',#349,#350,#351);
#349 = CARTESIAN_POINT('',(149.04422569275,59.5,-31.9));
#350 = DIRECTION('',(0.,1.,-0.));
#351 = DIRECTION('',(-1.,0.,0.));
#352 = FACE_BOUND('',#353,.T.);
#353 = EDGE_LOOP('',(#354));
#354 = ORIENTED_EDGE('',*,*,#355,.F.);
#355 = EDGE_CURVE('',#356,#356,#358,.T.);
#356 = VERTEX_POINT('',#357);
#357 = CARTESIAN_POINT('',(159.53845138549,59.5,-21.9));
#358 = CIRCLE('',#359,2.55);
#359 = AXIS2_PLACEMENT_3D('',#360,#361,#362);
#360 = CARTESIAN_POINT('',(162.08845138549,59.5,-21.9));
#361 = DIRECTION('',(0.,1.,-0.));
#362 = DIRECTION('',(-1.,0.,0.));
#363 = FACE_BOUND('',#364,.T.);
#364 = EDGE_LOOP('',(#365));
#365 = ORIENTED_EDGE('',*,*,#366,.F.);
#366 = EDGE_CURVE('',#367,#367,#369,.T.);
#367 = VERTEX_POINT('',#368);
#368 = CARTESIAN_POINT('',(132.4,59.5,8.45));
#369 = CIRCLE('',#370,2.6);
#370 = AXIS2_PLACEMENT_3D('',#371,#372,#373);
#371 = CARTESIAN_POINT('',(135.,59.5,8.45));
#372 = DIRECTION('',(0.,1.,-0.));
#373 = DIRECTION('',(-1.,0.,0.));
#374 = FACE_BOUND('',#375,.T.);
#375 = EDGE_LOOP('',(#376));
#376 = ORIENTED_EDGE('',*,*,#377,.F.);
#377 = EDGE_CURVE('',#378,#378,#380,.T.);
#378 = VERTEX_POINT('',#379);
#379 = CARTESIAN_POINT('',(159.53845138549,59.5,-1.900000000001));
#380 = CIRCLE('',#381,2.55);
#381 = AXIS2_PLACEMENT_3D('',#382,#383,#384);
#382 = CARTESIAN_POINT('',(162.08845138549,59.5,-1.900000000001));
#383 = DIRECTION('',(0.,1.,-0.));
#384 = DIRECTION('',(-1.,0.,0.));
#385 = FACE_BOUND('',#386,.T.);
#386 = EDGE_LOOP('',(#387));
#387 = ORIENTED_EDGE('',*,*,#388,.F.);
#388 = EDGE_CURVE('',#389,#389,#391,.T.);
#389 = VERTEX_POINT('',#390);
#390 = CARTESIAN_POINT('',(146.49422569274,59.5,8.1));
#391 = CIRCLE('',#392,2.55);
#392 = AXIS2_PLACEMENT_3D('',#393,#394,#395);
#393 = CARTESIAN_POINT('',(149.04422569274,59.5,8.1));
#394 = DIRECTION('',(0.,1.,-0.));
#395 = DIRECTION('',(-1.,0.,0.));
#396 = FACE_BOUND('',#397,.T.);
#397 = EDGE_LOOP('',(#398));
#398 = ORIENTED_EDGE('',*,*,#399,.F.);
#399 = EDGE_CURVE('',#400,#400,#402,.T.);
#400 = VERTEX_POINT('',#401);
#401 = CARTESIAN_POINT('',(178.40577430725,59.5,-31.9));
#402 = CIRCLE('',#403,2.55);
#403 = AXIS2_PLACEMENT_3D('',#404,#405,#406);
#404 = CARTESIAN_POINT('',(180.95577430725,59.5,-31.9));
#405 = DIRECTION('',(0.,1.,-0.));
#406 = DIRECTION('',(-1.,0.,0.));
#407 = FACE_BOUND('',#408,.T.);
#408 = EDGE_LOOP('',(#409));
#409 = ORIENTED_EDGE('',*,*,#410,.F.);
#410 = EDGE_CURVE('',#411,#411,#413,.T.);
#411 = VERTEX_POINT('',#412);
#412 = CARTESIAN_POINT('',(191.4,59.5,-31.25));
#413 = CIRCLE('',#414,3.6);
#414 = AXIS2_PLACEMENT_3D('',#415,#416,#417);
#415 = CARTESIAN_POINT('',(195.,59.5,-31.25));
#416 = DIRECTION('',(0.,1.,-0.));
#417 = DIRECTION('',(-1.,0.,0.));
#418 = FACE_BOUND('',#419,.T.);
#419 = EDGE_LOOP('',(#420));
#420 = ORIENTED_EDGE('',*,*,#421,.F.);
#421 = EDGE_CURVE('',#422,#422,#424,.T.);
#422 = VERTEX_POINT('',#423);
#423 = CARTESIAN_POINT('',(178.40577430725,59.5,8.1));
#424 = CIRCLE('',#425,2.55);
#425 = AXIS2_PLACEMENT_3D('',#426,#427,#428);
#426 = CARTESIAN_POINT('',(180.95577430725,59.5,8.1));
#427 = DIRECTION('',(0.,1.,-0.));
#428 = DIRECTION('',(-1.,0.,0.));
#429 = FACE_BOUND('',#430,.T.);
#430 = EDGE_LOOP('',(#431));
#431 = ORIENTED_EDGE('',*,*,#432,.F.);
#432 = EDGE_CURVE('',#433,#433,#435,.T.);
#433 = VERTEX_POINT('',#434);
#434 = CARTESIAN_POINT('',(192.4,59.5,8.45));
#435 = CIRCLE('',#436,2.6);
#436 = AXIS2_PLACEMENT_3D('',#437,#438,#439);
#437 = CARTESIAN_POINT('',(195.,59.5,8.45));
#438 = DIRECTION('',(0.,1.,-0.));
#439 = DIRECTION('',(-1.,0.,0.));
#440 = PLANE('',#441);
#441 = AXIS2_PLACEMENT_3D('',#442,#443,#444);
#442 = CARTESIAN_POINT('',(165.,59.5,-11.4));
#443 = DIRECTION('',(0.,1.,0.));
#444 = DIRECTION('',(0.,0.,1.));
#445 = ADVANCED_FACE('',(#446),#457,.T.);
#446 = FACE_BOUND('',#447,.T.);
#447 = EDGE_LOOP('',(#448,#454,#455,#456));
#448 = ORIENTED_EDGE('',*,*,#449,.T.);
#449 = EDGE_CURVE('',#316,#97,#450,.T.);
#450 = LINE('',#451,#452);
#451 = CARTESIAN_POINT('',(126.,55.5,-42.9));
#452 = VECTOR('',#453,1.);
#453 = DIRECTION('',(0.,-1.,0.));
#454 = ORIENTED_EDGE('',*,*,#96,.T.);
#455 = ORIENTED_EDGE('',*,*,#72,.T.);
#456 = ORIENTED_EDGE('',*,*,#323,.F.);
#457 = CYLINDRICAL_SURFACE('',#458,3.);
#458 = AXIS2_PLACEMENT_3D('',#459,#460,#461);
#459 = CARTESIAN_POINT('',(126.,55.5,-39.9));
#460 = DIRECTION('',(0.,1.,0.));
#461 = DIRECTION('',(-0.707106781187,0.,-0.707106781187));
#462 = ADVANCED_FACE('',(#463),#474,.T.);
#463 = FACE_BOUND('',#464,.T.);
#464 = EDGE_LOOP('',(#465,#466,#467,#473));
#465 = ORIENTED_EDGE('',*,*,#265,.T.);
#466 = ORIENTED_EDGE('',*,*,#130,.T.);
#467 = ORIENTED_EDGE('',*,*,#468,.T.);
#468 = EDGE_CURVE('',#123,#290,#469,.T.);
#469 = LINE('',#470,#471);
#470 = CARTESIAN_POINT('',(207.,55.5,17.1));
#471 = VECTOR('',#472,1.);
#472 = DIRECTION('',(0.,1.,0.));
#473 = ORIENTED_EDGE('',*,*,#289,.F.);
#474 = CYLINDRICAL_SURFACE('',#475,3.);
#475 = AXIS2_PLACEMENT_3D('',#476,#477,#478);
#476 = CARTESIAN_POINT('',(204.,55.5,17.1));
#477 = DIRECTION('',(0.,1.,0.));
#478 = DIRECTION('',(0.707106781187,0.,0.707106781187));
#479 = ADVANCED_FACE('',(#480),#491,.T.);
#480 = FACE_BOUND('',#481,.T.);
#481 = EDGE_LOOP('',(#482,#483,#484,#490));
#482 = ORIENTED_EDGE('',*,*,#449,.F.);
#483 = ORIENTED_EDGE('',*,*,#315,.F.);
#484 = ORIENTED_EDGE('',*,*,#485,.F.);
#485 = EDGE_CURVE('',#106,#307,#486,.T.);
#486 = LINE('',#487,#488);
#487 = CARTESIAN_POINT('',(204.,55.5,-42.9));
#488 = VECTOR('',#489,1.);
#489 = DIRECTION('',(0.,1.,0.));
#490 = ORIENTED_EDGE('',*,*,#105,.F.);
#491 = PLANE('',#492);
#492 = AXIS2_PLACEMENT_3D('',#493,#494,#495);
#493 = CARTESIAN_POINT('',(207.,55.5,-42.9));
#494 = DIRECTION('',(0.,0.,-1.));
#495 = DIRECTION('',(-1.,0.,0.));
#496 = ADVANCED_FACE('',(#497),#508,.T.);
#497 = FACE_BOUND('',#498,.T.);
#498 = EDGE_LOOP('',(#499,#505,#506,#507));
#499 = ORIENTED_EDGE('',*,*,#500,.F.);
#500 = EDGE_CURVE('',#299,#114,#501,.T.);
#501 = LINE('',#502,#503);
#502 = CARTESIAN_POINT('',(207.,55.5,-39.9));
#503 = VECTOR('',#504,1.);
#504 = DIRECTION('',(0.,-1.,0.));
#505 = ORIENTED_EDGE('',*,*,#298,.F.);
#506 = ORIENTED_EDGE('',*,*,#468,.F.);
#507 = ORIENTED_EDGE('',*,*,#122,.F.);
#508 = PLANE('',#509);
#509 = AXIS2_PLACEMENT_3D('',#510,#511,#512);
#510 = CARTESIAN_POINT('',(207.,55.5,20.1));
#511 = DIRECTION('',(1.,0.,0.));
#512 = DIRECTION('',(0.,0.,-1.));
#513 = ADVANCED_FACE('',(#514),#520,.T.);
#514 = FACE_BOUND('',#515,.T.);
#515 = EDGE_LOOP('',(#516,#517,#518,#519));
#516 = ORIENTED_EDGE('',*,*,#500,.T.);
#517 = ORIENTED_EDGE('',*,*,#113,.T.);
#518 = ORIENTED_EDGE('',*,*,#485,.T.);
#519 = ORIENTED_EDGE('',*,*,#306,.F.);
#520 = CYLINDRICAL_SURFACE('',#521,3.);
#521 = AXIS2_PLACEMENT_3D('',#522,#523,#524);
#522 = CARTESIAN_POINT('',(204.,55.5,-39.9));
#523 = DIRECTION('',(0.,1.,0.));
#524 = DIRECTION('',(0.707106781187,0.,-0.707106781187));
#525 = ADVANCED_FACE('',(#526),#537,.F.);
#526 = FACE_BOUND('',#527,.F.);
#527 = EDGE_LOOP('',(#528,#529,#535,#536));
#528 = ORIENTED_EDGE('',*,*,#366,.F.);
#529 = ORIENTED_EDGE('',*,*,#530,.T.);
#530 = EDGE_CURVE('',#367,#148,#531,.T.);
#531 = LINE('',#532,#533);
#532 = CARTESIAN_POINT('',(132.4,59.5,8.45));
#533 = VECTOR('',#534,1.);
#534 = DIRECTION('',(0.,-1.,2.2E-16));
#535 = ORIENTED_EDGE('',*,*,#147,.T.);
#536 = ORIENTED_EDGE('',*,*,#530,.F.);
#537 = CYLINDRICAL_SURFACE('',#538,2.6);
#538 = AXIS2_PLACEMENT_3D('',#539,#540,#541);
#539 = CARTESIAN_POINT('',(135.,59.5,8.45));
#540 = DIRECTION('',(0.,1.,-2.2E-16));
#541 = DIRECTION('',(-1.,0.,0.));
#542 = ADVANCED_FACE('',(#543),#562,.F.);
#543 = FACE_BOUND('',#544,.T.);
#544 = EDGE_LOOP('',(#545,#553,#554,#555));
#545 = ORIENTED_EDGE('',*,*,#546,.F.);
#546 = EDGE_CURVE('',#159,#547,#549,.T.);
#547 = VERTEX_POINT('',#548);
#548 = CARTESIAN_POINT('',(144.04422569274,57.5,8.1));
#549 = LINE('',#550,#551);
#550 = CARTESIAN_POINT('',(144.04422569274,55.5,8.1));
#551 = VECTOR('',#552,1.);
#552 = DIRECTION('',(0.,1.,0.));
#553 = ORIENTED_EDGE('',*,*,#158,.T.);
#554 = ORIENTED_EDGE('',*,*,#546,.T.);
#555 = ORIENTED_EDGE('',*,*,#556,.F.);
#556 = EDGE_CURVE('',#547,#547,#557,.T.);
#557 = CIRCLE('',#558,5.);
#558 = AXIS2_PLACEMENT_3D('',#559,#560,#561);
#559 = CARTESIAN_POINT('',(149.04422569274,57.5,8.1));
#560 = DIRECTION('',(-0.,-1.,-0.));
#561 = DIRECTION('',(-1.,0.,0.));
#562 = CYLINDRICAL_SURFACE('',#563,5.);
#563 = AXIS2_PLACEMENT_3D('',#564,#565,#566);
#564 = CARTESIAN_POINT('',(149.04422569274,55.5,8.1));
#565 = DIRECTION('',(0.,1.,0.));
#566 = DIRECTION('',(-1.,0.,0.));
#567 = ADVANCED_FACE('',(#568),#587,.F.);
#568 = FACE_BOUND('',#569,.T.);
#569 = EDGE_LOOP('',(#570,#578,#579,#580));
#570 = ORIENTED_EDGE('',*,*,#571,.F.);
#571 = EDGE_CURVE('',#170,#572,#574,.T.);
#572 = VERTEX_POINT('',#573);
#573 = CARTESIAN_POINT('',(159.53845138549,57.95,-1.900000000001));
#574 = LINE('',#575,#576);
#575 = CARTESIAN_POINT('',(157.08845138549,55.5,-1.900000000001));
#576 = VECTOR('',#577,1.);
#577 = DIRECTION('',(0.707106781187,0.707106781187,0.));
#578 = ORIENTED_EDGE('',*,*,#169,.T.);
#579 = ORIENTED_EDGE('',*,*,#571,.T.);
#580 = ORIENTED_EDGE('',*,*,#581,.F.);
#581 = EDGE_CURVE('',#572,#572,#582,.T.);
#582 = CIRCLE('',#583,2.55);
#583 = AXIS2_PLACEMENT_3D('',#584,#585,#586);
#584 = CARTESIAN_POINT('',(162.08845138549,57.95,-1.900000000001));
#585 = DIRECTION('',(-0.,-1.,-0.));
#586 = DIRECTION('',(-1.,0.,0.));
#587 = CONICAL_SURFACE('',#588,5.,0.785398163397);
#588 = AXIS2_PLACEMENT_3D('',#589,#590,#591);
#589 = CARTESIAN_POINT('',(162.08845138549,55.5,-1.900000000001));
#590 = DIRECTION('',(-0.,-1.,-0.));
#591 = DIRECTION('',(-1.,0.,0.));
#592 = ADVANCED_FACE('',(#593),#604,.F.);
#593 = FACE_BOUND('',#594,.F.);
#594 = EDGE_LOOP('',(#595,#596,#602,#603));
#595 = ORIENTED_EDGE('',*,*,#333,.F.);
#596 = ORIENTED_EDGE('',*,*,#597,.T.);
#597 = EDGE_CURVE('',#334,#181,#598,.T.);
#598 = LINE('',#599,#600);
#599 = CARTESIAN_POINT('',(131.4,59.5,-31.25));
#600 = VECTOR('',#601,1.);
#601 = DIRECTION('',(0.,-1.,2.2E-16));
#602 = ORIENTED_EDGE('',*,*,#180,.T.);
#603 = ORIENTED_EDGE('',*,*,#597,.F.);
#604 = CYLINDRICAL_SURFACE('',#605,3.6);
#605 = AXIS2_PLACEMENT_3D('',#606,#607,#608);
#606 = CARTESIAN_POINT('',(135.,59.5,-31.25));
#607 = DIRECTION('',(0.,1.,-2.2E-16));
#608 = DIRECTION('',(-1.,0.,0.));
#609 = ADVANCED_FACE('',(#610),#629,.F.);
#610 = FACE_BOUND('',#611,.T.);
#611 = EDGE_LOOP('',(#612,#620,#621,#622));
#612 = ORIENTED_EDGE('',*,*,#613,.F.);
#613 = EDGE_CURVE('',#192,#614,#616,.T.);
#614 = VERTEX_POINT('',#615);
#615 = CARTESIAN_POINT('',(159.53845138549,57.95,-21.9));
#616 = LINE('',#617,#618);
#617 = CARTESIAN_POINT('',(157.08845138549,55.5,-21.9));
#618 = VECTOR('',#619,1.);
#619 = DIRECTION('',(0.707106781187,0.707106781187,0.));
#620 = ORIENTED_EDGE('',*,*,#191,.T.);
#621 = ORIENTED_EDGE('',*,*,#613,.T.);
#622 = ORIENTED_EDGE('',*,*,#623,.F.);
#623 = EDGE_CURVE('',#614,#614,#624,.T.);
#624 = CIRCLE('',#625,2.55);
#625 = AXIS2_PLACEMENT_3D('',#626,#627,#628);
#626 = CARTESIAN_POINT('',(162.08845138549,57.95,-21.9));
#627 = DIRECTION('',(-0.,-1.,-0.));
#628 = DIRECTION('',(-1.,0.,0.));
#629 = CONICAL_SURFACE('',#630,5.,0.785398163397);
#630 = AXIS2_PLACEMENT_3D('',#631,#632,#633);
#631 = CARTESIAN_POINT('',(162.08845138549,55.5,-21.9));
#632 = DIRECTION('',(-0.,-1.,-0.));
#633 = DIRECTION('',(-1.,0.,0.));
#634 = ADVANCED_FACE('',(#635),#654,.F.);
#635 = FACE_BOUND('',#636,.T.);
#636 = EDGE_LOOP('',(#637,#645,#646,#647));
#637 = ORIENTED_EDGE('',*,*,#638,.F.);
#638 = EDGE_CURVE('',#203,#639,#641,.T.);
#639 = VERTEX_POINT('',#640);
#640 = CARTESIAN_POINT('',(144.04422569275,57.5,-31.9));
#641 = LINE('',#642,#643);
#642 = CARTESIAN_POINT('',(144.04422569275,55.5,-31.9));
#643 = VECTOR('',#644,1.);
#644 = DIRECTION('',(0.,1.,0.));
#645 = ORIENTED_EDGE('',*,*,#202,.T.);
#646 = ORIENTED_EDGE('',*,*,#638,.T.);
#647 = ORIENTED_EDGE('',*,*,#648,.F.);
#648 = EDGE_CURVE('',#639,#639,#649,.T.);
#649 = CIRCLE('',#650,5.);
#650 = AXIS2_PLACEMENT_3D('',#651,#652,#653);
#651 = CARTESIAN_POINT('',(149.04422569275,57.5,-31.9));
#652 = DIRECTION('',(-0.,-1.,-0.));
#653 = DIRECTION('',(-1.,0.,0.));
#654 = CYLINDRICAL_SURFACE('',#655,5.);
#655 = AXIS2_PLACEMENT_3D('',#656,#657,#658);
#656 = CARTESIAN_POINT('',(149.04422569275,55.5,-31.9));
#657 = DIRECTION('',(0.,1.,0.));
#658 = DIRECTION('',(-1.,0.,0.));
#659 = ADVANCED_FACE('',(#660),#679,.F.);
#660 = FACE_BOUND('',#661,.T.);
#661 = EDGE_LOOP('',(#662,#670,#671,#672));
#662 = ORIENTED_EDGE('',*,*,#663,.F.);
#663 = EDGE_CURVE('',#214,#664,#666,.T.);
#664 = VERTEX_POINT('',#665);
#665 = CARTESIAN_POINT('',(175.95577430725,57.5,8.1));
#666 = LINE('',#667,#668);
#667 = CARTESIAN_POINT('',(175.95577430725,55.5,8.1));
#668 = VECTOR('',#669,1.);
#669 = DIRECTION('',(0.,1.,0.));
#670 = ORIENTED_EDGE('',*,*,#213,.T.);
#671 = ORIENTED_EDGE('',*,*,#663,.T.);
#672 = ORIENTED_EDGE('',*,*,#673,.F.);
#673 = EDGE_CURVE('',#664,#664,#674,.T.);
#674 = CIRCLE('',#675,5.);
#675 = AXIS2_PLACEMENT_3D('',#676,#677,#678);
#676 = CARTESIAN_POINT('',(180.95577430725,57.5,8.1));
#677 = DIRECTION('',(-0.,-1.,-0.));
#678 = DIRECTION('',(-1.,0.,0.));
#679 = CYLINDRICAL_SURFACE('',#680,5.);
#680 = AXIS2_PLACEMENT_3D('',#681,#682,#683);
#681 = CARTESIAN_POINT('',(180.95577430725,55.5,8.1));
#682 = DIRECTION('',(0.,1.,0.));
#683 = DIRECTION('',(-1.,0.,0.));
#684 = ADVANCED_FACE('',(#685),#696,.F.);
#685 = FACE_BOUND('',#686,.F.);
#686 = EDGE_LOOP('',(#687,#688,#694,#695));
#687 = ORIENTED_EDGE('',*,*,#432,.F.);
#688 = ORIENTED_EDGE('',*,*,#689,.T.);
#689 = EDGE_CURVE('',#433,#225,#690,.T.);
#690 = LINE('',#691,#692);
#691 = CARTESIAN_POINT('',(192.4,59.5,8.45));
#692 = VECTOR('',#693,1.);
#693 = DIRECTION('',(0.,-1.,2.2E-16));
#694 = ORIENTED_EDGE('',*,*,#224,.T.);
#695 = ORIENTED_EDGE('',*,*,#689,.F.);
#696 = CYLINDRICAL_SURFACE('',#697,2.6);
#697 = AXIS2_PLACEMENT_3D('',#698,#699,#700);
#698 = CARTESIAN_POINT('',(195.,59.5,8.45));
#699 = DIRECTION('',(0.,1.,-2.2E-16));
#700 = DIRECTION('',(-1.,0.,0.));
#701 = ADVANCED_FACE('',(#702),#721,.F.);
#702 = FACE_BOUND('',#703,.T.);
#703 = EDGE_LOOP('',(#704,#712,#713,#714));
#704 = ORIENTED_EDGE('',*,*,#705,.F.);
#705 = EDGE_CURVE('',#236,#706,#708,.T.);
#706 = VERTEX_POINT('',#707);
#707 = CARTESIAN_POINT('',(175.95577430725,57.5,-31.9));
#708 = LINE('',#709,#710);
#709 = CARTESIAN_POINT('',(175.95577430725,55.5,-31.9));
#710 = VECTOR('',#711,1.);
#711 = DIRECTION('',(0.,1.,0.));
#712 = ORIENTED_EDGE('',*,*,#235,.T.);
#713 = ORIENTED_EDGE('',*,*,#705,.T.);
#714 = ORIENTED_EDGE('',*,*,#715,.F.);
#715 = EDGE_CURVE('',#706,#706,#716,.T.);
#716 = CIRCLE('',#717,5.);
#717 = AXIS2_PLACEMENT_3D('',#718,#719,#720);
#718 = CARTESIAN_POINT('',(180.95577430725,57.5,-31.9));
#719 = DIRECTION('',(-0.,-1.,-0.));
#720 = DIRECTION('',(-1.,0.,0.));
#721 = CYLINDRICAL_SURFACE('',#722,5.);
#722 = AXIS2_PLACEMENT_3D('',#723,#724,#725);
#723 = CARTESIAN_POINT('',(180.95577430725,55.5,-31.9));
#724 = DIRECTION('',(0.,1.,0.));
#725 = DIRECTION('',(-1.,0.,0.));
#726 = ADVANCED_FACE('',(#727),#738,.F.);
#727 = FACE_BOUND('',#728,.F.);
#728 = EDGE_LOOP('',(#729,#730,#736,#737));
#729 = ORIENTED_EDGE('',*,*,#410,.F.);
#730 = ORIENTED_EDGE('',*,*,#731,.T.);
#731 = EDGE_CURVE('',#411,#247,#732,.T.);
#732 = LINE('',#733,#734);
#733 = CARTESIAN_POINT('',(191.4,59.5,-31.25));
#734 = VECTOR('',#735,1.);
#735 = DIRECTION('',(0.,-1.,2.2E-16));
#736 = ORIENTED_EDGE('',*,*,#246,.T.);
#737 = ORIENTED_EDGE('',*,*,#731,.F.);
#738 = CYLINDRICAL_SURFACE('',#739,3.6);
#739 = AXIS2_PLACEMENT_3D('',#740,#741,#742);
#740 = CARTESIAN_POINT('',(195.,59.5,-31.25));
#741 = DIRECTION('',(0.,1.,-2.2E-16));
#742 = DIRECTION('',(-1.,0.,0.));
#743 = ADVANCED_FACE('',(#744),#763,.F.);
#744 = FACE_BOUND('',#745,.T.);
#745 = EDGE_LOOP('',(#746,#754,#761,#762));
#746 = ORIENTED_EDGE('',*,*,#747,.F.);
#747 = EDGE_CURVE('',#748,#345,#750,.T.);
#748 = VERTEX_POINT('',#749);
#749 = CARTESIAN_POINT('',(146.49422569275,57.5,-31.9));
#750 = LINE('',#751,#752);
#751 = CARTESIAN_POINT('',(146.49422569275,57.5,-31.9));
#752 = VECTOR('',#753,1.);
#753 = DIRECTION('',(6.E-17,1.,0.));
#754 = ORIENTED_EDGE('',*,*,#755,.T.);
#755 = EDGE_CURVE('',#748,#748,#756,.T.);
#756 = CIRCLE('',#757,2.55);
#757 = AXIS2_PLACEMENT_3D('',#758,#759,#760);
#758 = CARTESIAN_POINT('',(149.04422569275,57.5,-31.9));
#759 = DIRECTION('',(-0.,-1.,-0.));
#760 = DIRECTION('',(-1.,0.,0.));
#761 = ORIENTED_EDGE('',*,*,#747,.T.);
#762 = ORIENTED_EDGE('',*,*,#344,.T.);
#763 = CYLINDRICAL_SURFACE('',#764,2.55);
#764 = AXIS2_PLACEMENT_3D('',#765,#766,#767);
#765 = CARTESIAN_POINT('',(149.04422569275,57.5,-31.9));
#766 = DIRECTION('',(0.,1.,0.));
#767 = DIRECTION('',(-1.,0.,0.));
#768 = ADVANCED_FACE('',(#769),#780,.F.);
#769 = FACE_BOUND('',#770,.T.);
#770 = EDGE_LOOP('',(#771,#777,#778,#779));
#771 = ORIENTED_EDGE('',*,*,#772,.F.);
#772 = EDGE_CURVE('',#614,#356,#773,.T.);
#773 = LINE('',#774,#775);
#774 = CARTESIAN_POINT('',(159.53845138549,57.95,-21.9));
#775 = VECTOR('',#776,1.);
#776 = DIRECTION('',(4.E-17,1.,0.));
#777 = ORIENTED_EDGE('',*,*,#623,.T.);
#778 = ORIENTED_EDGE('',*,*,#772,.T.);
#779 = ORIENTED_EDGE('',*,*,#355,.T.);
#780 = CYLINDRICAL_SURFACE('',#781,2.55);
#781 = AXIS2_PLACEMENT_3D('',#782,#783,#784);
#782 = CARTESIAN_POINT('',(162.08845138549,57.95,-21.9));
#783 = DIRECTION('',(0.,1.,0.));
#784 = DIRECTION('',(-1.,0.,0.));
#785 = ADVANCED_FACE('',(#786),#797,.F.);
#786 = FACE_BOUND('',#787,.T.);
#787 = EDGE_LOOP('',(#788,#794,#795,#796));
#788 = ORIENTED_EDGE('',*,*,#789,.F.);
#789 = EDGE_CURVE('',#572,#378,#790,.T.);
#790 = LINE('',#791,#792);
#791 = CARTESIAN_POINT('',(159.53845138549,57.95,-1.900000000001));
#792 = VECTOR('',#793,1.);
#793 = DIRECTION('',(4.E-17,1.,0.));
#794 = ORIENTED_EDGE('',*,*,#581,.T.);
#795 = ORIENTED_EDGE('',*,*,#789,.T.);
#796 = ORIENTED_EDGE('',*,*,#377,.T.);
#797 = CYLINDRICAL_SURFACE('',#798,2.55);
#798 = AXIS2_PLACEMENT_3D('',#799,#800,#801);
#799 = CARTESIAN_POINT('',(162.08845138549,57.95,-1.900000000001));
#800 = DIRECTION('',(0.,1.,0.));
#801 = DIRECTION('',(-1.,0.,0.));
#802 = ADVANCED_FACE('',(#803),#822,.F.);
#803 = FACE_BOUND('',#804,.T.);
#804 = EDGE_LOOP('',(#805,#813,#820,#821));
#805 = ORIENTED_EDGE('',*,*,#806,.F.);
#806 = EDGE_CURVE('',#807,#389,#809,.T.);
#807 = VERTEX_POINT('',#808);
#808 = CARTESIAN_POINT('',(146.49422569274,57.5,8.1));
#809 = LINE('',#810,#811);
#810 = CARTESIAN_POINT('',(146.49422569274,57.5,8.1));
#811 = VECTOR('',#812,1.);
#812 = DIRECTION('',(6.E-17,1.,0.));
#813 = ORIENTED_EDGE('',*,*,#814,.T.);
#814 = EDGE_CURVE('',#807,#807,#815,.T.);
#815 = CIRCLE('',#816,2.55);
#816 = AXIS2_PLACEMENT_3D('',#817,#818,#819);
#817 = CARTESIAN_POINT('',(149.04422569274,57.5,8.1));
#818 = DIRECTION('',(-0.,-1.,-0.));
#819 = DIRECTION('',(-1.,0.,0.));
#820 = ORIENTED_EDGE('',*,*,#806,.T.);
#821 = ORIENTED_EDGE('',*,*,#388,.T.);
#822 = CYLINDRICAL_SURFACE('',#823,2.55);
#823 = AXIS2_PLACEMENT_3D('',#824,#825,#826);
#824 = CARTESIAN_POINT('',(149.04422569274,57.5,8.1));
#825 = DIRECTION('',(0.,1.,0.));
#826 = DIRECTION('',(-1.,0.,0.));
#827 = ADVANCED_FACE('',(#828),#847,.F.);
#828 = FACE_BOUND('',#829,.T.);
#829 = EDGE_LOOP('',(#830,#838,#845,#846));
#830 = ORIENTED_EDGE('',*,*,#831,.F.);
#831 = EDGE_CURVE('',#832,#400,#834,.T.);
#832 = VERTEX_POINT('',#833);
#833 = CARTESIAN_POINT('',(178.40577430725,57.5,-31.9));
#834 = LINE('',#835,#836);
#835 = CARTESIAN_POINT('',(178.40577430725,57.5,-31.9));
#836 = VECTOR('',#837,1.);
#837 = DIRECTION('',(6.E-17,1.,0.));
#838 = ORIENTED_EDGE('',*,*,#839,.T.);
#839 = EDGE_CURVE('',#832,#832,#840,.T.);
#840 = CIRCLE('',#841,2.55);
#841 = AXIS2_PLACEMENT_3D('',#842,#843,#844);
#842 = CARTESIAN_POINT('',(180.95577430725,57.5,-31.9));
#843 = DIRECTION('',(-0.,-1.,-0.));
#844 = DIRECTION('',(-1.,0.,0.));
#845 = ORIENTED_EDGE('',*,*,#831,.T.);
#846 = ORIENTED_EDGE('',*,*,#399,.T.);
#847 = CYLINDRICAL_SURFACE('',#848,2.55);
#848 = AXIS2_PLACEMENT_3D('',#849,#850,#851);
#849 = CARTESIAN_POINT('',(180.95577430725,57.5,-31.9));
#850 = DIRECTION('',(0.,1.,0.));
#851 = DIRECTION('',(-1.,0.,0.));
#852 = ADVANCED_FACE('',(#853),#872,.F.);
#853 = FACE_BOUND('',#854,.T.);
#854 = EDGE_LOOP('',(#855,#863,#870,#871));
#855 = ORIENTED_EDGE('',*,*,#856,.F.);
#856 = EDGE_CURVE('',#857,#422,#859,.T.);
#857 = VERTEX_POINT('',#858);
#858 = CARTESIAN_POINT('',(178.40577430725,57.5,8.1));
#859 = LINE('',#860,#861);
#860 = CARTESIAN_POINT('',(178.40577430725,57.5,8.1));
#861 = VECTOR('',#862,1.);
#862 = DIRECTION('',(6.E-17,1.,0.));
#863 = ORIENTED_EDGE('',*,*,#864,.T.);
#864 = EDGE_CURVE('',#857,#857,#865,.T.);
#865 = CIRCLE('',#866,2.55);
#866 = AXIS2_PLACEMENT_3D('',#867,#868,#869);
#867 = CARTESIAN_POINT('',(180.95577430725,57.5,8.1));
#868 = DIRECTION('',(-0.,-1.,-0.));
#869 = DIRECTION('',(-1.,0.,0.));
#870 = ORIENTED_EDGE('',*,*,#856,.T.);
#871 = ORIENTED_EDGE('',*,*,#421,.T.);
#872 = CYLINDRICAL_SURFACE('',#873,2.55);
#873 = AXIS2_PLACEMENT_3D('',#874,#875,#876);
#874 = CARTESIAN_POINT('',(180.95577430725,57.5,8.1));
#875 = DIRECTION('',(0.,1.,0.));
#876 = DIRECTION('',(-1.,0.,0.));
#877 = ADVANCED_FACE('',(#878,#881),#884,.T.);
#878 = FACE_BOUND('',#879,.T.);
#879 = EDGE_LOOP('',(#880));
#880 = ORIENTED_EDGE('',*,*,#556,.T.);
#881 = FACE_BOUND('',#882,.T.);
#882 = EDGE_LOOP('',(#883));
#883 = ORIENTED_EDGE('',*,*,#814,.F.);
#884 = PLANE('',#885);
#885 = AXIS2_PLACEMENT_3D('',#886,#887,#888);
#886 = CARTESIAN_POINT('',(149.04422569274,57.5,8.1));
#887 = DIRECTION('',(-0.,-1.,-0.));
#888 = DIRECTION('',(-1.,0.,0.));
#889 = ADVANCED_FACE('',(#890,#893),#896,.T.);
#890 = FACE_BOUND('',#891,.T.);
#891 = EDGE_LOOP('',(#892));
#892 = ORIENTED_EDGE('',*,*,#648,.T.);
#893 = FACE_BOUND('',#894,.T.);
#894 = EDGE_LOOP('',(#895));
#895 = ORIENTED_EDGE('',*,*,#755,.F.);
#896 = PLANE('',#897);
#897 = AXIS2_PLACEMENT_3D('',#898,#899,#900);
#898 = CARTESIAN_POINT('',(149.04422569275,57.5,-31.9));
#899 = DIRECTION('',(-0.,-1.,-0.));
#900 = DIRECTION('',(-1.,0.,0.));
#901 = ADVANCED_FACE('',(#902,#905),#908,.T.);
#902 = FACE_BOUND('',#903,.T.);
#903 = EDGE_LOOP('',(#904));
#904 = ORIENTED_EDGE('',*,*,#673,.T.);
#905 = FACE_BOUND('',#906,.T.);
#906 = EDGE_LOOP('',(#907));
#907 = ORIENTED_EDGE('',*,*,#864,.F.);
#908 = PLANE('',#909);
#909 = AXIS2_PLACEMENT_3D('',#910,#911,#912);
#910 = CARTESIAN_POINT('',(180.95577430725,57.5,8.1));
#911 = DIRECTION('',(-0.,-1.,-0.));
#912 = DIRECTION('',(-1.,0.,0.));
#913 = ADVANCED_FACE('',(#914,#917),#920,.T.);
#914 = FACE_BOUND('',#915,.T.);
#915 = EDGE_LOOP('',(#916));
#916 = ORIENTED_EDGE('',*,*,#715,.T.);
#917 = FACE_BOUND('',#918,.T.);
#918 = EDGE_LOOP('',(#919));
#919 = ORIENTED_EDGE('',*,*,#839,.F.);
#920 = PLANE('',#921);
#921 = AXIS2_PLACEMENT_3D('',#922,#923,#924);
#922 = CARTESIAN_POINT('',(180.95577430725,57.5,-31.9));
#923 = DIRECTION('',(-0.,-1.,-0.));
#924 = DIRECTION('',(-1.,0.,0.));
#925 = ( GEOMETRIC_REPRESENTATION_CONTEXT(3) 
GLOBAL_UNCERTAINTY_ASSIGNED_CONTEXT((#929)) GLOBAL_UNIT_ASSIGNED_CONTEXT
((#926,#927,#928)) REPRESENTATION_CONTEXT('Context #1',
  '3D Context with UNIT and UNCERTAINTY') );
#926 = ( LENGTH_UNIT() NAMED_UNIT(*) SI_UNIT(.MILLI.,.METRE.) );
#927 = ( NAMED_UNIT(*) PLANE_ANGLE_UNIT() SI_UNIT($,.RADIAN.) );
#928 = ( NAMED_UNIT(*) SI_UNIT($,.STERADIAN.) SOLID_ANGLE_UNIT() );
#929 = UNCERTAINTY_MEASURE_WITH_UNIT(LENGTH_MEASURE(1.E-07),#926,
  'distance_accuracy_value','confusion accuracy');
#930 = PRODUCT_RELATED_PRODUCT_CATEGORY('part',$,(#7));
#931 = MECHANICAL_DESIGN_GEOMETRIC_PRESENTATION_REPRESENTATION('',(#932)
  ,#925);
#932 = STYLED_ITEM('color',(#933),#15);
#933 = PRESENTATION_STYLE_ASSIGNMENT((#934,#940));
#934 = SURFACE_STYLE_USAGE(.BOTH.,#935);
#935 = SURFACE_SIDE_STYLE('',(#936));
#936 = SURFACE_STYLE_FILL_AREA(#937);
#937 = FILL_AREA_STYLE('',(#938));
#938 = FILL_AREA_STYLE_COLOUR('',#939);
#939 = COLOUR_RGB('',0.447058818107,0.474509808674,0.501960817233);
#940 = CURVE_STYLE('',#941,POSITIVE_LENGTH_MEASURE(0.1),#942);
#941 = DRAUGHTING_PRE_DEFINED_CURVE_FONT('continuous');
#942 = COLOUR_RGB('',9.803921802644E-02,9.803921802644E-02,
  9.803921802644E-02);
ENDSEC;
END-ISO-10303-21;
