ISO-10303-21;
HEADER;
FILE_DESCRIPTION(('FreeCAD Model'),'2;1');
FILE_NAME('Open CASCADE Shape Model','2026-08-04T09:31:46',('Author'),(
    ''),'Open CASCADE STEP processor 7.8','FreeCAD','Unknown');
FILE_SCHEMA(('AUTOMOTIVE_DESIGN { 1 0 10303 214 1 1 1 1 }'));
ENDSEC;
DATA;
#1 = APPLICATION_PROTOCOL_DEFINITION('international standard',
  'automotive_design',2000,#2);
#2 = APPLICATION_CONTEXT(
  'core data for automotive mechanical design processes');
#3 = SHAPE_DEFINITION_REPRESENTATION(#4,#10);
#4 = PRODUCT_DEFINITION_SHAPE('','',#5);
#5 = PRODUCT_DEFINITION('design','',#6,#9);
#6 = PRODUCT_DEFINITION_FORMATION('','',#7);
#7 = PRODUCT('Body','Body','',(#8));
#8 = PRODUCT_CONTEXT('',#2,'mechanical');
#9 = PRODUCT_DEFINITION_CONTEXT('part definition',#2,'design');
#10 = ADVANCED_BREP_SHAPE_REPRESENTATION('',(#11,#15),#788);
#11 = AXIS2_PLACEMENT_3D('',#12,#13,#14);
#12 = CARTESIAN_POINT('',(0.,0.,0.));
#13 = DIRECTION('',(0.,0.,1.));
#14 = DIRECTION('',(1.,0.,-0.));
#15 = MANIFOLD_SOLID_BREP('',#16);
#16 = CLOSED_SHELL('',(#17,#68,#99,#223,#269,#286,#311,#326,#357,#381,
    #405,#429,#453,#470,#501,#525,#549,#573,#597,#614,#639,#664,#689,
    #714,#734,#754,#771));
#17 = ADVANCED_FACE('',(#18,#52),#63,.F.);
#18 = FACE_BOUND('',#19,.F.);
#19 = EDGE_LOOP('',(#20,#30,#38,#46));
#20 = ORIENTED_EDGE('',*,*,#21,.T.);
#21 = EDGE_CURVE('',#22,#24,#26,.T.);
#22 = VERTEX_POINT('',#23);
#23 = CARTESIAN_POINT('',(0.,0.,0.));
#24 = VERTEX_POINT('',#25);
#25 = CARTESIAN_POINT('',(0.,0.,12.));
#26 = LINE('',#27,#28);
#27 = CARTESIAN_POINT('',(0.,0.,0.));
#28 = VECTOR('',#29,1.);
#29 = DIRECTION('',(0.,0.,1.));
#30 = ORIENTED_EDGE('',*,*,#31,.T.);
#31 = EDGE_CURVE('',#24,#32,#34,.T.);
#32 = VERTEX_POINT('',#33);
#33 = CARTESIAN_POINT('',(34.,0.,12.));
#34 = LINE('',#35,#36);
#35 = CARTESIAN_POINT('',(0.,0.,12.));
#36 = VECTOR('',#37,1.);
#37 = DIRECTION('',(1.,0.,0.));
#38 = ORIENTED_EDGE('',*,*,#39,.F.);
#39 = EDGE_CURVE('',#40,#32,#42,.T.);
#40 = VERTEX_POINT('',#41);
#41 = CARTESIAN_POINT('',(34.,0.,0.));
#42 = LINE('',#43,#44);
#43 = CARTESIAN_POINT('',(34.,0.,0.));
#44 = VECTOR('',#45,1.);
#45 = DIRECTION('',(0.,0.,1.));
#46 = ORIENTED_EDGE('',*,*,#47,.F.);
#47 = EDGE_CURVE('',#22,#40,#48,.T.);
#48 = LINE('',#49,#50);
#49 = CARTESIAN_POINT('',(0.,0.,0.));
#50 = VECTOR('',#51,1.);
#51 = DIRECTION('',(1.,0.,0.));
#52 = FACE_BOUND('',#53,.F.);
#53 = EDGE_LOOP('',(#54));
#54 = ORIENTED_EDGE('',*,*,#55,.T.);
#55 = EDGE_CURVE('',#56,#56,#58,.T.);
#56 = VERTEX_POINT('',#57);
#57 = CARTESIAN_POINT('',(21.,1.E-15,6.));
#58 = CIRCLE('',#59,4.);
#59 = AXIS2_PLACEMENT_3D('',#60,#61,#62);
#60 = CARTESIAN_POINT('',(17.,0.,6.));
#61 = DIRECTION('',(0.,-1.,0.));
#62 = DIRECTION('',(1.,0.,0.));
#63 = PLANE('',#64);
#64 = AXIS2_PLACEMENT_3D('',#65,#66,#67);
#65 = CARTESIAN_POINT('',(0.,0.,0.));
#66 = DIRECTION('',(0.,1.,0.));
#67 = DIRECTION('',(1.,0.,0.));
#68 = ADVANCED_FACE('',(#69),#94,.F.);
#69 = FACE_BOUND('',#70,.F.);
#70 = EDGE_LOOP('',(#71,#81,#87,#88));
#71 = ORIENTED_EDGE('',*,*,#72,.T.);
#72 = EDGE_CURVE('',#73,#75,#77,.T.);
#73 = VERTEX_POINT('',#74);
#74 = CARTESIAN_POINT('',(0.,20.,0.));
#75 = VERTEX_POINT('',#76);
#76 = CARTESIAN_POINT('',(0.,20.,12.));
#77 = LINE('',#78,#79);
#78 = CARTESIAN_POINT('',(0.,20.,0.));
#79 = VECTOR('',#80,1.);
#80 = DIRECTION('',(0.,0.,1.));
#81 = ORIENTED_EDGE('',*,*,#82,.T.);
#82 = EDGE_CURVE('',#75,#24,#83,.T.);
#83 = LINE('',#84,#85);
#84 = CARTESIAN_POINT('',(0.,20.,12.));
#85 = VECTOR('',#86,1.);
#86 = DIRECTION('',(0.,-1.,0.));
#87 = ORIENTED_EDGE('',*,*,#21,.F.);
#88 = ORIENTED_EDGE('',*,*,#89,.F.);
#89 = EDGE_CURVE('',#73,#22,#90,.T.);
#90 = LINE('',#91,#92);
#91 = CARTESIAN_POINT('',(0.,20.,0.));
#92 = VECTOR('',#93,1.);
#93 = DIRECTION('',(0.,-1.,0.));
#94 = PLANE('',#95);
#95 = AXIS2_PLACEMENT_3D('',#96,#97,#98);
#96 = CARTESIAN_POINT('',(0.,20.,0.));
#97 = DIRECTION('',(1.,0.,0.));
#98 = DIRECTION('',(0.,-1.,0.));
#99 = ADVANCED_FACE('',(#100,#118,#168),#218,.F.);
#100 = FACE_BOUND('',#101,.F.);
#101 = EDGE_LOOP('',(#102,#103,#111,#117));
#102 = ORIENTED_EDGE('',*,*,#47,.T.);
#103 = ORIENTED_EDGE('',*,*,#104,.T.);
#104 = EDGE_CURVE('',#40,#105,#107,.T.);
#105 = VERTEX_POINT('',#106);
#106 = CARTESIAN_POINT('',(34.,20.,0.));
#107 = LINE('',#108,#109);
#108 = CARTESIAN_POINT('',(34.,0.,0.));
#109 = VECTOR('',#110,1.);
#110 = DIRECTION('',(0.,1.,0.));
#111 = ORIENTED_EDGE('',*,*,#112,.T.);
#112 = EDGE_CURVE('',#105,#73,#113,.T.);
#113 = LINE('',#114,#115);
#114 = CARTESIAN_POINT('',(34.,20.,0.));
#115 = VECTOR('',#116,1.);
#116 = DIRECTION('',(-1.,0.,0.));
#117 = ORIENTED_EDGE('',*,*,#89,.T.);
#118 = FACE_BOUND('',#119,.F.);
#119 = EDGE_LOOP('',(#120,#130,#138,#146,#154,#162));
#120 = ORIENTED_EDGE('',*,*,#121,.F.);
#121 = EDGE_CURVE('',#122,#124,#126,.T.);
#122 = VERTEX_POINT('',#123);
#123 = CARTESIAN_POINT('',(30.76721039511,7.824998418479,0.));
#124 = VERTEX_POINT('',#125);
#125 = CARTESIAN_POINT('',(30.767210662356,12.174998341332,0.));
#126 = LINE('',#127,#128);
#127 = CARTESIAN_POINT('',(30.76721039511,7.824998418479,0.));
#128 = VECTOR('',#129,1.);
#129 = DIRECTION('',(6.1435919E-08,1.,0.));
#130 = ORIENTED_EDGE('',*,*,#131,.F.);
#131 = EDGE_CURVE('',#132,#122,#134,.T.);
#132 = VERTEX_POINT('',#133);
#133 = CARTESIAN_POINT('',(26.999999599131,5.649999074232,0.));
#134 = LINE('',#135,#136);
#135 = CARTESIAN_POINT('',(26.999999599131,5.649999074232,0.));
#136 = VECTOR('',#137,1.);
#137 = DIRECTION('',(0.866025485699,0.49999985812,0.));
#138 = ORIENTED_EDGE('',*,*,#139,.F.);
#139 = EDGE_CURVE('',#140,#132,#142,.T.);
#140 = VERTEX_POINT('',#141);
#141 = CARTESIAN_POINT('',(23.232789738513,7.825000038574,0.));
#142 = LINE('',#143,#144);
#143 = CARTESIAN_POINT('',(23.232789738513,7.825000038574,0.));
#144 = VECTOR('',#145,1.);
#145 = DIRECTION('',(0.866025270673,-0.500000230555,0.));
#146 = ORIENTED_EDGE('',*,*,#147,.F.);
#147 = EDGE_CURVE('',#148,#140,#150,.T.);
#148 = VERTEX_POINT('',#149);
#149 = CARTESIAN_POINT('',(23.23279000576,12.174999961426,0.));
#150 = LINE('',#151,#152);
#151 = CARTESIAN_POINT('',(23.23279000576,12.174999961426,0.));
#152 = VECTOR('',#153,1.);
#153 = DIRECTION('',(-6.1435919E-08,-1.,0.));
#154 = ORIENTED_EDGE('',*,*,#155,.F.);
#155 = EDGE_CURVE('',#156,#148,#158,.T.);
#156 = VERTEX_POINT('',#157);
#157 = CARTESIAN_POINT('',(27.000000801739,14.349999305674,0.));
#158 = LINE('',#159,#160);
#159 = CARTESIAN_POINT('',(27.000000801739,14.349999305674,0.));
#160 = VECTOR('',#161,1.);
#161 = DIRECTION('',(-0.866025485699,-0.49999985812,0.));
#162 = ORIENTED_EDGE('',*,*,#163,.F.);
#163 = EDGE_CURVE('',#124,#156,#164,.T.);
#164 = LINE('',#165,#166);
#165 = CARTESIAN_POINT('',(30.767210662356,12.174998341332,0.));
#166 = VECTOR('',#167,1.);
#167 = DIRECTION('',(-0.866025270673,0.500000230555,-0.));
#168 = FACE_BOUND('',#169,.F.);
#169 = EDGE_LOOP('',(#170,#180,#188,#196,#204,#212));
#170 = ORIENTED_EDGE('',*,*,#171,.T.);
#171 = EDGE_CURVE('',#172,#174,#176,.T.);
#172 = VERTEX_POINT('',#173);
#173 = CARTESIAN_POINT('',(7.,5.649999768558,0.));
#174 = VERTEX_POINT('',#175);
#175 = CARTESIAN_POINT('',(3.23278960489,7.824999807132,0.));
#176 = LINE('',#177,#178);
#177 = CARTESIAN_POINT('',(7.,5.649999768558,0.));
#178 = VECTOR('',#179,1.);
#179 = DIRECTION('',(-0.866025393545,0.500000017735,-0.));
#180 = ORIENTED_EDGE('',*,*,#181,.T.);
#181 = EDGE_CURVE('',#174,#182,#184,.T.);
#182 = VERTEX_POINT('',#183);
#183 = CARTESIAN_POINT('',(3.23278960489,12.174999729984,0.));
#184 = LINE('',#185,#186);
#185 = CARTESIAN_POINT('',(3.23278960489,7.824999807132,0.));
#186 = VECTOR('',#187,1.);
#187 = DIRECTION('',(0.,1.,0.));
#188 = ORIENTED_EDGE('',*,*,#189,.T.);
#189 = EDGE_CURVE('',#182,#190,#192,.T.);
#190 = VERTEX_POINT('',#191);
#191 = CARTESIAN_POINT('',(7.,14.349999768558,0.));
#192 = LINE('',#193,#194);
#193 = CARTESIAN_POINT('',(3.23278960489,12.174999729984,0.));
#194 = VECTOR('',#195,1.);
#195 = DIRECTION('',(0.866025393545,0.500000017735,0.));
#196 = ORIENTED_EDGE('',*,*,#197,.T.);
#197 = EDGE_CURVE('',#190,#198,#200,.T.);
#198 = VERTEX_POINT('',#199);
#199 = CARTESIAN_POINT('',(10.767210528733,12.174999961426,0.));
#200 = LINE('',#201,#202);
#201 = CARTESIAN_POINT('',(7.,14.349999768558,0.));
#202 = VECTOR('',#203,1.);
#203 = DIRECTION('',(0.866025424263,-0.49999996453,0.));
#204 = ORIENTED_EDGE('',*,*,#205,.T.);
#205 = EDGE_CURVE('',#198,#206,#208,.T.);
#206 = VERTEX_POINT('',#207);
#207 = CARTESIAN_POINT('',(10.767210261487,7.825000038574,0.));
#208 = LINE('',#209,#210);
#209 = CARTESIAN_POINT('',(10.767210528733,12.174999961426,0.));
#210 = VECTOR('',#211,1.);
#211 = DIRECTION('',(-6.1435919E-08,-1.,0.));
#212 = ORIENTED_EDGE('',*,*,#213,.T.);
#213 = EDGE_CURVE('',#206,#172,#214,.T.);
#214 = LINE('',#215,#216);
#215 = CARTESIAN_POINT('',(10.767210261487,7.825000038574,0.));
#216 = VECTOR('',#217,1.);
#217 = DIRECTION('',(-0.866025362827,-0.50000007094,0.));
#218 = PLANE('',#219);
#219 = AXIS2_PLACEMENT_3D('',#220,#221,#222);
#220 = CARTESIAN_POINT('',(17.,10.,0.));
#221 = DIRECTION('',(0.,0.,1.));
#222 = DIRECTION('',(1.,0.,0.));
#223 = ADVANCED_FACE('',(#224,#242,#253),#264,.T.);
#224 = FACE_BOUND('',#225,.T.);
#225 = EDGE_LOOP('',(#226,#227,#235,#241));
#226 = ORIENTED_EDGE('',*,*,#31,.T.);
#227 = ORIENTED_EDGE('',*,*,#228,.T.);
#228 = EDGE_CURVE('',#32,#229,#231,.T.);
#229 = VERTEX_POINT('',#230);
#230 = CARTESIAN_POINT('',(34.,20.,12.));
#231 = LINE('',#232,#233);
#232 = CARTESIAN_POINT('',(34.,0.,12.));
#233 = VECTOR('',#234,1.);
#234 = DIRECTION('',(0.,1.,0.));
#235 = ORIENTED_EDGE('',*,*,#236,.T.);
#236 = EDGE_CURVE('',#229,#75,#237,.T.);
#237 = LINE('',#238,#239);
#238 = CARTESIAN_POINT('',(34.,20.,12.));
#239 = VECTOR('',#240,1.);
#240 = DIRECTION('',(-1.,0.,0.));
#241 = ORIENTED_EDGE('',*,*,#82,.T.);
#242 = FACE_BOUND('',#243,.T.);
#243 = EDGE_LOOP('',(#244));
#244 = ORIENTED_EDGE('',*,*,#245,.F.);
#245 = EDGE_CURVE('',#246,#246,#248,.T.);
#246 = VERTEX_POINT('',#247);
#247 = CARTESIAN_POINT('',(11.5,10.,12.));
#248 = CIRCLE('',#249,4.5);
#249 = AXIS2_PLACEMENT_3D('',#250,#251,#252);
#250 = CARTESIAN_POINT('',(7.,10.,12.));
#251 = DIRECTION('',(0.,0.,1.));
#252 = DIRECTION('',(1.,0.,0.));
#253 = FACE_BOUND('',#254,.T.);
#254 = EDGE_LOOP('',(#255));
#255 = ORIENTED_EDGE('',*,*,#256,.F.);
#256 = EDGE_CURVE('',#257,#257,#259,.T.);
#257 = VERTEX_POINT('',#258);
#258 = CARTESIAN_POINT('',(31.5,10.,12.));
#259 = CIRCLE('',#260,4.5);
#260 = AXIS2_PLACEMENT_3D('',#261,#262,#263);
#261 = CARTESIAN_POINT('',(27.,10.,12.));
#262 = DIRECTION('',(0.,0.,1.));
#263 = DIRECTION('',(1.,0.,0.));
#264 = PLANE('',#265);
#265 = AXIS2_PLACEMENT_3D('',#266,#267,#268);
#266 = CARTESIAN_POINT('',(17.,10.,12.));
#267 = DIRECTION('',(0.,0.,1.));
#268 = DIRECTION('',(1.,0.,0.));
#269 = ADVANCED_FACE('',(#270),#281,.F.);
#270 = FACE_BOUND('',#271,.F.);
#271 = EDGE_LOOP('',(#272,#273,#274,#280));
#272 = ORIENTED_EDGE('',*,*,#39,.T.);
#273 = ORIENTED_EDGE('',*,*,#228,.T.);
#274 = ORIENTED_EDGE('',*,*,#275,.F.);
#275 = EDGE_CURVE('',#105,#229,#276,.T.);
#276 = LINE('',#277,#278);
#277 = CARTESIAN_POINT('',(34.,20.,0.));
#278 = VECTOR('',#279,1.);
#279 = DIRECTION('',(0.,0.,1.));
#280 = ORIENTED_EDGE('',*,*,#104,.F.);
#281 = PLANE('',#282);
#282 = AXIS2_PLACEMENT_3D('',#283,#284,#285);
#283 = CARTESIAN_POINT('',(34.,0.,0.));
#284 = DIRECTION('',(-1.,0.,0.));
#285 = DIRECTION('',(0.,1.,0.));
#286 = ADVANCED_FACE('',(#287),#306,.F.);
#287 = FACE_BOUND('',#288,.F.);
#288 = EDGE_LOOP('',(#289,#290,#298,#305));
#289 = ORIENTED_EDGE('',*,*,#55,.F.);
#290 = ORIENTED_EDGE('',*,*,#291,.T.);
#291 = EDGE_CURVE('',#56,#292,#294,.T.);
#292 = VERTEX_POINT('',#293);
#293 = CARTESIAN_POINT('',(21.,20.,6.));
#294 = LINE('',#295,#296);
#295 = CARTESIAN_POINT('',(21.,1.33E-15,6.));
#296 = VECTOR('',#297,1.);
#297 = DIRECTION('',(0.,1.,-2.2E-16));
#298 = ORIENTED_EDGE('',*,*,#299,.T.);
#299 = EDGE_CURVE('',#292,#292,#300,.T.);
#300 = CIRCLE('',#301,4.);
#301 = AXIS2_PLACEMENT_3D('',#302,#303,#304);
#302 = CARTESIAN_POINT('',(17.,20.,6.));
#303 = DIRECTION('',(0.,-1.,2.2E-16));
#304 = DIRECTION('',(1.,0.,0.));
#305 = ORIENTED_EDGE('',*,*,#291,.F.);
#306 = CYLINDRICAL_SURFACE('',#307,4.);
#307 = AXIS2_PLACEMENT_3D('',#308,#309,#310);
#308 = CARTESIAN_POINT('',(17.,1.33E-15,6.));
#309 = DIRECTION('',(0.,-1.,2.2E-16));
#310 = DIRECTION('',(1.,0.,0.));
#311 = ADVANCED_FACE('',(#312,#318),#321,.F.);
#312 = FACE_BOUND('',#313,.F.);
#313 = EDGE_LOOP('',(#314,#315,#316,#317));
#314 = ORIENTED_EDGE('',*,*,#275,.T.);
#315 = ORIENTED_EDGE('',*,*,#236,.T.);
#316 = ORIENTED_EDGE('',*,*,#72,.F.);
#317 = ORIENTED_EDGE('',*,*,#112,.F.);
#318 = FACE_BOUND('',#319,.F.);
#319 = EDGE_LOOP('',(#320));
#320 = ORIENTED_EDGE('',*,*,#299,.F.);
#321 = PLANE('',#322);
#322 = AXIS2_PLACEMENT_3D('',#323,#324,#325);
#323 = CARTESIAN_POINT('',(34.,20.,0.));
#324 = DIRECTION('',(0.,-1.,0.));
#325 = DIRECTION('',(-1.,0.,0.));
#326 = ADVANCED_FACE('',(#327),#352,.T.);
#327 = FACE_BOUND('',#328,.T.);
#328 = EDGE_LOOP('',(#329,#337,#345,#351));
#329 = ORIENTED_EDGE('',*,*,#330,.T.);
#330 = EDGE_CURVE('',#122,#331,#333,.T.);
#331 = VERTEX_POINT('',#332);
#332 = CARTESIAN_POINT('',(30.76721039511,7.824998418479,5.));
#333 = LINE('',#334,#335);
#334 = CARTESIAN_POINT('',(30.76721039511,7.824998418479,0.));
#335 = VECTOR('',#336,1.);
#336 = DIRECTION('',(0.,0.,1.));
#337 = ORIENTED_EDGE('',*,*,#338,.T.);
#338 = EDGE_CURVE('',#331,#339,#341,.T.);
#339 = VERTEX_POINT('',#340);
#340 = CARTESIAN_POINT('',(30.767210662356,12.174998341332,5.));
#341 = LINE('',#342,#343);
#342 = CARTESIAN_POINT('',(30.76721039511,7.824998418479,5.));
#343 = VECTOR('',#344,1.);
#344 = DIRECTION('',(6.1435919E-08,1.,0.));
#345 = ORIENTED_EDGE('',*,*,#346,.F.);
#346 = EDGE_CURVE('',#124,#339,#347,.T.);
#347 = LINE('',#348,#349);
#348 = CARTESIAN_POINT('',(30.767210662356,12.174998341332,0.));
#349 = VECTOR('',#350,1.);
#350 = DIRECTION('',(0.,0.,1.));
#351 = ORIENTED_EDGE('',*,*,#121,.F.);
#352 = PLANE('',#353);
#353 = AXIS2_PLACEMENT_3D('',#354,#355,#356);
#354 = CARTESIAN_POINT('',(30.76721039511,7.824998418479,0.));
#355 = DIRECTION('',(-1.,6.1435919E-08,0.));
#356 = DIRECTION('',(6.1435919E-08,1.,0.));
#357 = ADVANCED_FACE('',(#358),#376,.T.);
#358 = FACE_BOUND('',#359,.T.);
#359 = EDGE_LOOP('',(#360,#361,#369,#375));
#360 = ORIENTED_EDGE('',*,*,#346,.T.);
#361 = ORIENTED_EDGE('',*,*,#362,.T.);
#362 = EDGE_CURVE('',#339,#363,#365,.T.);
#363 = VERTEX_POINT('',#364);
#364 = CARTESIAN_POINT('',(27.000000801739,14.349999305674,5.));
#365 = LINE('',#366,#367);
#366 = CARTESIAN_POINT('',(30.767210662356,12.174998341332,5.));
#367 = VECTOR('',#368,1.);
#368 = DIRECTION('',(-0.866025270673,0.500000230555,-0.));
#369 = ORIENTED_EDGE('',*,*,#370,.F.);
#370 = EDGE_CURVE('',#156,#363,#371,.T.);
#371 = LINE('',#372,#373);
#372 = CARTESIAN_POINT('',(27.000000801739,14.349999305674,0.));
#373 = VECTOR('',#374,1.);
#374 = DIRECTION('',(0.,0.,1.));
#375 = ORIENTED_EDGE('',*,*,#163,.F.);
#376 = PLANE('',#377);
#377 = AXIS2_PLACEMENT_3D('',#378,#379,#380);
#378 = CARTESIAN_POINT('',(30.767210662356,12.174998341332,0.));
#379 = DIRECTION('',(-0.500000230555,-0.866025270673,0.));
#380 = DIRECTION('',(-0.866025270673,0.500000230555,0.));
#381 = ADVANCED_FACE('',(#382),#400,.T.);
#382 = FACE_BOUND('',#383,.T.);
#383 = EDGE_LOOP('',(#384,#385,#393,#399));
#384 = ORIENTED_EDGE('',*,*,#370,.T.);
#385 = ORIENTED_EDGE('',*,*,#386,.T.);
#386 = EDGE_CURVE('',#363,#387,#389,.T.);
#387 = VERTEX_POINT('',#388);
#388 = CARTESIAN_POINT('',(23.23279000576,12.174999961426,5.));
#389 = LINE('',#390,#391);
#390 = CARTESIAN_POINT('',(27.000000801739,14.349999305674,5.));
#391 = VECTOR('',#392,1.);
#392 = DIRECTION('',(-0.866025485699,-0.49999985812,0.));
#393 = ORIENTED_EDGE('',*,*,#394,.F.);
#394 = EDGE_CURVE('',#148,#387,#395,.T.);
#395 = LINE('',#396,#397);
#396 = CARTESIAN_POINT('',(23.23279000576,12.174999961426,0.));
#397 = VECTOR('',#398,1.);
#398 = DIRECTION('',(0.,0.,1.));
#399 = ORIENTED_EDGE('',*,*,#155,.F.);
#400 = PLANE('',#401);
#401 = AXIS2_PLACEMENT_3D('',#402,#403,#404);
#402 = CARTESIAN_POINT('',(27.000000801739,14.349999305674,0.));
#403 = DIRECTION('',(0.49999985812,-0.866025485699,0.));
#404 = DIRECTION('',(-0.866025485699,-0.49999985812,0.));
#405 = ADVANCED_FACE('',(#406),#424,.T.);
#406 = FACE_BOUND('',#407,.T.);
#407 = EDGE_LOOP('',(#408,#409,#417,#423));
#408 = ORIENTED_EDGE('',*,*,#394,.T.);
#409 = ORIENTED_EDGE('',*,*,#410,.T.);
#410 = EDGE_CURVE('',#387,#411,#413,.T.);
#411 = VERTEX_POINT('',#412);
#412 = CARTESIAN_POINT('',(23.232789738513,7.825000038574,5.));
#413 = LINE('',#414,#415);
#414 = CARTESIAN_POINT('',(23.23279000576,12.174999961426,5.));
#415 = VECTOR('',#416,1.);
#416 = DIRECTION('',(-6.1435919E-08,-1.,0.));
#417 = ORIENTED_EDGE('',*,*,#418,.F.);
#418 = EDGE_CURVE('',#140,#411,#419,.T.);
#419 = LINE('',#420,#421);
#420 = CARTESIAN_POINT('',(23.232789738513,7.825000038574,0.));
#421 = VECTOR('',#422,1.);
#422 = DIRECTION('',(0.,0.,1.));
#423 = ORIENTED_EDGE('',*,*,#147,.F.);
#424 = PLANE('',#425);
#425 = AXIS2_PLACEMENT_3D('',#426,#427,#428);
#426 = CARTESIAN_POINT('',(23.23279000576,12.174999961426,0.));
#427 = DIRECTION('',(1.,-6.1435919E-08,0.));
#428 = DIRECTION('',(-6.1435919E-08,-1.,0.));
#429 = ADVANCED_FACE('',(#430),#448,.T.);
#430 = FACE_BOUND('',#431,.T.);
#431 = EDGE_LOOP('',(#432,#433,#441,#447));
#432 = ORIENTED_EDGE('',*,*,#418,.T.);
#433 = ORIENTED_EDGE('',*,*,#434,.T.);
#434 = EDGE_CURVE('',#411,#435,#437,.T.);
#435 = VERTEX_POINT('',#436);
#436 = CARTESIAN_POINT('',(26.999999599131,5.649999074232,5.));
#437 = LINE('',#438,#439);
#438 = CARTESIAN_POINT('',(23.232789738513,7.825000038574,5.));
#439 = VECTOR('',#440,1.);
#440 = DIRECTION('',(0.866025270673,-0.500000230555,0.));
#441 = ORIENTED_EDGE('',*,*,#442,.F.);
#442 = EDGE_CURVE('',#132,#435,#443,.T.);
#443 = LINE('',#444,#445);
#444 = CARTESIAN_POINT('',(26.999999599131,5.649999074232,0.));
#445 = VECTOR('',#446,1.);
#446 = DIRECTION('',(0.,0.,1.));
#447 = ORIENTED_EDGE('',*,*,#139,.F.);
#448 = PLANE('',#449);
#449 = AXIS2_PLACEMENT_3D('',#450,#451,#452);
#450 = CARTESIAN_POINT('',(23.232789738513,7.825000038574,0.));
#451 = DIRECTION('',(0.500000230555,0.866025270673,0.));
#452 = DIRECTION('',(0.866025270673,-0.500000230555,0.));
#453 = ADVANCED_FACE('',(#454),#465,.T.);
#454 = FACE_BOUND('',#455,.T.);
#455 = EDGE_LOOP('',(#456,#457,#463,#464));
#456 = ORIENTED_EDGE('',*,*,#442,.T.);
#457 = ORIENTED_EDGE('',*,*,#458,.T.);
#458 = EDGE_CURVE('',#435,#331,#459,.T.);
#459 = LINE('',#460,#461);
#460 = CARTESIAN_POINT('',(26.999999599131,5.649999074232,5.));
#461 = VECTOR('',#462,1.);
#462 = DIRECTION('',(0.866025485699,0.49999985812,0.));
#463 = ORIENTED_EDGE('',*,*,#330,.F.);
#464 = ORIENTED_EDGE('',*,*,#131,.F.);
#465 = PLANE('',#466);
#466 = AXIS2_PLACEMENT_3D('',#467,#468,#469);
#467 = CARTESIAN_POINT('',(26.999999599131,5.649999074232,0.));
#468 = DIRECTION('',(-0.49999985812,0.866025485699,0.));
#469 = DIRECTION('',(0.866025485699,0.49999985812,0.));
#470 = ADVANCED_FACE('',(#471),#496,.F.);
#471 = FACE_BOUND('',#472,.F.);
#472 = EDGE_LOOP('',(#473,#481,#489,#495));
#473 = ORIENTED_EDGE('',*,*,#474,.T.);
#474 = EDGE_CURVE('',#172,#475,#477,.T.);
#475 = VERTEX_POINT('',#476);
#476 = CARTESIAN_POINT('',(7.,5.649999768558,5.));
#477 = LINE('',#478,#479);
#478 = CARTESIAN_POINT('',(7.,5.649999768558,0.));
#479 = VECTOR('',#480,1.);
#480 = DIRECTION('',(0.,0.,1.));
#481 = ORIENTED_EDGE('',*,*,#482,.T.);
#482 = EDGE_CURVE('',#475,#483,#485,.T.);
#483 = VERTEX_POINT('',#484);
#484 = CARTESIAN_POINT('',(3.23278960489,7.824999807132,5.));
#485 = LINE('',#486,#487);
#486 = CARTESIAN_POINT('',(7.,5.649999768558,5.));
#487 = VECTOR('',#488,1.);
#488 = DIRECTION('',(-0.866025393545,0.500000017735,-0.));
#489 = ORIENTED_EDGE('',*,*,#490,.F.);
#490 = EDGE_CURVE('',#174,#483,#491,.T.);
#491 = LINE('',#492,#493);
#492 = CARTESIAN_POINT('',(3.23278960489,7.824999807132,0.));
#493 = VECTOR('',#494,1.);
#494 = DIRECTION('',(0.,0.,1.));
#495 = ORIENTED_EDGE('',*,*,#171,.F.);
#496 = PLANE('',#497);
#497 = AXIS2_PLACEMENT_3D('',#498,#499,#500);
#498 = CARTESIAN_POINT('',(7.,5.649999768558,0.));
#499 = DIRECTION('',(-0.500000017735,-0.866025393545,0.));
#500 = DIRECTION('',(-0.866025393545,0.500000017735,0.));
#501 = ADVANCED_FACE('',(#502),#520,.F.);
#502 = FACE_BOUND('',#503,.F.);
#503 = EDGE_LOOP('',(#504,#512,#518,#519));
#504 = ORIENTED_EDGE('',*,*,#505,.T.);
#505 = EDGE_CURVE('',#206,#506,#508,.T.);
#506 = VERTEX_POINT('',#507);
#507 = CARTESIAN_POINT('',(10.767210261487,7.825000038574,5.));
#508 = LINE('',#509,#510);
#509 = CARTESIAN_POINT('',(10.767210261487,7.825000038574,0.));
#510 = VECTOR('',#511,1.);
#511 = DIRECTION('',(0.,0.,1.));
#512 = ORIENTED_EDGE('',*,*,#513,.T.);
#513 = EDGE_CURVE('',#506,#475,#514,.T.);
#514 = LINE('',#515,#516);
#515 = CARTESIAN_POINT('',(10.767210261487,7.825000038574,5.));
#516 = VECTOR('',#517,1.);
#517 = DIRECTION('',(-0.866025362827,-0.50000007094,0.));
#518 = ORIENTED_EDGE('',*,*,#474,.F.);
#519 = ORIENTED_EDGE('',*,*,#213,.F.);
#520 = PLANE('',#521);
#521 = AXIS2_PLACEMENT_3D('',#522,#523,#524);
#522 = CARTESIAN_POINT('',(10.767210261487,7.825000038574,0.));
#523 = DIRECTION('',(0.50000007094,-0.866025362827,0.));
#524 = DIRECTION('',(-0.866025362827,-0.50000007094,0.));
#525 = ADVANCED_FACE('',(#526),#544,.F.);
#526 = FACE_BOUND('',#527,.F.);
#527 = EDGE_LOOP('',(#528,#536,#542,#543));
#528 = ORIENTED_EDGE('',*,*,#529,.T.);
#529 = EDGE_CURVE('',#198,#530,#532,.T.);
#530 = VERTEX_POINT('',#531);
#531 = CARTESIAN_POINT('',(10.767210528733,12.174999961426,5.));
#532 = LINE('',#533,#534);
#533 = CARTESIAN_POINT('',(10.767210528733,12.174999961426,0.));
#534 = VECTOR('',#535,1.);
#535 = DIRECTION('',(0.,0.,1.));
#536 = ORIENTED_EDGE('',*,*,#537,.T.);
#537 = EDGE_CURVE('',#530,#506,#538,.T.);
#538 = LINE('',#539,#540);
#539 = CARTESIAN_POINT('',(10.767210528733,12.174999961426,5.));
#540 = VECTOR('',#541,1.);
#541 = DIRECTION('',(-6.1435919E-08,-1.,0.));
#542 = ORIENTED_EDGE('',*,*,#505,.F.);
#543 = ORIENTED_EDGE('',*,*,#205,.F.);
#544 = PLANE('',#545);
#545 = AXIS2_PLACEMENT_3D('',#546,#547,#548);
#546 = CARTESIAN_POINT('',(10.767210528733,12.174999961426,0.));
#547 = DIRECTION('',(1.,-6.1435919E-08,0.));
#548 = DIRECTION('',(-6.1435919E-08,-1.,0.));
#549 = ADVANCED_FACE('',(#550),#568,.F.);
#550 = FACE_BOUND('',#551,.F.);
#551 = EDGE_LOOP('',(#552,#560,#566,#567));
#552 = ORIENTED_EDGE('',*,*,#553,.T.);
#553 = EDGE_CURVE('',#190,#554,#556,.T.);
#554 = VERTEX_POINT('',#555);
#555 = CARTESIAN_POINT('',(7.,14.349999768558,5.));
#556 = LINE('',#557,#558);
#557 = CARTESIAN_POINT('',(7.,14.349999768558,0.));
#558 = VECTOR('',#559,1.);
#559 = DIRECTION('',(0.,0.,1.));
#560 = ORIENTED_EDGE('',*,*,#561,.T.);
#561 = EDGE_CURVE('',#554,#530,#562,.T.);
#562 = LINE('',#563,#564);
#563 = CARTESIAN_POINT('',(7.,14.349999768558,5.));
#564 = VECTOR('',#565,1.);
#565 = DIRECTION('',(0.866025424263,-0.49999996453,0.));
#566 = ORIENTED_EDGE('',*,*,#529,.F.);
#567 = ORIENTED_EDGE('',*,*,#197,.F.);
#568 = PLANE('',#569);
#569 = AXIS2_PLACEMENT_3D('',#570,#571,#572);
#570 = CARTESIAN_POINT('',(7.,14.349999768558,0.));
#571 = DIRECTION('',(0.49999996453,0.866025424263,0.));
#572 = DIRECTION('',(0.866025424263,-0.49999996453,0.));
#573 = ADVANCED_FACE('',(#574),#592,.F.);
#574 = FACE_BOUND('',#575,.F.);
#575 = EDGE_LOOP('',(#576,#584,#590,#591));
#576 = ORIENTED_EDGE('',*,*,#577,.T.);
#577 = EDGE_CURVE('',#182,#578,#580,.T.);
#578 = VERTEX_POINT('',#579);
#579 = CARTESIAN_POINT('',(3.23278960489,12.174999729984,5.));
#580 = LINE('',#581,#582);
#581 = CARTESIAN_POINT('',(3.23278960489,12.174999729984,0.));
#582 = VECTOR('',#583,1.);
#583 = DIRECTION('',(0.,0.,1.));
#584 = ORIENTED_EDGE('',*,*,#585,.T.);
#585 = EDGE_CURVE('',#578,#554,#586,.T.);
#586 = LINE('',#587,#588);
#587 = CARTESIAN_POINT('',(3.23278960489,12.174999729984,5.));
#588 = VECTOR('',#589,1.);
#589 = DIRECTION('',(0.866025393545,0.500000017735,0.));
#590 = ORIENTED_EDGE('',*,*,#553,.F.);
#591 = ORIENTED_EDGE('',*,*,#189,.F.);
#592 = PLANE('',#593);
#593 = AXIS2_PLACEMENT_3D('',#594,#595,#596);
#594 = CARTESIAN_POINT('',(3.23278960489,12.174999729984,0.));
#595 = DIRECTION('',(-0.500000017735,0.866025393545,0.));
#596 = DIRECTION('',(0.866025393545,0.500000017735,0.));
#597 = ADVANCED_FACE('',(#598),#609,.F.);
#598 = FACE_BOUND('',#599,.F.);
#599 = EDGE_LOOP('',(#600,#601,#607,#608));
#600 = ORIENTED_EDGE('',*,*,#490,.T.);
#601 = ORIENTED_EDGE('',*,*,#602,.T.);
#602 = EDGE_CURVE('',#483,#578,#603,.T.);
#603 = LINE('',#604,#605);
#604 = CARTESIAN_POINT('',(3.23278960489,7.824999807132,5.));
#605 = VECTOR('',#606,1.);
#606 = DIRECTION('',(0.,1.,0.));
#607 = ORIENTED_EDGE('',*,*,#577,.F.);
#608 = ORIENTED_EDGE('',*,*,#181,.F.);
#609 = PLANE('',#610);
#610 = AXIS2_PLACEMENT_3D('',#611,#612,#613);
#611 = CARTESIAN_POINT('',(3.23278960489,7.824999807132,0.));
#612 = DIRECTION('',(-1.,0.,0.));
#613 = DIRECTION('',(0.,1.,0.));
#614 = ADVANCED_FACE('',(#615),#634,.F.);
#615 = FACE_BOUND('',#616,.T.);
#616 = EDGE_LOOP('',(#617,#625,#626,#627));
#617 = ORIENTED_EDGE('',*,*,#618,.F.);
#618 = EDGE_CURVE('',#246,#619,#621,.T.);
#619 = VERTEX_POINT('',#620);
#620 = CARTESIAN_POINT('',(11.5,10.,9.67));
#621 = LINE('',#622,#623);
#622 = CARTESIAN_POINT('',(11.5,10.,12.));
#623 = VECTOR('',#624,1.);
#624 = DIRECTION('',(0.,0.,-1.));
#625 = ORIENTED_EDGE('',*,*,#245,.T.);
#626 = ORIENTED_EDGE('',*,*,#618,.T.);
#627 = ORIENTED_EDGE('',*,*,#628,.F.);
#628 = EDGE_CURVE('',#619,#619,#629,.T.);
#629 = CIRCLE('',#630,4.5);
#630 = AXIS2_PLACEMENT_3D('',#631,#632,#633);
#631 = CARTESIAN_POINT('',(7.,10.,9.67));
#632 = DIRECTION('',(0.,0.,1.));
#633 = DIRECTION('',(1.,0.,0.));
#634 = CYLINDRICAL_SURFACE('',#635,4.5);
#635 = AXIS2_PLACEMENT_3D('',#636,#637,#638);
#636 = CARTESIAN_POINT('',(7.,10.,12.));
#637 = DIRECTION('',(-0.,-0.,-1.));
#638 = DIRECTION('',(1.,0.,0.));
#639 = ADVANCED_FACE('',(#640),#659,.F.);
#640 = FACE_BOUND('',#641,.T.);
#641 = EDGE_LOOP('',(#642,#650,#651,#652));
#642 = ORIENTED_EDGE('',*,*,#643,.F.);
#643 = EDGE_CURVE('',#257,#644,#646,.T.);
#644 = VERTEX_POINT('',#645);
#645 = CARTESIAN_POINT('',(31.5,10.,9.67));
#646 = LINE('',#647,#648);
#647 = CARTESIAN_POINT('',(31.5,10.,12.));
#648 = VECTOR('',#649,1.);
#649 = DIRECTION('',(0.,0.,-1.));
#650 = ORIENTED_EDGE('',*,*,#256,.T.);
#651 = ORIENTED_EDGE('',*,*,#643,.T.);
#652 = ORIENTED_EDGE('',*,*,#653,.F.);
#653 = EDGE_CURVE('',#644,#644,#654,.T.);
#654 = CIRCLE('',#655,4.5);
#655 = AXIS2_PLACEMENT_3D('',#656,#657,#658);
#656 = CARTESIAN_POINT('',(27.,10.,9.67));
#657 = DIRECTION('',(0.,0.,1.));
#658 = DIRECTION('',(1.,0.,0.));
#659 = CYLINDRICAL_SURFACE('',#660,4.5);
#660 = AXIS2_PLACEMENT_3D('',#661,#662,#663);
#661 = CARTESIAN_POINT('',(27.,10.,12.));
#662 = DIRECTION('',(-0.,-0.,-1.));
#663 = DIRECTION('',(1.,0.,0.));
#664 = ADVANCED_FACE('',(#665,#673),#684,.F.);
#665 = FACE_BOUND('',#666,.F.);
#666 = EDGE_LOOP('',(#667,#668,#669,#670,#671,#672));
#667 = ORIENTED_EDGE('',*,*,#338,.T.);
#668 = ORIENTED_EDGE('',*,*,#362,.T.);
#669 = ORIENTED_EDGE('',*,*,#386,.T.);
#670 = ORIENTED_EDGE('',*,*,#410,.T.);
#671 = ORIENTED_EDGE('',*,*,#434,.T.);
#672 = ORIENTED_EDGE('',*,*,#458,.T.);
#673 = FACE_BOUND('',#674,.F.);
#674 = EDGE_LOOP('',(#675));
#675 = ORIENTED_EDGE('',*,*,#676,.T.);
#676 = EDGE_CURVE('',#677,#677,#679,.T.);
#677 = VERTEX_POINT('',#678);
#678 = CARTESIAN_POINT('',(29.5,10.,5.));
#679 = CIRCLE('',#680,2.5);
#680 = AXIS2_PLACEMENT_3D('',#681,#682,#683);
#681 = CARTESIAN_POINT('',(27.,10.,5.));
#682 = DIRECTION('',(0.,0.,-1.));
#683 = DIRECTION('',(1.,0.,0.));
#684 = PLANE('',#685);
#685 = AXIS2_PLACEMENT_3D('',#686,#687,#688);
#686 = CARTESIAN_POINT('',(17.000000100217,9.999999517829,5.));
#687 = DIRECTION('',(0.,0.,1.));
#688 = DIRECTION('',(1.,0.,0.));
#689 = ADVANCED_FACE('',(#690,#698),#709,.F.);
#690 = FACE_BOUND('',#691,.F.);
#691 = EDGE_LOOP('',(#692,#693,#694,#695,#696,#697));
#692 = ORIENTED_EDGE('',*,*,#602,.F.);
#693 = ORIENTED_EDGE('',*,*,#482,.F.);
#694 = ORIENTED_EDGE('',*,*,#513,.F.);
#695 = ORIENTED_EDGE('',*,*,#537,.F.);
#696 = ORIENTED_EDGE('',*,*,#561,.F.);
#697 = ORIENTED_EDGE('',*,*,#585,.F.);
#698 = FACE_BOUND('',#699,.F.);
#699 = EDGE_LOOP('',(#700));
#700 = ORIENTED_EDGE('',*,*,#701,.T.);
#701 = EDGE_CURVE('',#702,#702,#704,.T.);
#702 = VERTEX_POINT('',#703);
#703 = CARTESIAN_POINT('',(9.5,10.,5.));
#704 = CIRCLE('',#705,2.5);
#705 = AXIS2_PLACEMENT_3D('',#706,#707,#708);
#706 = CARTESIAN_POINT('',(7.,10.,5.));
#707 = DIRECTION('',(0.,0.,-1.));
#708 = DIRECTION('',(1.,0.,0.));
#709 = PLANE('',#710);
#710 = AXIS2_PLACEMENT_3D('',#711,#712,#713);
#711 = CARTESIAN_POINT('',(17.000000100217,9.999999517829,5.));
#712 = DIRECTION('',(0.,0.,1.));
#713 = DIRECTION('',(1.,0.,0.));
#714 = ADVANCED_FACE('',(#715,#718),#729,.T.);
#715 = FACE_BOUND('',#716,.T.);
#716 = EDGE_LOOP('',(#717));
#717 = ORIENTED_EDGE('',*,*,#628,.T.);
#718 = FACE_BOUND('',#719,.T.);
#719 = EDGE_LOOP('',(#720));
#720 = ORIENTED_EDGE('',*,*,#721,.F.);
#721 = EDGE_CURVE('',#722,#722,#724,.T.);
#722 = VERTEX_POINT('',#723);
#723 = CARTESIAN_POINT('',(9.5,10.,9.67));
#724 = CIRCLE('',#725,2.5);
#725 = AXIS2_PLACEMENT_3D('',#726,#727,#728);
#726 = CARTESIAN_POINT('',(7.,10.,9.67));
#727 = DIRECTION('',(0.,0.,1.));
#728 = DIRECTION('',(1.,0.,0.));
#729 = PLANE('',#730);
#730 = AXIS2_PLACEMENT_3D('',#731,#732,#733);
#731 = CARTESIAN_POINT('',(7.,10.,9.67));
#732 = DIRECTION('',(0.,0.,1.));
#733 = DIRECTION('',(1.,0.,0.));
#734 = ADVANCED_FACE('',(#735,#738),#749,.T.);
#735 = FACE_BOUND('',#736,.T.);
#736 = EDGE_LOOP('',(#737));
#737 = ORIENTED_EDGE('',*,*,#653,.T.);
#738 = FACE_BOUND('',#739,.T.);
#739 = EDGE_LOOP('',(#740));
#740 = ORIENTED_EDGE('',*,*,#741,.F.);
#741 = EDGE_CURVE('',#742,#742,#744,.T.);
#742 = VERTEX_POINT('',#743);
#743 = CARTESIAN_POINT('',(29.5,10.,9.67));
#744 = CIRCLE('',#745,2.5);
#745 = AXIS2_PLACEMENT_3D('',#746,#747,#748);
#746 = CARTESIAN_POINT('',(27.,10.,9.67));
#747 = DIRECTION('',(0.,0.,1.));
#748 = DIRECTION('',(1.,0.,0.));
#749 = PLANE('',#750);
#750 = AXIS2_PLACEMENT_3D('',#751,#752,#753);
#751 = CARTESIAN_POINT('',(27.,10.,9.67));
#752 = DIRECTION('',(0.,0.,1.));
#753 = DIRECTION('',(1.,0.,0.));
#754 = ADVANCED_FACE('',(#755),#766,.F.);
#755 = FACE_BOUND('',#756,.T.);
#756 = EDGE_LOOP('',(#757,#758,#764,#765));
#757 = ORIENTED_EDGE('',*,*,#741,.T.);
#758 = ORIENTED_EDGE('',*,*,#759,.T.);
#759 = EDGE_CURVE('',#742,#677,#760,.T.);
#760 = LINE('',#761,#762);
#761 = CARTESIAN_POINT('',(29.5,10.,9.67));
#762 = VECTOR('',#763,1.);
#763 = DIRECTION('',(-6.E-17,0.,-1.));
#764 = ORIENTED_EDGE('',*,*,#676,.T.);
#765 = ORIENTED_EDGE('',*,*,#759,.F.);
#766 = CYLINDRICAL_SURFACE('',#767,2.5);
#767 = AXIS2_PLACEMENT_3D('',#768,#769,#770);
#768 = CARTESIAN_POINT('',(27.,10.,9.67));
#769 = DIRECTION('',(-0.,-0.,-1.));
#770 = DIRECTION('',(1.,0.,0.));
#771 = ADVANCED_FACE('',(#772),#783,.F.);
#772 = FACE_BOUND('',#773,.T.);
#773 = EDGE_LOOP('',(#774,#775,#781,#782));
#774 = ORIENTED_EDGE('',*,*,#721,.T.);
#775 = ORIENTED_EDGE('',*,*,#776,.T.);
#776 = EDGE_CURVE('',#722,#702,#777,.T.);
#777 = LINE('',#778,#779);
#778 = CARTESIAN_POINT('',(9.5,10.,9.67));
#779 = VECTOR('',#780,1.);
#780 = DIRECTION('',(-6.E-17,0.,-1.));
#781 = ORIENTED_EDGE('',*,*,#701,.T.);
#782 = ORIENTED_EDGE('',*,*,#776,.F.);
#783 = CYLINDRICAL_SURFACE('',#784,2.5);
#784 = AXIS2_PLACEMENT_3D('',#785,#786,#787);
#785 = CARTESIAN_POINT('',(7.,10.,9.67));
#786 = DIRECTION('',(-0.,-0.,-1.));
#787 = DIRECTION('',(1.,0.,0.));
#788 = ( GEOMETRIC_REPRESENTATION_CONTEXT(3) 
GLOBAL_UNCERTAINTY_ASSIGNED_CONTEXT((#792)) GLOBAL_UNIT_ASSIGNED_CONTEXT
((#789,#790,#791)) REPRESENTATION_CONTEXT('Context #1',
  '3D Context with UNIT and UNCERTAINTY') );
#789 = ( LENGTH_UNIT() NAMED_UNIT(*) SI_UNIT(.MILLI.,.METRE.) );
#790 = ( NAMED_UNIT(*) PLANE_ANGLE_UNIT() SI_UNIT($,.RADIAN.) );
#791 = ( NAMED_UNIT(*) SI_UNIT($,.STERADIAN.) SOLID_ANGLE_UNIT() );
#792 = UNCERTAINTY_MEASURE_WITH_UNIT(LENGTH_MEASURE(1.E-07),#789,
  'distance_accuracy_value','confusion accuracy');
#793 = PRODUCT_RELATED_PRODUCT_CATEGORY('part',$,(#7));
#794 = MECHANICAL_DESIGN_GEOMETRIC_PRESENTATION_REPRESENTATION('',(#795)
  ,#788);
#795 = STYLED_ITEM('color',(#796),#15);
#796 = PRESENTATION_STYLE_ASSIGNMENT((#797,#803));
#797 = SURFACE_STYLE_USAGE(.BOTH.,#798);
#798 = SURFACE_SIDE_STYLE('',(#799));
#799 = SURFACE_STYLE_FILL_AREA(#800);
#800 = FILL_AREA_STYLE('',(#801));
#801 = FILL_AREA_STYLE_COLOUR('',#802);
#802 = COLOUR_RGB('',0.447058818107,0.474509808674,0.501960817233);
#803 = CURVE_STYLE('',#804,POSITIVE_LENGTH_MEASURE(0.1),#805);
#804 = DRAUGHTING_PRE_DEFINED_CURVE_FONT('continuous');
#805 = COLOUR_RGB('',9.803921802644E-02,9.803921802644E-02,
  9.803921802644E-02);
ENDSEC;
END-ISO-10303-21;
