ISO-10303-21;
HEADER;
FILE_DESCRIPTION(('FreeCAD Model'),'2;1');
FILE_NAME('Open CASCADE Shape Model','2026-08-04T09:28:17',('Author'),(
    ''),'Open CASCADE STEP processor 7.8','FreeCAD','Unknown');
FILE_SCHEMA(('AUTOMOTIVE_DESIGN { 1 0 10303 214 1 1 1 1 }'));
ENDSEC;
DATA;
#1 = APPLICATION_PROTOCOL_DEFINITION('international standard',
  'automotive_design',2000,#2);
#2 = APPLICATION_CONTEXT(
  'core data for automotive mechanical design processes');
#3 = SHAPE_DEFINITION_REPRESENTATION(#4,#10);
#4 = PRODUCT_DEFINITION_SHAPE('','',#5);
#5 = PRODUCT_DEFINITION('design','',#6,#9);
#6 = PRODUCT_DEFINITION_FORMATION('','',#7);
#7 = PRODUCT('Body','Body','',(#8));
#8 = PRODUCT_CONTEXT('',#2,'mechanical');
#9 = PRODUCT_DEFINITION_CONTEXT('part definition',#2,'design');
#10 = ADVANCED_BREP_SHAPE_REPRESENTATION('',(#11,#15),#1611);
#11 = AXIS2_PLACEMENT_3D('',#12,#13,#14);
#12 = CARTESIAN_POINT('',(0.,0.,0.));
#13 = DIRECTION('',(0.,0.,1.));
#14 = DIRECTION('',(1.,0.,-0.));
#15 = MANIFOLD_SOLID_BREP('',#16);
#16 = CLOSED_SHELL('',(#17,#87,#135,#241,#252,#284,#376,#388,#408,#433,
    #453,#478,#597,#726,#750,#774,#862,#950,#974,#998,#1079,#1104,#1129,
    #1154,#1179,#1215,#1232,#1249,#1266,#1283,#1300,#1317,#1329,#1341,
    #1372,#1396,#1420,#1437,#1454,#1471,#1488,#1500,#1517,#1534,#1551,
    #1563,#1572,#1581,#1590,#1599));
#17 = ADVANCED_FACE('',(#18),#82,.T.);
#18 = FACE_BOUND('',#19,.T.);
#19 = EDGE_LOOP('',(#20,#30,#45,#53,#68,#76));
#20 = ORIENTED_EDGE('',*,*,#21,.T.);
#21 = EDGE_CURVE('',#22,#24,#26,.T.);
#22 = VERTEX_POINT('',#23);
#23 = CARTESIAN_POINT('',(23.15,22.65,37.67));
#24 = VERTEX_POINT('',#25);
#25 = CARTESIAN_POINT('',(23.15,22.65,52.07));
#26 = LINE('',#27,#28);
#27 = CARTESIAN_POINT('',(23.15,22.65,37.67));
#28 = VECTOR('',#29,1.);
#29 = DIRECTION('',(0.,0.,1.));
#30 = ORIENTED_EDGE('',*,*,#31,.T.);
#31 = EDGE_CURVE('',#24,#32,#34,.T.);
#32 = VERTEX_POINT('',#33);
#33 = CARTESIAN_POINT('',(23.15,22.15,52.57));
#34 = B_SPLINE_CURVE_WITH_KNOTS('',9,(#35,#36,#37,#38,#39,#40,#41,#42,
    #43,#44),.UNSPECIFIED.,.F.,.F.,(10,10),(0.,1.),
  .PIECEWISE_BEZIER_KNOTS.);
#35 = CARTESIAN_POINT('',(23.15,22.65,52.07));
#36 = CARTESIAN_POINT('',(23.15,22.65,52.157707972506));
#37 = CARTESIAN_POINT('',(23.15,22.634680492802,52.245416902885));
#38 = CARTESIAN_POINT('',(23.15,22.602503218427,52.330062039372));
#39 = CARTESIAN_POINT('',(23.15,22.553052798669,52.407539542069));
#40 = CARTESIAN_POINT('',(23.15,22.487539542069,52.473052798669));
#41 = CARTESIAN_POINT('',(23.15,22.410062039372,52.522503218427));
#42 = CARTESIAN_POINT('',(23.15,22.325416902885,52.554680492802));
#43 = CARTESIAN_POINT('',(23.15,22.237707972506,52.57));
#44 = CARTESIAN_POINT('',(23.15,22.15,52.57));
#45 = ORIENTED_EDGE('',*,*,#46,.T.);
#46 = EDGE_CURVE('',#32,#47,#49,.T.);
#47 = VERTEX_POINT('',#48);
#48 = CARTESIAN_POINT('',(23.15,20.15,52.57));
#49 = LINE('',#50,#51);
#50 = CARTESIAN_POINT('',(23.15,22.65,52.57));
#51 = VECTOR('',#52,1.);
#52 = DIRECTION('',(0.,-1.,0.));
#53 = ORIENTED_EDGE('',*,*,#54,.F.);
#54 = EDGE_CURVE('',#55,#47,#57,.T.);
#55 = VERTEX_POINT('',#56);
#56 = CARTESIAN_POINT('',(23.15,19.65,52.07));
#57 = B_SPLINE_CURVE_WITH_KNOTS('',9,(#58,#59,#60,#61,#62,#63,#64,#65,
    #66,#67),.UNSPECIFIED.,.F.,.F.,(10,10),(0.,1.),
  .PIECEWISE_BEZIER_KNOTS.);
#58 = CARTESIAN_POINT('',(23.15,19.65,52.07));
#59 = CARTESIAN_POINT('',(23.15,19.65,52.157707972506));
#60 = CARTESIAN_POINT('',(23.15,19.665319507198,52.245416902885));
#61 = CARTESIAN_POINT('',(23.15,19.697496781573,52.330062039372));
#62 = CARTESIAN_POINT('',(23.15,19.746947201331,52.407539542069));
#63 = CARTESIAN_POINT('',(23.15,19.812460457931,52.473052798669));
#64 = CARTESIAN_POINT('',(23.15,19.889937960628,52.522503218427));
#65 = CARTESIAN_POINT('',(23.15,19.974583097115,52.554680492802));
#66 = CARTESIAN_POINT('',(23.15,20.062292027494,52.57));
#67 = CARTESIAN_POINT('',(23.15,20.15,52.57));
#68 = ORIENTED_EDGE('',*,*,#69,.F.);
#69 = EDGE_CURVE('',#70,#55,#72,.T.);
#70 = VERTEX_POINT('',#71);
#71 = CARTESIAN_POINT('',(23.15,19.65,37.67));
#72 = LINE('',#73,#74);
#73 = CARTESIAN_POINT('',(23.15,19.65,37.67));
#74 = VECTOR('',#75,1.);
#75 = DIRECTION('',(0.,0.,1.));
#76 = ORIENTED_EDGE('',*,*,#77,.F.);
#77 = EDGE_CURVE('',#22,#70,#78,.T.);
#78 = LINE('',#79,#80);
#79 = CARTESIAN_POINT('',(23.15,22.65,37.67));
#80 = VECTOR('',#81,1.);
#81 = DIRECTION('',(0.,-1.,0.));
#82 = PLANE('',#83);
#83 = AXIS2_PLACEMENT_3D('',#84,#85,#86);
#84 = CARTESIAN_POINT('',(23.15,22.65,37.67));
#85 = DIRECTION('',(1.,0.,0.));
#86 = DIRECTION('',(0.,-1.,0.));
#87 = ADVANCED_FACE('',(#88),#130,.T.);
#88 = FACE_BOUND('',#89,.F.);
#89 = EDGE_LOOP('',(#90,#91,#100,#107,#114,#115,#122,#123));
#90 = ORIENTED_EDGE('',*,*,#69,.F.);
#91 = ORIENTED_EDGE('',*,*,#92,.T.);
#92 = EDGE_CURVE('',#70,#93,#95,.T.);
#93 = VERTEX_POINT('',#94);
#94 = CARTESIAN_POINT('',(23.65,21.15,37.67));
#95 = CIRCLE('',#96,2.5);
#96 = AXIS2_PLACEMENT_3D('',#97,#98,#99);
#97 = CARTESIAN_POINT('',(21.15,21.15,37.67));
#98 = DIRECTION('',(0.,0.,1.));
#99 = DIRECTION('',(1.,0.,0.));
#100 = ORIENTED_EDGE('',*,*,#101,.T.);
#101 = EDGE_CURVE('',#93,#102,#104,.T.);
#102 = VERTEX_POINT('',#103);
#103 = CARTESIAN_POINT('',(23.65,21.15,34.57));
#104 = B_SPLINE_CURVE_WITH_KNOTS('',1,(#105,#106),.UNSPECIFIED.,.F.,.F.,
  (2,2),(-3.1,0.),.PIECEWISE_BEZIER_KNOTS.);
#105 = CARTESIAN_POINT('',(23.65,21.15,37.67));
#106 = CARTESIAN_POINT('',(23.65,21.15,34.57));
#107 = ORIENTED_EDGE('',*,*,#108,.F.);
#108 = EDGE_CURVE('',#102,#102,#109,.T.);
#109 = CIRCLE('',#110,2.5);
#110 = AXIS2_PLACEMENT_3D('',#111,#112,#113);
#111 = CARTESIAN_POINT('',(21.15,21.15,34.57));
#112 = DIRECTION('',(0.,0.,1.));
#113 = DIRECTION('',(1.,0.,0.));
#114 = ORIENTED_EDGE('',*,*,#101,.F.);
#115 = ORIENTED_EDGE('',*,*,#116,.T.);
#116 = EDGE_CURVE('',#93,#22,#117,.T.);
#117 = CIRCLE('',#118,2.5);
#118 = AXIS2_PLACEMENT_3D('',#119,#120,#121);
#119 = CARTESIAN_POINT('',(21.15,21.15,37.67));
#120 = DIRECTION('',(0.,0.,1.));
#121 = DIRECTION('',(1.,0.,0.));
#122 = ORIENTED_EDGE('',*,*,#21,.T.);
#123 = ORIENTED_EDGE('',*,*,#124,.T.);
#124 = EDGE_CURVE('',#24,#55,#125,.T.);
#125 = CIRCLE('',#126,2.5);
#126 = AXIS2_PLACEMENT_3D('',#127,#128,#129);
#127 = CARTESIAN_POINT('',(21.15,21.15,52.07));
#128 = DIRECTION('',(0.,-0.,1.));
#129 = DIRECTION('',(0.8,0.6,0.));
#130 = CYLINDRICAL_SURFACE('',#131,2.5);
#131 = AXIS2_PLACEMENT_3D('',#132,#133,#134);
#132 = CARTESIAN_POINT('',(21.15,21.15,34.57));
#133 = DIRECTION('',(-0.,-0.,-1.));
#134 = DIRECTION('',(1.,0.,0.));
#135 = ADVANCED_FACE('',(#136),#159,.T.);
#136 = FACE_BOUND('',#137,.T.);
#137 = EDGE_LOOP('',(#138,#145,#158));
#138 = ORIENTED_EDGE('',*,*,#139,.F.);
#139 = EDGE_CURVE('',#140,#24,#142,.T.);
#140 = VERTEX_POINT('',#141);
#141 = CARTESIAN_POINT('',(22.75,22.35,52.57));
#142 = B_SPLINE_CURVE_WITH_KNOTS('',1,(#143,#144),.UNSPECIFIED.,.F.,.F.,
  (2,2),(0.,0.707106781187),.PIECEWISE_BEZIER_KNOTS.);
#143 = CARTESIAN_POINT('',(22.75,22.35,52.57));
#144 = CARTESIAN_POINT('',(23.15,22.65,52.07));
#145 = ORIENTED_EDGE('',*,*,#146,.F.);
#146 = EDGE_CURVE('',#32,#140,#147,.T.);
#147 = B_SPLINE_CURVE_WITH_KNOTS('',9,(#148,#149,#150,#151,#152,#153,
    #154,#155,#156,#157),.UNSPECIFIED.,.F.,.F.,(10,10),(0.,1.),
  .PIECEWISE_BEZIER_KNOTS.);
#148 = CARTESIAN_POINT('',(23.15,22.15,52.57));
#149 = CARTESIAN_POINT('',(23.15,22.204092668097,52.57));
#150 = CARTESIAN_POINT('',(23.120118731517,22.258186062727,52.57));
#151 = CARTESIAN_POINT('',(23.056253886068,22.293063802294,52.57));
#152 = CARTESIAN_POINT('',(22.998825803093,22.285319037073,52.57));
#153 = CARTESIAN_POINT('',(22.94805521587,22.287043675346,52.57));
#154 = CARTESIAN_POINT('',(22.896917491909,22.277020434334,52.57));
#155 = CARTESIAN_POINT('',(22.836543639789,22.279491623364,52.57));
#156 = CARTESIAN_POINT('',(22.782444484715,22.306740687047,52.57));
#157 = CARTESIAN_POINT('',(22.75,22.35,52.57));
#158 = ORIENTED_EDGE('',*,*,#31,.F.);
#159 = B_SPLINE_SURFACE_WITH_KNOTS('',8,8,(
    (#160,#161,#162,#163,#164,#165,#166,#167,#168)
    ,(#169,#170,#171,#172,#173,#174,#175,#176,#177)
    ,(#178,#179,#180,#181,#182,#183,#184,#185,#186)
    ,(#187,#188,#189,#190,#191,#192,#193,#194,#195)
    ,(#196,#197,#198,#199,#200,#201,#202,#203,#204)
    ,(#205,#206,#207,#208,#209,#210,#211,#212,#213)
    ,(#214,#215,#216,#217,#218,#219,#220,#221,#222)
    ,(#223,#224,#225,#226,#227,#228,#229,#230,#231)
    ,(#232,#233,#234,#235,#236,#237,#238,#239,#240
  )),.UNSPECIFIED.,.F.,.F.,.F.,(9,9),(9,9),(-0.483432964922,
    0.268684009835),(-0.234783506289,0.194594405831),
  .PIECEWISE_BEZIER_KNOTS.);
#160 = CARTESIAN_POINT('',(22.970449966708,22.541628977938,
    51.836159541586));
#161 = CARTESIAN_POINT('',(23.018049384956,22.554375730777,
    51.865839739117));
#162 = CARTESIAN_POINT('',(23.063369319458,22.577016694076,
    51.904249870659));
#163 = CARTESIAN_POINT('',(23.107300196346,22.605298971235,
    51.94777313328));
#164 = CARTESIAN_POINT('',(23.149115127157,22.643469781647,
    51.999808008892));
#165 = CARTESIAN_POINT('',(23.189733695316,22.685813997836,
    52.056085959589));
#166 = CARTESIAN_POINT('',(23.233343366664,22.71558129245,
    52.100925758429));
#167 = CARTESIAN_POINT('',(23.275143720578,22.753223334286,
    52.152701352003));
#168 = CARTESIAN_POINT('',(23.31666157517,22.792051168953,
    52.205318310738));
#169 = CARTESIAN_POINT('',(22.928365362018,22.557083081626,
    51.971168303286));
#170 = CARTESIAN_POINT('',(22.977921215133,22.561339869225,
    51.993316540205));
#171 = CARTESIAN_POINT('',(23.024920352479,22.576758121914,
    52.02530106791));
#172 = CARTESIAN_POINT('',(23.07106445047,22.595101660654,
    52.060097393547));
#173 = CARTESIAN_POINT('',(23.113419106041,22.631704254529,
    52.110520571794));
#174 = CARTESIAN_POINT('',(23.157034984622,22.660053965725,
    52.154690194774));
#175 = CARTESIAN_POINT('',(23.20255986021,22.681970006863,
    52.192474036888));
#176 = CARTESIAN_POINT('',(23.246296196377,22.711201003226,
    52.236856994545));
#177 = CARTESIAN_POINT('',(23.289740530411,22.741702307779,
    52.282116068708));
#178 = CARTESIAN_POINT('',(22.889146338788,22.560092021925,
    52.095160183282));
#179 = CARTESIAN_POINT('',(22.940630877856,22.555974920459,
    52.109892065957));
#180 = CARTESIAN_POINT('',(22.990611024789,22.558220284683,
    52.13025696127));
#181 = CARTESIAN_POINT('',(23.034822310666,22.585475787588,
    52.172923195241));
#182 = CARTESIAN_POINT('',(23.080851875726,22.606968507715,
    52.209088589106));
#183 = CARTESIAN_POINT('',(23.129818010404,22.608660643196,
    52.231929247279));
#184 = CARTESIAN_POINT('',(23.174017604865,22.639282208446,
    52.275348037563));
#185 = CARTESIAN_POINT('',(23.219839846562,22.658871783303,
    52.311857604396));
#186 = CARTESIAN_POINT('',(23.265275135664,22.680776473237,
    52.349517033844));
#187 = CARTESIAN_POINT('',(22.853331525497,22.548318553101,
    52.205993706766));
#188 = CARTESIAN_POINT('',(22.906933564008,22.534998529362,
    52.212537596581));
#189 = CARTESIAN_POINT('',(22.95402561763,22.549694147245,
    52.244129169468));
#190 = CARTESIAN_POINT('',(23.014678545727,22.5070510751,52.22308646763)
  );
#191 = CARTESIAN_POINT('',(23.041585425618,22.603847093055,
    52.333369930976));
#192 = CARTESIAN_POINT('',(23.10633723772,22.549536419726,
    52.293406141839));
#193 = CARTESIAN_POINT('',(23.148512096552,22.581133189732,
    52.348209727379));
#194 = CARTESIAN_POINT('',(23.198779648339,22.583150550101,
    52.366254784628));
#195 = CARTESIAN_POINT('',(23.245288602534,22.600334167514,
    52.399766449802));
#196 = CARTESIAN_POINT('',(22.81868379121,22.531439392979,
    52.312425676107));
#197 = CARTESIAN_POINT('',(22.874001169697,22.510646683331,
    52.312435990094));
#198 = CARTESIAN_POINT('',(22.933777901383,22.470629982281,
    52.294956054711));
#199 = CARTESIAN_POINT('',(22.958504665637,22.581136547814,
    52.413781079951));
#200 = CARTESIAN_POINT('',(23.046563916114,22.422512804256,
    52.282488256226));
#201 = CARTESIAN_POINT('',(23.06437210878,22.559148679078,
    52.437694290456));
#202 = CARTESIAN_POINT('',(23.125094919416,22.518661800766,
    52.407120460776));
#203 = CARTESIAN_POINT('',(23.170890857526,22.537670650586,
    52.446870963103));
#204 = CARTESIAN_POINT('',(23.220877768721,22.539755903244,
    52.467115475515));
#205 = CARTESIAN_POINT('',(22.789611233163,22.490509811796,
    52.397200517554));
#206 = CARTESIAN_POINT('',(22.847346787217,22.459269802308,
    52.387840774127));
#207 = CARTESIAN_POINT('',(22.894025894963,22.47582806023,
    52.421179587404));
#208 = CARTESIAN_POINT('',(22.969877074001,22.366426457669,
    52.340841752262));
#209 = CARTESIAN_POINT('',(22.976205673053,22.556066855623,
    52.534482137082));
#210 = CARTESIAN_POINT('',(23.057670653886,22.424244148397,
    52.422016366528));
#211 = CARTESIAN_POINT('',(23.103010856515,22.444669686312,
    52.47283186009));
#212 = CARTESIAN_POINT('',(23.156448903236,22.432842599298,
    52.476491581305));
#213 = CARTESIAN_POINT('',(23.207339009084,22.430846847966,
    52.492756688033));
#214 = CARTESIAN_POINT('',(22.758480348526,22.458393648306,
    52.490091686745));
#215 = CARTESIAN_POINT('',(22.817633920886,22.420977065477,
    52.47533781988));
#216 = CARTESIAN_POINT('',(22.877020339421,22.382469235412,
    52.459516841273));
#217 = CARTESIAN_POINT('',(22.916612565843,22.429970513569,
    52.519913900524));
#218 = CARTESIAN_POINT('',(22.977863268085,22.382988156033,
    52.495786555969));
#219 = CARTESIAN_POINT('',(23.021379645856,22.413443782194,
    52.545226971122));
#220 = CARTESIAN_POINT('',(23.075294420188,22.39895630828,
    52.545407962339));
#221 = CARTESIAN_POINT('',(23.131738179991,22.372433454331,
    52.543065114111));
#222 = CARTESIAN_POINT('',(23.185384820117,22.358905607885,
    52.549573409621));
#223 = CARTESIAN_POINT('',(22.733656313739,22.399012079474,
    52.558653017037));
#224 = CARTESIAN_POINT('',(22.794750318597,22.353187822123,
    52.536458595236));
#225 = CARTESIAN_POINT('',(22.854800692972,22.311817493946,
    52.518647117233));
#226 = CARTESIAN_POINT('',(22.886764578111,22.392017104619,
    52.607229339737));
#227 = CARTESIAN_POINT('',(22.966973904197,22.263610705905,
    52.513312782765));
#228 = CARTESIAN_POINT('',(22.997345456217,22.350363266616,
    52.608029649498));
#229 = CARTESIAN_POINT('',(23.062133247877,22.288795026209,
    52.571508991368));
#230 = CARTESIAN_POINT('',(23.115792824933,22.275125900585,
    52.578943831421));
#231 = CARTESIAN_POINT('',(23.172705216004,22.247269783868,
    52.572206828793));
#232 = CARTESIAN_POINT('',(22.712064144396,22.325610919741,52.6149610545
    ));
#233 = CARTESIAN_POINT('',(22.774432148468,22.274257477803,
    52.587947828214));
#234 = CARTESIAN_POINT('',(22.834273193245,22.23379282239,
    52.570906570917));
#235 = CARTESIAN_POINT('',(22.875353003057,22.274503064028,
    52.62501871867));
#236 = CARTESIAN_POINT('',(22.946759225687,22.184213608188,
    52.564442632235));
#237 = CARTESIAN_POINT('',(22.988785433341,22.220522932018,
    52.614494782203));
#238 = CARTESIAN_POINT('',(23.051053873491,22.169925714329,
    52.588473693328));
#239 = CARTESIAN_POINT('',(23.108746566829,22.138731357544,
    52.579660471241));
#240 = CARTESIAN_POINT('',(23.167727393289,22.101937791304,
    52.564880572568));
#241 = ADVANCED_FACE('',(#242),#247,.T.);
#242 = FACE_BOUND('',#243,.T.);
#243 = EDGE_LOOP('',(#244,#245,#246));
#244 = ORIENTED_EDGE('',*,*,#92,.T.);
#245 = ORIENTED_EDGE('',*,*,#116,.T.);
#246 = ORIENTED_EDGE('',*,*,#77,.T.);
#247 = PLANE('',#248);
#248 = AXIS2_PLACEMENT_3D('',#249,#250,#251);
#249 = CARTESIAN_POINT('',(21.15,21.15,37.67));
#250 = DIRECTION('',(0.,0.,1.));
#251 = DIRECTION('',(1.,0.,0.));
#252 = ADVANCED_FACE('',(#253),#279,.T.);
#253 = FACE_BOUND('',#254,.T.);
#254 = EDGE_LOOP('',(#255,#256,#257,#266));
#255 = ORIENTED_EDGE('',*,*,#46,.F.);
#256 = ORIENTED_EDGE('',*,*,#146,.T.);
#257 = ORIENTED_EDGE('',*,*,#258,.T.);
#258 = EDGE_CURVE('',#140,#259,#261,.T.);
#259 = VERTEX_POINT('',#260);
#260 = CARTESIAN_POINT('',(22.75,19.95,52.57));
#261 = CIRCLE('',#262,2.);
#262 = AXIS2_PLACEMENT_3D('',#263,#264,#265);
#263 = CARTESIAN_POINT('',(21.15,21.15,52.57));
#264 = DIRECTION('',(0.,-0.,1.));
#265 = DIRECTION('',(0.8,0.6,0.));
#266 = ORIENTED_EDGE('',*,*,#267,.F.);
#267 = EDGE_CURVE('',#47,#259,#268,.T.);
#268 = B_SPLINE_CURVE_WITH_KNOTS('',9,(#269,#270,#271,#272,#273,#274,
    #275,#276,#277,#278),.UNSPECIFIED.,.F.,.F.,(10,10),(0.,1.),
  .PIECEWISE_BEZIER_KNOTS.);
#269 = CARTESIAN_POINT('',(23.15,20.15,52.57));
#270 = CARTESIAN_POINT('',(23.15,20.095907331903,52.57));
#271 = CARTESIAN_POINT('',(23.120118731517,20.041813937273,52.57));
#272 = CARTESIAN_POINT('',(23.056253886068,20.006936197706,52.57));
#273 = CARTESIAN_POINT('',(22.998825803093,20.014680962927,52.57));
#274 = CARTESIAN_POINT('',(22.94805521587,20.012956324654,52.57));
#275 = CARTESIAN_POINT('',(22.896917491909,20.022979565666,52.57));
#276 = CARTESIAN_POINT('',(22.836543639789,20.020508376636,52.57));
#277 = CARTESIAN_POINT('',(22.782444484715,19.993259312953,52.57));
#278 = CARTESIAN_POINT('',(22.75,19.95,52.57));
#279 = PLANE('',#280);
#280 = AXIS2_PLACEMENT_3D('',#281,#282,#283);
#281 = CARTESIAN_POINT('',(21.217633503391,21.15,52.57));
#282 = DIRECTION('',(0.,0.,1.));
#283 = DIRECTION('',(1.,0.,0.));
#284 = ADVANCED_FACE('',(#285),#294,.T.);
#285 = FACE_BOUND('',#286,.T.);
#286 = EDGE_LOOP('',(#287,#292,#293));
#287 = ORIENTED_EDGE('',*,*,#288,.T.);
#288 = EDGE_CURVE('',#259,#55,#289,.T.);
#289 = B_SPLINE_CURVE_WITH_KNOTS('',1,(#290,#291),.UNSPECIFIED.,.F.,.F.,
  (2,2),(0.,0.707106781187),.PIECEWISE_BEZIER_KNOTS.);
#290 = CARTESIAN_POINT('',(22.75,19.95,52.57));
#291 = CARTESIAN_POINT('',(23.15,19.65,52.07));
#292 = ORIENTED_EDGE('',*,*,#54,.T.);
#293 = ORIENTED_EDGE('',*,*,#267,.T.);
#294 = B_SPLINE_SURFACE_WITH_KNOTS('',8,8,(
    (#295,#296,#297,#298,#299,#300,#301,#302,#303)
    ,(#304,#305,#306,#307,#308,#309,#310,#311,#312)
    ,(#313,#314,#315,#316,#317,#318,#319,#320,#321)
    ,(#322,#323,#324,#325,#326,#327,#328,#329,#330)
    ,(#331,#332,#333,#334,#335,#336,#337,#338,#339)
    ,(#340,#341,#342,#343,#344,#345,#346,#347,#348)
    ,(#349,#350,#351,#352,#353,#354,#355,#356,#357)
    ,(#358,#359,#360,#361,#362,#363,#364,#365,#366)
    ,(#367,#368,#369,#370,#371,#372,#373,#374,#375
  )),.UNSPECIFIED.,.F.,.F.,.F.,(9,9),(9,9),(-0.483432964922,
    0.268684009835),(-0.194594405831,0.234783506289),
  .PIECEWISE_BEZIER_KNOTS.);
#295 = CARTESIAN_POINT('',(23.31666157517,19.507948831047,
    52.205318310739));
#296 = CARTESIAN_POINT('',(23.275143720578,19.546776665714,
    52.152701352004));
#297 = CARTESIAN_POINT('',(23.233343366663,19.58441870755,
    52.100925758426));
#298 = CARTESIAN_POINT('',(23.189733695318,19.614186002165,
    52.056085959594));
#299 = CARTESIAN_POINT('',(23.149115127154,19.656530218351,
    51.999808008886));
#300 = CARTESIAN_POINT('',(23.107300196348,19.694701028766,
    51.947773133284));
#301 = CARTESIAN_POINT('',(23.063369319458,19.722983305924,
    51.904249870656));
#302 = CARTESIAN_POINT('',(23.018049384956,19.745624269224,
    51.865839739116));
#303 = CARTESIAN_POINT('',(22.970449966709,19.758371022064,
    51.836159541584));
#304 = CARTESIAN_POINT('',(23.289740530411,19.558297692221,
    52.282116068709));
#305 = CARTESIAN_POINT('',(23.246296196373,19.588798996774,
    52.236856994534));
#306 = CARTESIAN_POINT('',(23.202559860222,19.618029993137,
    52.192474036921));
#307 = CARTESIAN_POINT('',(23.1570349846,19.639946034277,52.154690194718
    ));
#308 = CARTESIAN_POINT('',(23.113419106068,19.668295745462,
    52.110520571856));
#309 = CARTESIAN_POINT('',(23.071064450447,19.704898339354,
    52.060097393499));
#310 = CARTESIAN_POINT('',(23.024920352493,19.723241878083,
    52.025301067933));
#311 = CARTESIAN_POINT('',(22.977921215129,19.738660130776,
    51.993316540199));
#312 = CARTESIAN_POINT('',(22.928365362019,19.742916918375,
    51.971168303285));
#313 = CARTESIAN_POINT('',(23.265275135664,19.619223526763,
    52.349517033844));
#314 = CARTESIAN_POINT('',(23.219839846577,19.641128216699,
    52.31185760443));
#315 = CARTESIAN_POINT('',(23.174017604815,19.660717791551,
    52.275348037459));
#316 = CARTESIAN_POINT('',(23.129818010499,19.691339356797,
    52.231929247448));
#317 = CARTESIAN_POINT('',(23.080851875609,19.693031492319,
    52.209088588915));
#318 = CARTESIAN_POINT('',(23.034822310766,19.714524212378,
    52.172923195393));
#319 = CARTESIAN_POINT('',(22.990611024731,19.74177971533,52.1302569612)
  );
#320 = CARTESIAN_POINT('',(22.940630877876,19.744025079539,
    52.109892065971));
#321 = CARTESIAN_POINT('',(22.889146338789,19.739907978077,
    52.095160183281));
#322 = CARTESIAN_POINT('',(23.245288602532,19.699665832485,
    52.399766449802));
#323 = CARTESIAN_POINT('',(23.198779648313,19.716849449895,
    52.366254784578));
#324 = CARTESIAN_POINT('',(23.148512096643,19.718866810277,
    52.348209727523));
#325 = CARTESIAN_POINT('',(23.106337237542,19.75046358028,
    52.293406141612));
#326 = CARTESIAN_POINT('',(23.041585425841,19.69615290689,
    52.333369931227));
#327 = CARTESIAN_POINT('',(23.014678545534,19.792948924952,
    52.223086467432));
#328 = CARTESIAN_POINT('',(22.954025617741,19.750305852737,
    52.244129169553));
#329 = CARTESIAN_POINT('',(22.90693356397,19.76500147064,52.212537596566
    ));
#330 = CARTESIAN_POINT('',(22.853331525496,19.751681446897,
    52.205993706767));
#331 = CARTESIAN_POINT('',(23.220877768722,19.760244096757,
    52.467115475515));
#332 = CARTESIAN_POINT('',(23.170890857555,19.762329349423,
    52.446870963147));
#333 = CARTESIAN_POINT('',(23.125094919311,19.781338199213,
    52.407120460658));
#334 = CARTESIAN_POINT('',(23.064372108989,19.74085132093,
    52.437694290621));
#335 = CARTESIAN_POINT('',(23.046563915845,19.877487195789,
    52.282488256056));
#336 = CARTESIAN_POINT('',(22.958504665873,19.718863452141,
    52.413781080082));
#337 = CARTESIAN_POINT('',(22.933777901246,19.82937001773,
    52.294956054663));
#338 = CARTESIAN_POINT('',(22.874001169744,19.78935331667,
    52.312435990096));
#339 = CARTESIAN_POINT('',(22.818683791211,19.768560607023,
    52.312425676106));
#340 = CARTESIAN_POINT('',(23.207339009083,19.869153152032,
    52.492756688034));
#341 = CARTESIAN_POINT('',(23.156448903217,19.867157400691,
    52.476491581282));
#342 = CARTESIAN_POINT('',(23.103010856588,19.855330313714,
    52.472831860142));
#343 = CARTESIAN_POINT('',(23.057670653736,19.875755851576,
    52.422016366483));
#344 = CARTESIAN_POINT('',(22.976205673251,19.743933144371,
    52.534482137106));
#345 = CARTESIAN_POINT('',(22.969877073821,19.93357354234,
    52.340841752249));
#346 = CARTESIAN_POINT('',(22.894025895072,19.824171939774,
    52.421179587397));
#347 = CARTESIAN_POINT('',(22.847346787179,19.840730197689,
    52.387840774138));
#348 = CARTESIAN_POINT('',(22.789611233162,19.809490188202,
    52.397200517556));
#349 = CARTESIAN_POINT('',(23.185384820118,19.941094392116,
    52.549573409621));
#350 = CARTESIAN_POINT('',(23.13173818,19.927566545676,52.543065114119)
  );
#351 = CARTESIAN_POINT('',(23.075294420156,19.901043691702,
    52.545407962325));
#352 = CARTESIAN_POINT('',(23.021379645924,19.886556217831,
    52.545226971114));
#353 = CARTESIAN_POINT('',(22.977863267991,19.917011843953,52.495786556)
  );
#354 = CARTESIAN_POINT('',(22.916612565933,19.870029486441,
    52.519913900494));
#355 = CARTESIAN_POINT('',(22.877020339364,19.91753076458,
    52.459516841295));
#356 = CARTESIAN_POINT('',(22.817633920906,19.879022934526,
    52.47533781987));
#357 = CARTESIAN_POINT('',(22.758480348527,19.841606351694,
    52.490091686744));
#358 = CARTESIAN_POINT('',(23.172705216003,20.052730216132,
    52.572206828793));
#359 = CARTESIAN_POINT('',(23.115792824932,20.024874099413,
    52.578943831421));
#360 = CARTESIAN_POINT('',(23.062133247882,20.011204973797,
    52.571508991366));
#361 = CARTESIAN_POINT('',(22.997345456205,19.949636733375,
    52.608029649513));
#362 = CARTESIAN_POINT('',(22.966973904215,20.036389294104,
    52.513312782742));
#363 = CARTESIAN_POINT('',(22.886764578091,19.907982895374,
    52.607229339758));
#364 = CARTESIAN_POINT('',(22.854800692986,19.988182506058,
    52.518647117221));
#365 = CARTESIAN_POINT('',(22.794750318591,19.946812177876,
    52.53645859524));
#366 = CARTESIAN_POINT('',(22.733656313739,19.900987920525,
    52.558653017037));
#367 = CARTESIAN_POINT('',(23.167727393289,20.198062208696,
    52.564880572568));
#368 = CARTESIAN_POINT('',(23.10874656683,20.161268642456,
    52.579660471242));
#369 = CARTESIAN_POINT('',(23.05105387349,20.13007428567,52.588473693326
    ));
#370 = CARTESIAN_POINT('',(22.988785433342,20.079477067983,
    52.614494782207));
#371 = CARTESIAN_POINT('',(22.946759225686,20.115786391811,
    52.56444263223));
#372 = CARTESIAN_POINT('',(22.875353003058,20.025496935972,
    52.625018718675));
#373 = CARTESIAN_POINT('',(22.834273193245,20.06620717761,
    52.570906570915));
#374 = CARTESIAN_POINT('',(22.774432148468,20.025742522197,
    52.587947828215));
#375 = CARTESIAN_POINT('',(22.712064144396,19.974389080259,
    52.614961054501));
#376 = ADVANCED_FACE('',(#377),#383,.T.);
#377 = FACE_BOUND('',#378,.F.);
#378 = EDGE_LOOP('',(#379,#380,#381,#382));
#379 = ORIENTED_EDGE('',*,*,#139,.F.);
#380 = ORIENTED_EDGE('',*,*,#258,.T.);
#381 = ORIENTED_EDGE('',*,*,#288,.T.);
#382 = ORIENTED_EDGE('',*,*,#124,.F.);
#383 = CONICAL_SURFACE('',#384,2.5,0.785398163397);
#384 = AXIS2_PLACEMENT_3D('',#385,#386,#387);
#385 = CARTESIAN_POINT('',(21.15,21.15,52.07));
#386 = DIRECTION('',(-0.,-0.,-1.));
#387 = DIRECTION('',(0.8,0.6,0.));
#388 = ADVANCED_FACE('',(#389,#400),#403,.T.);
#389 = FACE_BOUND('',#390,.T.);
#390 = EDGE_LOOP('',(#391));
#391 = ORIENTED_EDGE('',*,*,#392,.T.);
#392 = EDGE_CURVE('',#393,#393,#395,.T.);
#393 = VERTEX_POINT('',#394);
#394 = CARTESIAN_POINT('',(32.15,21.15,34.57));
#395 = CIRCLE('',#396,11.);
#396 = AXIS2_PLACEMENT_3D('',#397,#398,#399);
#397 = CARTESIAN_POINT('',(21.15,21.15,34.57));
#398 = DIRECTION('',(0.,0.,1.));
#399 = DIRECTION('',(1.,0.,0.));
#400 = FACE_BOUND('',#401,.T.);
#401 = EDGE_LOOP('',(#402));
#402 = ORIENTED_EDGE('',*,*,#108,.F.);
#403 = PLANE('',#404);
#404 = AXIS2_PLACEMENT_3D('',#405,#406,#407);
#405 = CARTESIAN_POINT('',(21.15,21.15,34.57));
#406 = DIRECTION('',(0.,0.,1.));
#407 = DIRECTION('',(1.,0.,0.));
#408 = ADVANCED_FACE('',(#409),#428,.T.);
#409 = FACE_BOUND('',#410,.F.);
#410 = EDGE_LOOP('',(#411,#419,#420,#421));
#411 = ORIENTED_EDGE('',*,*,#412,.T.);
#412 = EDGE_CURVE('',#413,#393,#415,.T.);
#413 = VERTEX_POINT('',#414);
#414 = CARTESIAN_POINT('',(32.15,21.15,32.2));
#415 = LINE('',#416,#417);
#416 = CARTESIAN_POINT('',(32.15,21.15,32.2));
#417 = VECTOR('',#418,1.);
#418 = DIRECTION('',(0.,0.,1.));
#419 = ORIENTED_EDGE('',*,*,#392,.T.);
#420 = ORIENTED_EDGE('',*,*,#412,.F.);
#421 = ORIENTED_EDGE('',*,*,#422,.F.);
#422 = EDGE_CURVE('',#413,#413,#423,.T.);
#423 = CIRCLE('',#424,11.);
#424 = AXIS2_PLACEMENT_3D('',#425,#426,#427);
#425 = CARTESIAN_POINT('',(21.15,21.15,32.2));
#426 = DIRECTION('',(0.,0.,1.));
#427 = DIRECTION('',(1.,0.,0.));
#428 = CYLINDRICAL_SURFACE('',#429,11.);
#429 = AXIS2_PLACEMENT_3D('',#430,#431,#432);
#430 = CARTESIAN_POINT('',(21.15,21.15,32.2));
#431 = DIRECTION('',(-0.,-0.,-1.));
#432 = DIRECTION('',(1.,0.,0.));
#433 = ADVANCED_FACE('',(#434,#445),#448,.T.);
#434 = FACE_BOUND('',#435,.T.);
#435 = EDGE_LOOP('',(#436));
#436 = ORIENTED_EDGE('',*,*,#437,.T.);
#437 = EDGE_CURVE('',#438,#438,#440,.T.);
#438 = VERTEX_POINT('',#439);
#439 = CARTESIAN_POINT('',(37.45,21.15,32.2));
#440 = CIRCLE('',#441,16.3);
#441 = AXIS2_PLACEMENT_3D('',#442,#443,#444);
#442 = CARTESIAN_POINT('',(21.15,21.15,32.2));
#443 = DIRECTION('',(0.,0.,1.));
#444 = DIRECTION('',(1.,0.,0.));
#445 = FACE_BOUND('',#446,.T.);
#446 = EDGE_LOOP('',(#447));
#447 = ORIENTED_EDGE('',*,*,#422,.F.);
#448 = PLANE('',#449);
#449 = AXIS2_PLACEMENT_3D('',#450,#451,#452);
#450 = CARTESIAN_POINT('',(21.15,21.15,32.2));
#451 = DIRECTION('',(0.,0.,1.));
#452 = DIRECTION('',(1.,0.,0.));
#453 = ADVANCED_FACE('',(#454),#473,.F.);
#454 = FACE_BOUND('',#455,.F.);
#455 = EDGE_LOOP('',(#456,#464,#465,#466));
#456 = ORIENTED_EDGE('',*,*,#457,.T.);
#457 = EDGE_CURVE('',#458,#438,#460,.T.);
#458 = VERTEX_POINT('',#459);
#459 = CARTESIAN_POINT('',(37.45,21.15,33.));
#460 = LINE('',#461,#462);
#461 = CARTESIAN_POINT('',(37.45,21.15,33.));
#462 = VECTOR('',#463,1.);
#463 = DIRECTION('',(-0.,-0.,-1.));
#464 = ORIENTED_EDGE('',*,*,#437,.T.);
#465 = ORIENTED_EDGE('',*,*,#457,.F.);
#466 = ORIENTED_EDGE('',*,*,#467,.F.);
#467 = EDGE_CURVE('',#458,#458,#468,.T.);
#468 = CIRCLE('',#469,16.3);
#469 = AXIS2_PLACEMENT_3D('',#470,#471,#472);
#470 = CARTESIAN_POINT('',(21.15,21.15,33.));
#471 = DIRECTION('',(0.,0.,1.));
#472 = DIRECTION('',(1.,0.,0.));
#473 = CYLINDRICAL_SURFACE('',#474,16.3);
#474 = AXIS2_PLACEMENT_3D('',#475,#476,#477);
#475 = CARTESIAN_POINT('',(21.15,21.15,33.));
#476 = DIRECTION('',(0.,0.,1.));
#477 = DIRECTION('',(1.,0.,0.));
#478 = ADVANCED_FACE('',(#479,#545,#556,#567,#578,#581),#592,.T.);
#479 = FACE_BOUND('',#480,.T.);
#480 = EDGE_LOOP('',(#481,#491,#499,#507,#515,#523,#531,#539));
#481 = ORIENTED_EDGE('',*,*,#482,.T.);
#482 = EDGE_CURVE('',#483,#485,#487,.T.);
#483 = VERTEX_POINT('',#484);
#484 = CARTESIAN_POINT('',(4.35,-1.E-15,33.));
#485 = VERTEX_POINT('',#486);
#486 = CARTESIAN_POINT('',(37.95,-2.E-15,33.));
#487 = LINE('',#488,#489);
#488 = CARTESIAN_POINT('',(4.35,0.,33.));
#489 = VECTOR('',#490,1.);
#490 = DIRECTION('',(1.,0.,0.));
#491 = ORIENTED_EDGE('',*,*,#492,.T.);
#492 = EDGE_CURVE('',#485,#493,#495,.T.);
#493 = VERTEX_POINT('',#494);
#494 = CARTESIAN_POINT('',(42.3,4.35,33.));
#495 = LINE('',#496,#497);
#496 = CARTESIAN_POINT('',(37.95,-4.44E-15,33.));
#497 = VECTOR('',#498,1.);
#498 = DIRECTION('',(0.707106781187,0.707106781187,0.));
#499 = ORIENTED_EDGE('',*,*,#500,.T.);
#500 = EDGE_CURVE('',#493,#501,#503,.T.);
#501 = VERTEX_POINT('',#502);
#502 = CARTESIAN_POINT('',(42.3,37.95,33.));
#503 = LINE('',#504,#505);
#504 = CARTESIAN_POINT('',(42.3,4.35,33.));
#505 = VECTOR('',#506,1.);
#506 = DIRECTION('',(0.,1.,0.));
#507 = ORIENTED_EDGE('',*,*,#508,.T.);
#508 = EDGE_CURVE('',#501,#509,#511,.T.);
#509 = VERTEX_POINT('',#510);
#510 = CARTESIAN_POINT('',(37.95,42.3,33.));
#511 = LINE('',#512,#513);
#512 = CARTESIAN_POINT('',(42.3,37.95,33.));
#513 = VECTOR('',#514,1.);
#514 = DIRECTION('',(-0.707106781187,0.707106781187,0.));
#515 = ORIENTED_EDGE('',*,*,#516,.T.);
#516 = EDGE_CURVE('',#509,#517,#519,.T.);
#517 = VERTEX_POINT('',#518);
#518 = CARTESIAN_POINT('',(4.35,42.3,33.));
#519 = LINE('',#520,#521);
#520 = CARTESIAN_POINT('',(37.95,42.3,33.));
#521 = VECTOR('',#522,1.);
#522 = DIRECTION('',(-1.,0.,0.));
#523 = ORIENTED_EDGE('',*,*,#524,.T.);
#524 = EDGE_CURVE('',#517,#525,#527,.T.);
#525 = VERTEX_POINT('',#526);
#526 = CARTESIAN_POINT('',(-2.E-15,37.95,33.));
#527 = LINE('',#528,#529);
#528 = CARTESIAN_POINT('',(4.35,42.3,33.));
#529 = VECTOR('',#530,1.);
#530 = DIRECTION('',(-0.707106781187,-0.707106781187,0.));
#531 = ORIENTED_EDGE('',*,*,#532,.T.);
#532 = EDGE_CURVE('',#525,#533,#535,.T.);
#533 = VERTEX_POINT('',#534);
#534 = CARTESIAN_POINT('',(-1.E-15,4.35,33.));
#535 = LINE('',#536,#537);
#536 = CARTESIAN_POINT('',(0.,37.95,33.));
#537 = VECTOR('',#538,1.);
#538 = DIRECTION('',(0.,-1.,0.));
#539 = ORIENTED_EDGE('',*,*,#540,.F.);
#540 = EDGE_CURVE('',#483,#533,#541,.T.);
#541 = LINE('',#542,#543);
#542 = CARTESIAN_POINT('',(4.35,-1.33E-15,33.));
#543 = VECTOR('',#544,1.);
#544 = DIRECTION('',(-0.707106781187,0.707106781187,0.));
#545 = FACE_BOUND('',#546,.T.);
#546 = EDGE_LOOP('',(#547));
#547 = ORIENTED_EDGE('',*,*,#548,.F.);
#548 = EDGE_CURVE('',#549,#549,#551,.T.);
#549 = VERTEX_POINT('',#550);
#550 = CARTESIAN_POINT('',(7.15,5.65,33.));
#551 = CIRCLE('',#552,1.5);
#552 = AXIS2_PLACEMENT_3D('',#553,#554,#555);
#553 = CARTESIAN_POINT('',(5.65,5.65,33.));
#554 = DIRECTION('',(0.,0.,1.));
#555 = DIRECTION('',(1.,0.,0.));
#556 = FACE_BOUND('',#557,.T.);
#557 = EDGE_LOOP('',(#558));
#558 = ORIENTED_EDGE('',*,*,#559,.F.);
#559 = EDGE_CURVE('',#560,#560,#562,.T.);
#560 = VERTEX_POINT('',#561);
#561 = CARTESIAN_POINT('',(38.15,5.65,33.));
#562 = CIRCLE('',#563,1.5);
#563 = AXIS2_PLACEMENT_3D('',#564,#565,#566);
#564 = CARTESIAN_POINT('',(36.65,5.65,33.));
#565 = DIRECTION('',(0.,0.,1.));
#566 = DIRECTION('',(1.,0.,0.));
#567 = FACE_BOUND('',#568,.T.);
#568 = EDGE_LOOP('',(#569));
#569 = ORIENTED_EDGE('',*,*,#570,.F.);
#570 = EDGE_CURVE('',#571,#571,#573,.T.);
#571 = VERTEX_POINT('',#572);
#572 = CARTESIAN_POINT('',(7.15,36.65,33.));
#573 = CIRCLE('',#574,1.5);
#574 = AXIS2_PLACEMENT_3D('',#575,#576,#577);
#575 = CARTESIAN_POINT('',(5.65,36.65,33.));
#576 = DIRECTION('',(0.,0.,1.));
#577 = DIRECTION('',(1.,0.,0.));
#578 = FACE_BOUND('',#579,.T.);
#579 = EDGE_LOOP('',(#580));
#580 = ORIENTED_EDGE('',*,*,#467,.F.);
#581 = FACE_BOUND('',#582,.T.);
#582 = EDGE_LOOP('',(#583));
#583 = ORIENTED_EDGE('',*,*,#584,.F.);
#584 = EDGE_CURVE('',#585,#585,#587,.T.);
#585 = VERTEX_POINT('',#586);
#586 = CARTESIAN_POINT('',(38.15,36.65,33.));
#587 = CIRCLE('',#588,1.5);
#588 = AXIS2_PLACEMENT_3D('',#589,#590,#591);
#589 = CARTESIAN_POINT('',(36.65,36.65,33.));
#590 = DIRECTION('',(0.,0.,1.));
#591 = DIRECTION('',(1.,0.,0.));
#592 = PLANE('',#593);
#593 = AXIS2_PLACEMENT_3D('',#594,#595,#596);
#594 = CARTESIAN_POINT('',(21.15,21.15,33.));
#595 = DIRECTION('',(0.,0.,1.));
#596 = DIRECTION('',(1.,0.,0.));
#597 = ADVANCED_FACE('',(#598,#687),#721,.T.);
#598 = FACE_BOUND('',#599,.T.);
#599 = EDGE_LOOP('',(#600,#610,#618,#626,#634,#642,#648,#649,#657,#665,
    #673,#681));
#600 = ORIENTED_EDGE('',*,*,#601,.T.);
#601 = EDGE_CURVE('',#602,#604,#606,.T.);
#602 = VERTEX_POINT('',#603);
#603 = CARTESIAN_POINT('',(4.35,0.,0.));
#604 = VERTEX_POINT('',#605);
#605 = CARTESIAN_POINT('',(37.95,-2.E-15,0.));
#606 = LINE('',#607,#608);
#607 = CARTESIAN_POINT('',(0.,0.,0.));
#608 = VECTOR('',#609,1.);
#609 = DIRECTION('',(1.,0.,0.));
#610 = ORIENTED_EDGE('',*,*,#611,.T.);
#611 = EDGE_CURVE('',#604,#612,#614,.T.);
#612 = VERTEX_POINT('',#613);
#613 = CARTESIAN_POINT('',(37.95,-2.E-15,11.7));
#614 = LINE('',#615,#616);
#615 = CARTESIAN_POINT('',(37.95,0.,0.));
#616 = VECTOR('',#617,1.);
#617 = DIRECTION('',(0.,0.,1.));
#618 = ORIENTED_EDGE('',*,*,#619,.F.);
#619 = EDGE_CURVE('',#620,#612,#622,.T.);
#620 = VERTEX_POINT('',#621);
#621 = CARTESIAN_POINT('',(35.4,0.,11.7));
#622 = LINE('',#623,#624);
#623 = CARTESIAN_POINT('',(0.,0.,11.7));
#624 = VECTOR('',#625,1.);
#625 = DIRECTION('',(1.,0.,0.));
#626 = ORIENTED_EDGE('',*,*,#627,.T.);
#627 = EDGE_CURVE('',#620,#628,#630,.T.);
#628 = VERTEX_POINT('',#629);
#629 = CARTESIAN_POINT('',(35.4,0.,22.5));
#630 = LINE('',#631,#632);
#631 = CARTESIAN_POINT('',(35.4,0.,11.7));
#632 = VECTOR('',#633,1.);
#633 = DIRECTION('',(0.,0.,1.));
#634 = ORIENTED_EDGE('',*,*,#635,.T.);
#635 = EDGE_CURVE('',#628,#636,#638,.T.);
#636 = VERTEX_POINT('',#637);
#637 = CARTESIAN_POINT('',(37.95,-2.E-15,22.5));
#638 = LINE('',#639,#640);
#639 = CARTESIAN_POINT('',(4.35,0.,22.5));
#640 = VECTOR('',#641,1.);
#641 = DIRECTION('',(1.,0.,0.));
#642 = ORIENTED_EDGE('',*,*,#643,.T.);
#643 = EDGE_CURVE('',#636,#485,#644,.T.);
#644 = LINE('',#645,#646);
#645 = CARTESIAN_POINT('',(37.95,-2.22E-15,22.5));
#646 = VECTOR('',#647,1.);
#647 = DIRECTION('',(0.,0.,1.));
#648 = ORIENTED_EDGE('',*,*,#482,.F.);
#649 = ORIENTED_EDGE('',*,*,#650,.F.);
#650 = EDGE_CURVE('',#651,#483,#653,.T.);
#651 = VERTEX_POINT('',#652);
#652 = CARTESIAN_POINT('',(4.35,-1.E-15,22.5));
#653 = LINE('',#654,#655);
#654 = CARTESIAN_POINT('',(4.35,-6.7E-16,22.5));
#655 = VECTOR('',#656,1.);
#656 = DIRECTION('',(0.,0.,1.));
#657 = ORIENTED_EDGE('',*,*,#658,.T.);
#658 = EDGE_CURVE('',#651,#659,#661,.T.);
#659 = VERTEX_POINT('',#660);
#660 = CARTESIAN_POINT('',(6.9,0.,22.5));
#661 = LINE('',#662,#663);
#662 = CARTESIAN_POINT('',(4.35,0.,22.5));
#663 = VECTOR('',#664,1.);
#664 = DIRECTION('',(1.,0.,0.));
#665 = ORIENTED_EDGE('',*,*,#666,.F.);
#666 = EDGE_CURVE('',#667,#659,#669,.T.);
#667 = VERTEX_POINT('',#668);
#668 = CARTESIAN_POINT('',(6.9,0.,11.7));
#669 = LINE('',#670,#671);
#670 = CARTESIAN_POINT('',(6.9,0.,11.7));
#671 = VECTOR('',#672,1.);
#672 = DIRECTION('',(0.,0.,1.));
#673 = ORIENTED_EDGE('',*,*,#674,.F.);
#674 = EDGE_CURVE('',#675,#667,#677,.T.);
#675 = VERTEX_POINT('',#676);
#676 = CARTESIAN_POINT('',(4.35,0.,11.7));
#677 = LINE('',#678,#679);
#678 = CARTESIAN_POINT('',(0.,0.,11.7));
#679 = VECTOR('',#680,1.);
#680 = DIRECTION('',(1.,0.,0.));
#681 = ORIENTED_EDGE('',*,*,#682,.F.);
#682 = EDGE_CURVE('',#602,#675,#683,.T.);
#683 = LINE('',#684,#685);
#684 = CARTESIAN_POINT('',(4.35,0.,0.));
#685 = VECTOR('',#686,1.);
#686 = DIRECTION('',(0.,0.,1.));
#687 = FACE_BOUND('',#688,.T.);
#688 = EDGE_LOOP('',(#689,#699,#707,#715));
#689 = ORIENTED_EDGE('',*,*,#690,.F.);
#690 = EDGE_CURVE('',#691,#693,#695,.T.);
#691 = VERTEX_POINT('',#692);
#692 = CARTESIAN_POINT('',(17.15,2.E-15,8.5));
#693 = VERTEX_POINT('',#694);
#694 = CARTESIAN_POINT('',(17.15,0.,1.5));
#695 = LINE('',#696,#697);
#696 = CARTESIAN_POINT('',(17.15,0.,8.5));
#697 = VECTOR('',#698,1.);
#698 = DIRECTION('',(0.,0.,-1.));
#699 = ORIENTED_EDGE('',*,*,#700,.F.);
#700 = EDGE_CURVE('',#701,#691,#703,.T.);
#701 = VERTEX_POINT('',#702);
#702 = CARTESIAN_POINT('',(25.15,2.E-15,8.5));
#703 = LINE('',#704,#705);
#704 = CARTESIAN_POINT('',(25.15,0.,8.5));
#705 = VECTOR('',#706,1.);
#706 = DIRECTION('',(-1.,0.,0.));
#707 = ORIENTED_EDGE('',*,*,#708,.F.);
#708 = EDGE_CURVE('',#709,#701,#711,.T.);
#709 = VERTEX_POINT('',#710);
#710 = CARTESIAN_POINT('',(25.15,0.,1.5));
#711 = LINE('',#712,#713);
#712 = CARTESIAN_POINT('',(25.15,0.,1.5));
#713 = VECTOR('',#714,1.);
#714 = DIRECTION('',(0.,0.,1.));
#715 = ORIENTED_EDGE('',*,*,#716,.F.);
#716 = EDGE_CURVE('',#693,#709,#717,.T.);
#717 = LINE('',#718,#719);
#718 = CARTESIAN_POINT('',(17.15,0.,1.5));
#719 = VECTOR('',#720,1.);
#720 = DIRECTION('',(1.,0.,0.));
#721 = PLANE('',#722);
#722 = AXIS2_PLACEMENT_3D('',#723,#724,#725);
#723 = CARTESIAN_POINT('',(21.15,-2.1E-16,16.542677824268));
#724 = DIRECTION('',(-0.,-1.,-0.));
#725 = DIRECTION('',(0.,0.,-1.));
#726 = ADVANCED_FACE('',(#727),#745,.T.);
#727 = FACE_BOUND('',#728,.T.);
#728 = EDGE_LOOP('',(#729,#730,#731,#739));
#729 = ORIENTED_EDGE('',*,*,#650,.T.);
#730 = ORIENTED_EDGE('',*,*,#540,.T.);
#731 = ORIENTED_EDGE('',*,*,#732,.F.);
#732 = EDGE_CURVE('',#733,#533,#735,.T.);
#733 = VERTEX_POINT('',#734);
#734 = CARTESIAN_POINT('',(-1.E-15,4.35,22.5));
#735 = LINE('',#736,#737);
#736 = CARTESIAN_POINT('',(-8.9E-16,4.35,22.5));
#737 = VECTOR('',#738,1.);
#738 = DIRECTION('',(0.,0.,1.));
#739 = ORIENTED_EDGE('',*,*,#740,.F.);
#740 = EDGE_CURVE('',#651,#733,#741,.T.);
#741 = LINE('',#742,#743);
#742 = CARTESIAN_POINT('',(4.35,-1.33E-15,22.5));
#743 = VECTOR('',#744,1.);
#744 = DIRECTION('',(-0.707106781187,0.707106781187,0.));
#745 = PLANE('',#746);
#746 = AXIS2_PLACEMENT_3D('',#747,#748,#749);
#747 = CARTESIAN_POINT('',(4.35,-1.33E-15,22.5));
#748 = DIRECTION('',(-0.707106781187,-0.707106781187,0.));
#749 = DIRECTION('',(-0.707106781187,0.707106781187,0.));
#750 = ADVANCED_FACE('',(#751),#769,.F.);
#751 = FACE_BOUND('',#752,.F.);
#752 = EDGE_LOOP('',(#753,#754,#755,#763));
#753 = ORIENTED_EDGE('',*,*,#643,.T.);
#754 = ORIENTED_EDGE('',*,*,#492,.T.);
#755 = ORIENTED_EDGE('',*,*,#756,.F.);
#756 = EDGE_CURVE('',#757,#493,#759,.T.);
#757 = VERTEX_POINT('',#758);
#758 = CARTESIAN_POINT('',(42.3,4.35,22.5));
#759 = LINE('',#760,#761);
#760 = CARTESIAN_POINT('',(42.3,4.35,22.5));
#761 = VECTOR('',#762,1.);
#762 = DIRECTION('',(0.,0.,1.));
#763 = ORIENTED_EDGE('',*,*,#764,.F.);
#764 = EDGE_CURVE('',#636,#757,#765,.T.);
#765 = LINE('',#766,#767);
#766 = CARTESIAN_POINT('',(37.95,-4.44E-15,22.5));
#767 = VECTOR('',#768,1.);
#768 = DIRECTION('',(0.707106781187,0.707106781187,0.));
#769 = PLANE('',#770);
#770 = AXIS2_PLACEMENT_3D('',#771,#772,#773);
#771 = CARTESIAN_POINT('',(37.95,-4.44E-15,22.5));
#772 = DIRECTION('',(-0.707106781187,0.707106781187,0.));
#773 = DIRECTION('',(0.707106781187,0.707106781187,0.));
#774 = ADVANCED_FACE('',(#775),#857,.T.);
#775 = FACE_BOUND('',#776,.T.);
#776 = EDGE_LOOP('',(#777,#787,#795,#803,#811,#817,#818,#819,#827,#835,
    #843,#851));
#777 = ORIENTED_EDGE('',*,*,#778,.T.);
#778 = EDGE_CURVE('',#779,#781,#783,.T.);
#779 = VERTEX_POINT('',#780);
#780 = CARTESIAN_POINT('',(-2.E-15,37.95,0.));
#781 = VERTEX_POINT('',#782);
#782 = CARTESIAN_POINT('',(0.,4.35,0.));
#783 = LINE('',#784,#785);
#784 = CARTESIAN_POINT('',(0.,42.3,0.));
#785 = VECTOR('',#786,1.);
#786 = DIRECTION('',(0.,-1.,0.));
#787 = ORIENTED_EDGE('',*,*,#788,.T.);
#788 = EDGE_CURVE('',#781,#789,#791,.T.);
#789 = VERTEX_POINT('',#790);
#790 = CARTESIAN_POINT('',(0.,4.35,11.7));
#791 = LINE('',#792,#793);
#792 = CARTESIAN_POINT('',(0.,4.35,0.));
#793 = VECTOR('',#794,1.);
#794 = DIRECTION('',(0.,0.,1.));
#795 = ORIENTED_EDGE('',*,*,#796,.F.);
#796 = EDGE_CURVE('',#797,#789,#799,.T.);
#797 = VERTEX_POINT('',#798);
#798 = CARTESIAN_POINT('',(0.,6.9,11.7));
#799 = LINE('',#800,#801);
#800 = CARTESIAN_POINT('',(0.,42.3,11.7));
#801 = VECTOR('',#802,1.);
#802 = DIRECTION('',(0.,-1.,0.));
#803 = ORIENTED_EDGE('',*,*,#804,.T.);
#804 = EDGE_CURVE('',#797,#805,#807,.T.);
#805 = VERTEX_POINT('',#806);
#806 = CARTESIAN_POINT('',(0.,6.9,22.5));
#807 = LINE('',#808,#809);
#808 = CARTESIAN_POINT('',(0.,6.9,11.7));
#809 = VECTOR('',#810,1.);
#810 = DIRECTION('',(0.,0.,1.));
#811 = ORIENTED_EDGE('',*,*,#812,.T.);
#812 = EDGE_CURVE('',#805,#733,#813,.T.);
#813 = LINE('',#814,#815);
#814 = CARTESIAN_POINT('',(0.,37.95,22.5));
#815 = VECTOR('',#816,1.);
#816 = DIRECTION('',(0.,-1.,0.));
#817 = ORIENTED_EDGE('',*,*,#732,.T.);
#818 = ORIENTED_EDGE('',*,*,#532,.F.);
#819 = ORIENTED_EDGE('',*,*,#820,.F.);
#820 = EDGE_CURVE('',#821,#525,#823,.T.);
#821 = VERTEX_POINT('',#822);
#822 = CARTESIAN_POINT('',(-2.E-15,37.95,22.5));
#823 = LINE('',#824,#825);
#824 = CARTESIAN_POINT('',(-2.22E-15,37.95,22.5));
#825 = VECTOR('',#826,1.);
#826 = DIRECTION('',(0.,0.,1.));
#827 = ORIENTED_EDGE('',*,*,#828,.T.);
#828 = EDGE_CURVE('',#821,#829,#831,.T.);
#829 = VERTEX_POINT('',#830);
#830 = CARTESIAN_POINT('',(0.,35.4,22.5));
#831 = LINE('',#832,#833);
#832 = CARTESIAN_POINT('',(0.,37.95,22.5));
#833 = VECTOR('',#834,1.);
#834 = DIRECTION('',(0.,-1.,0.));
#835 = ORIENTED_EDGE('',*,*,#836,.F.);
#836 = EDGE_CURVE('',#837,#829,#839,.T.);
#837 = VERTEX_POINT('',#838);
#838 = CARTESIAN_POINT('',(0.,35.4,11.7));
#839 = LINE('',#840,#841);
#840 = CARTESIAN_POINT('',(0.,35.4,11.7));
#841 = VECTOR('',#842,1.);
#842 = DIRECTION('',(0.,0.,1.));
#843 = ORIENTED_EDGE('',*,*,#844,.F.);
#844 = EDGE_CURVE('',#845,#837,#847,.T.);
#845 = VERTEX_POINT('',#846);
#846 = CARTESIAN_POINT('',(-2.E-15,37.95,11.7));
#847 = LINE('',#848,#849);
#848 = CARTESIAN_POINT('',(0.,42.3,11.7));
#849 = VECTOR('',#850,1.);
#850 = DIRECTION('',(0.,-1.,0.));
#851 = ORIENTED_EDGE('',*,*,#852,.F.);
#852 = EDGE_CURVE('',#779,#845,#853,.T.);
#853 = LINE('',#854,#855);
#854 = CARTESIAN_POINT('',(0.,37.95,0.));
#855 = VECTOR('',#856,1.);
#856 = DIRECTION('',(0.,0.,1.));
#857 = PLANE('',#858);
#858 = AXIS2_PLACEMENT_3D('',#859,#860,#861);
#859 = CARTESIAN_POINT('',(-2.3E-16,21.15,16.542677824268));
#860 = DIRECTION('',(-1.,-0.,-0.));
#861 = DIRECTION('',(0.,0.,-1.));
#862 = ADVANCED_FACE('',(#863),#945,.T.);
#863 = FACE_BOUND('',#864,.T.);
#864 = EDGE_LOOP('',(#865,#875,#883,#891,#899,#907,#913,#914,#915,#923,
    #931,#939));
#865 = ORIENTED_EDGE('',*,*,#866,.T.);
#866 = EDGE_CURVE('',#867,#869,#871,.T.);
#867 = VERTEX_POINT('',#868);
#868 = CARTESIAN_POINT('',(42.3,4.35,0.));
#869 = VERTEX_POINT('',#870);
#870 = CARTESIAN_POINT('',(42.3,37.95,0.));
#871 = LINE('',#872,#873);
#872 = CARTESIAN_POINT('',(42.3,0.,0.));
#873 = VECTOR('',#874,1.);
#874 = DIRECTION('',(0.,1.,0.));
#875 = ORIENTED_EDGE('',*,*,#876,.T.);
#876 = EDGE_CURVE('',#869,#877,#879,.T.);
#877 = VERTEX_POINT('',#878);
#878 = CARTESIAN_POINT('',(42.3,37.95,11.7));
#879 = LINE('',#880,#881);
#880 = CARTESIAN_POINT('',(42.3,37.95,0.));
#881 = VECTOR('',#882,1.);
#882 = DIRECTION('',(0.,0.,1.));
#883 = ORIENTED_EDGE('',*,*,#884,.F.);
#884 = EDGE_CURVE('',#885,#877,#887,.T.);
#885 = VERTEX_POINT('',#886);
#886 = CARTESIAN_POINT('',(42.3,35.4,11.7));
#887 = LINE('',#888,#889);
#888 = CARTESIAN_POINT('',(42.3,0.,11.7));
#889 = VECTOR('',#890,1.);
#890 = DIRECTION('',(0.,1.,0.));
#891 = ORIENTED_EDGE('',*,*,#892,.T.);
#892 = EDGE_CURVE('',#885,#893,#895,.T.);
#893 = VERTEX_POINT('',#894);
#894 = CARTESIAN_POINT('',(42.3,35.4,22.5));
#895 = LINE('',#896,#897);
#896 = CARTESIAN_POINT('',(42.3,35.4,11.7));
#897 = VECTOR('',#898,1.);
#898 = DIRECTION('',(0.,0.,1.));
#899 = ORIENTED_EDGE('',*,*,#900,.T.);
#900 = EDGE_CURVE('',#893,#901,#903,.T.);
#901 = VERTEX_POINT('',#902);
#902 = CARTESIAN_POINT('',(42.3,37.95,22.5));
#903 = LINE('',#904,#905);
#904 = CARTESIAN_POINT('',(42.3,4.35,22.5));
#905 = VECTOR('',#906,1.);
#906 = DIRECTION('',(0.,1.,0.));
#907 = ORIENTED_EDGE('',*,*,#908,.T.);
#908 = EDGE_CURVE('',#901,#501,#909,.T.);
#909 = LINE('',#910,#911);
#910 = CARTESIAN_POINT('',(42.3,37.95,22.5));
#911 = VECTOR('',#912,1.);
#912 = DIRECTION('',(0.,0.,1.));
#913 = ORIENTED_EDGE('',*,*,#500,.F.);
#914 = ORIENTED_EDGE('',*,*,#756,.F.);
#915 = ORIENTED_EDGE('',*,*,#916,.T.);
#916 = EDGE_CURVE('',#757,#917,#919,.T.);
#917 = VERTEX_POINT('',#918);
#918 = CARTESIAN_POINT('',(42.3,6.9,22.5));
#919 = LINE('',#920,#921);
#920 = CARTESIAN_POINT('',(42.3,4.35,22.5));
#921 = VECTOR('',#922,1.);
#922 = DIRECTION('',(0.,1.,0.));
#923 = ORIENTED_EDGE('',*,*,#924,.F.);
#924 = EDGE_CURVE('',#925,#917,#927,.T.);
#925 = VERTEX_POINT('',#926);
#926 = CARTESIAN_POINT('',(42.3,6.9,11.7));
#927 = LINE('',#928,#929);
#928 = CARTESIAN_POINT('',(42.3,6.9,11.7));
#929 = VECTOR('',#930,1.);
#930 = DIRECTION('',(0.,0.,1.));
#931 = ORIENTED_EDGE('',*,*,#932,.F.);
#932 = EDGE_CURVE('',#933,#925,#935,.T.);
#933 = VERTEX_POINT('',#934);
#934 = CARTESIAN_POINT('',(42.3,4.35,11.7));
#935 = LINE('',#936,#937);
#936 = CARTESIAN_POINT('',(42.3,0.,11.7));
#937 = VECTOR('',#938,1.);
#938 = DIRECTION('',(0.,1.,0.));
#939 = ORIENTED_EDGE('',*,*,#940,.F.);
#940 = EDGE_CURVE('',#867,#933,#941,.T.);
#941 = LINE('',#942,#943);
#942 = CARTESIAN_POINT('',(42.3,4.35,0.));
#943 = VECTOR('',#944,1.);
#944 = DIRECTION('',(0.,0.,1.));
#945 = PLANE('',#946);
#946 = AXIS2_PLACEMENT_3D('',#947,#948,#949);
#947 = CARTESIAN_POINT('',(42.3,21.15,16.542677824268));
#948 = DIRECTION('',(1.,0.,0.));
#949 = DIRECTION('',(0.,0.,1.));
#950 = ADVANCED_FACE('',(#951),#969,.F.);
#951 = FACE_BOUND('',#952,.F.);
#952 = EDGE_LOOP('',(#953,#961,#962,#963));
#953 = ORIENTED_EDGE('',*,*,#954,.T.);
#954 = EDGE_CURVE('',#955,#517,#957,.T.);
#955 = VERTEX_POINT('',#956);
#956 = CARTESIAN_POINT('',(4.35,42.3,22.5));
#957 = LINE('',#958,#959);
#958 = CARTESIAN_POINT('',(4.35,42.3,22.5));
#959 = VECTOR('',#960,1.);
#960 = DIRECTION('',(0.,0.,1.));
#961 = ORIENTED_EDGE('',*,*,#524,.T.);
#962 = ORIENTED_EDGE('',*,*,#820,.F.);
#963 = ORIENTED_EDGE('',*,*,#964,.F.);
#964 = EDGE_CURVE('',#955,#821,#965,.T.);
#965 = LINE('',#966,#967);
#966 = CARTESIAN_POINT('',(4.35,42.3,22.5));
#967 = VECTOR('',#968,1.);
#968 = DIRECTION('',(-0.707106781187,-0.707106781187,0.));
#969 = PLANE('',#970);
#970 = AXIS2_PLACEMENT_3D('',#971,#972,#973);
#971 = CARTESIAN_POINT('',(4.35,42.3,22.5));
#972 = DIRECTION('',(0.707106781187,-0.707106781187,0.));
#973 = DIRECTION('',(-0.707106781187,-0.707106781187,0.));
#974 = ADVANCED_FACE('',(#975),#993,.F.);
#975 = FACE_BOUND('',#976,.F.);
#976 = EDGE_LOOP('',(#977,#978,#979,#987));
#977 = ORIENTED_EDGE('',*,*,#908,.T.);
#978 = ORIENTED_EDGE('',*,*,#508,.T.);
#979 = ORIENTED_EDGE('',*,*,#980,.F.);
#980 = EDGE_CURVE('',#981,#509,#983,.T.);
#981 = VERTEX_POINT('',#982);
#982 = CARTESIAN_POINT('',(37.95,42.3,22.5));
#983 = LINE('',#984,#985);
#984 = CARTESIAN_POINT('',(37.95,42.3,22.5));
#985 = VECTOR('',#986,1.);
#986 = DIRECTION('',(0.,0.,1.));
#987 = ORIENTED_EDGE('',*,*,#988,.F.);
#988 = EDGE_CURVE('',#901,#981,#989,.T.);
#989 = LINE('',#990,#991);
#990 = CARTESIAN_POINT('',(42.3,37.95,22.5));
#991 = VECTOR('',#992,1.);
#992 = DIRECTION('',(-0.707106781187,0.707106781187,0.));
#993 = PLANE('',#994);
#994 = AXIS2_PLACEMENT_3D('',#995,#996,#997);
#995 = CARTESIAN_POINT('',(42.3,37.95,22.5));
#996 = DIRECTION('',(-0.707106781187,-0.707106781187,0.));
#997 = DIRECTION('',(-0.707106781187,0.707106781187,0.));
#998 = ADVANCED_FACE('',(#999),#1074,.T.);
#999 = FACE_BOUND('',#1000,.T.);
#1000 = EDGE_LOOP('',(#1001,#1011,#1019,#1027,#1035,#1041,#1042,#1043,
    #1044,#1052,#1060,#1068));
#1001 = ORIENTED_EDGE('',*,*,#1002,.T.);
#1002 = EDGE_CURVE('',#1003,#1005,#1007,.T.);
#1003 = VERTEX_POINT('',#1004);
#1004 = CARTESIAN_POINT('',(37.95,42.3,0.));
#1005 = VERTEX_POINT('',#1006);
#1006 = CARTESIAN_POINT('',(4.35,42.3,0.));
#1007 = LINE('',#1008,#1009);
#1008 = CARTESIAN_POINT('',(42.3,42.3,0.));
#1009 = VECTOR('',#1010,1.);
#1010 = DIRECTION('',(-1.,0.,0.));
#1011 = ORIENTED_EDGE('',*,*,#1012,.T.);
#1012 = EDGE_CURVE('',#1005,#1013,#1015,.T.);
#1013 = VERTEX_POINT('',#1014);
#1014 = CARTESIAN_POINT('',(4.35,42.3,11.7));
#1015 = LINE('',#1016,#1017);
#1016 = CARTESIAN_POINT('',(4.35,42.3,0.));
#1017 = VECTOR('',#1018,1.);
#1018 = DIRECTION('',(0.,0.,1.));
#1019 = ORIENTED_EDGE('',*,*,#1020,.F.);
#1020 = EDGE_CURVE('',#1021,#1013,#1023,.T.);
#1021 = VERTEX_POINT('',#1022);
#1022 = CARTESIAN_POINT('',(6.9,42.3,11.7));
#1023 = LINE('',#1024,#1025);
#1024 = CARTESIAN_POINT('',(42.3,42.3,11.7));
#1025 = VECTOR('',#1026,1.);
#1026 = DIRECTION('',(-1.,0.,0.));
#1027 = ORIENTED_EDGE('',*,*,#1028,.T.);
#1028 = EDGE_CURVE('',#1021,#1029,#1031,.T.);
#1029 = VERTEX_POINT('',#1030);
#1030 = CARTESIAN_POINT('',(6.9,42.3,22.5));
#1031 = LINE('',#1032,#1033);
#1032 = CARTESIAN_POINT('',(6.9,42.3,11.7));
#1033 = VECTOR('',#1034,1.);
#1034 = DIRECTION('',(0.,0.,1.));
#1035 = ORIENTED_EDGE('',*,*,#1036,.T.);
#1036 = EDGE_CURVE('',#1029,#955,#1037,.T.);
#1037 = LINE('',#1038,#1039);
#1038 = CARTESIAN_POINT('',(37.95,42.3,22.5));
#1039 = VECTOR('',#1040,1.);
#1040 = DIRECTION('',(-1.,0.,0.));
#1041 = ORIENTED_EDGE('',*,*,#954,.T.);
#1042 = ORIENTED_EDGE('',*,*,#516,.F.);
#1043 = ORIENTED_EDGE('',*,*,#980,.F.);
#1044 = ORIENTED_EDGE('',*,*,#1045,.T.);
#1045 = EDGE_CURVE('',#981,#1046,#1048,.T.);
#1046 = VERTEX_POINT('',#1047);
#1047 = CARTESIAN_POINT('',(35.4,42.3,22.5));
#1048 = LINE('',#1049,#1050);
#1049 = CARTESIAN_POINT('',(37.95,42.3,22.5));
#1050 = VECTOR('',#1051,1.);
#1051 = DIRECTION('',(-1.,0.,0.));
#1052 = ORIENTED_EDGE('',*,*,#1053,.F.);
#1053 = EDGE_CURVE('',#1054,#1046,#1056,.T.);
#1054 = VERTEX_POINT('',#1055);
#1055 = CARTESIAN_POINT('',(35.4,42.3,11.7));
#1056 = LINE('',#1057,#1058);
#1057 = CARTESIAN_POINT('',(35.4,42.3,11.7));
#1058 = VECTOR('',#1059,1.);
#1059 = DIRECTION('',(0.,0.,1.));
#1060 = ORIENTED_EDGE('',*,*,#1061,.F.);
#1061 = EDGE_CURVE('',#1062,#1054,#1064,.T.);
#1062 = VERTEX_POINT('',#1063);
#1063 = CARTESIAN_POINT('',(37.95,42.3,11.7));
#1064 = LINE('',#1065,#1066);
#1065 = CARTESIAN_POINT('',(42.3,42.3,11.7));
#1066 = VECTOR('',#1067,1.);
#1067 = DIRECTION('',(-1.,0.,0.));
#1068 = ORIENTED_EDGE('',*,*,#1069,.F.);
#1069 = EDGE_CURVE('',#1003,#1062,#1070,.T.);
#1070 = LINE('',#1071,#1072);
#1071 = CARTESIAN_POINT('',(37.95,42.3,0.));
#1072 = VECTOR('',#1073,1.);
#1073 = DIRECTION('',(0.,0.,1.));
#1074 = PLANE('',#1075);
#1075 = AXIS2_PLACEMENT_3D('',#1076,#1077,#1078);
#1076 = CARTESIAN_POINT('',(21.15,42.3,16.542677824268));
#1077 = DIRECTION('',(0.,1.,0.));
#1078 = DIRECTION('',(0.,0.,1.));
#1079 = ADVANCED_FACE('',(#1080),#1099,.F.);
#1080 = FACE_BOUND('',#1081,.F.);
#1081 = EDGE_LOOP('',(#1082,#1090,#1097,#1098));
#1082 = ORIENTED_EDGE('',*,*,#1083,.T.);
#1083 = EDGE_CURVE('',#549,#1084,#1086,.T.);
#1084 = VERTEX_POINT('',#1085);
#1085 = CARTESIAN_POINT('',(7.15,5.65,29.));
#1086 = LINE('',#1087,#1088);
#1087 = CARTESIAN_POINT('',(7.15,5.65,33.));
#1088 = VECTOR('',#1089,1.);
#1089 = DIRECTION('',(-0.,-0.,-1.));
#1090 = ORIENTED_EDGE('',*,*,#1091,.T.);
#1091 = EDGE_CURVE('',#1084,#1084,#1092,.T.);
#1092 = CIRCLE('',#1093,1.5);
#1093 = AXIS2_PLACEMENT_3D('',#1094,#1095,#1096);
#1094 = CARTESIAN_POINT('',(5.65,5.65,29.));
#1095 = DIRECTION('',(0.,0.,1.));
#1096 = DIRECTION('',(1.,0.,0.));
#1097 = ORIENTED_EDGE('',*,*,#1083,.F.);
#1098 = ORIENTED_EDGE('',*,*,#548,.F.);
#1099 = CYLINDRICAL_SURFACE('',#1100,1.5);
#1100 = AXIS2_PLACEMENT_3D('',#1101,#1102,#1103);
#1101 = CARTESIAN_POINT('',(5.65,5.65,33.));
#1102 = DIRECTION('',(0.,0.,1.));
#1103 = DIRECTION('',(1.,0.,0.));
#1104 = ADVANCED_FACE('',(#1105),#1124,.F.);
#1105 = FACE_BOUND('',#1106,.F.);
#1106 = EDGE_LOOP('',(#1107,#1115,#1122,#1123));
#1107 = ORIENTED_EDGE('',*,*,#1108,.T.);
#1108 = EDGE_CURVE('',#560,#1109,#1111,.T.);
#1109 = VERTEX_POINT('',#1110);
#1110 = CARTESIAN_POINT('',(38.15,5.65,29.));
#1111 = LINE('',#1112,#1113);
#1112 = CARTESIAN_POINT('',(38.15,5.65,33.));
#1113 = VECTOR('',#1114,1.);
#1114 = DIRECTION('',(-0.,-0.,-1.));
#1115 = ORIENTED_EDGE('',*,*,#1116,.T.);
#1116 = EDGE_CURVE('',#1109,#1109,#1117,.T.);
#1117 = CIRCLE('',#1118,1.5);
#1118 = AXIS2_PLACEMENT_3D('',#1119,#1120,#1121);
#1119 = CARTESIAN_POINT('',(36.65,5.65,29.));
#1120 = DIRECTION('',(0.,0.,1.));
#1121 = DIRECTION('',(1.,0.,0.));
#1122 = ORIENTED_EDGE('',*,*,#1108,.F.);
#1123 = ORIENTED_EDGE('',*,*,#559,.F.);
#1124 = CYLINDRICAL_SURFACE('',#1125,1.5);
#1125 = AXIS2_PLACEMENT_3D('',#1126,#1127,#1128);
#1126 = CARTESIAN_POINT('',(36.65,5.65,33.));
#1127 = DIRECTION('',(0.,0.,1.));
#1128 = DIRECTION('',(1.,0.,0.));
#1129 = ADVANCED_FACE('',(#1130),#1149,.F.);
#1130 = FACE_BOUND('',#1131,.F.);
#1131 = EDGE_LOOP('',(#1132,#1140,#1147,#1148));
#1132 = ORIENTED_EDGE('',*,*,#1133,.T.);
#1133 = EDGE_CURVE('',#571,#1134,#1136,.T.);
#1134 = VERTEX_POINT('',#1135);
#1135 = CARTESIAN_POINT('',(7.15,36.65,29.));
#1136 = LINE('',#1137,#1138);
#1137 = CARTESIAN_POINT('',(7.15,36.65,33.));
#1138 = VECTOR('',#1139,1.);
#1139 = DIRECTION('',(-0.,-0.,-1.));
#1140 = ORIENTED_EDGE('',*,*,#1141,.T.);
#1141 = EDGE_CURVE('',#1134,#1134,#1142,.T.);
#1142 = CIRCLE('',#1143,1.5);
#1143 = AXIS2_PLACEMENT_3D('',#1144,#1145,#1146);
#1144 = CARTESIAN_POINT('',(5.65,36.65,29.));
#1145 = DIRECTION('',(0.,0.,1.));
#1146 = DIRECTION('',(1.,0.,0.));
#1147 = ORIENTED_EDGE('',*,*,#1133,.F.);
#1148 = ORIENTED_EDGE('',*,*,#570,.F.);
#1149 = CYLINDRICAL_SURFACE('',#1150,1.5);
#1150 = AXIS2_PLACEMENT_3D('',#1151,#1152,#1153);
#1151 = CARTESIAN_POINT('',(5.65,36.65,33.));
#1152 = DIRECTION('',(0.,0.,1.));
#1153 = DIRECTION('',(1.,0.,0.));
#1154 = ADVANCED_FACE('',(#1155),#1174,.F.);
#1155 = FACE_BOUND('',#1156,.F.);
#1156 = EDGE_LOOP('',(#1157,#1165,#1172,#1173));
#1157 = ORIENTED_EDGE('',*,*,#1158,.T.);
#1158 = EDGE_CURVE('',#585,#1159,#1161,.T.);
#1159 = VERTEX_POINT('',#1160);
#1160 = CARTESIAN_POINT('',(38.15,36.65,29.));
#1161 = LINE('',#1162,#1163);
#1162 = CARTESIAN_POINT('',(38.15,36.65,33.));
#1163 = VECTOR('',#1164,1.);
#1164 = DIRECTION('',(-0.,-0.,-1.));
#1165 = ORIENTED_EDGE('',*,*,#1166,.T.);
#1166 = EDGE_CURVE('',#1159,#1159,#1167,.T.);
#1167 = CIRCLE('',#1168,1.5);
#1168 = AXIS2_PLACEMENT_3D('',#1169,#1170,#1171);
#1169 = CARTESIAN_POINT('',(36.65,36.65,29.));
#1170 = DIRECTION('',(0.,0.,1.));
#1171 = DIRECTION('',(1.,0.,0.));
#1172 = ORIENTED_EDGE('',*,*,#1158,.F.);
#1173 = ORIENTED_EDGE('',*,*,#584,.F.);
#1174 = CYLINDRICAL_SURFACE('',#1175,1.5);
#1175 = AXIS2_PLACEMENT_3D('',#1176,#1177,#1178);
#1176 = CARTESIAN_POINT('',(36.65,36.65,33.));
#1177 = DIRECTION('',(0.,0.,1.));
#1178 = DIRECTION('',(1.,0.,0.));
#1179 = ADVANCED_FACE('',(#1180),#1210,.F.);
#1180 = FACE_BOUND('',#1181,.F.);
#1181 = EDGE_LOOP('',(#1182,#1183,#1189,#1190,#1196,#1197,#1203,#1204));
#1182 = ORIENTED_EDGE('',*,*,#601,.T.);
#1183 = ORIENTED_EDGE('',*,*,#1184,.T.);
#1184 = EDGE_CURVE('',#604,#867,#1185,.T.);
#1185 = LINE('',#1186,#1187);
#1186 = CARTESIAN_POINT('',(40.125,2.175,0.));
#1187 = VECTOR('',#1188,1.);
#1188 = DIRECTION('',(0.707106781187,0.707106781187,0.));
#1189 = ORIENTED_EDGE('',*,*,#866,.T.);
#1190 = ORIENTED_EDGE('',*,*,#1191,.T.);
#1191 = EDGE_CURVE('',#869,#1003,#1192,.T.);
#1192 = LINE('',#1193,#1194);
#1193 = CARTESIAN_POINT('',(40.125,40.125,0.));
#1194 = VECTOR('',#1195,1.);
#1195 = DIRECTION('',(-0.707106781187,0.707106781187,0.));
#1196 = ORIENTED_EDGE('',*,*,#1002,.T.);
#1197 = ORIENTED_EDGE('',*,*,#1198,.T.);
#1198 = EDGE_CURVE('',#1005,#779,#1199,.T.);
#1199 = LINE('',#1200,#1201);
#1200 = CARTESIAN_POINT('',(2.175,40.125,0.));
#1201 = VECTOR('',#1202,1.);
#1202 = DIRECTION('',(-0.707106781187,-0.707106781187,0.));
#1203 = ORIENTED_EDGE('',*,*,#778,.T.);
#1204 = ORIENTED_EDGE('',*,*,#1205,.F.);
#1205 = EDGE_CURVE('',#602,#781,#1206,.T.);
#1206 = LINE('',#1207,#1208);
#1207 = CARTESIAN_POINT('',(2.175,2.175,0.));
#1208 = VECTOR('',#1209,1.);
#1209 = DIRECTION('',(-0.707106781187,0.707106781187,0.));
#1210 = PLANE('',#1211);
#1211 = AXIS2_PLACEMENT_3D('',#1212,#1213,#1214);
#1212 = CARTESIAN_POINT('',(21.15,21.15,0.));
#1213 = DIRECTION('',(0.,0.,1.));
#1214 = DIRECTION('',(1.,0.,0.));
#1215 = ADVANCED_FACE('',(#1216),#1227,.T.);
#1216 = FACE_BOUND('',#1217,.T.);
#1217 = EDGE_LOOP('',(#1218,#1219,#1220,#1226));
#1218 = ORIENTED_EDGE('',*,*,#1205,.F.);
#1219 = ORIENTED_EDGE('',*,*,#682,.T.);
#1220 = ORIENTED_EDGE('',*,*,#1221,.T.);
#1221 = EDGE_CURVE('',#675,#789,#1222,.T.);
#1222 = LINE('',#1223,#1224);
#1223 = CARTESIAN_POINT('',(2.175,2.175,11.7));
#1224 = VECTOR('',#1225,1.);
#1225 = DIRECTION('',(-0.707106781187,0.707106781187,0.));
#1226 = ORIENTED_EDGE('',*,*,#788,.F.);
#1227 = PLANE('',#1228);
#1228 = AXIS2_PLACEMENT_3D('',#1229,#1230,#1231);
#1229 = CARTESIAN_POINT('',(2.175,2.175,0.));
#1230 = DIRECTION('',(-0.707106781187,-0.707106781187,0.));
#1231 = DIRECTION('',(0.,0.,1.));
#1232 = ADVANCED_FACE('',(#1233),#1244,.T.);
#1233 = FACE_BOUND('',#1234,.F.);
#1234 = EDGE_LOOP('',(#1235,#1236,#1237,#1243));
#1235 = ORIENTED_EDGE('',*,*,#1184,.F.);
#1236 = ORIENTED_EDGE('',*,*,#611,.T.);
#1237 = ORIENTED_EDGE('',*,*,#1238,.T.);
#1238 = EDGE_CURVE('',#612,#933,#1239,.T.);
#1239 = LINE('',#1240,#1241);
#1240 = CARTESIAN_POINT('',(40.125,2.175,11.7));
#1241 = VECTOR('',#1242,1.);
#1242 = DIRECTION('',(0.707106781187,0.707106781187,0.));
#1243 = ORIENTED_EDGE('',*,*,#940,.F.);
#1244 = PLANE('',#1245);
#1245 = AXIS2_PLACEMENT_3D('',#1246,#1247,#1248);
#1246 = CARTESIAN_POINT('',(40.125,2.175,0.));
#1247 = DIRECTION('',(0.707106781187,-0.707106781187,0.));
#1248 = DIRECTION('',(-0.,-0.,-1.));
#1249 = ADVANCED_FACE('',(#1250),#1261,.T.);
#1250 = FACE_BOUND('',#1251,.T.);
#1251 = EDGE_LOOP('',(#1252,#1253,#1254,#1260));
#1252 = ORIENTED_EDGE('',*,*,#1221,.F.);
#1253 = ORIENTED_EDGE('',*,*,#674,.T.);
#1254 = ORIENTED_EDGE('',*,*,#1255,.F.);
#1255 = EDGE_CURVE('',#797,#667,#1256,.T.);
#1256 = LINE('',#1257,#1258);
#1257 = CARTESIAN_POINT('',(0.,6.9,11.7));
#1258 = VECTOR('',#1259,1.);
#1259 = DIRECTION('',(0.707106781187,-0.707106781187,0.));
#1260 = ORIENTED_EDGE('',*,*,#796,.T.);
#1261 = PLANE('',#1262);
#1262 = AXIS2_PLACEMENT_3D('',#1263,#1264,#1265);
#1263 = CARTESIAN_POINT('',(21.15,21.15,11.7));
#1264 = DIRECTION('',(0.,0.,1.));
#1265 = DIRECTION('',(1.,0.,0.));
#1266 = ADVANCED_FACE('',(#1267),#1278,.T.);
#1267 = FACE_BOUND('',#1268,.T.);
#1268 = EDGE_LOOP('',(#1269,#1275,#1276,#1277));
#1269 = ORIENTED_EDGE('',*,*,#1270,.F.);
#1270 = EDGE_CURVE('',#620,#925,#1271,.T.);
#1271 = LINE('',#1272,#1273);
#1272 = CARTESIAN_POINT('',(35.4,0.,11.7));
#1273 = VECTOR('',#1274,1.);
#1274 = DIRECTION('',(0.707106781187,0.707106781187,0.));
#1275 = ORIENTED_EDGE('',*,*,#619,.T.);
#1276 = ORIENTED_EDGE('',*,*,#1238,.T.);
#1277 = ORIENTED_EDGE('',*,*,#932,.T.);
#1278 = PLANE('',#1279);
#1279 = AXIS2_PLACEMENT_3D('',#1280,#1281,#1282);
#1280 = CARTESIAN_POINT('',(21.15,21.15,11.7));
#1281 = DIRECTION('',(0.,0.,1.));
#1282 = DIRECTION('',(1.,0.,0.));
#1283 = ADVANCED_FACE('',(#1284),#1295,.F.);
#1284 = FACE_BOUND('',#1285,.F.);
#1285 = EDGE_LOOP('',(#1286,#1287,#1293,#1294));
#1286 = ORIENTED_EDGE('',*,*,#804,.T.);
#1287 = ORIENTED_EDGE('',*,*,#1288,.T.);
#1288 = EDGE_CURVE('',#805,#659,#1289,.T.);
#1289 = LINE('',#1290,#1291);
#1290 = CARTESIAN_POINT('',(0.,6.9,22.5));
#1291 = VECTOR('',#1292,1.);
#1292 = DIRECTION('',(0.707106781187,-0.707106781187,0.));
#1293 = ORIENTED_EDGE('',*,*,#666,.F.);
#1294 = ORIENTED_EDGE('',*,*,#1255,.F.);
#1295 = PLANE('',#1296);
#1296 = AXIS2_PLACEMENT_3D('',#1297,#1298,#1299);
#1297 = CARTESIAN_POINT('',(0.,6.9,11.7));
#1298 = DIRECTION('',(0.707106781187,0.707106781187,0.));
#1299 = DIRECTION('',(0.707106781187,-0.707106781187,0.));
#1300 = ADVANCED_FACE('',(#1301),#1312,.F.);
#1301 = FACE_BOUND('',#1302,.F.);
#1302 = EDGE_LOOP('',(#1303,#1304,#1310,#1311));
#1303 = ORIENTED_EDGE('',*,*,#627,.T.);
#1304 = ORIENTED_EDGE('',*,*,#1305,.T.);
#1305 = EDGE_CURVE('',#628,#917,#1306,.T.);
#1306 = LINE('',#1307,#1308);
#1307 = CARTESIAN_POINT('',(35.4,0.,22.5));
#1308 = VECTOR('',#1309,1.);
#1309 = DIRECTION('',(0.707106781187,0.707106781187,0.));
#1310 = ORIENTED_EDGE('',*,*,#924,.F.);
#1311 = ORIENTED_EDGE('',*,*,#1270,.F.);
#1312 = PLANE('',#1313);
#1313 = AXIS2_PLACEMENT_3D('',#1314,#1315,#1316);
#1314 = CARTESIAN_POINT('',(35.4,0.,11.7));
#1315 = DIRECTION('',(-0.707106781187,0.707106781187,0.));
#1316 = DIRECTION('',(0.707106781187,0.707106781187,0.));
#1317 = ADVANCED_FACE('',(#1318),#1324,.F.);
#1318 = FACE_BOUND('',#1319,.F.);
#1319 = EDGE_LOOP('',(#1320,#1321,#1322,#1323));
#1320 = ORIENTED_EDGE('',*,*,#740,.F.);
#1321 = ORIENTED_EDGE('',*,*,#658,.T.);
#1322 = ORIENTED_EDGE('',*,*,#1288,.F.);
#1323 = ORIENTED_EDGE('',*,*,#812,.T.);
#1324 = PLANE('',#1325);
#1325 = AXIS2_PLACEMENT_3D('',#1326,#1327,#1328);
#1326 = CARTESIAN_POINT('',(21.15,21.15,22.5));
#1327 = DIRECTION('',(0.,0.,1.));
#1328 = DIRECTION('',(1.,0.,0.));
#1329 = ADVANCED_FACE('',(#1330),#1336,.F.);
#1330 = FACE_BOUND('',#1331,.F.);
#1331 = EDGE_LOOP('',(#1332,#1333,#1334,#1335));
#1332 = ORIENTED_EDGE('',*,*,#1305,.F.);
#1333 = ORIENTED_EDGE('',*,*,#635,.T.);
#1334 = ORIENTED_EDGE('',*,*,#764,.T.);
#1335 = ORIENTED_EDGE('',*,*,#916,.T.);
#1336 = PLANE('',#1337);
#1337 = AXIS2_PLACEMENT_3D('',#1338,#1339,#1340);
#1338 = CARTESIAN_POINT('',(21.15,21.15,22.5));
#1339 = DIRECTION('',(0.,0.,1.));
#1340 = DIRECTION('',(1.,0.,0.));
#1341 = ADVANCED_FACE('',(#1342),#1367,.F.);
#1342 = FACE_BOUND('',#1343,.F.);
#1343 = EDGE_LOOP('',(#1344,#1352,#1360,#1366));
#1344 = ORIENTED_EDGE('',*,*,#1345,.T.);
#1345 = EDGE_CURVE('',#691,#1346,#1348,.T.);
#1346 = VERTEX_POINT('',#1347);
#1347 = CARTESIAN_POINT('',(17.15,-3.,8.5));
#1348 = LINE('',#1349,#1350);
#1349 = CARTESIAN_POINT('',(17.15,1.68E-15,8.5));
#1350 = VECTOR('',#1351,1.);
#1351 = DIRECTION('',(0.,-1.,2.2E-16));
#1352 = ORIENTED_EDGE('',*,*,#1353,.T.);
#1353 = EDGE_CURVE('',#1346,#1354,#1356,.T.);
#1354 = VERTEX_POINT('',#1355);
#1355 = CARTESIAN_POINT('',(17.15,-3.,1.5));
#1356 = LINE('',#1357,#1358);
#1357 = CARTESIAN_POINT('',(17.15,-3.,8.5));
#1358 = VECTOR('',#1359,1.);
#1359 = DIRECTION('',(0.,0.,-1.));
#1360 = ORIENTED_EDGE('',*,*,#1361,.F.);
#1361 = EDGE_CURVE('',#693,#1354,#1362,.T.);
#1362 = LINE('',#1363,#1364);
#1363 = CARTESIAN_POINT('',(17.15,1.2E-16,1.5));
#1364 = VECTOR('',#1365,1.);
#1365 = DIRECTION('',(0.,-1.,2.2E-16));
#1366 = ORIENTED_EDGE('',*,*,#690,.F.);
#1367 = PLANE('',#1368);
#1368 = AXIS2_PLACEMENT_3D('',#1369,#1370,#1371);
#1369 = CARTESIAN_POINT('',(17.15,1.68E-15,8.5));
#1370 = DIRECTION('',(1.,0.,0.));
#1371 = DIRECTION('',(0.,-2.2E-16,-1.));
#1372 = ADVANCED_FACE('',(#1373),#1391,.F.);
#1373 = FACE_BOUND('',#1374,.F.);
#1374 = EDGE_LOOP('',(#1375,#1376,#1384,#1390));
#1375 = ORIENTED_EDGE('',*,*,#1361,.T.);
#1376 = ORIENTED_EDGE('',*,*,#1377,.T.);
#1377 = EDGE_CURVE('',#1354,#1378,#1380,.T.);
#1378 = VERTEX_POINT('',#1379);
#1379 = CARTESIAN_POINT('',(25.15,-3.,1.5));
#1380 = LINE('',#1381,#1382);
#1381 = CARTESIAN_POINT('',(17.15,-3.,1.5));
#1382 = VECTOR('',#1383,1.);
#1383 = DIRECTION('',(1.,0.,0.));
#1384 = ORIENTED_EDGE('',*,*,#1385,.F.);
#1385 = EDGE_CURVE('',#709,#1378,#1386,.T.);
#1386 = LINE('',#1387,#1388);
#1387 = CARTESIAN_POINT('',(25.15,1.2E-16,1.5));
#1388 = VECTOR('',#1389,1.);
#1389 = DIRECTION('',(0.,-1.,2.2E-16));
#1390 = ORIENTED_EDGE('',*,*,#716,.F.);
#1391 = PLANE('',#1392);
#1392 = AXIS2_PLACEMENT_3D('',#1393,#1394,#1395);
#1393 = CARTESIAN_POINT('',(17.15,1.2E-16,1.5));
#1394 = DIRECTION('',(0.,2.2E-16,1.));
#1395 = DIRECTION('',(1.,0.,-0.));
#1396 = ADVANCED_FACE('',(#1397),#1415,.F.);
#1397 = FACE_BOUND('',#1398,.F.);
#1398 = EDGE_LOOP('',(#1399,#1400,#1408,#1414));
#1399 = ORIENTED_EDGE('',*,*,#1385,.T.);
#1400 = ORIENTED_EDGE('',*,*,#1401,.T.);
#1401 = EDGE_CURVE('',#1378,#1402,#1404,.T.);
#1402 = VERTEX_POINT('',#1403);
#1403 = CARTESIAN_POINT('',(25.15,-3.,8.5));
#1404 = LINE('',#1405,#1406);
#1405 = CARTESIAN_POINT('',(25.15,-3.,1.5));
#1406 = VECTOR('',#1407,1.);
#1407 = DIRECTION('',(0.,0.,1.));
#1408 = ORIENTED_EDGE('',*,*,#1409,.F.);
#1409 = EDGE_CURVE('',#701,#1402,#1410,.T.);
#1410 = LINE('',#1411,#1412);
#1411 = CARTESIAN_POINT('',(25.15,1.68E-15,8.5));
#1412 = VECTOR('',#1413,1.);
#1413 = DIRECTION('',(0.,-1.,2.2E-16));
#1414 = ORIENTED_EDGE('',*,*,#708,.F.);
#1415 = PLANE('',#1416);
#1416 = AXIS2_PLACEMENT_3D('',#1417,#1418,#1419);
#1417 = CARTESIAN_POINT('',(25.15,1.2E-16,1.5));
#1418 = DIRECTION('',(-1.,0.,0.));
#1419 = DIRECTION('',(0.,2.2E-16,1.));
#1420 = ADVANCED_FACE('',(#1421),#1432,.F.);
#1421 = FACE_BOUND('',#1422,.F.);
#1422 = EDGE_LOOP('',(#1423,#1424,#1430,#1431));
#1423 = ORIENTED_EDGE('',*,*,#1409,.T.);
#1424 = ORIENTED_EDGE('',*,*,#1425,.T.);
#1425 = EDGE_CURVE('',#1402,#1346,#1426,.T.);
#1426 = LINE('',#1427,#1428);
#1427 = CARTESIAN_POINT('',(25.15,-3.,8.5));
#1428 = VECTOR('',#1429,1.);
#1429 = DIRECTION('',(-1.,0.,0.));
#1430 = ORIENTED_EDGE('',*,*,#1345,.F.);
#1431 = ORIENTED_EDGE('',*,*,#700,.F.);
#1432 = PLANE('',#1433);
#1433 = AXIS2_PLACEMENT_3D('',#1434,#1435,#1436);
#1434 = CARTESIAN_POINT('',(25.15,1.68E-15,8.5));
#1435 = DIRECTION('',(-0.,-2.2E-16,-1.));
#1436 = DIRECTION('',(-1.,0.,0.));
#1437 = ADVANCED_FACE('',(#1438),#1449,.F.);
#1438 = FACE_BOUND('',#1439,.F.);
#1439 = EDGE_LOOP('',(#1440,#1441,#1447,#1448));
#1440 = ORIENTED_EDGE('',*,*,#828,.T.);
#1441 = ORIENTED_EDGE('',*,*,#1442,.T.);
#1442 = EDGE_CURVE('',#829,#1029,#1443,.T.);
#1443 = LINE('',#1444,#1445);
#1444 = CARTESIAN_POINT('',(0.,35.4,22.5));
#1445 = VECTOR('',#1446,1.);
#1446 = DIRECTION('',(0.707106781187,0.707106781187,0.));
#1447 = ORIENTED_EDGE('',*,*,#1036,.T.);
#1448 = ORIENTED_EDGE('',*,*,#964,.T.);
#1449 = PLANE('',#1450);
#1450 = AXIS2_PLACEMENT_3D('',#1451,#1452,#1453);
#1451 = CARTESIAN_POINT('',(21.15,21.15,22.5));
#1452 = DIRECTION('',(0.,0.,1.));
#1453 = DIRECTION('',(1.,0.,0.));
#1454 = ADVANCED_FACE('',(#1455),#1466,.T.);
#1455 = FACE_BOUND('',#1456,.T.);
#1456 = EDGE_LOOP('',(#1457,#1458,#1459,#1460));
#1457 = ORIENTED_EDGE('',*,*,#836,.T.);
#1458 = ORIENTED_EDGE('',*,*,#1442,.T.);
#1459 = ORIENTED_EDGE('',*,*,#1028,.F.);
#1460 = ORIENTED_EDGE('',*,*,#1461,.F.);
#1461 = EDGE_CURVE('',#837,#1021,#1462,.T.);
#1462 = LINE('',#1463,#1464);
#1463 = CARTESIAN_POINT('',(0.,35.4,11.7));
#1464 = VECTOR('',#1465,1.);
#1465 = DIRECTION('',(0.707106781187,0.707106781187,0.));
#1466 = PLANE('',#1467);
#1467 = AXIS2_PLACEMENT_3D('',#1468,#1469,#1470);
#1468 = CARTESIAN_POINT('',(0.,35.4,11.7));
#1469 = DIRECTION('',(-0.707106781187,0.707106781187,0.));
#1470 = DIRECTION('',(0.707106781187,0.707106781187,0.));
#1471 = ADVANCED_FACE('',(#1472),#1483,.T.);
#1472 = FACE_BOUND('',#1473,.T.);
#1473 = EDGE_LOOP('',(#1474,#1475,#1476,#1477));
#1474 = ORIENTED_EDGE('',*,*,#844,.T.);
#1475 = ORIENTED_EDGE('',*,*,#1461,.T.);
#1476 = ORIENTED_EDGE('',*,*,#1020,.T.);
#1477 = ORIENTED_EDGE('',*,*,#1478,.T.);
#1478 = EDGE_CURVE('',#1013,#845,#1479,.T.);
#1479 = LINE('',#1480,#1481);
#1480 = CARTESIAN_POINT('',(2.175,40.125,11.7));
#1481 = VECTOR('',#1482,1.);
#1482 = DIRECTION('',(-0.707106781187,-0.707106781187,0.));
#1483 = PLANE('',#1484);
#1484 = AXIS2_PLACEMENT_3D('',#1485,#1486,#1487);
#1485 = CARTESIAN_POINT('',(21.15,21.15,11.7));
#1486 = DIRECTION('',(0.,0.,1.));
#1487 = DIRECTION('',(1.,0.,0.));
#1488 = ADVANCED_FACE('',(#1489),#1495,.T.);
#1489 = FACE_BOUND('',#1490,.F.);
#1490 = EDGE_LOOP('',(#1491,#1492,#1493,#1494));
#1491 = ORIENTED_EDGE('',*,*,#1198,.F.);
#1492 = ORIENTED_EDGE('',*,*,#1012,.T.);
#1493 = ORIENTED_EDGE('',*,*,#1478,.T.);
#1494 = ORIENTED_EDGE('',*,*,#852,.F.);
#1495 = PLANE('',#1496);
#1496 = AXIS2_PLACEMENT_3D('',#1497,#1498,#1499);
#1497 = CARTESIAN_POINT('',(2.175,40.125,0.));
#1498 = DIRECTION('',(-0.707106781187,0.707106781187,0.));
#1499 = DIRECTION('',(-0.,-0.,-1.));
#1500 = ADVANCED_FACE('',(#1501),#1512,.T.);
#1501 = FACE_BOUND('',#1502,.F.);
#1502 = EDGE_LOOP('',(#1503,#1504,#1505,#1511));
#1503 = ORIENTED_EDGE('',*,*,#1191,.F.);
#1504 = ORIENTED_EDGE('',*,*,#876,.T.);
#1505 = ORIENTED_EDGE('',*,*,#1506,.T.);
#1506 = EDGE_CURVE('',#877,#1062,#1507,.T.);
#1507 = LINE('',#1508,#1509);
#1508 = CARTESIAN_POINT('',(40.125,40.125,11.7));
#1509 = VECTOR('',#1510,1.);
#1510 = DIRECTION('',(-0.707106781187,0.707106781187,0.));
#1511 = ORIENTED_EDGE('',*,*,#1069,.F.);
#1512 = PLANE('',#1513);
#1513 = AXIS2_PLACEMENT_3D('',#1514,#1515,#1516);
#1514 = CARTESIAN_POINT('',(40.125,40.125,0.));
#1515 = DIRECTION('',(0.707106781187,0.707106781187,0.));
#1516 = DIRECTION('',(0.,0.,-1.));
#1517 = ADVANCED_FACE('',(#1518),#1529,.T.);
#1518 = FACE_BOUND('',#1519,.T.);
#1519 = EDGE_LOOP('',(#1520,#1526,#1527,#1528));
#1520 = ORIENTED_EDGE('',*,*,#1521,.T.);
#1521 = EDGE_CURVE('',#1054,#885,#1522,.T.);
#1522 = LINE('',#1523,#1524);
#1523 = CARTESIAN_POINT('',(35.4,42.3,11.7));
#1524 = VECTOR('',#1525,1.);
#1525 = DIRECTION('',(0.707106781187,-0.707106781187,0.));
#1526 = ORIENTED_EDGE('',*,*,#884,.T.);
#1527 = ORIENTED_EDGE('',*,*,#1506,.T.);
#1528 = ORIENTED_EDGE('',*,*,#1061,.T.);
#1529 = PLANE('',#1530);
#1530 = AXIS2_PLACEMENT_3D('',#1531,#1532,#1533);
#1531 = CARTESIAN_POINT('',(21.15,21.15,11.7));
#1532 = DIRECTION('',(0.,0.,1.));
#1533 = DIRECTION('',(1.,0.,0.));
#1534 = ADVANCED_FACE('',(#1535),#1546,.T.);
#1535 = FACE_BOUND('',#1536,.T.);
#1536 = EDGE_LOOP('',(#1537,#1538,#1544,#1545));
#1537 = ORIENTED_EDGE('',*,*,#1053,.T.);
#1538 = ORIENTED_EDGE('',*,*,#1539,.T.);
#1539 = EDGE_CURVE('',#1046,#893,#1540,.T.);
#1540 = LINE('',#1541,#1542);
#1541 = CARTESIAN_POINT('',(35.4,42.3,22.5));
#1542 = VECTOR('',#1543,1.);
#1543 = DIRECTION('',(0.707106781187,-0.707106781187,0.));
#1544 = ORIENTED_EDGE('',*,*,#892,.F.);
#1545 = ORIENTED_EDGE('',*,*,#1521,.F.);
#1546 = PLANE('',#1547);
#1547 = AXIS2_PLACEMENT_3D('',#1548,#1549,#1550);
#1548 = CARTESIAN_POINT('',(35.4,42.3,11.7));
#1549 = DIRECTION('',(0.707106781187,0.707106781187,0.));
#1550 = DIRECTION('',(0.707106781187,-0.707106781187,0.));
#1551 = ADVANCED_FACE('',(#1552),#1558,.F.);
#1552 = FACE_BOUND('',#1553,.F.);
#1553 = EDGE_LOOP('',(#1554,#1555,#1556,#1557));
#1554 = ORIENTED_EDGE('',*,*,#1539,.T.);
#1555 = ORIENTED_EDGE('',*,*,#900,.T.);
#1556 = ORIENTED_EDGE('',*,*,#988,.T.);
#1557 = ORIENTED_EDGE('',*,*,#1045,.T.);
#1558 = PLANE('',#1559);
#1559 = AXIS2_PLACEMENT_3D('',#1560,#1561,#1562);
#1560 = CARTESIAN_POINT('',(21.15,21.15,22.5));
#1561 = DIRECTION('',(0.,0.,1.));
#1562 = DIRECTION('',(1.,0.,0.));
#1563 = ADVANCED_FACE('',(#1564),#1567,.T.);
#1564 = FACE_BOUND('',#1565,.T.);
#1565 = EDGE_LOOP('',(#1566));
#1566 = ORIENTED_EDGE('',*,*,#1091,.T.);
#1567 = PLANE('',#1568);
#1568 = AXIS2_PLACEMENT_3D('',#1569,#1570,#1571);
#1569 = CARTESIAN_POINT('',(21.15,21.15,29.));
#1570 = DIRECTION('',(0.,0.,1.));
#1571 = DIRECTION('',(1.,0.,0.));
#1572 = ADVANCED_FACE('',(#1573),#1576,.T.);
#1573 = FACE_BOUND('',#1574,.T.);
#1574 = EDGE_LOOP('',(#1575));
#1575 = ORIENTED_EDGE('',*,*,#1116,.T.);
#1576 = PLANE('',#1577);
#1577 = AXIS2_PLACEMENT_3D('',#1578,#1579,#1580);
#1578 = CARTESIAN_POINT('',(21.15,21.15,29.));
#1579 = DIRECTION('',(0.,0.,1.));
#1580 = DIRECTION('',(1.,0.,0.));
#1581 = ADVANCED_FACE('',(#1582),#1585,.T.);
#1582 = FACE_BOUND('',#1583,.T.);
#1583 = EDGE_LOOP('',(#1584));
#1584 = ORIENTED_EDGE('',*,*,#1141,.T.);
#1585 = PLANE('',#1586);
#1586 = AXIS2_PLACEMENT_3D('',#1587,#1588,#1589);
#1587 = CARTESIAN_POINT('',(21.15,21.15,29.));
#1588 = DIRECTION('',(0.,0.,1.));
#1589 = DIRECTION('',(1.,0.,0.));
#1590 = ADVANCED_FACE('',(#1591),#1594,.T.);
#1591 = FACE_BOUND('',#1592,.T.);
#1592 = EDGE_LOOP('',(#1593));
#1593 = ORIENTED_EDGE('',*,*,#1166,.T.);
#1594 = PLANE('',#1595);
#1595 = AXIS2_PLACEMENT_3D('',#1596,#1597,#1598);
#1596 = CARTESIAN_POINT('',(21.15,21.15,29.));
#1597 = DIRECTION('',(0.,0.,1.));
#1598 = DIRECTION('',(1.,0.,0.));
#1599 = ADVANCED_FACE('',(#1600),#1606,.F.);
#1600 = FACE_BOUND('',#1601,.T.);
#1601 = EDGE_LOOP('',(#1602,#1603,#1604,#1605));
#1602 = ORIENTED_EDGE('',*,*,#1353,.T.);
#1603 = ORIENTED_EDGE('',*,*,#1377,.T.);
#1604 = ORIENTED_EDGE('',*,*,#1401,.T.);
#1605 = ORIENTED_EDGE('',*,*,#1425,.T.);
#1606 = PLANE('',#1607);
#1607 = AXIS2_PLACEMENT_3D('',#1608,#1609,#1610);
#1608 = CARTESIAN_POINT('',(21.15,-3.,5.));
#1609 = DIRECTION('',(0.,1.,0.));
#1610 = DIRECTION('',(0.,0.,1.));
#1611 = ( GEOMETRIC_REPRESENTATION_CONTEXT(3) 
GLOBAL_UNCERTAINTY_ASSIGNED_CONTEXT((#1615)) 
GLOBAL_UNIT_ASSIGNED_CONTEXT((#1612,#1613,#1614)) REPRESENTATION_CONTEXT
('Context #1','3D Context with UNIT and UNCERTAINTY') );
#1612 = ( LENGTH_UNIT() NAMED_UNIT(*) SI_UNIT(.MILLI.,.METRE.) );
#1613 = ( NAMED_UNIT(*) PLANE_ANGLE_UNIT() SI_UNIT($,.RADIAN.) );
#1614 = ( NAMED_UNIT(*) SI_UNIT($,.STERADIAN.) SOLID_ANGLE_UNIT() );
#1615 = UNCERTAINTY_MEASURE_WITH_UNIT(LENGTH_MEASURE(2.E-04),#1612,
  'distance_accuracy_value','confusion accuracy');
#1616 = PRODUCT_RELATED_PRODUCT_CATEGORY('part',$,(#7));
#1617 = MECHANICAL_DESIGN_GEOMETRIC_PRESENTATION_REPRESENTATION('',(
    #1618),#1611);
#1618 = STYLED_ITEM('color',(#1619),#15);
#1619 = PRESENTATION_STYLE_ASSIGNMENT((#1620,#1626));
#1620 = SURFACE_STYLE_USAGE(.BOTH.,#1621);
#1621 = SURFACE_SIDE_STYLE('',(#1622));
#1622 = SURFACE_STYLE_FILL_AREA(#1623);
#1623 = FILL_AREA_STYLE('',(#1624));
#1624 = FILL_AREA_STYLE_COLOUR('',#1625);
#1625 = COLOUR_RGB('',0.447058818107,0.474509808674,0.501960817233);
#1626 = CURVE_STYLE('',#1627,POSITIVE_LENGTH_MEASURE(0.1),#1628);
#1627 = DRAUGHTING_PRE_DEFINED_CURVE_FONT('continuous');
#1628 = COLOUR_RGB('',9.803921802644E-02,9.803921802644E-02,
  9.803921802644E-02);
ENDSEC;
END-ISO-10303-21;
