ISO-10303-21;
HEADER;
FILE_DESCRIPTION(('FreeCAD Model'),'2;1');
FILE_NAME('Open CASCADE Shape Model','2026-08-04T11:58:47',('Author'),(
    ''),'Open CASCADE STEP processor 7.8','FreeCAD','Unknown');
FILE_SCHEMA(('AUTOMOTIVE_DESIGN { 1 0 10303 214 1 1 1 1 }'));
ENDSEC;
DATA;
#1 = APPLICATION_PROTOCOL_DEFINITION('international standard',
  'automotive_design',2000,#2);
#2 = APPLICATION_CONTEXT(
  'core data for automotive mechanical design processes');
#3 = SHAPE_DEFINITION_REPRESENTATION(#4,#10);
#4 = PRODUCT_DEFINITION_SHAPE('','',#5);
#5 = PRODUCT_DEFINITION('design','',#6,#9);
#6 = PRODUCT_DEFINITION_FORMATION('','',#7);
#7 = PRODUCT('SideHolderWithMotor','SideHolderWithMotor','',(#8));
#8 = PRODUCT_CONTEXT('',#2,'mechanical');
#9 = PRODUCT_DEFINITION_CONTEXT('part definition',#2,'design');
#10 = ADVANCED_BREP_SHAPE_REPRESENTATION('',(#11,#15),#1737);
#11 = AXIS2_PLACEMENT_3D('',#12,#13,#14);
#12 = CARTESIAN_POINT('',(0.,0.,0.));
#13 = DIRECTION('',(0.,0.,1.));
#14 = DIRECTION('',(1.,0.,-0.));
#15 = MANIFOLD_SOLID_BREP('',#16);
#16 = CLOSED_SHELL('',(#17,#219,#250,#275,#300,#324,#348,#372,#397,#473,
    #497,#653,#678,#754,#778,#802,#827,#851,#875,#893,#918,#943,#968,
    #993,#1036,#1053,#1070,#1119,#1143,#1168,#1193,#1217,#1235,#1266,
    #1291,#1316,#1340,#1364,#1389,#1414,#1431,#1456,#1481,#1506,#1531,
    #1556,#1598,#1622,#1657,#1669,#1686,#1725));
#17 = ADVANCED_FACE('',(#18,#170,#181,#192,#203),#214,.T.);
#18 = FACE_BOUND('',#19,.T.);
#19 = EDGE_LOOP('',(#20,#30,#39,#47,#56,#64,#73,#81,#90,#98,#107,#115,
    #123,#131,#139,#147,#155,#163));
#20 = ORIENTED_EDGE('',*,*,#21,.T.);
#21 = EDGE_CURVE('',#22,#24,#26,.T.);
#22 = VERTEX_POINT('',#23);
#23 = CARTESIAN_POINT('',(-5.520310216783,39.4,58.064252557459));
#24 = VERTEX_POINT('',#25);
#25 = CARTESIAN_POINT('',(-5.520310216783,39.4,90.763455967291));
#26 = LINE('',#27,#28);
#27 = CARTESIAN_POINT('',(-5.520310216783,39.4,36.));
#28 = VECTOR('',#29,1.);
#29 = DIRECTION('',(0.,0.,1.));
#30 = ORIENTED_EDGE('',*,*,#31,.T.);
#31 = EDGE_CURVE('',#24,#32,#34,.T.);
#32 = VERTEX_POINT('',#33);
#33 = CARTESIAN_POINT('',(-4.348737341529,39.4,93.591883092037));
#34 = CIRCLE('',#35,4.);
#35 = AXIS2_PLACEMENT_3D('',#36,#37,#38);
#36 = CARTESIAN_POINT('',(-1.520310216783,39.4,90.763455967291));
#37 = DIRECTION('',(0.,1.,-2.2E-16));
#38 = DIRECTION('',(0.,-2.2E-16,-1.));
#39 = ORIENTED_EDGE('',*,*,#40,.T.);
#40 = EDGE_CURVE('',#32,#41,#43,.T.);
#41 = VERTEX_POINT('',#42);
#42 = CARTESIAN_POINT('',(10.308116907963,39.4,108.24873734152));
#43 = LINE('',#44,#45);
#44 = CARTESIAN_POINT('',(-2.955869936038,39.4,94.984750497528));
#45 = VECTOR('',#46,1.);
#46 = DIRECTION('',(0.707106781187,0.,0.707106781187));
#47 = ORIENTED_EDGE('',*,*,#48,.T.);
#48 = EDGE_CURVE('',#41,#49,#51,.T.);
#49 = VERTEX_POINT('',#50);
#50 = CARTESIAN_POINT('',(13.136544032709,39.4,109.42031021678));
#51 = CIRCLE('',#52,4.);
#52 = AXIS2_PLACEMENT_3D('',#53,#54,#55);
#53 = CARTESIAN_POINT('',(13.136544032709,39.4,105.42031021678));
#54 = DIRECTION('',(0.,1.,-2.2E-16));
#55 = DIRECTION('',(0.,-2.2E-16,-1.));
#56 = ORIENTED_EDGE('',*,*,#57,.T.);
#57 = EDGE_CURVE('',#49,#58,#60,.T.);
#58 = VERTEX_POINT('',#59);
#59 = CARTESIAN_POINT('',(28.863455967291,39.4,109.42031021678));
#60 = LINE('',#61,#62);
#61 = CARTESIAN_POINT('',(-5.520310216783,39.4,109.42031021678));
#62 = VECTOR('',#63,1.);
#63 = DIRECTION('',(1.,0.,0.));
#64 = ORIENTED_EDGE('',*,*,#65,.T.);
#65 = EDGE_CURVE('',#58,#66,#68,.T.);
#66 = VERTEX_POINT('',#67);
#67 = CARTESIAN_POINT('',(31.691883092037,39.4,108.24873734152));
#68 = CIRCLE('',#69,4.);
#69 = AXIS2_PLACEMENT_3D('',#70,#71,#72);
#70 = CARTESIAN_POINT('',(28.863455967291,39.4,105.42031021678));
#71 = DIRECTION('',(0.,1.,-2.2E-16));
#72 = DIRECTION('',(0.,-2.2E-16,-1.));
#73 = ORIENTED_EDGE('',*,*,#74,.T.);
#74 = EDGE_CURVE('',#66,#75,#77,.T.);
#75 = VERTEX_POINT('',#76);
#76 = CARTESIAN_POINT('',(46.348737341529,39.4,93.591883092037));
#77 = LINE('',#78,#79);
#78 = CARTESIAN_POINT('',(44.955869936038,39.4,94.984750497528));
#79 = VECTOR('',#80,1.);
#80 = DIRECTION('',(0.707106781187,0.,-0.707106781187));
#81 = ORIENTED_EDGE('',*,*,#82,.T.);
#82 = EDGE_CURVE('',#75,#83,#85,.T.);
#83 = VERTEX_POINT('',#84);
#84 = CARTESIAN_POINT('',(47.520310216783,39.4,90.763455967291));
#85 = CIRCLE('',#86,4.);
#86 = AXIS2_PLACEMENT_3D('',#87,#88,#89);
#87 = CARTESIAN_POINT('',(43.520310216783,39.4,90.763455967291));
#88 = DIRECTION('',(0.,1.,-2.2E-16));
#89 = DIRECTION('',(0.,-2.2E-16,-1.));
#90 = ORIENTED_EDGE('',*,*,#91,.T.);
#91 = EDGE_CURVE('',#83,#92,#94,.T.);
#92 = VERTEX_POINT('',#93);
#93 = CARTESIAN_POINT('',(47.520310216783,39.4,58.064252557459));
#94 = LINE('',#95,#96);
#95 = CARTESIAN_POINT('',(47.520310216783,39.4,109.42031021678));
#96 = VECTOR('',#97,1.);
#97 = DIRECTION('',(0.,0.,-1.));
#98 = ORIENTED_EDGE('',*,*,#99,.T.);
#99 = EDGE_CURVE('',#92,#100,#102,.T.);
#100 = VERTEX_POINT('',#101);
#101 = CARTESIAN_POINT('',(46.984411831921,39.4,56.064252557459));
#102 = CIRCLE('',#103,4.);
#103 = AXIS2_PLACEMENT_3D('',#104,#105,#106);
#104 = CARTESIAN_POINT('',(43.520310216783,39.4,58.064252557459));
#105 = DIRECTION('',(0.,1.,-2.2E-16));
#106 = DIRECTION('',(0.,-2.2E-16,-1.));
#107 = ORIENTED_EDGE('',*,*,#108,.F.);
#108 = EDGE_CURVE('',#109,#100,#111,.T.);
#109 = VERTEX_POINT('',#110);
#110 = CARTESIAN_POINT('',(35.400310216783,39.4,36.));
#111 = LINE('',#112,#113);
#112 = CARTESIAN_POINT('',(41.644073796503,39.4,46.814515750523));
#113 = VECTOR('',#114,1.);
#114 = DIRECTION('',(0.5,0.,0.866025403784));
#115 = ORIENTED_EDGE('',*,*,#116,.T.);
#116 = EDGE_CURVE('',#109,#117,#119,.T.);
#117 = VERTEX_POINT('',#118);
#118 = CARTESIAN_POINT('',(35.4,39.4,36.));
#119 = LINE('',#120,#121);
#120 = CARTESIAN_POINT('',(47.520310216783,39.4,36.));
#121 = VECTOR('',#122,1.);
#122 = DIRECTION('',(-1.,0.,0.));
#123 = ORIENTED_EDGE('',*,*,#124,.F.);
#124 = EDGE_CURVE('',#125,#117,#127,.T.);
#125 = VERTEX_POINT('',#126);
#126 = CARTESIAN_POINT('',(35.4,39.4,4.));
#127 = LINE('',#128,#129);
#128 = CARTESIAN_POINT('',(35.4,39.4,4.));
#129 = VECTOR('',#130,1.);
#130 = DIRECTION('',(0.,0.,1.));
#131 = ORIENTED_EDGE('',*,*,#132,.T.);
#132 = EDGE_CURVE('',#125,#133,#135,.T.);
#133 = VERTEX_POINT('',#134);
#134 = CARTESIAN_POINT('',(6.6,39.4,4.));
#135 = LINE('',#136,#137);
#136 = CARTESIAN_POINT('',(35.4,39.4,4.));
#137 = VECTOR('',#138,1.);
#138 = DIRECTION('',(-1.,0.,0.));
#139 = ORIENTED_EDGE('',*,*,#140,.T.);
#140 = EDGE_CURVE('',#133,#141,#143,.T.);
#141 = VERTEX_POINT('',#142);
#142 = CARTESIAN_POINT('',(6.6,39.4,36.));
#143 = LINE('',#144,#145);
#144 = CARTESIAN_POINT('',(6.6,39.4,69.));
#145 = VECTOR('',#146,1.);
#146 = DIRECTION('',(0.,0.,1.));
#147 = ORIENTED_EDGE('',*,*,#148,.T.);
#148 = EDGE_CURVE('',#141,#149,#151,.T.);
#149 = VERTEX_POINT('',#150);
#150 = CARTESIAN_POINT('',(6.599689783217,39.4,36.));
#151 = LINE('',#152,#153);
#152 = CARTESIAN_POINT('',(47.520310216783,39.4,36.));
#153 = VECTOR('',#154,1.);
#154 = DIRECTION('',(-1.,0.,0.));
#155 = ORIENTED_EDGE('',*,*,#156,.T.);
#156 = EDGE_CURVE('',#149,#157,#159,.T.);
#157 = VERTEX_POINT('',#158);
#158 = CARTESIAN_POINT('',(-4.984411831921,39.4,56.064252557459));
#159 = LINE('',#160,#161);
#160 = CARTESIAN_POINT('',(0.355926203497,39.4,46.814515750523));
#161 = VECTOR('',#162,1.);
#162 = DIRECTION('',(-0.5,0.,0.866025403784));
#163 = ORIENTED_EDGE('',*,*,#164,.F.);
#164 = EDGE_CURVE('',#22,#157,#165,.T.);
#165 = CIRCLE('',#166,4.);
#166 = AXIS2_PLACEMENT_3D('',#167,#168,#169);
#167 = CARTESIAN_POINT('',(-1.520310216783,39.4,58.064252557459));
#168 = DIRECTION('',(0.,-1.,2.2E-16));
#169 = DIRECTION('',(0.,-2.2E-16,-1.));
#170 = FACE_BOUND('',#171,.T.);
#171 = EDGE_LOOP('',(#172));
#172 = ORIENTED_EDGE('',*,*,#173,.F.);
#173 = EDGE_CURVE('',#174,#174,#176,.T.);
#174 = VERTEX_POINT('',#175);
#175 = CARTESIAN_POINT('',(13.,39.4,82.9));
#176 = CIRCLE('',#177,8.);
#177 = AXIS2_PLACEMENT_3D('',#178,#179,#180);
#178 = CARTESIAN_POINT('',(21.,39.4,82.9));
#179 = DIRECTION('',(0.,1.,-0.));
#180 = DIRECTION('',(-1.,0.,0.));
#181 = FACE_BOUND('',#182,.T.);
#182 = EDGE_LOOP('',(#183));
#183 = ORIENTED_EDGE('',*,*,#184,.F.);
#184 = EDGE_CURVE('',#185,#185,#187,.T.);
#185 = VERTEX_POINT('',#186);
#186 = CARTESIAN_POINT('',(19.4,39.4,104.82031021678));
#187 = CIRCLE('',#188,1.6);
#188 = AXIS2_PLACEMENT_3D('',#189,#190,#191);
#189 = CARTESIAN_POINT('',(21.,39.4,104.82031021678));
#190 = DIRECTION('',(0.,1.,-0.));
#191 = DIRECTION('',(-1.,0.,0.));
#192 = FACE_BOUND('',#193,.T.);
#193 = EDGE_LOOP('',(#194));
#194 = ORIENTED_EDGE('',*,*,#195,.F.);
#195 = EDGE_CURVE('',#196,#196,#198,.T.);
#196 = VERTEX_POINT('',#197);
#197 = CARTESIAN_POINT('',(41.320310216783,39.4,82.9));
#198 = CIRCLE('',#199,1.6);
#199 = AXIS2_PLACEMENT_3D('',#200,#201,#202);
#200 = CARTESIAN_POINT('',(42.920310216783,39.4,82.9));
#201 = DIRECTION('',(0.,1.,-0.));
#202 = DIRECTION('',(-1.,0.,0.));
#203 = FACE_BOUND('',#204,.T.);
#204 = EDGE_LOOP('',(#205));
#205 = ORIENTED_EDGE('',*,*,#206,.F.);
#206 = EDGE_CURVE('',#207,#207,#209,.T.);
#207 = VERTEX_POINT('',#208);
#208 = CARTESIAN_POINT('',(-2.520310216783,39.4,82.9));
#209 = CIRCLE('',#210,1.6);
#210 = AXIS2_PLACEMENT_3D('',#211,#212,#213);
#211 = CARTESIAN_POINT('',(-0.920310216783,39.4,82.9));
#212 = DIRECTION('',(0.,1.,-0.));
#213 = DIRECTION('',(-1.,0.,0.));
#214 = PLANE('',#215);
#215 = AXIS2_PLACEMENT_3D('',#216,#217,#218);
#216 = CARTESIAN_POINT('',(21.,39.4,59.15776112298));
#217 = DIRECTION('',(0.,1.,0.));
#218 = DIRECTION('',(0.,0.,1.));
#219 = ADVANCED_FACE('',(#220),#245,.T.);
#220 = FACE_BOUND('',#221,.T.);
#221 = EDGE_LOOP('',(#222,#223,#231,#239));
#222 = ORIENTED_EDGE('',*,*,#21,.F.);
#223 = ORIENTED_EDGE('',*,*,#224,.T.);
#224 = EDGE_CURVE('',#22,#225,#227,.T.);
#225 = VERTEX_POINT('',#226);
#226 = CARTESIAN_POINT('',(-5.520310216783,35.4,58.064252557459));
#227 = LINE('',#228,#229);
#228 = CARTESIAN_POINT('',(-5.520310216783,39.4,58.064252557459));
#229 = VECTOR('',#230,1.);
#230 = DIRECTION('',(0.,-1.,2.2E-16));
#231 = ORIENTED_EDGE('',*,*,#232,.T.);
#232 = EDGE_CURVE('',#225,#233,#235,.T.);
#233 = VERTEX_POINT('',#234);
#234 = CARTESIAN_POINT('',(-5.520310216783,35.4,90.763455967291));
#235 = LINE('',#236,#237);
#236 = CARTESIAN_POINT('',(-5.520310216783,35.4,36.));
#237 = VECTOR('',#238,1.);
#238 = DIRECTION('',(0.,0.,1.));
#239 = ORIENTED_EDGE('',*,*,#240,.F.);
#240 = EDGE_CURVE('',#24,#233,#241,.T.);
#241 = LINE('',#242,#243);
#242 = CARTESIAN_POINT('',(-5.520310216783,39.4,90.763455967291));
#243 = VECTOR('',#244,1.);
#244 = DIRECTION('',(0.,-1.,2.2E-16));
#245 = PLANE('',#246);
#246 = AXIS2_PLACEMENT_3D('',#247,#248,#249);
#247 = CARTESIAN_POINT('',(-5.520310216783,39.4,36.));
#248 = DIRECTION('',(-1.,0.,0.));
#249 = DIRECTION('',(0.,2.2E-16,1.));
#250 = ADVANCED_FACE('',(#251),#270,.T.);
#251 = FACE_BOUND('',#252,.T.);
#252 = EDGE_LOOP('',(#253,#254,#262,#269));
#253 = ORIENTED_EDGE('',*,*,#164,.T.);
#254 = ORIENTED_EDGE('',*,*,#255,.T.);
#255 = EDGE_CURVE('',#157,#256,#258,.T.);
#256 = VERTEX_POINT('',#257);
#257 = CARTESIAN_POINT('',(-4.984411831921,35.4,56.064252557459));
#258 = LINE('',#259,#260);
#259 = CARTESIAN_POINT('',(-4.984411831921,39.4,56.064252557459));
#260 = VECTOR('',#261,1.);
#261 = DIRECTION('',(0.,-1.,2.2E-16));
#262 = ORIENTED_EDGE('',*,*,#263,.F.);
#263 = EDGE_CURVE('',#225,#256,#264,.T.);
#264 = CIRCLE('',#265,4.);
#265 = AXIS2_PLACEMENT_3D('',#266,#267,#268);
#266 = CARTESIAN_POINT('',(-1.520310216783,35.4,58.064252557459));
#267 = DIRECTION('',(0.,-1.,2.2E-16));
#268 = DIRECTION('',(0.,-2.2E-16,-1.));
#269 = ORIENTED_EDGE('',*,*,#224,.F.);
#270 = CYLINDRICAL_SURFACE('',#271,4.);
#271 = AXIS2_PLACEMENT_3D('',#272,#273,#274);
#272 = CARTESIAN_POINT('',(-1.520310216783,39.4,58.064252557459));
#273 = DIRECTION('',(0.,-1.,2.2E-16));
#274 = DIRECTION('',(-1.,0.,0.));
#275 = ADVANCED_FACE('',(#276),#295,.T.);
#276 = FACE_BOUND('',#277,.F.);
#277 = EDGE_LOOP('',(#278,#279,#287,#294));
#278 = ORIENTED_EDGE('',*,*,#31,.T.);
#279 = ORIENTED_EDGE('',*,*,#280,.T.);
#280 = EDGE_CURVE('',#32,#281,#283,.T.);
#281 = VERTEX_POINT('',#282);
#282 = CARTESIAN_POINT('',(-4.348737341529,35.4,93.591883092037));
#283 = LINE('',#284,#285);
#284 = CARTESIAN_POINT('',(-4.348737341529,39.4,93.591883092037));
#285 = VECTOR('',#286,1.);
#286 = DIRECTION('',(0.,-1.,2.2E-16));
#287 = ORIENTED_EDGE('',*,*,#288,.F.);
#288 = EDGE_CURVE('',#233,#281,#289,.T.);
#289 = CIRCLE('',#290,4.);
#290 = AXIS2_PLACEMENT_3D('',#291,#292,#293);
#291 = CARTESIAN_POINT('',(-1.520310216783,35.4,90.763455967291));
#292 = DIRECTION('',(0.,1.,-2.2E-16));
#293 = DIRECTION('',(0.,-2.2E-16,-1.));
#294 = ORIENTED_EDGE('',*,*,#240,.F.);
#295 = CYLINDRICAL_SURFACE('',#296,4.);
#296 = AXIS2_PLACEMENT_3D('',#297,#298,#299);
#297 = CARTESIAN_POINT('',(-1.520310216783,39.4,90.763455967291));
#298 = DIRECTION('',(0.,-1.,2.2E-16));
#299 = DIRECTION('',(-1.,0.,0.));
#300 = ADVANCED_FACE('',(#301),#319,.T.);
#301 = FACE_BOUND('',#302,.T.);
#302 = EDGE_LOOP('',(#303,#304,#312,#318));
#303 = ORIENTED_EDGE('',*,*,#156,.F.);
#304 = ORIENTED_EDGE('',*,*,#305,.T.);
#305 = EDGE_CURVE('',#149,#306,#308,.T.);
#306 = VERTEX_POINT('',#307);
#307 = CARTESIAN_POINT('',(6.599689783217,35.4,36.));
#308 = LINE('',#309,#310);
#309 = CARTESIAN_POINT('',(6.599689783217,39.4,36.));
#310 = VECTOR('',#311,1.);
#311 = DIRECTION('',(0.,-1.,2.2E-16));
#312 = ORIENTED_EDGE('',*,*,#313,.T.);
#313 = EDGE_CURVE('',#306,#256,#314,.T.);
#314 = LINE('',#315,#316);
#315 = CARTESIAN_POINT('',(-3.161131423548,35.4,52.906238253712));
#316 = VECTOR('',#317,1.);
#317 = DIRECTION('',(-0.5,0.,0.866025403784));
#318 = ORIENTED_EDGE('',*,*,#255,.F.);
#319 = PLANE('',#320);
#320 = AXIS2_PLACEMENT_3D('',#321,#322,#323);
#321 = CARTESIAN_POINT('',(0.539689783217,39.4,46.496227893867));
#322 = DIRECTION('',(-0.866025403784,0.,-0.5));
#323 = DIRECTION('',(-9.861215932168E-17,-1.,1.708012701892E-16));
#324 = ADVANCED_FACE('',(#325),#343,.T.);
#325 = FACE_BOUND('',#326,.T.);
#326 = EDGE_LOOP('',(#327,#328,#329,#337));
#327 = ORIENTED_EDGE('',*,*,#40,.F.);
#328 = ORIENTED_EDGE('',*,*,#280,.T.);
#329 = ORIENTED_EDGE('',*,*,#330,.T.);
#330 = EDGE_CURVE('',#281,#331,#333,.T.);
#331 = VERTEX_POINT('',#332);
#332 = CARTESIAN_POINT('',(10.308116907963,35.4,108.24873734152));
#333 = LINE('',#334,#335);
#334 = CARTESIAN_POINT('',(1.105278399421,35.4,99.045898832987));
#335 = VECTOR('',#336,1.);
#336 = DIRECTION('',(0.707106781187,0.,0.707106781187));
#337 = ORIENTED_EDGE('',*,*,#338,.F.);
#338 = EDGE_CURVE('',#41,#331,#339,.T.);
#339 = LINE('',#340,#341);
#340 = CARTESIAN_POINT('',(10.308116907963,39.4,108.24873734152));
#341 = VECTOR('',#342,1.);
#342 = DIRECTION('',(0.,-1.,2.2E-16));
#343 = PLANE('',#344);
#344 = AXIS2_PLACEMENT_3D('',#345,#346,#347);
#345 = CARTESIAN_POINT('',(2.979689783217,39.4,100.92031021678));
#346 = DIRECTION('',(-0.707106781187,0.,0.707106781187));
#347 = DIRECTION('',(1.1E-16,-1.,1.1E-16));
#348 = ADVANCED_FACE('',(#349),#367,.T.);
#349 = FACE_BOUND('',#350,.T.);
#350 = EDGE_LOOP('',(#351,#352,#360,#366));
#351 = ORIENTED_EDGE('',*,*,#148,.F.);
#352 = ORIENTED_EDGE('',*,*,#353,.T.);
#353 = EDGE_CURVE('',#141,#354,#356,.T.);
#354 = VERTEX_POINT('',#355);
#355 = CARTESIAN_POINT('',(6.6,35.4,36.));
#356 = LINE('',#357,#358);
#357 = CARTESIAN_POINT('',(6.6,32.437995824635,36.));
#358 = VECTOR('',#359,1.);
#359 = DIRECTION('',(0.,-1.,2.2E-16));
#360 = ORIENTED_EDGE('',*,*,#361,.T.);
#361 = EDGE_CURVE('',#354,#306,#362,.T.);
#362 = LINE('',#363,#364);
#363 = CARTESIAN_POINT('',(47.520310216783,35.4,36.));
#364 = VECTOR('',#365,1.);
#365 = DIRECTION('',(-1.,0.,0.));
#366 = ORIENTED_EDGE('',*,*,#305,.F.);
#367 = PLANE('',#368);
#368 = AXIS2_PLACEMENT_3D('',#369,#370,#371);
#369 = CARTESIAN_POINT('',(47.520310216783,39.4,36.));
#370 = DIRECTION('',(-0.,-2.2E-16,-1.));
#371 = DIRECTION('',(-1.,0.,0.));
#372 = ADVANCED_FACE('',(#373),#392,.T.);
#373 = FACE_BOUND('',#374,.F.);
#374 = EDGE_LOOP('',(#375,#376,#384,#391));
#375 = ORIENTED_EDGE('',*,*,#48,.T.);
#376 = ORIENTED_EDGE('',*,*,#377,.T.);
#377 = EDGE_CURVE('',#49,#378,#380,.T.);
#378 = VERTEX_POINT('',#379);
#379 = CARTESIAN_POINT('',(13.136544032709,35.4,109.42031021678));
#380 = LINE('',#381,#382);
#381 = CARTESIAN_POINT('',(13.136544032709,39.4,109.42031021678));
#382 = VECTOR('',#383,1.);
#383 = DIRECTION('',(0.,-1.,2.2E-16));
#384 = ORIENTED_EDGE('',*,*,#385,.F.);
#385 = EDGE_CURVE('',#331,#378,#386,.T.);
#386 = CIRCLE('',#387,4.);
#387 = AXIS2_PLACEMENT_3D('',#388,#389,#390);
#388 = CARTESIAN_POINT('',(13.136544032709,35.4,105.42031021678));
#389 = DIRECTION('',(0.,1.,-2.2E-16));
#390 = DIRECTION('',(0.,-2.2E-16,-1.));
#391 = ORIENTED_EDGE('',*,*,#338,.F.);
#392 = CYLINDRICAL_SURFACE('',#393,4.);
#393 = AXIS2_PLACEMENT_3D('',#394,#395,#396);
#394 = CARTESIAN_POINT('',(13.136544032709,39.4,105.42031021678));
#395 = DIRECTION('',(0.,-1.,2.2E-16));
#396 = DIRECTION('',(-0.707106781187,1.55563491861E-16,0.707106781187));
#397 = ADVANCED_FACE('',(#398,#457),#468,.T.);
#398 = FACE_BOUND('',#399,.T.);
#399 = EDGE_LOOP('',(#400,#408,#416,#424,#432,#441,#449,#455,#456));
#400 = ORIENTED_EDGE('',*,*,#401,.T.);
#401 = EDGE_CURVE('',#133,#402,#404,.T.);
#402 = VERTEX_POINT('',#403);
#403 = CARTESIAN_POINT('',(6.6,12.6,4.));
#404 = LINE('',#405,#406);
#405 = CARTESIAN_POINT('',(6.6,39.4,4.));
#406 = VECTOR('',#407,1.);
#407 = DIRECTION('',(0.,-1.,0.));
#408 = ORIENTED_EDGE('',*,*,#409,.T.);
#409 = EDGE_CURVE('',#402,#410,#412,.T.);
#410 = VERTEX_POINT('',#411);
#411 = CARTESIAN_POINT('',(6.6,12.6,48.2));
#412 = LINE('',#413,#414);
#413 = CARTESIAN_POINT('',(6.6,12.6,4.));
#414 = VECTOR('',#415,1.);
#415 = DIRECTION('',(0.,0.,1.));
#416 = ORIENTED_EDGE('',*,*,#417,.F.);
#417 = EDGE_CURVE('',#418,#410,#420,.T.);
#418 = VERTEX_POINT('',#419);
#419 = CARTESIAN_POINT('',(6.6,14.6,48.2));
#420 = LINE('',#421,#422);
#421 = CARTESIAN_POINT('',(6.6,14.6,48.2));
#422 = VECTOR('',#423,1.);
#423 = DIRECTION('',(0.,-1.,0.));
#424 = ORIENTED_EDGE('',*,*,#425,.T.);
#425 = EDGE_CURVE('',#418,#426,#428,.T.);
#426 = VERTEX_POINT('',#427);
#427 = CARTESIAN_POINT('',(6.6,14.6,70.));
#428 = LINE('',#429,#430);
#429 = CARTESIAN_POINT('',(6.6,14.6,69.));
#430 = VECTOR('',#431,1.);
#431 = DIRECTION('',(0.,0.,1.));
#432 = ORIENTED_EDGE('',*,*,#433,.T.);
#433 = EDGE_CURVE('',#426,#434,#436,.T.);
#434 = VERTEX_POINT('',#435);
#435 = CARTESIAN_POINT('',(6.6,15.6,71.));
#436 = CIRCLE('',#437,1.);
#437 = AXIS2_PLACEMENT_3D('',#438,#439,#440);
#438 = CARTESIAN_POINT('',(6.6,15.6,70.));
#439 = DIRECTION('',(-1.,0.,0.));
#440 = DIRECTION('',(0.,0.,1.));
#441 = ORIENTED_EDGE('',*,*,#442,.F.);
#442 = EDGE_CURVE('',#443,#434,#445,.T.);
#443 = VERTEX_POINT('',#444);
#444 = CARTESIAN_POINT('',(6.6,35.4,71.));
#445 = LINE('',#446,#447);
#446 = CARTESIAN_POINT('',(6.6,39.4,71.));
#447 = VECTOR('',#448,1.);
#448 = DIRECTION('',(0.,-1.,0.));
#449 = ORIENTED_EDGE('',*,*,#450,.T.);
#450 = EDGE_CURVE('',#443,#354,#451,.T.);
#451 = LINE('',#452,#453);
#452 = CARTESIAN_POINT('',(6.6,35.4,56.213181407774));
#453 = VECTOR('',#454,1.);
#454 = DIRECTION('',(0.,0.,-1.));
#455 = ORIENTED_EDGE('',*,*,#353,.F.);
#456 = ORIENTED_EDGE('',*,*,#140,.F.);
#457 = FACE_BOUND('',#458,.T.);
#458 = EDGE_LOOP('',(#459));
#459 = ORIENTED_EDGE('',*,*,#460,.T.);
#460 = EDGE_CURVE('',#461,#461,#463,.T.);
#461 = VERTEX_POINT('',#462);
#462 = CARTESIAN_POINT('',(6.6,27.6,59.));
#463 = CIRCLE('',#464,2.6);
#464 = AXIS2_PLACEMENT_3D('',#465,#466,#467);
#465 = CARTESIAN_POINT('',(6.6,25.,59.));
#466 = DIRECTION('',(1.,0.,0.));
#467 = DIRECTION('',(0.,1.,0.));
#468 = PLANE('',#469);
#469 = AXIS2_PLACEMENT_3D('',#470,#471,#472);
#470 = CARTESIAN_POINT('',(6.6,25.475991649269,37.024008350731));
#471 = DIRECTION('',(-1.,-0.,-0.));
#472 = DIRECTION('',(0.,0.,-1.));
#473 = ADVANCED_FACE('',(#474),#492,.T.);
#474 = FACE_BOUND('',#475,.T.);
#475 = EDGE_LOOP('',(#476,#477,#478,#486));
#476 = ORIENTED_EDGE('',*,*,#57,.F.);
#477 = ORIENTED_EDGE('',*,*,#377,.T.);
#478 = ORIENTED_EDGE('',*,*,#479,.T.);
#479 = EDGE_CURVE('',#378,#480,#482,.T.);
#480 = VERTEX_POINT('',#481);
#481 = CARTESIAN_POINT('',(28.863455967291,35.4,109.42031021678));
#482 = LINE('',#483,#484);
#483 = CARTESIAN_POINT('',(-5.520310216783,35.4,109.42031021678));
#484 = VECTOR('',#485,1.);
#485 = DIRECTION('',(1.,0.,0.));
#486 = ORIENTED_EDGE('',*,*,#487,.F.);
#487 = EDGE_CURVE('',#58,#480,#488,.T.);
#488 = LINE('',#489,#490);
#489 = CARTESIAN_POINT('',(28.863455967291,39.4,109.42031021678));
#490 = VECTOR('',#491,1.);
#491 = DIRECTION('',(0.,-1.,2.2E-16));
#492 = PLANE('',#493);
#493 = AXIS2_PLACEMENT_3D('',#494,#495,#496);
#494 = CARTESIAN_POINT('',(-5.520310216783,39.4,109.42031021678));
#495 = DIRECTION('',(0.,2.2E-16,1.));
#496 = DIRECTION('',(1.,0.,0.));
#497 = ADVANCED_FACE('',(#498,#534,#604,#615,#626,#637),#648,.T.);
#498 = FACE_BOUND('',#499,.T.);
#499 = EDGE_LOOP('',(#500,#501,#502,#510,#519,#527));
#500 = ORIENTED_EDGE('',*,*,#401,.F.);
#501 = ORIENTED_EDGE('',*,*,#132,.F.);
#502 = ORIENTED_EDGE('',*,*,#503,.F.);
#503 = EDGE_CURVE('',#504,#125,#506,.T.);
#504 = VERTEX_POINT('',#505);
#505 = CARTESIAN_POINT('',(35.4,12.6,4.));
#506 = LINE('',#507,#508);
#507 = CARTESIAN_POINT('',(35.4,10.6,4.));
#508 = VECTOR('',#509,1.);
#509 = DIRECTION('',(0.,1.,0.));
#510 = ORIENTED_EDGE('',*,*,#511,.F.);
#511 = EDGE_CURVE('',#512,#504,#514,.T.);
#512 = VERTEX_POINT('',#513);
#513 = CARTESIAN_POINT('',(33.4,10.6,4.));
#514 = CIRCLE('',#515,2.);
#515 = AXIS2_PLACEMENT_3D('',#516,#517,#518);
#516 = CARTESIAN_POINT('',(33.4,12.6,4.));
#517 = DIRECTION('',(-0.,0.,1.));
#518 = DIRECTION('',(0.,-1.,0.));
#519 = ORIENTED_EDGE('',*,*,#520,.F.);
#520 = EDGE_CURVE('',#521,#512,#523,.T.);
#521 = VERTEX_POINT('',#522);
#522 = CARTESIAN_POINT('',(8.6,10.6,4.));
#523 = LINE('',#524,#525);
#524 = CARTESIAN_POINT('',(6.6,10.6,4.));
#525 = VECTOR('',#526,1.);
#526 = DIRECTION('',(1.,0.,0.));
#527 = ORIENTED_EDGE('',*,*,#528,.F.);
#528 = EDGE_CURVE('',#402,#521,#529,.T.);
#529 = CIRCLE('',#530,2.);
#530 = AXIS2_PLACEMENT_3D('',#531,#532,#533);
#531 = CARTESIAN_POINT('',(8.6,12.6,4.));
#532 = DIRECTION('',(-0.,0.,1.));
#533 = DIRECTION('',(0.,-1.,0.));
#534 = FACE_BOUND('',#535,.T.);
#535 = EDGE_LOOP('',(#536,#546,#555,#563,#572,#580,#589,#597));
#536 = ORIENTED_EDGE('',*,*,#537,.T.);
#537 = EDGE_CURVE('',#538,#540,#542,.T.);
#538 = VERTEX_POINT('',#539);
#539 = CARTESIAN_POINT('',(4.,-1.E-15,4.));
#540 = VERTEX_POINT('',#541);
#541 = CARTESIAN_POINT('',(38.,-1.E-15,4.));
#542 = LINE('',#543,#544);
#543 = CARTESIAN_POINT('',(0.,0.,4.));
#544 = VECTOR('',#545,1.);
#545 = DIRECTION('',(1.,0.,0.));
#546 = ORIENTED_EDGE('',*,*,#547,.T.);
#547 = EDGE_CURVE('',#540,#548,#550,.T.);
#548 = VERTEX_POINT('',#549);
#549 = CARTESIAN_POINT('',(42.,4.,4.));
#550 = CIRCLE('',#551,4.);
#551 = AXIS2_PLACEMENT_3D('',#552,#553,#554);
#552 = CARTESIAN_POINT('',(38.,4.,4.));
#553 = DIRECTION('',(-0.,0.,1.));
#554 = DIRECTION('',(0.,-1.,0.));
#555 = ORIENTED_EDGE('',*,*,#556,.T.);
#556 = EDGE_CURVE('',#548,#557,#559,.T.);
#557 = VERTEX_POINT('',#558);
#558 = CARTESIAN_POINT('',(42.,46.,4.));
#559 = LINE('',#560,#561);
#560 = CARTESIAN_POINT('',(42.,0.,4.));
#561 = VECTOR('',#562,1.);
#562 = DIRECTION('',(0.,1.,0.));
#563 = ORIENTED_EDGE('',*,*,#564,.T.);
#564 = EDGE_CURVE('',#557,#565,#567,.T.);
#565 = VERTEX_POINT('',#566);
#566 = CARTESIAN_POINT('',(38.,50.,4.));
#567 = CIRCLE('',#568,4.);
#568 = AXIS2_PLACEMENT_3D('',#569,#570,#571);
#569 = CARTESIAN_POINT('',(38.,46.,4.));
#570 = DIRECTION('',(-0.,0.,1.));
#571 = DIRECTION('',(0.,-1.,0.));
#572 = ORIENTED_EDGE('',*,*,#573,.T.);
#573 = EDGE_CURVE('',#565,#574,#576,.T.);
#574 = VERTEX_POINT('',#575);
#575 = CARTESIAN_POINT('',(4.,50.,4.));
#576 = LINE('',#577,#578);
#577 = CARTESIAN_POINT('',(42.,50.,4.));
#578 = VECTOR('',#579,1.);
#579 = DIRECTION('',(-1.,0.,0.));
#580 = ORIENTED_EDGE('',*,*,#581,.F.);
#581 = EDGE_CURVE('',#582,#574,#584,.T.);
#582 = VERTEX_POINT('',#583);
#583 = CARTESIAN_POINT('',(-1.E-15,46.,4.));
#584 = CIRCLE('',#585,4.);
#585 = AXIS2_PLACEMENT_3D('',#586,#587,#588);
#586 = CARTESIAN_POINT('',(4.,46.,4.));
#587 = DIRECTION('',(-0.,-0.,-1.));
#588 = DIRECTION('',(0.,-1.,0.));
#589 = ORIENTED_EDGE('',*,*,#590,.T.);
#590 = EDGE_CURVE('',#582,#591,#593,.T.);
#591 = VERTEX_POINT('',#592);
#592 = CARTESIAN_POINT('',(-1.E-15,4.,4.));
#593 = LINE('',#594,#595);
#594 = CARTESIAN_POINT('',(0.,50.,4.));
#595 = VECTOR('',#596,1.);
#596 = DIRECTION('',(0.,-1.,0.));
#597 = ORIENTED_EDGE('',*,*,#598,.F.);
#598 = EDGE_CURVE('',#538,#591,#599,.T.);
#599 = CIRCLE('',#600,4.);
#600 = AXIS2_PLACEMENT_3D('',#601,#602,#603);
#601 = CARTESIAN_POINT('',(4.,4.,4.));
#602 = DIRECTION('',(-0.,-0.,-1.));
#603 = DIRECTION('',(0.,-1.,0.));
#604 = FACE_BOUND('',#605,.T.);
#605 = EDGE_LOOP('',(#606));
#606 = ORIENTED_EDGE('',*,*,#607,.F.);
#607 = EDGE_CURVE('',#608,#608,#610,.T.);
#608 = VERTEX_POINT('',#609);
#609 = CARTESIAN_POINT('',(7.645,5.,4.));
#610 = CIRCLE('',#611,2.6);
#611 = AXIS2_PLACEMENT_3D('',#612,#613,#614);
#612 = CARTESIAN_POINT('',(5.045,5.,4.));
#613 = DIRECTION('',(0.,0.,1.));
#614 = DIRECTION('',(1.,0.,0.));
#615 = FACE_BOUND('',#616,.T.);
#616 = EDGE_LOOP('',(#617));
#617 = ORIENTED_EDGE('',*,*,#618,.F.);
#618 = EDGE_CURVE('',#619,#619,#621,.T.);
#619 = VERTEX_POINT('',#620);
#620 = CARTESIAN_POINT('',(39.555,5.,4.));
#621 = CIRCLE('',#622,2.6);
#622 = AXIS2_PLACEMENT_3D('',#623,#624,#625);
#623 = CARTESIAN_POINT('',(36.955,5.,4.));
#624 = DIRECTION('',(0.,0.,1.));
#625 = DIRECTION('',(1.,0.,0.));
#626 = FACE_BOUND('',#627,.T.);
#627 = EDGE_LOOP('',(#628));
#628 = ORIENTED_EDGE('',*,*,#629,.F.);
#629 = EDGE_CURVE('',#630,#630,#632,.T.);
#630 = VERTEX_POINT('',#631);
#631 = CARTESIAN_POINT('',(7.645,45.,4.));
#632 = CIRCLE('',#633,2.6);
#633 = AXIS2_PLACEMENT_3D('',#634,#635,#636);
#634 = CARTESIAN_POINT('',(5.045,45.,4.));
#635 = DIRECTION('',(0.,0.,1.));
#636 = DIRECTION('',(1.,0.,0.));
#637 = FACE_BOUND('',#638,.T.);
#638 = EDGE_LOOP('',(#639));
#639 = ORIENTED_EDGE('',*,*,#640,.F.);
#640 = EDGE_CURVE('',#641,#641,#643,.T.);
#641 = VERTEX_POINT('',#642);
#642 = CARTESIAN_POINT('',(39.555,45.,4.));
#643 = CIRCLE('',#644,2.6);
#644 = AXIS2_PLACEMENT_3D('',#645,#646,#647);
#645 = CARTESIAN_POINT('',(36.955,45.,4.));
#646 = DIRECTION('',(0.,0.,1.));
#647 = DIRECTION('',(1.,0.,0.));
#648 = PLANE('',#649);
#649 = AXIS2_PLACEMENT_3D('',#650,#651,#652);
#650 = CARTESIAN_POINT('',(21.,25.,4.));
#651 = DIRECTION('',(0.,0.,1.));
#652 = DIRECTION('',(1.,0.,0.));
#653 = ADVANCED_FACE('',(#654),#673,.T.);
#654 = FACE_BOUND('',#655,.F.);
#655 = EDGE_LOOP('',(#656,#657,#665,#672));
#656 = ORIENTED_EDGE('',*,*,#65,.T.);
#657 = ORIENTED_EDGE('',*,*,#658,.T.);
#658 = EDGE_CURVE('',#66,#659,#661,.T.);
#659 = VERTEX_POINT('',#660);
#660 = CARTESIAN_POINT('',(31.691883092037,35.4,108.24873734152));
#661 = LINE('',#662,#663);
#662 = CARTESIAN_POINT('',(31.691883092037,39.4,108.24873734152));
#663 = VECTOR('',#664,1.);
#664 = DIRECTION('',(0.,-1.,2.2E-16));
#665 = ORIENTED_EDGE('',*,*,#666,.F.);
#666 = EDGE_CURVE('',#480,#659,#667,.T.);
#667 = CIRCLE('',#668,4.);
#668 = AXIS2_PLACEMENT_3D('',#669,#670,#671);
#669 = CARTESIAN_POINT('',(28.863455967291,35.4,105.42031021678));
#670 = DIRECTION('',(0.,1.,-2.2E-16));
#671 = DIRECTION('',(0.,-2.2E-16,-1.));
#672 = ORIENTED_EDGE('',*,*,#487,.F.);
#673 = CYLINDRICAL_SURFACE('',#674,4.);
#674 = AXIS2_PLACEMENT_3D('',#675,#676,#677);
#675 = CARTESIAN_POINT('',(28.863455967291,39.4,105.42031021678));
#676 = DIRECTION('',(0.,-1.,2.2E-16));
#677 = DIRECTION('',(0.,2.2E-16,1.));
#678 = ADVANCED_FACE('',(#679,#738),#749,.T.);
#679 = FACE_BOUND('',#680,.T.);
#680 = EDGE_LOOP('',(#681,#689,#690,#691,#699,#707,#715,#724,#732));
#681 = ORIENTED_EDGE('',*,*,#682,.F.);
#682 = EDGE_CURVE('',#504,#683,#685,.T.);
#683 = VERTEX_POINT('',#684);
#684 = CARTESIAN_POINT('',(35.4,12.6,48.2));
#685 = LINE('',#686,#687);
#686 = CARTESIAN_POINT('',(35.4,12.6,4.));
#687 = VECTOR('',#688,1.);
#688 = DIRECTION('',(0.,0.,1.));
#689 = ORIENTED_EDGE('',*,*,#503,.T.);
#690 = ORIENTED_EDGE('',*,*,#124,.T.);
#691 = ORIENTED_EDGE('',*,*,#692,.F.);
#692 = EDGE_CURVE('',#693,#117,#695,.T.);
#693 = VERTEX_POINT('',#694);
#694 = CARTESIAN_POINT('',(35.4,35.4,36.));
#695 = LINE('',#696,#697);
#696 = CARTESIAN_POINT('',(35.4,32.437995824635,36.));
#697 = VECTOR('',#698,1.);
#698 = DIRECTION('',(0.,1.,-2.2E-16));
#699 = ORIENTED_EDGE('',*,*,#700,.T.);
#700 = EDGE_CURVE('',#693,#701,#703,.T.);
#701 = VERTEX_POINT('',#702);
#702 = CARTESIAN_POINT('',(35.4,35.4,71.));
#703 = LINE('',#704,#705);
#704 = CARTESIAN_POINT('',(35.4,35.4,56.213181407774));
#705 = VECTOR('',#706,1.);
#706 = DIRECTION('',(0.,0.,1.));
#707 = ORIENTED_EDGE('',*,*,#708,.F.);
#708 = EDGE_CURVE('',#709,#701,#711,.T.);
#709 = VERTEX_POINT('',#710);
#710 = CARTESIAN_POINT('',(35.4,15.6,71.));
#711 = LINE('',#712,#713);
#712 = CARTESIAN_POINT('',(35.4,14.6,71.));
#713 = VECTOR('',#714,1.);
#714 = DIRECTION('',(0.,1.,0.));
#715 = ORIENTED_EDGE('',*,*,#716,.F.);
#716 = EDGE_CURVE('',#717,#709,#719,.T.);
#717 = VERTEX_POINT('',#718);
#718 = CARTESIAN_POINT('',(35.4,14.6,70.));
#719 = CIRCLE('',#720,1.);
#720 = AXIS2_PLACEMENT_3D('',#721,#722,#723);
#721 = CARTESIAN_POINT('',(35.4,15.6,70.));
#722 = DIRECTION('',(-1.,0.,0.));
#723 = DIRECTION('',(0.,0.,1.));
#724 = ORIENTED_EDGE('',*,*,#725,.T.);
#725 = EDGE_CURVE('',#717,#726,#728,.T.);
#726 = VERTEX_POINT('',#727);
#727 = CARTESIAN_POINT('',(35.4,14.6,48.2));
#728 = LINE('',#729,#730);
#729 = CARTESIAN_POINT('',(35.4,14.6,69.));
#730 = VECTOR('',#731,1.);
#731 = DIRECTION('',(-0.,-0.,-1.));
#732 = ORIENTED_EDGE('',*,*,#733,.F.);
#733 = EDGE_CURVE('',#683,#726,#734,.T.);
#734 = LINE('',#735,#736);
#735 = CARTESIAN_POINT('',(35.4,10.6,48.2));
#736 = VECTOR('',#737,1.);
#737 = DIRECTION('',(0.,1.,0.));
#738 = FACE_BOUND('',#739,.T.);
#739 = EDGE_LOOP('',(#740));
#740 = ORIENTED_EDGE('',*,*,#741,.F.);
#741 = EDGE_CURVE('',#742,#742,#744,.T.);
#742 = VERTEX_POINT('',#743);
#743 = CARTESIAN_POINT('',(35.4,27.6,59.));
#744 = CIRCLE('',#745,2.6);
#745 = AXIS2_PLACEMENT_3D('',#746,#747,#748);
#746 = CARTESIAN_POINT('',(35.4,25.,59.));
#747 = DIRECTION('',(1.,0.,0.));
#748 = DIRECTION('',(0.,1.,0.));
#749 = PLANE('',#750);
#750 = AXIS2_PLACEMENT_3D('',#751,#752,#753);
#751 = CARTESIAN_POINT('',(35.4,25.475991649269,37.024008350731));
#752 = DIRECTION('',(1.,0.,0.));
#753 = DIRECTION('',(0.,0.,1.));
#754 = ADVANCED_FACE('',(#755),#773,.T.);
#755 = FACE_BOUND('',#756,.T.);
#756 = EDGE_LOOP('',(#757,#758,#759,#767));
#757 = ORIENTED_EDGE('',*,*,#74,.F.);
#758 = ORIENTED_EDGE('',*,*,#658,.T.);
#759 = ORIENTED_EDGE('',*,*,#760,.T.);
#760 = EDGE_CURVE('',#659,#761,#763,.T.);
#761 = VERTEX_POINT('',#762);
#762 = CARTESIAN_POINT('',(46.348737341529,35.4,93.591883092037));
#763 = LINE('',#764,#765);
#764 = CARTESIAN_POINT('',(40.894721600579,35.4,99.045898832987));
#765 = VECTOR('',#766,1.);
#766 = DIRECTION('',(0.707106781187,0.,-0.707106781187));
#767 = ORIENTED_EDGE('',*,*,#768,.F.);
#768 = EDGE_CURVE('',#75,#761,#769,.T.);
#769 = LINE('',#770,#771);
#770 = CARTESIAN_POINT('',(46.348737341529,39.4,93.591883092037));
#771 = VECTOR('',#772,1.);
#772 = DIRECTION('',(0.,-1.,2.2E-16));
#773 = PLANE('',#774);
#774 = AXIS2_PLACEMENT_3D('',#775,#776,#777);
#775 = CARTESIAN_POINT('',(39.020310216783,39.4,100.92031021678));
#776 = DIRECTION('',(0.707106781187,0.,0.707106781187));
#777 = DIRECTION('',(-1.1E-16,-1.,1.1E-16));
#778 = ADVANCED_FACE('',(#779),#797,.T.);
#779 = FACE_BOUND('',#780,.T.);
#780 = EDGE_LOOP('',(#781,#782,#790,#796));
#781 = ORIENTED_EDGE('',*,*,#116,.F.);
#782 = ORIENTED_EDGE('',*,*,#783,.T.);
#783 = EDGE_CURVE('',#109,#784,#786,.T.);
#784 = VERTEX_POINT('',#785);
#785 = CARTESIAN_POINT('',(35.400310216783,35.4,36.));
#786 = LINE('',#787,#788);
#787 = CARTESIAN_POINT('',(35.400310216783,39.4,36.));
#788 = VECTOR('',#789,1.);
#789 = DIRECTION('',(0.,-1.,2.2E-16));
#790 = ORIENTED_EDGE('',*,*,#791,.T.);
#791 = EDGE_CURVE('',#784,#693,#792,.T.);
#792 = LINE('',#793,#794);
#793 = CARTESIAN_POINT('',(47.520310216783,35.4,36.));
#794 = VECTOR('',#795,1.);
#795 = DIRECTION('',(-1.,0.,0.));
#796 = ORIENTED_EDGE('',*,*,#692,.T.);
#797 = PLANE('',#798);
#798 = AXIS2_PLACEMENT_3D('',#799,#800,#801);
#799 = CARTESIAN_POINT('',(47.520310216783,39.4,36.));
#800 = DIRECTION('',(-0.,-2.2E-16,-1.));
#801 = DIRECTION('',(-1.,0.,0.));
#802 = ADVANCED_FACE('',(#803),#822,.T.);
#803 = FACE_BOUND('',#804,.F.);
#804 = EDGE_LOOP('',(#805,#806,#814,#821));
#805 = ORIENTED_EDGE('',*,*,#82,.T.);
#806 = ORIENTED_EDGE('',*,*,#807,.T.);
#807 = EDGE_CURVE('',#83,#808,#810,.T.);
#808 = VERTEX_POINT('',#809);
#809 = CARTESIAN_POINT('',(47.520310216783,35.4,90.763455967291));
#810 = LINE('',#811,#812);
#811 = CARTESIAN_POINT('',(47.520310216783,39.4,90.763455967291));
#812 = VECTOR('',#813,1.);
#813 = DIRECTION('',(0.,-1.,2.2E-16));
#814 = ORIENTED_EDGE('',*,*,#815,.F.);
#815 = EDGE_CURVE('',#761,#808,#816,.T.);
#816 = CIRCLE('',#817,4.);
#817 = AXIS2_PLACEMENT_3D('',#818,#819,#820);
#818 = CARTESIAN_POINT('',(43.520310216783,35.4,90.763455967291));
#819 = DIRECTION('',(0.,1.,-2.2E-16));
#820 = DIRECTION('',(0.,-2.2E-16,-1.));
#821 = ORIENTED_EDGE('',*,*,#768,.F.);
#822 = CYLINDRICAL_SURFACE('',#823,4.);
#823 = AXIS2_PLACEMENT_3D('',#824,#825,#826);
#824 = CARTESIAN_POINT('',(43.520310216783,39.4,90.763455967291));
#825 = DIRECTION('',(0.,-1.,2.2E-16));
#826 = DIRECTION('',(0.707106781187,1.55563491861E-16,0.707106781187));
#827 = ADVANCED_FACE('',(#828),#846,.T.);
#828 = FACE_BOUND('',#829,.F.);
#829 = EDGE_LOOP('',(#830,#831,#832,#840));
#830 = ORIENTED_EDGE('',*,*,#108,.F.);
#831 = ORIENTED_EDGE('',*,*,#783,.T.);
#832 = ORIENTED_EDGE('',*,*,#833,.T.);
#833 = EDGE_CURVE('',#784,#834,#836,.T.);
#834 = VERTEX_POINT('',#835);
#835 = CARTESIAN_POINT('',(46.984411831921,35.4,56.064252557459));
#836 = LINE('',#837,#838);
#837 = CARTESIAN_POINT('',(45.161131423548,35.4,52.906238253712));
#838 = VECTOR('',#839,1.);
#839 = DIRECTION('',(0.5,0.,0.866025403784));
#840 = ORIENTED_EDGE('',*,*,#841,.F.);
#841 = EDGE_CURVE('',#100,#834,#842,.T.);
#842 = LINE('',#843,#844);
#843 = CARTESIAN_POINT('',(46.984411831921,39.4,56.064252557459));
#844 = VECTOR('',#845,1.);
#845 = DIRECTION('',(0.,-1.,2.2E-16));
#846 = PLANE('',#847);
#847 = AXIS2_PLACEMENT_3D('',#848,#849,#850);
#848 = CARTESIAN_POINT('',(41.460310216783,39.4,46.496227893867));
#849 = DIRECTION('',(0.866025403784,-2.9E-16,-0.5));
#850 = DIRECTION('',(1.569134295109E-16,1.,-3.082179676972E-16));
#851 = ADVANCED_FACE('',(#852),#870,.T.);
#852 = FACE_BOUND('',#853,.T.);
#853 = EDGE_LOOP('',(#854,#855,#856,#864));
#854 = ORIENTED_EDGE('',*,*,#91,.F.);
#855 = ORIENTED_EDGE('',*,*,#807,.T.);
#856 = ORIENTED_EDGE('',*,*,#857,.T.);
#857 = EDGE_CURVE('',#808,#858,#860,.T.);
#858 = VERTEX_POINT('',#859);
#859 = CARTESIAN_POINT('',(47.520310216783,35.4,58.064252557459));
#860 = LINE('',#861,#862);
#861 = CARTESIAN_POINT('',(47.520310216783,35.4,109.42031021678));
#862 = VECTOR('',#863,1.);
#863 = DIRECTION('',(0.,0.,-1.));
#864 = ORIENTED_EDGE('',*,*,#865,.F.);
#865 = EDGE_CURVE('',#92,#858,#866,.T.);
#866 = LINE('',#867,#868);
#867 = CARTESIAN_POINT('',(47.520310216783,39.4,58.064252557459));
#868 = VECTOR('',#869,1.);
#869 = DIRECTION('',(0.,-1.,2.2E-16));
#870 = PLANE('',#871);
#871 = AXIS2_PLACEMENT_3D('',#872,#873,#874);
#872 = CARTESIAN_POINT('',(47.520310216783,39.4,109.42031021678));
#873 = DIRECTION('',(1.,0.,0.));
#874 = DIRECTION('',(0.,-2.2E-16,-1.));
#875 = ADVANCED_FACE('',(#876),#888,.T.);
#876 = FACE_BOUND('',#877,.F.);
#877 = EDGE_LOOP('',(#878,#879,#880,#887));
#878 = ORIENTED_EDGE('',*,*,#99,.T.);
#879 = ORIENTED_EDGE('',*,*,#841,.T.);
#880 = ORIENTED_EDGE('',*,*,#881,.F.);
#881 = EDGE_CURVE('',#858,#834,#882,.T.);
#882 = CIRCLE('',#883,4.);
#883 = AXIS2_PLACEMENT_3D('',#884,#885,#886);
#884 = CARTESIAN_POINT('',(43.520310216783,35.4,58.064252557459));
#885 = DIRECTION('',(0.,1.,-2.2E-16));
#886 = DIRECTION('',(0.,-2.2E-16,-1.));
#887 = ORIENTED_EDGE('',*,*,#865,.F.);
#888 = CYLINDRICAL_SURFACE('',#889,4.);
#889 = AXIS2_PLACEMENT_3D('',#890,#891,#892);
#890 = CARTESIAN_POINT('',(43.520310216783,39.4,58.064252557459));
#891 = DIRECTION('',(0.,-1.,2.2E-16));
#892 = DIRECTION('',(1.,0.,0.));
#893 = ADVANCED_FACE('',(#894),#913,.F.);
#894 = FACE_BOUND('',#895,.F.);
#895 = EDGE_LOOP('',(#896,#904,#911,#912));
#896 = ORIENTED_EDGE('',*,*,#897,.T.);
#897 = EDGE_CURVE('',#174,#898,#900,.T.);
#898 = VERTEX_POINT('',#899);
#899 = CARTESIAN_POINT('',(13.,35.4,82.9));
#900 = LINE('',#901,#902);
#901 = CARTESIAN_POINT('',(13.,39.4,82.9));
#902 = VECTOR('',#903,1.);
#903 = DIRECTION('',(0.,-1.,2.2E-16));
#904 = ORIENTED_EDGE('',*,*,#905,.T.);
#905 = EDGE_CURVE('',#898,#898,#906,.T.);
#906 = CIRCLE('',#907,8.);
#907 = AXIS2_PLACEMENT_3D('',#908,#909,#910);
#908 = CARTESIAN_POINT('',(21.,35.4,82.9));
#909 = DIRECTION('',(0.,1.,-0.));
#910 = DIRECTION('',(-1.,0.,0.));
#911 = ORIENTED_EDGE('',*,*,#897,.F.);
#912 = ORIENTED_EDGE('',*,*,#173,.F.);
#913 = CYLINDRICAL_SURFACE('',#914,8.);
#914 = AXIS2_PLACEMENT_3D('',#915,#916,#917);
#915 = CARTESIAN_POINT('',(21.,39.4,82.9));
#916 = DIRECTION('',(0.,1.,-2.2E-16));
#917 = DIRECTION('',(-1.,0.,0.));
#918 = ADVANCED_FACE('',(#919),#938,.F.);
#919 = FACE_BOUND('',#920,.F.);
#920 = EDGE_LOOP('',(#921,#929,#936,#937));
#921 = ORIENTED_EDGE('',*,*,#922,.T.);
#922 = EDGE_CURVE('',#185,#923,#925,.T.);
#923 = VERTEX_POINT('',#924);
#924 = CARTESIAN_POINT('',(19.4,35.4,104.82031021678));
#925 = LINE('',#926,#927);
#926 = CARTESIAN_POINT('',(19.4,39.4,104.82031021678));
#927 = VECTOR('',#928,1.);
#928 = DIRECTION('',(0.,-1.,2.2E-16));
#929 = ORIENTED_EDGE('',*,*,#930,.T.);
#930 = EDGE_CURVE('',#923,#923,#931,.T.);
#931 = CIRCLE('',#932,1.6);
#932 = AXIS2_PLACEMENT_3D('',#933,#934,#935);
#933 = CARTESIAN_POINT('',(21.,35.4,104.82031021678));
#934 = DIRECTION('',(0.,1.,-0.));
#935 = DIRECTION('',(-1.,0.,0.));
#936 = ORIENTED_EDGE('',*,*,#922,.F.);
#937 = ORIENTED_EDGE('',*,*,#184,.F.);
#938 = CYLINDRICAL_SURFACE('',#939,1.6);
#939 = AXIS2_PLACEMENT_3D('',#940,#941,#942);
#940 = CARTESIAN_POINT('',(21.,39.4,104.82031021678));
#941 = DIRECTION('',(0.,1.,-2.2E-16));
#942 = DIRECTION('',(-1.,0.,0.));
#943 = ADVANCED_FACE('',(#944),#963,.F.);
#944 = FACE_BOUND('',#945,.F.);
#945 = EDGE_LOOP('',(#946,#954,#961,#962));
#946 = ORIENTED_EDGE('',*,*,#947,.T.);
#947 = EDGE_CURVE('',#196,#948,#950,.T.);
#948 = VERTEX_POINT('',#949);
#949 = CARTESIAN_POINT('',(41.320310216783,35.4,82.9));
#950 = LINE('',#951,#952);
#951 = CARTESIAN_POINT('',(41.320310216783,39.4,82.9));
#952 = VECTOR('',#953,1.);
#953 = DIRECTION('',(0.,-1.,2.2E-16));
#954 = ORIENTED_EDGE('',*,*,#955,.T.);
#955 = EDGE_CURVE('',#948,#948,#956,.T.);
#956 = CIRCLE('',#957,1.6);
#957 = AXIS2_PLACEMENT_3D('',#958,#959,#960);
#958 = CARTESIAN_POINT('',(42.920310216783,35.4,82.9));
#959 = DIRECTION('',(0.,1.,-0.));
#960 = DIRECTION('',(-1.,0.,0.));
#961 = ORIENTED_EDGE('',*,*,#947,.F.);
#962 = ORIENTED_EDGE('',*,*,#195,.F.);
#963 = CYLINDRICAL_SURFACE('',#964,1.6);
#964 = AXIS2_PLACEMENT_3D('',#965,#966,#967);
#965 = CARTESIAN_POINT('',(42.920310216783,39.4,82.9));
#966 = DIRECTION('',(0.,1.,-2.2E-16));
#967 = DIRECTION('',(-1.,0.,0.));
#968 = ADVANCED_FACE('',(#969),#988,.F.);
#969 = FACE_BOUND('',#970,.F.);
#970 = EDGE_LOOP('',(#971,#979,#986,#987));
#971 = ORIENTED_EDGE('',*,*,#972,.T.);
#972 = EDGE_CURVE('',#207,#973,#975,.T.);
#973 = VERTEX_POINT('',#974);
#974 = CARTESIAN_POINT('',(-2.520310216783,35.4,82.9));
#975 = LINE('',#976,#977);
#976 = CARTESIAN_POINT('',(-2.520310216783,39.4,82.9));
#977 = VECTOR('',#978,1.);
#978 = DIRECTION('',(0.,-1.,2.2E-16));
#979 = ORIENTED_EDGE('',*,*,#980,.T.);
#980 = EDGE_CURVE('',#973,#973,#981,.T.);
#981 = CIRCLE('',#982,1.6);
#982 = AXIS2_PLACEMENT_3D('',#983,#984,#985);
#983 = CARTESIAN_POINT('',(-0.920310216783,35.4,82.9));
#984 = DIRECTION('',(0.,1.,-0.));
#985 = DIRECTION('',(-1.,0.,0.));
#986 = ORIENTED_EDGE('',*,*,#972,.F.);
#987 = ORIENTED_EDGE('',*,*,#206,.F.);
#988 = CYLINDRICAL_SURFACE('',#989,1.6);
#989 = AXIS2_PLACEMENT_3D('',#990,#991,#992);
#990 = CARTESIAN_POINT('',(-0.920310216783,39.4,82.9));
#991 = DIRECTION('',(0.,1.,-2.2E-16));
#992 = DIRECTION('',(-1.,0.,0.));
#993 = ADVANCED_FACE('',(#994,#1019,#1022,#1025,#1028),#1031,.F.);
#994 = FACE_BOUND('',#995,.F.);
#995 = EDGE_LOOP('',(#996,#997,#998,#999,#1000,#1001,#1002,#1003,#1004,
    #1005,#1006,#1007,#1008,#1009,#1015,#1016,#1017,#1018));
#996 = ORIENTED_EDGE('',*,*,#232,.T.);
#997 = ORIENTED_EDGE('',*,*,#288,.T.);
#998 = ORIENTED_EDGE('',*,*,#330,.T.);
#999 = ORIENTED_EDGE('',*,*,#385,.T.);
#1000 = ORIENTED_EDGE('',*,*,#479,.T.);
#1001 = ORIENTED_EDGE('',*,*,#666,.T.);
#1002 = ORIENTED_EDGE('',*,*,#760,.T.);
#1003 = ORIENTED_EDGE('',*,*,#815,.T.);
#1004 = ORIENTED_EDGE('',*,*,#857,.T.);
#1005 = ORIENTED_EDGE('',*,*,#881,.T.);
#1006 = ORIENTED_EDGE('',*,*,#833,.F.);
#1007 = ORIENTED_EDGE('',*,*,#791,.T.);
#1008 = ORIENTED_EDGE('',*,*,#700,.T.);
#1009 = ORIENTED_EDGE('',*,*,#1010,.T.);
#1010 = EDGE_CURVE('',#701,#443,#1011,.T.);
#1011 = LINE('',#1012,#1013);
#1012 = CARTESIAN_POINT('',(21.,35.4,71.));
#1013 = VECTOR('',#1014,1.);
#1014 = DIRECTION('',(-1.,0.,0.));
#1015 = ORIENTED_EDGE('',*,*,#450,.T.);
#1016 = ORIENTED_EDGE('',*,*,#361,.T.);
#1017 = ORIENTED_EDGE('',*,*,#313,.T.);
#1018 = ORIENTED_EDGE('',*,*,#263,.F.);
#1019 = FACE_BOUND('',#1020,.F.);
#1020 = EDGE_LOOP('',(#1021));
#1021 = ORIENTED_EDGE('',*,*,#980,.F.);
#1022 = FACE_BOUND('',#1023,.F.);
#1023 = EDGE_LOOP('',(#1024));
#1024 = ORIENTED_EDGE('',*,*,#905,.F.);
#1025 = FACE_BOUND('',#1026,.F.);
#1026 = EDGE_LOOP('',(#1027));
#1027 = ORIENTED_EDGE('',*,*,#930,.F.);
#1028 = FACE_BOUND('',#1029,.F.);
#1029 = EDGE_LOOP('',(#1030));
#1030 = ORIENTED_EDGE('',*,*,#955,.F.);
#1031 = PLANE('',#1032);
#1032 = AXIS2_PLACEMENT_3D('',#1033,#1034,#1035);
#1033 = CARTESIAN_POINT('',(21.,35.4,75.402354464817));
#1034 = DIRECTION('',(0.,1.,0.));
#1035 = DIRECTION('',(0.,0.,1.));
#1036 = ADVANCED_FACE('',(#1037),#1048,.T.);
#1037 = FACE_BOUND('',#1038,.T.);
#1038 = EDGE_LOOP('',(#1039,#1045,#1046,#1047));
#1039 = ORIENTED_EDGE('',*,*,#1040,.T.);
#1040 = EDGE_CURVE('',#434,#709,#1041,.T.);
#1041 = LINE('',#1042,#1043);
#1042 = CARTESIAN_POINT('',(6.6,15.6,71.));
#1043 = VECTOR('',#1044,1.);
#1044 = DIRECTION('',(1.,0.,0.));
#1045 = ORIENTED_EDGE('',*,*,#708,.T.);
#1046 = ORIENTED_EDGE('',*,*,#1010,.T.);
#1047 = ORIENTED_EDGE('',*,*,#442,.T.);
#1048 = PLANE('',#1049);
#1049 = AXIS2_PLACEMENT_3D('',#1050,#1051,#1052);
#1050 = CARTESIAN_POINT('',(21.,27.,71.));
#1051 = DIRECTION('',(0.,0.,1.));
#1052 = DIRECTION('',(1.,0.,0.));
#1053 = ADVANCED_FACE('',(#1054),#1065,.T.);
#1054 = FACE_BOUND('',#1055,.F.);
#1055 = EDGE_LOOP('',(#1056,#1057,#1058,#1059));
#1056 = ORIENTED_EDGE('',*,*,#433,.T.);
#1057 = ORIENTED_EDGE('',*,*,#1040,.T.);
#1058 = ORIENTED_EDGE('',*,*,#716,.F.);
#1059 = ORIENTED_EDGE('',*,*,#1060,.F.);
#1060 = EDGE_CURVE('',#426,#717,#1061,.T.);
#1061 = LINE('',#1062,#1063);
#1062 = CARTESIAN_POINT('',(6.6,14.6,70.));
#1063 = VECTOR('',#1064,1.);
#1064 = DIRECTION('',(1.,0.,0.));
#1065 = CYLINDRICAL_SURFACE('',#1066,1.);
#1066 = AXIS2_PLACEMENT_3D('',#1067,#1068,#1069);
#1067 = CARTESIAN_POINT('',(6.6,15.6,70.));
#1068 = DIRECTION('',(1.,0.,0.));
#1069 = DIRECTION('',(0.,-1.,0.));
#1070 = ADVANCED_FACE('',(#1071),#1114,.T.);
#1071 = FACE_BOUND('',#1072,.T.);
#1072 = EDGE_LOOP('',(#1073,#1074,#1075,#1076,#1084,#1092,#1100,#1108));
#1073 = ORIENTED_EDGE('',*,*,#725,.F.);
#1074 = ORIENTED_EDGE('',*,*,#1060,.F.);
#1075 = ORIENTED_EDGE('',*,*,#425,.F.);
#1076 = ORIENTED_EDGE('',*,*,#1077,.F.);
#1077 = EDGE_CURVE('',#1078,#418,#1080,.T.);
#1078 = VERTEX_POINT('',#1079);
#1079 = CARTESIAN_POINT('',(10.6,14.6,48.2));
#1080 = LINE('',#1081,#1082);
#1081 = CARTESIAN_POINT('',(35.4,14.6,48.2));
#1082 = VECTOR('',#1083,1.);
#1083 = DIRECTION('',(-1.,0.,0.));
#1084 = ORIENTED_EDGE('',*,*,#1085,.T.);
#1085 = EDGE_CURVE('',#1078,#1086,#1088,.T.);
#1086 = VERTEX_POINT('',#1087);
#1087 = CARTESIAN_POINT('',(10.6,14.6,69.));
#1088 = LINE('',#1089,#1090);
#1089 = CARTESIAN_POINT('',(10.6,14.6,0.));
#1090 = VECTOR('',#1091,1.);
#1091 = DIRECTION('',(0.,0.,1.));
#1092 = ORIENTED_EDGE('',*,*,#1093,.T.);
#1093 = EDGE_CURVE('',#1086,#1094,#1096,.T.);
#1094 = VERTEX_POINT('',#1095);
#1095 = CARTESIAN_POINT('',(31.4,14.6,69.));
#1096 = LINE('',#1097,#1098);
#1097 = CARTESIAN_POINT('',(6.6,14.6,69.));
#1098 = VECTOR('',#1099,1.);
#1099 = DIRECTION('',(1.,0.,0.));
#1100 = ORIENTED_EDGE('',*,*,#1101,.F.);
#1101 = EDGE_CURVE('',#1102,#1094,#1104,.T.);
#1102 = VERTEX_POINT('',#1103);
#1103 = CARTESIAN_POINT('',(31.4,14.6,48.2));
#1104 = LINE('',#1105,#1106);
#1105 = CARTESIAN_POINT('',(31.4,14.6,4.));
#1106 = VECTOR('',#1107,1.);
#1107 = DIRECTION('',(0.,0.,1.));
#1108 = ORIENTED_EDGE('',*,*,#1109,.F.);
#1109 = EDGE_CURVE('',#726,#1102,#1110,.T.);
#1110 = LINE('',#1111,#1112);
#1111 = CARTESIAN_POINT('',(35.4,14.6,48.2));
#1112 = VECTOR('',#1113,1.);
#1113 = DIRECTION('',(-1.,0.,0.));
#1114 = PLANE('',#1115);
#1115 = AXIS2_PLACEMENT_3D('',#1116,#1117,#1118);
#1116 = CARTESIAN_POINT('',(21.,14.6,62.300552486188));
#1117 = DIRECTION('',(-0.,-1.,-0.));
#1118 = DIRECTION('',(0.,0.,-1.));
#1119 = ADVANCED_FACE('',(#1120),#1138,.T.);
#1120 = FACE_BOUND('',#1121,.T.);
#1121 = EDGE_LOOP('',(#1122,#1123,#1124,#1130,#1131,#1132));
#1122 = ORIENTED_EDGE('',*,*,#733,.T.);
#1123 = ORIENTED_EDGE('',*,*,#1109,.T.);
#1124 = ORIENTED_EDGE('',*,*,#1125,.T.);
#1125 = EDGE_CURVE('',#1102,#1078,#1126,.T.);
#1126 = LINE('',#1127,#1128);
#1127 = CARTESIAN_POINT('',(35.4,14.6,48.2));
#1128 = VECTOR('',#1129,1.);
#1129 = DIRECTION('',(-1.,0.,0.));
#1130 = ORIENTED_EDGE('',*,*,#1077,.T.);
#1131 = ORIENTED_EDGE('',*,*,#417,.T.);
#1132 = ORIENTED_EDGE('',*,*,#1133,.T.);
#1133 = EDGE_CURVE('',#410,#683,#1134,.T.);
#1134 = LINE('',#1135,#1136);
#1135 = CARTESIAN_POINT('',(6.6,12.6,48.2));
#1136 = VECTOR('',#1137,1.);
#1137 = DIRECTION('',(1.,0.,0.));
#1138 = PLANE('',#1139);
#1139 = AXIS2_PLACEMENT_3D('',#1140,#1141,#1142);
#1140 = CARTESIAN_POINT('',(21.,12.6,48.2));
#1141 = DIRECTION('',(0.,0.,1.));
#1142 = DIRECTION('',(1.,0.,0.));
#1143 = ADVANCED_FACE('',(#1144),#1163,.T.);
#1144 = FACE_BOUND('',#1145,.T.);
#1145 = EDGE_LOOP('',(#1146,#1147,#1155,#1162));
#1146 = ORIENTED_EDGE('',*,*,#528,.T.);
#1147 = ORIENTED_EDGE('',*,*,#1148,.T.);
#1148 = EDGE_CURVE('',#521,#1149,#1151,.T.);
#1149 = VERTEX_POINT('',#1150);
#1150 = CARTESIAN_POINT('',(8.6,10.6,46.2));
#1151 = LINE('',#1152,#1153);
#1152 = CARTESIAN_POINT('',(8.6,10.6,4.));
#1153 = VECTOR('',#1154,1.);
#1154 = DIRECTION('',(0.,0.,1.));
#1155 = ORIENTED_EDGE('',*,*,#1156,.F.);
#1156 = EDGE_CURVE('',#410,#1149,#1157,.T.);
#1157 = ELLIPSE('',#1158,2.828427124746,2.);
#1158 = AXIS2_PLACEMENT_3D('',#1159,#1160,#1161);
#1159 = CARTESIAN_POINT('',(8.6,12.6,46.2));
#1160 = DIRECTION('',(0.707106781187,-0.,0.707106781187));
#1161 = DIRECTION('',(0.707106781187,0.,-0.707106781187));
#1162 = ORIENTED_EDGE('',*,*,#409,.F.);
#1163 = CYLINDRICAL_SURFACE('',#1164,2.);
#1164 = AXIS2_PLACEMENT_3D('',#1165,#1166,#1167);
#1165 = CARTESIAN_POINT('',(8.6,12.6,4.));
#1166 = DIRECTION('',(0.,0.,1.));
#1167 = DIRECTION('',(-1.,0.,0.));
#1168 = ADVANCED_FACE('',(#1169),#1188,.F.);
#1169 = FACE_BOUND('',#1170,.F.);
#1170 = EDGE_LOOP('',(#1171,#1180,#1186,#1187));
#1171 = ORIENTED_EDGE('',*,*,#1172,.F.);
#1172 = EDGE_CURVE('',#1173,#1173,#1175,.T.);
#1173 = VERTEX_POINT('',#1174);
#1174 = CARTESIAN_POINT('',(10.6,27.6,59.));
#1175 = CIRCLE('',#1176,2.6);
#1176 = AXIS2_PLACEMENT_3D('',#1177,#1178,#1179);
#1177 = CARTESIAN_POINT('',(10.6,25.,59.));
#1178 = DIRECTION('',(1.,0.,0.));
#1179 = DIRECTION('',(0.,1.,0.));
#1180 = ORIENTED_EDGE('',*,*,#1181,.T.);
#1181 = EDGE_CURVE('',#1173,#461,#1182,.T.);
#1182 = LINE('',#1183,#1184);
#1183 = CARTESIAN_POINT('',(35.4,27.6,59.));
#1184 = VECTOR('',#1185,1.);
#1185 = DIRECTION('',(-1.,-0.,-0.));
#1186 = ORIENTED_EDGE('',*,*,#460,.T.);
#1187 = ORIENTED_EDGE('',*,*,#1181,.F.);
#1188 = CYLINDRICAL_SURFACE('',#1189,2.6);
#1189 = AXIS2_PLACEMENT_3D('',#1190,#1191,#1192);
#1190 = CARTESIAN_POINT('',(35.4,25.,59.));
#1191 = DIRECTION('',(1.,0.,0.));
#1192 = DIRECTION('',(0.,1.,0.));
#1193 = ADVANCED_FACE('',(#1194),#1212,.F.);
#1194 = FACE_BOUND('',#1195,.F.);
#1195 = EDGE_LOOP('',(#1196,#1197,#1198,#1206));
#1196 = ORIENTED_EDGE('',*,*,#520,.F.);
#1197 = ORIENTED_EDGE('',*,*,#1148,.T.);
#1198 = ORIENTED_EDGE('',*,*,#1199,.T.);
#1199 = EDGE_CURVE('',#1149,#1200,#1202,.T.);
#1200 = VERTEX_POINT('',#1201);
#1201 = CARTESIAN_POINT('',(33.4,10.6,46.2));
#1202 = LINE('',#1203,#1204);
#1203 = CARTESIAN_POINT('',(6.6,10.6,46.2));
#1204 = VECTOR('',#1205,1.);
#1205 = DIRECTION('',(1.,0.,0.));
#1206 = ORIENTED_EDGE('',*,*,#1207,.F.);
#1207 = EDGE_CURVE('',#512,#1200,#1208,.T.);
#1208 = LINE('',#1209,#1210);
#1209 = CARTESIAN_POINT('',(33.4,10.6,4.));
#1210 = VECTOR('',#1211,1.);
#1211 = DIRECTION('',(0.,0.,1.));
#1212 = PLANE('',#1213);
#1213 = AXIS2_PLACEMENT_3D('',#1214,#1215,#1216);
#1214 = CARTESIAN_POINT('',(6.6,10.6,4.));
#1215 = DIRECTION('',(0.,1.,0.));
#1216 = DIRECTION('',(1.,0.,0.));
#1217 = ADVANCED_FACE('',(#1218),#1230,.T.);
#1218 = FACE_BOUND('',#1219,.T.);
#1219 = EDGE_LOOP('',(#1220,#1221,#1222,#1229));
#1220 = ORIENTED_EDGE('',*,*,#511,.T.);
#1221 = ORIENTED_EDGE('',*,*,#682,.T.);
#1222 = ORIENTED_EDGE('',*,*,#1223,.T.);
#1223 = EDGE_CURVE('',#683,#1200,#1224,.T.);
#1224 = ELLIPSE('',#1225,2.828427124746,2.);
#1225 = AXIS2_PLACEMENT_3D('',#1226,#1227,#1228);
#1226 = CARTESIAN_POINT('',(33.4,12.6,46.2));
#1227 = DIRECTION('',(0.707106781187,0.,-0.707106781187));
#1228 = DIRECTION('',(0.707106781187,0.,0.707106781187));
#1229 = ORIENTED_EDGE('',*,*,#1207,.F.);
#1230 = CYLINDRICAL_SURFACE('',#1231,2.);
#1231 = AXIS2_PLACEMENT_3D('',#1232,#1233,#1234);
#1232 = CARTESIAN_POINT('',(33.4,12.6,4.));
#1233 = DIRECTION('',(0.,0.,1.));
#1234 = DIRECTION('',(0.,-1.,0.));
#1235 = ADVANCED_FACE('',(#1236),#1261,.F.);
#1236 = FACE_BOUND('',#1237,.F.);
#1237 = EDGE_LOOP('',(#1238,#1248,#1254,#1255));
#1238 = ORIENTED_EDGE('',*,*,#1239,.F.);
#1239 = EDGE_CURVE('',#1240,#1242,#1244,.T.);
#1240 = VERTEX_POINT('',#1241);
#1241 = CARTESIAN_POINT('',(4.,-1.E-15,0.));
#1242 = VERTEX_POINT('',#1243);
#1243 = CARTESIAN_POINT('',(38.,-1.E-15,0.));
#1244 = LINE('',#1245,#1246);
#1245 = CARTESIAN_POINT('',(0.,0.,0.));
#1246 = VECTOR('',#1247,1.);
#1247 = DIRECTION('',(1.,0.,0.));
#1248 = ORIENTED_EDGE('',*,*,#1249,.T.);
#1249 = EDGE_CURVE('',#1240,#538,#1250,.T.);
#1250 = LINE('',#1251,#1252);
#1251 = CARTESIAN_POINT('',(4.,-8.9E-16,0.));
#1252 = VECTOR('',#1253,1.);
#1253 = DIRECTION('',(0.,0.,1.));
#1254 = ORIENTED_EDGE('',*,*,#537,.T.);
#1255 = ORIENTED_EDGE('',*,*,#1256,.F.);
#1256 = EDGE_CURVE('',#1242,#540,#1257,.T.);
#1257 = LINE('',#1258,#1259);
#1258 = CARTESIAN_POINT('',(38.,-8.9E-16,0.));
#1259 = VECTOR('',#1260,1.);
#1260 = DIRECTION('',(0.,0.,1.));
#1261 = PLANE('',#1262);
#1262 = AXIS2_PLACEMENT_3D('',#1263,#1264,#1265);
#1263 = CARTESIAN_POINT('',(0.,0.,0.));
#1264 = DIRECTION('',(0.,1.,0.));
#1265 = DIRECTION('',(1.,0.,0.));
#1266 = ADVANCED_FACE('',(#1267),#1286,.T.);
#1267 = FACE_BOUND('',#1268,.F.);
#1268 = EDGE_LOOP('',(#1269,#1278,#1284,#1285));
#1269 = ORIENTED_EDGE('',*,*,#1270,.T.);
#1270 = EDGE_CURVE('',#1240,#1271,#1273,.T.);
#1271 = VERTEX_POINT('',#1272);
#1272 = CARTESIAN_POINT('',(-1.E-15,4.,0.));
#1273 = CIRCLE('',#1274,4.);
#1274 = AXIS2_PLACEMENT_3D('',#1275,#1276,#1277);
#1275 = CARTESIAN_POINT('',(4.,4.,0.));
#1276 = DIRECTION('',(-0.,-0.,-1.));
#1277 = DIRECTION('',(0.,-1.,0.));
#1278 = ORIENTED_EDGE('',*,*,#1279,.T.);
#1279 = EDGE_CURVE('',#1271,#591,#1280,.T.);
#1280 = LINE('',#1281,#1282);
#1281 = CARTESIAN_POINT('',(-8.9E-16,4.,0.));
#1282 = VECTOR('',#1283,1.);
#1283 = DIRECTION('',(0.,0.,1.));
#1284 = ORIENTED_EDGE('',*,*,#598,.F.);
#1285 = ORIENTED_EDGE('',*,*,#1249,.F.);
#1286 = CYLINDRICAL_SURFACE('',#1287,4.);
#1287 = AXIS2_PLACEMENT_3D('',#1288,#1289,#1290);
#1288 = CARTESIAN_POINT('',(4.,4.,0.));
#1289 = DIRECTION('',(0.,0.,1.));
#1290 = DIRECTION('',(0.,-1.,0.));
#1291 = ADVANCED_FACE('',(#1292),#1311,.T.);
#1292 = FACE_BOUND('',#1293,.T.);
#1293 = EDGE_LOOP('',(#1294,#1303,#1309,#1310));
#1294 = ORIENTED_EDGE('',*,*,#1295,.T.);
#1295 = EDGE_CURVE('',#1242,#1296,#1298,.T.);
#1296 = VERTEX_POINT('',#1297);
#1297 = CARTESIAN_POINT('',(42.,4.,0.));
#1298 = CIRCLE('',#1299,4.);
#1299 = AXIS2_PLACEMENT_3D('',#1300,#1301,#1302);
#1300 = CARTESIAN_POINT('',(38.,4.,0.));
#1301 = DIRECTION('',(-0.,0.,1.));
#1302 = DIRECTION('',(0.,-1.,0.));
#1303 = ORIENTED_EDGE('',*,*,#1304,.T.);
#1304 = EDGE_CURVE('',#1296,#548,#1305,.T.);
#1305 = LINE('',#1306,#1307);
#1306 = CARTESIAN_POINT('',(42.,4.,0.));
#1307 = VECTOR('',#1308,1.);
#1308 = DIRECTION('',(0.,0.,1.));
#1309 = ORIENTED_EDGE('',*,*,#547,.F.);
#1310 = ORIENTED_EDGE('',*,*,#1256,.F.);
#1311 = CYLINDRICAL_SURFACE('',#1312,4.);
#1312 = AXIS2_PLACEMENT_3D('',#1313,#1314,#1315);
#1313 = CARTESIAN_POINT('',(38.,4.,0.));
#1314 = DIRECTION('',(0.,0.,1.));
#1315 = DIRECTION('',(0.,-1.,0.));
#1316 = ADVANCED_FACE('',(#1317),#1335,.F.);
#1317 = FACE_BOUND('',#1318,.F.);
#1318 = EDGE_LOOP('',(#1319,#1327,#1333,#1334));
#1319 = ORIENTED_EDGE('',*,*,#1320,.F.);
#1320 = EDGE_CURVE('',#1321,#1271,#1323,.T.);
#1321 = VERTEX_POINT('',#1322);
#1322 = CARTESIAN_POINT('',(-1.E-15,46.,0.));
#1323 = LINE('',#1324,#1325);
#1324 = CARTESIAN_POINT('',(0.,50.,0.));
#1325 = VECTOR('',#1326,1.);
#1326 = DIRECTION('',(0.,-1.,0.));
#1327 = ORIENTED_EDGE('',*,*,#1328,.T.);
#1328 = EDGE_CURVE('',#1321,#582,#1329,.T.);
#1329 = LINE('',#1330,#1331);
#1330 = CARTESIAN_POINT('',(-8.9E-16,46.,0.));
#1331 = VECTOR('',#1332,1.);
#1332 = DIRECTION('',(0.,0.,1.));
#1333 = ORIENTED_EDGE('',*,*,#590,.T.);
#1334 = ORIENTED_EDGE('',*,*,#1279,.F.);
#1335 = PLANE('',#1336);
#1336 = AXIS2_PLACEMENT_3D('',#1337,#1338,#1339);
#1337 = CARTESIAN_POINT('',(0.,50.,0.));
#1338 = DIRECTION('',(1.,0.,0.));
#1339 = DIRECTION('',(0.,-1.,0.));
#1340 = ADVANCED_FACE('',(#1341),#1359,.F.);
#1341 = FACE_BOUND('',#1342,.F.);
#1342 = EDGE_LOOP('',(#1343,#1351,#1352,#1353));
#1343 = ORIENTED_EDGE('',*,*,#1344,.F.);
#1344 = EDGE_CURVE('',#1296,#1345,#1347,.T.);
#1345 = VERTEX_POINT('',#1346);
#1346 = CARTESIAN_POINT('',(42.,46.,0.));
#1347 = LINE('',#1348,#1349);
#1348 = CARTESIAN_POINT('',(42.,0.,0.));
#1349 = VECTOR('',#1350,1.);
#1350 = DIRECTION('',(0.,1.,0.));
#1351 = ORIENTED_EDGE('',*,*,#1304,.T.);
#1352 = ORIENTED_EDGE('',*,*,#556,.T.);
#1353 = ORIENTED_EDGE('',*,*,#1354,.F.);
#1354 = EDGE_CURVE('',#1345,#557,#1355,.T.);
#1355 = LINE('',#1356,#1357);
#1356 = CARTESIAN_POINT('',(42.,46.,0.));
#1357 = VECTOR('',#1358,1.);
#1358 = DIRECTION('',(0.,0.,1.));
#1359 = PLANE('',#1360);
#1360 = AXIS2_PLACEMENT_3D('',#1361,#1362,#1363);
#1361 = CARTESIAN_POINT('',(42.,0.,0.));
#1362 = DIRECTION('',(-1.,0.,0.));
#1363 = DIRECTION('',(0.,1.,0.));
#1364 = ADVANCED_FACE('',(#1365),#1384,.T.);
#1365 = FACE_BOUND('',#1366,.F.);
#1366 = EDGE_LOOP('',(#1367,#1376,#1382,#1383));
#1367 = ORIENTED_EDGE('',*,*,#1368,.T.);
#1368 = EDGE_CURVE('',#1321,#1369,#1371,.T.);
#1369 = VERTEX_POINT('',#1370);
#1370 = CARTESIAN_POINT('',(4.,50.,0.));
#1371 = CIRCLE('',#1372,4.);
#1372 = AXIS2_PLACEMENT_3D('',#1373,#1374,#1375);
#1373 = CARTESIAN_POINT('',(4.,46.,0.));
#1374 = DIRECTION('',(-0.,-0.,-1.));
#1375 = DIRECTION('',(0.,-1.,0.));
#1376 = ORIENTED_EDGE('',*,*,#1377,.T.);
#1377 = EDGE_CURVE('',#1369,#574,#1378,.T.);
#1378 = LINE('',#1379,#1380);
#1379 = CARTESIAN_POINT('',(4.,50.,0.));
#1380 = VECTOR('',#1381,1.);
#1381 = DIRECTION('',(0.,0.,1.));
#1382 = ORIENTED_EDGE('',*,*,#581,.F.);
#1383 = ORIENTED_EDGE('',*,*,#1328,.F.);
#1384 = CYLINDRICAL_SURFACE('',#1385,4.);
#1385 = AXIS2_PLACEMENT_3D('',#1386,#1387,#1388);
#1386 = CARTESIAN_POINT('',(4.,46.,0.));
#1387 = DIRECTION('',(0.,0.,1.));
#1388 = DIRECTION('',(-1.,0.,0.));
#1389 = ADVANCED_FACE('',(#1390),#1409,.T.);
#1390 = FACE_BOUND('',#1391,.T.);
#1391 = EDGE_LOOP('',(#1392,#1401,#1407,#1408));
#1392 = ORIENTED_EDGE('',*,*,#1393,.T.);
#1393 = EDGE_CURVE('',#1345,#1394,#1396,.T.);
#1394 = VERTEX_POINT('',#1395);
#1395 = CARTESIAN_POINT('',(38.,50.,0.));
#1396 = CIRCLE('',#1397,4.);
#1397 = AXIS2_PLACEMENT_3D('',#1398,#1399,#1400);
#1398 = CARTESIAN_POINT('',(38.,46.,0.));
#1399 = DIRECTION('',(-0.,0.,1.));
#1400 = DIRECTION('',(0.,-1.,0.));
#1401 = ORIENTED_EDGE('',*,*,#1402,.T.);
#1402 = EDGE_CURVE('',#1394,#565,#1403,.T.);
#1403 = LINE('',#1404,#1405);
#1404 = CARTESIAN_POINT('',(38.,50.,0.));
#1405 = VECTOR('',#1406,1.);
#1406 = DIRECTION('',(0.,0.,1.));
#1407 = ORIENTED_EDGE('',*,*,#564,.F.);
#1408 = ORIENTED_EDGE('',*,*,#1354,.F.);
#1409 = CYLINDRICAL_SURFACE('',#1410,4.);
#1410 = AXIS2_PLACEMENT_3D('',#1411,#1412,#1413);
#1411 = CARTESIAN_POINT('',(38.,46.,0.));
#1412 = DIRECTION('',(0.,0.,1.));
#1413 = DIRECTION('',(1.,0.,0.));
#1414 = ADVANCED_FACE('',(#1415),#1426,.F.);
#1415 = FACE_BOUND('',#1416,.F.);
#1416 = EDGE_LOOP('',(#1417,#1423,#1424,#1425));
#1417 = ORIENTED_EDGE('',*,*,#1418,.F.);
#1418 = EDGE_CURVE('',#1394,#1369,#1419,.T.);
#1419 = LINE('',#1420,#1421);
#1420 = CARTESIAN_POINT('',(42.,50.,0.));
#1421 = VECTOR('',#1422,1.);
#1422 = DIRECTION('',(-1.,0.,0.));
#1423 = ORIENTED_EDGE('',*,*,#1402,.T.);
#1424 = ORIENTED_EDGE('',*,*,#573,.T.);
#1425 = ORIENTED_EDGE('',*,*,#1377,.F.);
#1426 = PLANE('',#1427);
#1427 = AXIS2_PLACEMENT_3D('',#1428,#1429,#1430);
#1428 = CARTESIAN_POINT('',(42.,50.,0.));
#1429 = DIRECTION('',(0.,-1.,0.));
#1430 = DIRECTION('',(-1.,0.,0.));
#1431 = ADVANCED_FACE('',(#1432),#1451,.F.);
#1432 = FACE_BOUND('',#1433,.T.);
#1433 = EDGE_LOOP('',(#1434,#1442,#1443,#1444));
#1434 = ORIENTED_EDGE('',*,*,#1435,.T.);
#1435 = EDGE_CURVE('',#1436,#608,#1438,.T.);
#1436 = VERTEX_POINT('',#1437);
#1437 = CARTESIAN_POINT('',(7.645,5.,0.));
#1438 = LINE('',#1439,#1440);
#1439 = CARTESIAN_POINT('',(7.645,5.,0.));
#1440 = VECTOR('',#1441,1.);
#1441 = DIRECTION('',(0.,0.,1.));
#1442 = ORIENTED_EDGE('',*,*,#607,.T.);
#1443 = ORIENTED_EDGE('',*,*,#1435,.F.);
#1444 = ORIENTED_EDGE('',*,*,#1445,.F.);
#1445 = EDGE_CURVE('',#1436,#1436,#1446,.T.);
#1446 = CIRCLE('',#1447,2.6);
#1447 = AXIS2_PLACEMENT_3D('',#1448,#1449,#1450);
#1448 = CARTESIAN_POINT('',(5.045,5.,0.));
#1449 = DIRECTION('',(0.,0.,1.));
#1450 = DIRECTION('',(1.,0.,0.));
#1451 = CYLINDRICAL_SURFACE('',#1452,2.6);
#1452 = AXIS2_PLACEMENT_3D('',#1453,#1454,#1455);
#1453 = CARTESIAN_POINT('',(5.045,5.,0.));
#1454 = DIRECTION('',(-0.,-0.,-1.));
#1455 = DIRECTION('',(1.,0.,0.));
#1456 = ADVANCED_FACE('',(#1457),#1476,.F.);
#1457 = FACE_BOUND('',#1458,.T.);
#1458 = EDGE_LOOP('',(#1459,#1467,#1468,#1469));
#1459 = ORIENTED_EDGE('',*,*,#1460,.T.);
#1460 = EDGE_CURVE('',#1461,#619,#1463,.T.);
#1461 = VERTEX_POINT('',#1462);
#1462 = CARTESIAN_POINT('',(39.555,5.,0.));
#1463 = LINE('',#1464,#1465);
#1464 = CARTESIAN_POINT('',(39.555,5.,0.));
#1465 = VECTOR('',#1466,1.);
#1466 = DIRECTION('',(0.,0.,1.));
#1467 = ORIENTED_EDGE('',*,*,#618,.T.);
#1468 = ORIENTED_EDGE('',*,*,#1460,.F.);
#1469 = ORIENTED_EDGE('',*,*,#1470,.F.);
#1470 = EDGE_CURVE('',#1461,#1461,#1471,.T.);
#1471 = CIRCLE('',#1472,2.6);
#1472 = AXIS2_PLACEMENT_3D('',#1473,#1474,#1475);
#1473 = CARTESIAN_POINT('',(36.955,5.,0.));
#1474 = DIRECTION('',(0.,0.,1.));
#1475 = DIRECTION('',(1.,0.,0.));
#1476 = CYLINDRICAL_SURFACE('',#1477,2.6);
#1477 = AXIS2_PLACEMENT_3D('',#1478,#1479,#1480);
#1478 = CARTESIAN_POINT('',(36.955,5.,0.));
#1479 = DIRECTION('',(-0.,-0.,-1.));
#1480 = DIRECTION('',(1.,0.,0.));
#1481 = ADVANCED_FACE('',(#1482),#1501,.F.);
#1482 = FACE_BOUND('',#1483,.T.);
#1483 = EDGE_LOOP('',(#1484,#1492,#1493,#1494));
#1484 = ORIENTED_EDGE('',*,*,#1485,.T.);
#1485 = EDGE_CURVE('',#1486,#630,#1488,.T.);
#1486 = VERTEX_POINT('',#1487);
#1487 = CARTESIAN_POINT('',(7.645,45.,0.));
#1488 = LINE('',#1489,#1490);
#1489 = CARTESIAN_POINT('',(7.645,45.,0.));
#1490 = VECTOR('',#1491,1.);
#1491 = DIRECTION('',(0.,0.,1.));
#1492 = ORIENTED_EDGE('',*,*,#629,.T.);
#1493 = ORIENTED_EDGE('',*,*,#1485,.F.);
#1494 = ORIENTED_EDGE('',*,*,#1495,.F.);
#1495 = EDGE_CURVE('',#1486,#1486,#1496,.T.);
#1496 = CIRCLE('',#1497,2.6);
#1497 = AXIS2_PLACEMENT_3D('',#1498,#1499,#1500);
#1498 = CARTESIAN_POINT('',(5.045,45.,0.));
#1499 = DIRECTION('',(0.,0.,1.));
#1500 = DIRECTION('',(1.,0.,0.));
#1501 = CYLINDRICAL_SURFACE('',#1502,2.6);
#1502 = AXIS2_PLACEMENT_3D('',#1503,#1504,#1505);
#1503 = CARTESIAN_POINT('',(5.045,45.,0.));
#1504 = DIRECTION('',(-0.,-0.,-1.));
#1505 = DIRECTION('',(1.,0.,0.));
#1506 = ADVANCED_FACE('',(#1507),#1526,.F.);
#1507 = FACE_BOUND('',#1508,.T.);
#1508 = EDGE_LOOP('',(#1509,#1517,#1518,#1519));
#1509 = ORIENTED_EDGE('',*,*,#1510,.T.);
#1510 = EDGE_CURVE('',#1511,#641,#1513,.T.);
#1511 = VERTEX_POINT('',#1512);
#1512 = CARTESIAN_POINT('',(39.555,45.,0.));
#1513 = LINE('',#1514,#1515);
#1514 = CARTESIAN_POINT('',(39.555,45.,0.));
#1515 = VECTOR('',#1516,1.);
#1516 = DIRECTION('',(0.,0.,1.));
#1517 = ORIENTED_EDGE('',*,*,#640,.T.);
#1518 = ORIENTED_EDGE('',*,*,#1510,.F.);
#1519 = ORIENTED_EDGE('',*,*,#1520,.F.);
#1520 = EDGE_CURVE('',#1511,#1511,#1521,.T.);
#1521 = CIRCLE('',#1522,2.6);
#1522 = AXIS2_PLACEMENT_3D('',#1523,#1524,#1525);
#1523 = CARTESIAN_POINT('',(36.955,45.,0.));
#1524 = DIRECTION('',(0.,0.,1.));
#1525 = DIRECTION('',(1.,0.,0.));
#1526 = CYLINDRICAL_SURFACE('',#1527,2.6);
#1527 = AXIS2_PLACEMENT_3D('',#1528,#1529,#1530);
#1528 = CARTESIAN_POINT('',(36.955,45.,0.));
#1529 = DIRECTION('',(-0.,-0.,-1.));
#1530 = DIRECTION('',(1.,0.,0.));
#1531 = ADVANCED_FACE('',(#1532),#1551,.F.);
#1532 = FACE_BOUND('',#1533,.F.);
#1533 = EDGE_LOOP('',(#1534,#1535,#1543,#1550));
#1534 = ORIENTED_EDGE('',*,*,#741,.F.);
#1535 = ORIENTED_EDGE('',*,*,#1536,.T.);
#1536 = EDGE_CURVE('',#742,#1537,#1539,.T.);
#1537 = VERTEX_POINT('',#1538);
#1538 = CARTESIAN_POINT('',(31.4,27.6,59.));
#1539 = LINE('',#1540,#1541);
#1540 = CARTESIAN_POINT('',(35.4,27.6,59.));
#1541 = VECTOR('',#1542,1.);
#1542 = DIRECTION('',(-1.,-0.,-0.));
#1543 = ORIENTED_EDGE('',*,*,#1544,.T.);
#1544 = EDGE_CURVE('',#1537,#1537,#1545,.T.);
#1545 = CIRCLE('',#1546,2.6);
#1546 = AXIS2_PLACEMENT_3D('',#1547,#1548,#1549);
#1547 = CARTESIAN_POINT('',(31.4,25.,59.));
#1548 = DIRECTION('',(1.,0.,0.));
#1549 = DIRECTION('',(0.,1.,0.));
#1550 = ORIENTED_EDGE('',*,*,#1536,.F.);
#1551 = CYLINDRICAL_SURFACE('',#1552,2.6);
#1552 = AXIS2_PLACEMENT_3D('',#1553,#1554,#1555);
#1553 = CARTESIAN_POINT('',(35.4,25.,59.));
#1554 = DIRECTION('',(1.,0.,0.));
#1555 = DIRECTION('',(0.,1.,0.));
#1556 = ADVANCED_FACE('',(#1557,#1590),#1593,.T.);
#1557 = FACE_BOUND('',#1558,.T.);
#1558 = EDGE_LOOP('',(#1559,#1567,#1568,#1576,#1584));
#1559 = ORIENTED_EDGE('',*,*,#1560,.T.);
#1560 = EDGE_CURVE('',#1561,#1102,#1563,.T.);
#1561 = VERTEX_POINT('',#1562);
#1562 = CARTESIAN_POINT('',(31.4,14.6,0.));
#1563 = LINE('',#1564,#1565);
#1564 = CARTESIAN_POINT('',(31.4,14.6,4.));
#1565 = VECTOR('',#1566,1.);
#1566 = DIRECTION('',(0.,0.,1.));
#1567 = ORIENTED_EDGE('',*,*,#1101,.T.);
#1568 = ORIENTED_EDGE('',*,*,#1569,.T.);
#1569 = EDGE_CURVE('',#1094,#1570,#1572,.T.);
#1570 = VERTEX_POINT('',#1571);
#1571 = CARTESIAN_POINT('',(31.4,35.4,69.));
#1572 = LINE('',#1573,#1574);
#1573 = CARTESIAN_POINT('',(31.4,14.6,69.));
#1574 = VECTOR('',#1575,1.);
#1575 = DIRECTION('',(0.,1.,0.));
#1576 = ORIENTED_EDGE('',*,*,#1577,.F.);
#1577 = EDGE_CURVE('',#1578,#1570,#1580,.T.);
#1578 = VERTEX_POINT('',#1579);
#1579 = CARTESIAN_POINT('',(31.4,35.4,0.));
#1580 = LINE('',#1581,#1582);
#1581 = CARTESIAN_POINT('',(31.4,35.4,4.));
#1582 = VECTOR('',#1583,1.);
#1583 = DIRECTION('',(0.,0.,1.));
#1584 = ORIENTED_EDGE('',*,*,#1585,.F.);
#1585 = EDGE_CURVE('',#1561,#1578,#1586,.T.);
#1586 = LINE('',#1587,#1588);
#1587 = CARTESIAN_POINT('',(31.4,14.6,0.));
#1588 = VECTOR('',#1589,1.);
#1589 = DIRECTION('',(0.,1.,0.));
#1590 = FACE_BOUND('',#1591,.T.);
#1591 = EDGE_LOOP('',(#1592));
#1592 = ORIENTED_EDGE('',*,*,#1544,.T.);
#1593 = PLANE('',#1594);
#1594 = AXIS2_PLACEMENT_3D('',#1595,#1596,#1597);
#1595 = CARTESIAN_POINT('',(31.4,25.,34.5));
#1596 = DIRECTION('',(-1.,-0.,-0.));
#1597 = DIRECTION('',(0.,0.,-1.));
#1598 = ADVANCED_FACE('',(#1599),#1617,.F.);
#1599 = FACE_BOUND('',#1600,.F.);
#1600 = EDGE_LOOP('',(#1601,#1609,#1610,#1611));
#1601 = ORIENTED_EDGE('',*,*,#1602,.T.);
#1602 = EDGE_CURVE('',#1603,#1086,#1605,.T.);
#1603 = VERTEX_POINT('',#1604);
#1604 = CARTESIAN_POINT('',(10.6,35.4,69.));
#1605 = LINE('',#1606,#1607);
#1606 = CARTESIAN_POINT('',(10.6,35.4,69.));
#1607 = VECTOR('',#1608,1.);
#1608 = DIRECTION('',(0.,-1.,0.));
#1609 = ORIENTED_EDGE('',*,*,#1093,.T.);
#1610 = ORIENTED_EDGE('',*,*,#1569,.T.);
#1611 = ORIENTED_EDGE('',*,*,#1612,.T.);
#1612 = EDGE_CURVE('',#1570,#1603,#1613,.T.);
#1613 = LINE('',#1614,#1615);
#1614 = CARTESIAN_POINT('',(31.4,35.4,69.));
#1615 = VECTOR('',#1616,1.);
#1616 = DIRECTION('',(-1.,0.,0.));
#1617 = PLANE('',#1618);
#1618 = AXIS2_PLACEMENT_3D('',#1619,#1620,#1621);
#1619 = CARTESIAN_POINT('',(21.,27.,69.));
#1620 = DIRECTION('',(0.,0.,1.));
#1621 = DIRECTION('',(1.,0.,0.));
#1622 = ADVANCED_FACE('',(#1623,#1649),#1652,.T.);
#1623 = FACE_BOUND('',#1624,.T.);
#1624 = EDGE_LOOP('',(#1625,#1633,#1634,#1635,#1643));
#1625 = ORIENTED_EDGE('',*,*,#1626,.T.);
#1626 = EDGE_CURVE('',#1627,#1603,#1629,.T.);
#1627 = VERTEX_POINT('',#1628);
#1628 = CARTESIAN_POINT('',(10.6,35.4,0.));
#1629 = LINE('',#1630,#1631);
#1630 = CARTESIAN_POINT('',(10.6,35.4,4.));
#1631 = VECTOR('',#1632,1.);
#1632 = DIRECTION('',(0.,0.,1.));
#1633 = ORIENTED_EDGE('',*,*,#1602,.T.);
#1634 = ORIENTED_EDGE('',*,*,#1085,.F.);
#1635 = ORIENTED_EDGE('',*,*,#1636,.F.);
#1636 = EDGE_CURVE('',#1637,#1078,#1639,.T.);
#1637 = VERTEX_POINT('',#1638);
#1638 = CARTESIAN_POINT('',(10.6,14.6,0.));
#1639 = LINE('',#1640,#1641);
#1640 = CARTESIAN_POINT('',(10.6,14.6,0.));
#1641 = VECTOR('',#1642,1.);
#1642 = DIRECTION('',(0.,0.,1.));
#1643 = ORIENTED_EDGE('',*,*,#1644,.F.);
#1644 = EDGE_CURVE('',#1627,#1637,#1645,.T.);
#1645 = LINE('',#1646,#1647);
#1646 = CARTESIAN_POINT('',(10.6,35.4,0.));
#1647 = VECTOR('',#1648,1.);
#1648 = DIRECTION('',(0.,-1.,0.));
#1649 = FACE_BOUND('',#1650,.T.);
#1650 = EDGE_LOOP('',(#1651));
#1651 = ORIENTED_EDGE('',*,*,#1172,.F.);
#1652 = PLANE('',#1653);
#1653 = AXIS2_PLACEMENT_3D('',#1654,#1655,#1656);
#1654 = CARTESIAN_POINT('',(10.6,25.,34.5));
#1655 = DIRECTION('',(1.,0.,0.));
#1656 = DIRECTION('',(0.,0.,1.));
#1657 = ADVANCED_FACE('',(#1658),#1664,.T.);
#1658 = FACE_BOUND('',#1659,.T.);
#1659 = EDGE_LOOP('',(#1660,#1661,#1662,#1663));
#1660 = ORIENTED_EDGE('',*,*,#1156,.T.);
#1661 = ORIENTED_EDGE('',*,*,#1199,.T.);
#1662 = ORIENTED_EDGE('',*,*,#1223,.F.);
#1663 = ORIENTED_EDGE('',*,*,#1133,.F.);
#1664 = CYLINDRICAL_SURFACE('',#1665,2.);
#1665 = AXIS2_PLACEMENT_3D('',#1666,#1667,#1668);
#1666 = CARTESIAN_POINT('',(6.6,12.6,46.2));
#1667 = DIRECTION('',(1.,0.,0.));
#1668 = DIRECTION('',(0.,0.,1.));
#1669 = ADVANCED_FACE('',(#1670),#1681,.T.);
#1670 = FACE_BOUND('',#1671,.T.);
#1671 = EDGE_LOOP('',(#1672,#1678,#1679,#1680));
#1672 = ORIENTED_EDGE('',*,*,#1673,.F.);
#1673 = EDGE_CURVE('',#1637,#1561,#1674,.T.);
#1674 = LINE('',#1675,#1676);
#1675 = CARTESIAN_POINT('',(10.6,14.6,0.));
#1676 = VECTOR('',#1677,1.);
#1677 = DIRECTION('',(1.,0.,0.));
#1678 = ORIENTED_EDGE('',*,*,#1636,.T.);
#1679 = ORIENTED_EDGE('',*,*,#1125,.F.);
#1680 = ORIENTED_EDGE('',*,*,#1560,.F.);
#1681 = PLANE('',#1682);
#1682 = AXIS2_PLACEMENT_3D('',#1683,#1684,#1685);
#1683 = CARTESIAN_POINT('',(21.,14.6,34.5));
#1684 = DIRECTION('',(0.,1.,0.));
#1685 = DIRECTION('',(0.,0.,1.));
#1686 = ADVANCED_FACE('',(#1687,#1697,#1708,#1711,#1714,#1717),#1720,.F.
  );
#1687 = FACE_BOUND('',#1688,.F.);
#1688 = EDGE_LOOP('',(#1689,#1690,#1691,#1692,#1693,#1694,#1695,#1696));
#1689 = ORIENTED_EDGE('',*,*,#1239,.T.);
#1690 = ORIENTED_EDGE('',*,*,#1295,.T.);
#1691 = ORIENTED_EDGE('',*,*,#1344,.T.);
#1692 = ORIENTED_EDGE('',*,*,#1393,.T.);
#1693 = ORIENTED_EDGE('',*,*,#1418,.T.);
#1694 = ORIENTED_EDGE('',*,*,#1368,.F.);
#1695 = ORIENTED_EDGE('',*,*,#1320,.T.);
#1696 = ORIENTED_EDGE('',*,*,#1270,.F.);
#1697 = FACE_BOUND('',#1698,.T.);
#1698 = EDGE_LOOP('',(#1699,#1700,#1701,#1707));
#1699 = ORIENTED_EDGE('',*,*,#1673,.T.);
#1700 = ORIENTED_EDGE('',*,*,#1585,.T.);
#1701 = ORIENTED_EDGE('',*,*,#1702,.T.);
#1702 = EDGE_CURVE('',#1578,#1627,#1703,.T.);
#1703 = LINE('',#1704,#1705);
#1704 = CARTESIAN_POINT('',(31.4,35.4,0.));
#1705 = VECTOR('',#1706,1.);
#1706 = DIRECTION('',(-1.,0.,0.));
#1707 = ORIENTED_EDGE('',*,*,#1644,.T.);
#1708 = FACE_BOUND('',#1709,.T.);
#1709 = EDGE_LOOP('',(#1710));
#1710 = ORIENTED_EDGE('',*,*,#1495,.T.);
#1711 = FACE_BOUND('',#1712,.T.);
#1712 = EDGE_LOOP('',(#1713));
#1713 = ORIENTED_EDGE('',*,*,#1520,.T.);
#1714 = FACE_BOUND('',#1715,.T.);
#1715 = EDGE_LOOP('',(#1716));
#1716 = ORIENTED_EDGE('',*,*,#1470,.T.);
#1717 = FACE_BOUND('',#1718,.T.);
#1718 = EDGE_LOOP('',(#1719));
#1719 = ORIENTED_EDGE('',*,*,#1445,.T.);
#1720 = PLANE('',#1721);
#1721 = AXIS2_PLACEMENT_3D('',#1722,#1723,#1724);
#1722 = CARTESIAN_POINT('',(21.,25.,0.));
#1723 = DIRECTION('',(0.,0.,1.));
#1724 = DIRECTION('',(1.,0.,0.));
#1725 = ADVANCED_FACE('',(#1726),#1732,.T.);
#1726 = FACE_BOUND('',#1727,.T.);
#1727 = EDGE_LOOP('',(#1728,#1729,#1730,#1731));
#1728 = ORIENTED_EDGE('',*,*,#1702,.F.);
#1729 = ORIENTED_EDGE('',*,*,#1577,.T.);
#1730 = ORIENTED_EDGE('',*,*,#1612,.T.);
#1731 = ORIENTED_EDGE('',*,*,#1626,.F.);
#1732 = PLANE('',#1733);
#1733 = AXIS2_PLACEMENT_3D('',#1734,#1735,#1736);
#1734 = CARTESIAN_POINT('',(21.,35.4,34.5));
#1735 = DIRECTION('',(-0.,-1.,-0.));
#1736 = DIRECTION('',(0.,0.,-1.));
#1737 = ( GEOMETRIC_REPRESENTATION_CONTEXT(3) 
GLOBAL_UNCERTAINTY_ASSIGNED_CONTEXT((#1741)) 
GLOBAL_UNIT_ASSIGNED_CONTEXT((#1738,#1739,#1740)) REPRESENTATION_CONTEXT
('Context #1','3D Context with UNIT and UNCERTAINTY') );
#1738 = ( LENGTH_UNIT() NAMED_UNIT(*) SI_UNIT(.MILLI.,.METRE.) );
#1739 = ( NAMED_UNIT(*) PLANE_ANGLE_UNIT() SI_UNIT($,.RADIAN.) );
#1740 = ( NAMED_UNIT(*) SI_UNIT($,.STERADIAN.) SOLID_ANGLE_UNIT() );
#1741 = UNCERTAINTY_MEASURE_WITH_UNIT(LENGTH_MEASURE(5.E-06),#1738,
  'distance_accuracy_value','confusion accuracy');
#1742 = PRODUCT_RELATED_PRODUCT_CATEGORY('part',$,(#7));
#1743 = MECHANICAL_DESIGN_GEOMETRIC_PRESENTATION_REPRESENTATION('',(
    #1744),#1737);
#1744 = STYLED_ITEM('color',(#1745),#15);
#1745 = PRESENTATION_STYLE_ASSIGNMENT((#1746,#1752));
#1746 = SURFACE_STYLE_USAGE(.BOTH.,#1747);
#1747 = SURFACE_SIDE_STYLE('',(#1748));
#1748 = SURFACE_STYLE_FILL_AREA(#1749);
#1749 = FILL_AREA_STYLE('',(#1750));
#1750 = FILL_AREA_STYLE_COLOUR('',#1751);
#1751 = COLOUR_RGB('',0.447058818107,0.474509808674,0.501960817233);
#1752 = CURVE_STYLE('',#1753,POSITIVE_LENGTH_MEASURE(0.1),#1754);
#1753 = DRAUGHTING_PRE_DEFINED_CURVE_FONT('continuous');
#1754 = COLOUR_RGB('',9.803921802644E-02,9.803921802644E-02,
  9.803921802644E-02);
ENDSEC;
END-ISO-10303-21;
