ISO-10303-21;
HEADER;
FILE_DESCRIPTION(('FreeCAD Model'),'2;1');
FILE_NAME('Open CASCADE Shape Model','2026-08-04T11:59:03',('Author'),(
    ''),'Open CASCADE STEP processor 7.8','FreeCAD','Unknown');
FILE_SCHEMA(('AUTOMOTIVE_DESIGN { 1 0 10303 214 1 1 1 1 }'));
ENDSEC;
DATA;
#1 = APPLICATION_PROTOCOL_DEFINITION('international standard',
  'automotive_design',2000,#2);
#2 = APPLICATION_CONTEXT(
  'core data for automotive mechanical design processes');
#3 = SHAPE_DEFINITION_REPRESENTATION(#4,#10);
#4 = PRODUCT_DEFINITION_SHAPE('','',#5);
#5 = PRODUCT_DEFINITION('design','',#6,#9);
#6 = PRODUCT_DEFINITION_FORMATION('','',#7);
#7 = PRODUCT('SideHolderLeadScrew','SideHolderLeadScrew','',(#8));
#8 = PRODUCT_CONTEXT('',#2,'mechanical');
#9 = PRODUCT_DEFINITION_CONTEXT('part definition',#2,'design');
#10 = ADVANCED_BREP_SHAPE_REPRESENTATION('',(#11,#15),#1276);
#11 = AXIS2_PLACEMENT_3D('',#12,#13,#14);
#12 = CARTESIAN_POINT('',(0.,0.,0.));
#13 = DIRECTION('',(0.,0.,1.));
#14 = DIRECTION('',(1.,0.,-0.));
#15 = MANIFOLD_SOLID_BREP('',#16);
#16 = CLOSED_SHELL('',(#17,#86,#169,#194,#218,#242,#318,#336,#361,#417,
    #434,#583,#632,#657,#681,#706,#731,#756,#787,#804,#835,#860,#885,
    #909,#933,#958,#983,#1000,#1025,#1050,#1075,#1100,#1112,#1143,#1174,
    #1218,#1241,#1258));
#17 = ADVANCED_FACE('',(#18,#70),#81,.F.);
#18 = FACE_BOUND('',#19,.F.);
#19 = EDGE_LOOP('',(#20,#30,#39,#47,#56,#64));
#20 = ORIENTED_EDGE('',*,*,#21,.T.);
#21 = EDGE_CURVE('',#22,#24,#26,.T.);
#22 = VERTEX_POINT('',#23);
#23 = CARTESIAN_POINT('',(6.6,35.4,71.));
#24 = VERTEX_POINT('',#25);
#25 = CARTESIAN_POINT('',(6.6,35.4,88.));
#26 = LINE('',#27,#28);
#27 = CARTESIAN_POINT('',(6.6,35.4,71.));
#28 = VECTOR('',#29,1.);
#29 = DIRECTION('',(0.,0.,1.));
#30 = ORIENTED_EDGE('',*,*,#31,.F.);
#31 = EDGE_CURVE('',#32,#24,#34,.T.);
#32 = VERTEX_POINT('',#33);
#33 = CARTESIAN_POINT('',(10.6,35.4,92.));
#34 = CIRCLE('',#35,4.);
#35 = AXIS2_PLACEMENT_3D('',#36,#37,#38);
#36 = CARTESIAN_POINT('',(10.6,35.4,88.));
#37 = DIRECTION('',(0.,-1.,2.2E-16));
#38 = DIRECTION('',(0.,-2.2E-16,-1.));
#39 = ORIENTED_EDGE('',*,*,#40,.T.);
#40 = EDGE_CURVE('',#32,#41,#43,.T.);
#41 = VERTEX_POINT('',#42);
#42 = CARTESIAN_POINT('',(31.4,35.4,92.));
#43 = LINE('',#44,#45);
#44 = CARTESIAN_POINT('',(6.6,35.4,92.));
#45 = VECTOR('',#46,1.);
#46 = DIRECTION('',(1.,0.,0.));
#47 = ORIENTED_EDGE('',*,*,#48,.T.);
#48 = EDGE_CURVE('',#41,#49,#51,.T.);
#49 = VERTEX_POINT('',#50);
#50 = CARTESIAN_POINT('',(35.4,35.4,88.));
#51 = CIRCLE('',#52,4.);
#52 = AXIS2_PLACEMENT_3D('',#53,#54,#55);
#53 = CARTESIAN_POINT('',(31.4,35.4,88.));
#54 = DIRECTION('',(0.,1.,-2.2E-16));
#55 = DIRECTION('',(0.,-2.2E-16,-1.));
#56 = ORIENTED_EDGE('',*,*,#57,.T.);
#57 = EDGE_CURVE('',#49,#58,#60,.T.);
#58 = VERTEX_POINT('',#59);
#59 = CARTESIAN_POINT('',(35.4,35.4,71.));
#60 = LINE('',#61,#62);
#61 = CARTESIAN_POINT('',(35.4,35.4,92.));
#62 = VECTOR('',#63,1.);
#63 = DIRECTION('',(0.,0.,-1.));
#64 = ORIENTED_EDGE('',*,*,#65,.T.);
#65 = EDGE_CURVE('',#58,#22,#66,.T.);
#66 = LINE('',#67,#68);
#67 = CARTESIAN_POINT('',(35.4,35.4,71.));
#68 = VECTOR('',#69,1.);
#69 = DIRECTION('',(-1.,0.,0.));
#70 = FACE_BOUND('',#71,.T.);
#71 = EDGE_LOOP('',(#72));
#72 = ORIENTED_EDGE('',*,*,#73,.T.);
#73 = EDGE_CURVE('',#74,#74,#76,.T.);
#74 = VERTEX_POINT('',#75);
#75 = CARTESIAN_POINT('',(16.9,35.4,82.9));
#76 = CIRCLE('',#77,4.1);
#77 = AXIS2_PLACEMENT_3D('',#78,#79,#80);
#78 = CARTESIAN_POINT('',(21.,35.4,82.9));
#79 = DIRECTION('',(0.,1.,-0.));
#80 = DIRECTION('',(-1.,0.,0.));
#81 = PLANE('',#82);
#82 = AXIS2_PLACEMENT_3D('',#83,#84,#85);
#83 = CARTESIAN_POINT('',(21.,35.4,81.74669042726));
#84 = DIRECTION('',(0.,1.,-3.5E-16));
#85 = DIRECTION('',(0.,3.5E-16,1.));
#86 = ADVANCED_FACE('',(#87,#153),#164,.T.);
#87 = FACE_BOUND('',#88,.T.);
#88 = EDGE_LOOP('',(#89,#90,#98,#106,#114,#122,#130,#138,#147));
#89 = ORIENTED_EDGE('',*,*,#21,.T.);
#90 = ORIENTED_EDGE('',*,*,#91,.F.);
#91 = EDGE_CURVE('',#92,#24,#94,.T.);
#92 = VERTEX_POINT('',#93);
#93 = CARTESIAN_POINT('',(6.6,39.4,88.));
#94 = LINE('',#95,#96);
#95 = CARTESIAN_POINT('',(6.6,39.4,88.));
#96 = VECTOR('',#97,1.);
#97 = DIRECTION('',(0.,-1.,2.2E-16));
#98 = ORIENTED_EDGE('',*,*,#99,.F.);
#99 = EDGE_CURVE('',#100,#92,#102,.T.);
#100 = VERTEX_POINT('',#101);
#101 = CARTESIAN_POINT('',(6.6,39.4,4.));
#102 = LINE('',#103,#104);
#103 = CARTESIAN_POINT('',(6.6,39.4,71.));
#104 = VECTOR('',#105,1.);
#105 = DIRECTION('',(0.,2.2E-16,1.));
#106 = ORIENTED_EDGE('',*,*,#107,.T.);
#107 = EDGE_CURVE('',#100,#108,#110,.T.);
#108 = VERTEX_POINT('',#109);
#109 = CARTESIAN_POINT('',(6.6,12.6,4.));
#110 = LINE('',#111,#112);
#111 = CARTESIAN_POINT('',(6.6,39.4,4.));
#112 = VECTOR('',#113,1.);
#113 = DIRECTION('',(0.,-1.,0.));
#114 = ORIENTED_EDGE('',*,*,#115,.T.);
#115 = EDGE_CURVE('',#108,#116,#118,.T.);
#116 = VERTEX_POINT('',#117);
#117 = CARTESIAN_POINT('',(6.6,12.6,48.2));
#118 = LINE('',#119,#120);
#119 = CARTESIAN_POINT('',(6.6,12.6,4.));
#120 = VECTOR('',#121,1.);
#121 = DIRECTION('',(0.,0.,1.));
#122 = ORIENTED_EDGE('',*,*,#123,.F.);
#123 = EDGE_CURVE('',#124,#116,#126,.T.);
#124 = VERTEX_POINT('',#125);
#125 = CARTESIAN_POINT('',(6.6,14.6,48.2));
#126 = LINE('',#127,#128);
#127 = CARTESIAN_POINT('',(6.6,14.6,48.2));
#128 = VECTOR('',#129,1.);
#129 = DIRECTION('',(0.,-1.,0.));
#130 = ORIENTED_EDGE('',*,*,#131,.T.);
#131 = EDGE_CURVE('',#124,#132,#134,.T.);
#132 = VERTEX_POINT('',#133);
#133 = CARTESIAN_POINT('',(6.6,14.6,70.));
#134 = LINE('',#135,#136);
#135 = CARTESIAN_POINT('',(6.6,14.6,69.));
#136 = VECTOR('',#137,1.);
#137 = DIRECTION('',(0.,0.,1.));
#138 = ORIENTED_EDGE('',*,*,#139,.T.);
#139 = EDGE_CURVE('',#132,#140,#142,.T.);
#140 = VERTEX_POINT('',#141);
#141 = CARTESIAN_POINT('',(6.6,15.6,71.));
#142 = CIRCLE('',#143,1.);
#143 = AXIS2_PLACEMENT_3D('',#144,#145,#146);
#144 = CARTESIAN_POINT('',(6.6,15.6,70.));
#145 = DIRECTION('',(-1.,0.,0.));
#146 = DIRECTION('',(0.,0.,1.));
#147 = ORIENTED_EDGE('',*,*,#148,.F.);
#148 = EDGE_CURVE('',#22,#140,#149,.T.);
#149 = LINE('',#150,#151);
#150 = CARTESIAN_POINT('',(6.6,39.4,71.));
#151 = VECTOR('',#152,1.);
#152 = DIRECTION('',(0.,-1.,0.));
#153 = FACE_BOUND('',#154,.T.);
#154 = EDGE_LOOP('',(#155));
#155 = ORIENTED_EDGE('',*,*,#156,.T.);
#156 = EDGE_CURVE('',#157,#157,#159,.T.);
#157 = VERTEX_POINT('',#158);
#158 = CARTESIAN_POINT('',(6.6,27.6,59.));
#159 = CIRCLE('',#160,2.6);
#160 = AXIS2_PLACEMENT_3D('',#161,#162,#163);
#161 = CARTESIAN_POINT('',(6.6,25.,59.));
#162 = DIRECTION('',(1.,0.,0.));
#163 = DIRECTION('',(0.,1.,0.));
#164 = PLANE('',#165);
#165 = AXIS2_PLACEMENT_3D('',#166,#167,#168);
#166 = CARTESIAN_POINT('',(6.6,28.311049665002,45.666318310102));
#167 = DIRECTION('',(-1.,-0.,-0.));
#168 = DIRECTION('',(0.,0.,-1.));
#169 = ADVANCED_FACE('',(#170),#189,.T.);
#170 = FACE_BOUND('',#171,.T.);
#171 = EDGE_LOOP('',(#172,#181,#182,#183));
#172 = ORIENTED_EDGE('',*,*,#173,.T.);
#173 = EDGE_CURVE('',#174,#92,#176,.T.);
#174 = VERTEX_POINT('',#175);
#175 = CARTESIAN_POINT('',(10.6,39.4,92.));
#176 = CIRCLE('',#177,4.);
#177 = AXIS2_PLACEMENT_3D('',#178,#179,#180);
#178 = CARTESIAN_POINT('',(10.6,39.4,88.));
#179 = DIRECTION('',(0.,-1.,2.2E-16));
#180 = DIRECTION('',(0.,-2.2E-16,-1.));
#181 = ORIENTED_EDGE('',*,*,#91,.T.);
#182 = ORIENTED_EDGE('',*,*,#31,.F.);
#183 = ORIENTED_EDGE('',*,*,#184,.F.);
#184 = EDGE_CURVE('',#174,#32,#185,.T.);
#185 = LINE('',#186,#187);
#186 = CARTESIAN_POINT('',(10.6,39.4,92.));
#187 = VECTOR('',#188,1.);
#188 = DIRECTION('',(0.,-1.,2.2E-16));
#189 = CYLINDRICAL_SURFACE('',#190,4.);
#190 = AXIS2_PLACEMENT_3D('',#191,#192,#193);
#191 = CARTESIAN_POINT('',(10.6,39.4,88.));
#192 = DIRECTION('',(0.,-1.,2.2E-16));
#193 = DIRECTION('',(0.,2.2E-16,1.));
#194 = ADVANCED_FACE('',(#195),#213,.T.);
#195 = FACE_BOUND('',#196,.T.);
#196 = EDGE_LOOP('',(#197,#205,#211,#212));
#197 = ORIENTED_EDGE('',*,*,#198,.T.);
#198 = EDGE_CURVE('',#140,#199,#201,.T.);
#199 = VERTEX_POINT('',#200);
#200 = CARTESIAN_POINT('',(35.4,15.6,71.));
#201 = LINE('',#202,#203);
#202 = CARTESIAN_POINT('',(6.6,15.6,71.));
#203 = VECTOR('',#204,1.);
#204 = DIRECTION('',(1.,0.,0.));
#205 = ORIENTED_EDGE('',*,*,#206,.T.);
#206 = EDGE_CURVE('',#199,#58,#207,.T.);
#207 = LINE('',#208,#209);
#208 = CARTESIAN_POINT('',(35.4,14.6,71.));
#209 = VECTOR('',#210,1.);
#210 = DIRECTION('',(0.,1.,0.));
#211 = ORIENTED_EDGE('',*,*,#65,.T.);
#212 = ORIENTED_EDGE('',*,*,#148,.T.);
#213 = PLANE('',#214);
#214 = AXIS2_PLACEMENT_3D('',#215,#216,#217);
#215 = CARTESIAN_POINT('',(21.,27.,71.));
#216 = DIRECTION('',(0.,0.,1.));
#217 = DIRECTION('',(1.,0.,0.));
#218 = ADVANCED_FACE('',(#219),#237,.T.);
#219 = FACE_BOUND('',#220,.T.);
#220 = EDGE_LOOP('',(#221,#229,#230,#231));
#221 = ORIENTED_EDGE('',*,*,#222,.F.);
#222 = EDGE_CURVE('',#174,#223,#225,.T.);
#223 = VERTEX_POINT('',#224);
#224 = CARTESIAN_POINT('',(31.4,39.4,92.));
#225 = LINE('',#226,#227);
#226 = CARTESIAN_POINT('',(6.6,39.4,92.));
#227 = VECTOR('',#228,1.);
#228 = DIRECTION('',(1.,0.,0.));
#229 = ORIENTED_EDGE('',*,*,#184,.T.);
#230 = ORIENTED_EDGE('',*,*,#40,.T.);
#231 = ORIENTED_EDGE('',*,*,#232,.F.);
#232 = EDGE_CURVE('',#223,#41,#233,.T.);
#233 = LINE('',#234,#235);
#234 = CARTESIAN_POINT('',(31.4,39.4,92.));
#235 = VECTOR('',#236,1.);
#236 = DIRECTION('',(0.,-1.,2.2E-16));
#237 = PLANE('',#238);
#238 = AXIS2_PLACEMENT_3D('',#239,#240,#241);
#239 = CARTESIAN_POINT('',(6.6,39.4,92.));
#240 = DIRECTION('',(0.,2.2E-16,1.));
#241 = DIRECTION('',(1.,0.,0.));
#242 = ADVANCED_FACE('',(#243,#302),#313,.T.);
#243 = FACE_BOUND('',#244,.T.);
#244 = EDGE_LOOP('',(#245,#255,#261,#262,#263,#272,#280,#288,#296));
#245 = ORIENTED_EDGE('',*,*,#246,.F.);
#246 = EDGE_CURVE('',#247,#249,#251,.T.);
#247 = VERTEX_POINT('',#248);
#248 = CARTESIAN_POINT('',(35.4,39.4,88.));
#249 = VERTEX_POINT('',#250);
#250 = CARTESIAN_POINT('',(35.4,39.4,4.));
#251 = LINE('',#252,#253);
#252 = CARTESIAN_POINT('',(35.4,39.4,92.));
#253 = VECTOR('',#254,1.);
#254 = DIRECTION('',(0.,-2.2E-16,-1.));
#255 = ORIENTED_EDGE('',*,*,#256,.T.);
#256 = EDGE_CURVE('',#247,#49,#257,.T.);
#257 = LINE('',#258,#259);
#258 = CARTESIAN_POINT('',(35.4,39.4,88.));
#259 = VECTOR('',#260,1.);
#260 = DIRECTION('',(0.,-1.,2.2E-16));
#261 = ORIENTED_EDGE('',*,*,#57,.T.);
#262 = ORIENTED_EDGE('',*,*,#206,.F.);
#263 = ORIENTED_EDGE('',*,*,#264,.F.);
#264 = EDGE_CURVE('',#265,#199,#267,.T.);
#265 = VERTEX_POINT('',#266);
#266 = CARTESIAN_POINT('',(35.4,14.6,70.));
#267 = CIRCLE('',#268,1.);
#268 = AXIS2_PLACEMENT_3D('',#269,#270,#271);
#269 = CARTESIAN_POINT('',(35.4,15.6,70.));
#270 = DIRECTION('',(-1.,0.,0.));
#271 = DIRECTION('',(0.,0.,1.));
#272 = ORIENTED_EDGE('',*,*,#273,.T.);
#273 = EDGE_CURVE('',#265,#274,#276,.T.);
#274 = VERTEX_POINT('',#275);
#275 = CARTESIAN_POINT('',(35.4,14.6,48.2));
#276 = LINE('',#277,#278);
#277 = CARTESIAN_POINT('',(35.4,14.6,69.));
#278 = VECTOR('',#279,1.);
#279 = DIRECTION('',(-0.,-0.,-1.));
#280 = ORIENTED_EDGE('',*,*,#281,.F.);
#281 = EDGE_CURVE('',#282,#274,#284,.T.);
#282 = VERTEX_POINT('',#283);
#283 = CARTESIAN_POINT('',(35.4,12.6,48.2));
#284 = LINE('',#285,#286);
#285 = CARTESIAN_POINT('',(35.4,10.6,48.2));
#286 = VECTOR('',#287,1.);
#287 = DIRECTION('',(0.,1.,0.));
#288 = ORIENTED_EDGE('',*,*,#289,.F.);
#289 = EDGE_CURVE('',#290,#282,#292,.T.);
#290 = VERTEX_POINT('',#291);
#291 = CARTESIAN_POINT('',(35.4,12.6,4.));
#292 = LINE('',#293,#294);
#293 = CARTESIAN_POINT('',(35.4,12.6,4.));
#294 = VECTOR('',#295,1.);
#295 = DIRECTION('',(0.,0.,1.));
#296 = ORIENTED_EDGE('',*,*,#297,.T.);
#297 = EDGE_CURVE('',#290,#249,#298,.T.);
#298 = LINE('',#299,#300);
#299 = CARTESIAN_POINT('',(35.4,10.6,4.));
#300 = VECTOR('',#301,1.);
#301 = DIRECTION('',(0.,1.,0.));
#302 = FACE_BOUND('',#303,.T.);
#303 = EDGE_LOOP('',(#304));
#304 = ORIENTED_EDGE('',*,*,#305,.F.);
#305 = EDGE_CURVE('',#306,#306,#308,.T.);
#306 = VERTEX_POINT('',#307);
#307 = CARTESIAN_POINT('',(35.4,27.6,59.));
#308 = CIRCLE('',#309,2.6);
#309 = AXIS2_PLACEMENT_3D('',#310,#311,#312);
#310 = CARTESIAN_POINT('',(35.4,25.,59.));
#311 = DIRECTION('',(1.,0.,0.));
#312 = DIRECTION('',(0.,1.,0.));
#313 = PLANE('',#314);
#314 = AXIS2_PLACEMENT_3D('',#315,#316,#317);
#315 = CARTESIAN_POINT('',(35.4,28.311049665002,45.666318310102));
#316 = DIRECTION('',(1.,0.,0.));
#317 = DIRECTION('',(0.,0.,1.));
#318 = ADVANCED_FACE('',(#319),#331,.T.);
#319 = FACE_BOUND('',#320,.F.);
#320 = EDGE_LOOP('',(#321,#328,#329,#330));
#321 = ORIENTED_EDGE('',*,*,#322,.T.);
#322 = EDGE_CURVE('',#223,#247,#323,.T.);
#323 = CIRCLE('',#324,4.);
#324 = AXIS2_PLACEMENT_3D('',#325,#326,#327);
#325 = CARTESIAN_POINT('',(31.4,39.4,88.));
#326 = DIRECTION('',(0.,1.,-2.2E-16));
#327 = DIRECTION('',(0.,-2.2E-16,-1.));
#328 = ORIENTED_EDGE('',*,*,#256,.T.);
#329 = ORIENTED_EDGE('',*,*,#48,.F.);
#330 = ORIENTED_EDGE('',*,*,#232,.F.);
#331 = CYLINDRICAL_SURFACE('',#332,4.);
#332 = AXIS2_PLACEMENT_3D('',#333,#334,#335);
#333 = CARTESIAN_POINT('',(31.4,39.4,88.));
#334 = DIRECTION('',(0.,-1.,2.2E-16));
#335 = DIRECTION('',(0.,2.2E-16,1.));
#336 = ADVANCED_FACE('',(#337),#356,.F.);
#337 = FACE_BOUND('',#338,.F.);
#338 = EDGE_LOOP('',(#339,#347,#348,#349));
#339 = ORIENTED_EDGE('',*,*,#340,.T.);
#340 = EDGE_CURVE('',#341,#74,#343,.T.);
#341 = VERTEX_POINT('',#342);
#342 = CARTESIAN_POINT('',(16.9,39.4,82.9));
#343 = LINE('',#344,#345);
#344 = CARTESIAN_POINT('',(16.9,39.4,82.9));
#345 = VECTOR('',#346,1.);
#346 = DIRECTION('',(0.,-1.,2.2E-16));
#347 = ORIENTED_EDGE('',*,*,#73,.T.);
#348 = ORIENTED_EDGE('',*,*,#340,.F.);
#349 = ORIENTED_EDGE('',*,*,#350,.F.);
#350 = EDGE_CURVE('',#341,#341,#351,.T.);
#351 = CIRCLE('',#352,4.1);
#352 = AXIS2_PLACEMENT_3D('',#353,#354,#355);
#353 = CARTESIAN_POINT('',(21.,39.4,82.9));
#354 = DIRECTION('',(0.,1.,-0.));
#355 = DIRECTION('',(-1.,0.,0.));
#356 = CYLINDRICAL_SURFACE('',#357,4.1);
#357 = AXIS2_PLACEMENT_3D('',#358,#359,#360);
#358 = CARTESIAN_POINT('',(21.,39.4,82.9));
#359 = DIRECTION('',(0.,1.,-2.2E-16));
#360 = DIRECTION('',(-1.,0.,0.));
#361 = ADVANCED_FACE('',(#362,#375,#378),#412,.T.);
#362 = FACE_BOUND('',#363,.T.);
#363 = EDGE_LOOP('',(#364,#365,#366,#367,#368,#369));
#364 = ORIENTED_EDGE('',*,*,#99,.T.);
#365 = ORIENTED_EDGE('',*,*,#173,.F.);
#366 = ORIENTED_EDGE('',*,*,#222,.T.);
#367 = ORIENTED_EDGE('',*,*,#322,.T.);
#368 = ORIENTED_EDGE('',*,*,#246,.T.);
#369 = ORIENTED_EDGE('',*,*,#370,.T.);
#370 = EDGE_CURVE('',#249,#100,#371,.T.);
#371 = LINE('',#372,#373);
#372 = CARTESIAN_POINT('',(35.4,39.4,4.));
#373 = VECTOR('',#374,1.);
#374 = DIRECTION('',(-1.,0.,0.));
#375 = FACE_BOUND('',#376,.T.);
#376 = EDGE_LOOP('',(#377));
#377 = ORIENTED_EDGE('',*,*,#350,.F.);
#378 = FACE_BOUND('',#379,.T.);
#379 = EDGE_LOOP('',(#380,#390,#398,#406));
#380 = ORIENTED_EDGE('',*,*,#381,.F.);
#381 = EDGE_CURVE('',#382,#384,#386,.T.);
#382 = VERTEX_POINT('',#383);
#383 = CARTESIAN_POINT('',(31.4,39.4,48.2));
#384 = VERTEX_POINT('',#385);
#385 = CARTESIAN_POINT('',(10.6,39.4,48.2));
#386 = LINE('',#387,#388);
#387 = CARTESIAN_POINT('',(15.8,39.4,48.2));
#388 = VECTOR('',#389,1.);
#389 = DIRECTION('',(-1.,0.,0.));
#390 = ORIENTED_EDGE('',*,*,#391,.F.);
#391 = EDGE_CURVE('',#392,#382,#394,.T.);
#392 = VERTEX_POINT('',#393);
#393 = CARTESIAN_POINT('',(31.4,39.4,69.));
#394 = LINE('',#395,#396);
#395 = CARTESIAN_POINT('',(31.4,39.4,48.1));
#396 = VECTOR('',#397,1.);
#397 = DIRECTION('',(0.,0.,-1.));
#398 = ORIENTED_EDGE('',*,*,#399,.F.);
#399 = EDGE_CURVE('',#400,#392,#402,.T.);
#400 = VERTEX_POINT('',#401);
#401 = CARTESIAN_POINT('',(10.6,39.4,69.));
#402 = LINE('',#403,#404);
#403 = CARTESIAN_POINT('',(26.2,39.4,69.));
#404 = VECTOR('',#405,1.);
#405 = DIRECTION('',(1.,0.,0.));
#406 = ORIENTED_EDGE('',*,*,#407,.F.);
#407 = EDGE_CURVE('',#384,#400,#408,.T.);
#408 = LINE('',#409,#410);
#409 = CARTESIAN_POINT('',(10.6,39.4,58.5));
#410 = VECTOR('',#411,1.);
#411 = DIRECTION('',(0.,0.,1.));
#412 = PLANE('',#413);
#413 = AXIS2_PLACEMENT_3D('',#414,#415,#416);
#414 = CARTESIAN_POINT('',(21.,39.4,48.));
#415 = DIRECTION('',(0.,1.,0.));
#416 = DIRECTION('',(0.,0.,1.));
#417 = ADVANCED_FACE('',(#418),#429,.T.);
#418 = FACE_BOUND('',#419,.F.);
#419 = EDGE_LOOP('',(#420,#421,#422,#423));
#420 = ORIENTED_EDGE('',*,*,#139,.T.);
#421 = ORIENTED_EDGE('',*,*,#198,.T.);
#422 = ORIENTED_EDGE('',*,*,#264,.F.);
#423 = ORIENTED_EDGE('',*,*,#424,.F.);
#424 = EDGE_CURVE('',#132,#265,#425,.T.);
#425 = LINE('',#426,#427);
#426 = CARTESIAN_POINT('',(6.6,14.6,70.));
#427 = VECTOR('',#428,1.);
#428 = DIRECTION('',(1.,0.,0.));
#429 = CYLINDRICAL_SURFACE('',#430,1.);
#430 = AXIS2_PLACEMENT_3D('',#431,#432,#433);
#431 = CARTESIAN_POINT('',(6.6,15.6,70.));
#432 = DIRECTION('',(1.,0.,0.));
#433 = DIRECTION('',(0.,-1.,0.));
#434 = ADVANCED_FACE('',(#435,#464,#534,#545,#556,#567),#578,.T.);
#435 = FACE_BOUND('',#436,.T.);
#436 = EDGE_LOOP('',(#437,#438,#439,#440,#449,#457));
#437 = ORIENTED_EDGE('',*,*,#107,.F.);
#438 = ORIENTED_EDGE('',*,*,#370,.F.);
#439 = ORIENTED_EDGE('',*,*,#297,.F.);
#440 = ORIENTED_EDGE('',*,*,#441,.F.);
#441 = EDGE_CURVE('',#442,#290,#444,.T.);
#442 = VERTEX_POINT('',#443);
#443 = CARTESIAN_POINT('',(33.4,10.6,4.));
#444 = CIRCLE('',#445,2.);
#445 = AXIS2_PLACEMENT_3D('',#446,#447,#448);
#446 = CARTESIAN_POINT('',(33.4,12.6,4.));
#447 = DIRECTION('',(-0.,0.,1.));
#448 = DIRECTION('',(0.,-1.,0.));
#449 = ORIENTED_EDGE('',*,*,#450,.F.);
#450 = EDGE_CURVE('',#451,#442,#453,.T.);
#451 = VERTEX_POINT('',#452);
#452 = CARTESIAN_POINT('',(8.6,10.6,4.));
#453 = LINE('',#454,#455);
#454 = CARTESIAN_POINT('',(6.6,10.6,4.));
#455 = VECTOR('',#456,1.);
#456 = DIRECTION('',(1.,0.,0.));
#457 = ORIENTED_EDGE('',*,*,#458,.F.);
#458 = EDGE_CURVE('',#108,#451,#459,.T.);
#459 = CIRCLE('',#460,2.);
#460 = AXIS2_PLACEMENT_3D('',#461,#462,#463);
#461 = CARTESIAN_POINT('',(8.6,12.6,4.));
#462 = DIRECTION('',(-0.,0.,1.));
#463 = DIRECTION('',(0.,-1.,0.));
#464 = FACE_BOUND('',#465,.T.);
#465 = EDGE_LOOP('',(#466,#476,#485,#493,#502,#510,#519,#527));
#466 = ORIENTED_EDGE('',*,*,#467,.T.);
#467 = EDGE_CURVE('',#468,#470,#472,.T.);
#468 = VERTEX_POINT('',#469);
#469 = CARTESIAN_POINT('',(4.,-1.E-15,4.));
#470 = VERTEX_POINT('',#471);
#471 = CARTESIAN_POINT('',(38.,-1.E-15,4.));
#472 = LINE('',#473,#474);
#473 = CARTESIAN_POINT('',(0.,0.,4.));
#474 = VECTOR('',#475,1.);
#475 = DIRECTION('',(1.,0.,0.));
#476 = ORIENTED_EDGE('',*,*,#477,.T.);
#477 = EDGE_CURVE('',#470,#478,#480,.T.);
#478 = VERTEX_POINT('',#479);
#479 = CARTESIAN_POINT('',(42.,4.,4.));
#480 = CIRCLE('',#481,4.);
#481 = AXIS2_PLACEMENT_3D('',#482,#483,#484);
#482 = CARTESIAN_POINT('',(38.,4.,4.));
#483 = DIRECTION('',(-0.,0.,1.));
#484 = DIRECTION('',(0.,-1.,0.));
#485 = ORIENTED_EDGE('',*,*,#486,.T.);
#486 = EDGE_CURVE('',#478,#487,#489,.T.);
#487 = VERTEX_POINT('',#488);
#488 = CARTESIAN_POINT('',(42.,46.,4.));
#489 = LINE('',#490,#491);
#490 = CARTESIAN_POINT('',(42.,0.,4.));
#491 = VECTOR('',#492,1.);
#492 = DIRECTION('',(0.,1.,0.));
#493 = ORIENTED_EDGE('',*,*,#494,.T.);
#494 = EDGE_CURVE('',#487,#495,#497,.T.);
#495 = VERTEX_POINT('',#496);
#496 = CARTESIAN_POINT('',(38.,50.,4.));
#497 = CIRCLE('',#498,4.);
#498 = AXIS2_PLACEMENT_3D('',#499,#500,#501);
#499 = CARTESIAN_POINT('',(38.,46.,4.));
#500 = DIRECTION('',(-0.,0.,1.));
#501 = DIRECTION('',(0.,-1.,0.));
#502 = ORIENTED_EDGE('',*,*,#503,.T.);
#503 = EDGE_CURVE('',#495,#504,#506,.T.);
#504 = VERTEX_POINT('',#505);
#505 = CARTESIAN_POINT('',(4.,50.,4.));
#506 = LINE('',#507,#508);
#507 = CARTESIAN_POINT('',(42.,50.,4.));
#508 = VECTOR('',#509,1.);
#509 = DIRECTION('',(-1.,0.,0.));
#510 = ORIENTED_EDGE('',*,*,#511,.F.);
#511 = EDGE_CURVE('',#512,#504,#514,.T.);
#512 = VERTEX_POINT('',#513);
#513 = CARTESIAN_POINT('',(-1.E-15,46.,4.));
#514 = CIRCLE('',#515,4.);
#515 = AXIS2_PLACEMENT_3D('',#516,#517,#518);
#516 = CARTESIAN_POINT('',(4.,46.,4.));
#517 = DIRECTION('',(-0.,-0.,-1.));
#518 = DIRECTION('',(0.,-1.,0.));
#519 = ORIENTED_EDGE('',*,*,#520,.T.);
#520 = EDGE_CURVE('',#512,#521,#523,.T.);
#521 = VERTEX_POINT('',#522);
#522 = CARTESIAN_POINT('',(-1.E-15,4.,4.));
#523 = LINE('',#524,#525);
#524 = CARTESIAN_POINT('',(0.,50.,4.));
#525 = VECTOR('',#526,1.);
#526 = DIRECTION('',(0.,-1.,0.));
#527 = ORIENTED_EDGE('',*,*,#528,.F.);
#528 = EDGE_CURVE('',#468,#521,#529,.T.);
#529 = CIRCLE('',#530,4.);
#530 = AXIS2_PLACEMENT_3D('',#531,#532,#533);
#531 = CARTESIAN_POINT('',(4.,4.,4.));
#532 = DIRECTION('',(-0.,-0.,-1.));
#533 = DIRECTION('',(0.,-1.,0.));
#534 = FACE_BOUND('',#535,.T.);
#535 = EDGE_LOOP('',(#536));
#536 = ORIENTED_EDGE('',*,*,#537,.F.);
#537 = EDGE_CURVE('',#538,#538,#540,.T.);
#538 = VERTEX_POINT('',#539);
#539 = CARTESIAN_POINT('',(7.645,5.,4.));
#540 = CIRCLE('',#541,2.6);
#541 = AXIS2_PLACEMENT_3D('',#542,#543,#544);
#542 = CARTESIAN_POINT('',(5.045,5.,4.));
#543 = DIRECTION('',(0.,0.,1.));
#544 = DIRECTION('',(1.,0.,0.));
#545 = FACE_BOUND('',#546,.T.);
#546 = EDGE_LOOP('',(#547));
#547 = ORIENTED_EDGE('',*,*,#548,.F.);
#548 = EDGE_CURVE('',#549,#549,#551,.T.);
#549 = VERTEX_POINT('',#550);
#550 = CARTESIAN_POINT('',(39.555,5.,4.));
#551 = CIRCLE('',#552,2.6);
#552 = AXIS2_PLACEMENT_3D('',#553,#554,#555);
#553 = CARTESIAN_POINT('',(36.955,5.,4.));
#554 = DIRECTION('',(0.,0.,1.));
#555 = DIRECTION('',(1.,0.,0.));
#556 = FACE_BOUND('',#557,.T.);
#557 = EDGE_LOOP('',(#558));
#558 = ORIENTED_EDGE('',*,*,#559,.F.);
#559 = EDGE_CURVE('',#560,#560,#562,.T.);
#560 = VERTEX_POINT('',#561);
#561 = CARTESIAN_POINT('',(7.645,45.,4.));
#562 = CIRCLE('',#563,2.6);
#563 = AXIS2_PLACEMENT_3D('',#564,#565,#566);
#564 = CARTESIAN_POINT('',(5.045,45.,4.));
#565 = DIRECTION('',(0.,0.,1.));
#566 = DIRECTION('',(1.,0.,0.));
#567 = FACE_BOUND('',#568,.T.);
#568 = EDGE_LOOP('',(#569));
#569 = ORIENTED_EDGE('',*,*,#570,.F.);
#570 = EDGE_CURVE('',#571,#571,#573,.T.);
#571 = VERTEX_POINT('',#572);
#572 = CARTESIAN_POINT('',(39.555,45.,4.));
#573 = CIRCLE('',#574,2.6);
#574 = AXIS2_PLACEMENT_3D('',#575,#576,#577);
#575 = CARTESIAN_POINT('',(36.955,45.,4.));
#576 = DIRECTION('',(0.,0.,1.));
#577 = DIRECTION('',(1.,0.,0.));
#578 = PLANE('',#579);
#579 = AXIS2_PLACEMENT_3D('',#580,#581,#582);
#580 = CARTESIAN_POINT('',(21.,25.,4.));
#581 = DIRECTION('',(0.,0.,1.));
#582 = DIRECTION('',(1.,0.,0.));
#583 = ADVANCED_FACE('',(#584),#627,.T.);
#584 = FACE_BOUND('',#585,.T.);
#585 = EDGE_LOOP('',(#586,#587,#588,#589,#597,#605,#613,#621));
#586 = ORIENTED_EDGE('',*,*,#273,.F.);
#587 = ORIENTED_EDGE('',*,*,#424,.F.);
#588 = ORIENTED_EDGE('',*,*,#131,.F.);
#589 = ORIENTED_EDGE('',*,*,#590,.F.);
#590 = EDGE_CURVE('',#591,#124,#593,.T.);
#591 = VERTEX_POINT('',#592);
#592 = CARTESIAN_POINT('',(10.6,14.6,48.2));
#593 = LINE('',#594,#595);
#594 = CARTESIAN_POINT('',(35.4,14.6,48.2));
#595 = VECTOR('',#596,1.);
#596 = DIRECTION('',(-1.,0.,0.));
#597 = ORIENTED_EDGE('',*,*,#598,.T.);
#598 = EDGE_CURVE('',#591,#599,#601,.T.);
#599 = VERTEX_POINT('',#600);
#600 = CARTESIAN_POINT('',(10.6,14.6,69.));
#601 = LINE('',#602,#603);
#602 = CARTESIAN_POINT('',(10.6,14.6,0.));
#603 = VECTOR('',#604,1.);
#604 = DIRECTION('',(0.,0.,1.));
#605 = ORIENTED_EDGE('',*,*,#606,.T.);
#606 = EDGE_CURVE('',#599,#607,#609,.T.);
#607 = VERTEX_POINT('',#608);
#608 = CARTESIAN_POINT('',(31.4,14.6,69.));
#609 = LINE('',#610,#611);
#610 = CARTESIAN_POINT('',(6.6,14.6,69.));
#611 = VECTOR('',#612,1.);
#612 = DIRECTION('',(1.,0.,0.));
#613 = ORIENTED_EDGE('',*,*,#614,.F.);
#614 = EDGE_CURVE('',#615,#607,#617,.T.);
#615 = VERTEX_POINT('',#616);
#616 = CARTESIAN_POINT('',(31.4,14.6,48.2));
#617 = LINE('',#618,#619);
#618 = CARTESIAN_POINT('',(31.4,14.6,4.));
#619 = VECTOR('',#620,1.);
#620 = DIRECTION('',(0.,0.,1.));
#621 = ORIENTED_EDGE('',*,*,#622,.F.);
#622 = EDGE_CURVE('',#274,#615,#623,.T.);
#623 = LINE('',#624,#625);
#624 = CARTESIAN_POINT('',(35.4,14.6,48.2));
#625 = VECTOR('',#626,1.);
#626 = DIRECTION('',(-1.,0.,0.));
#627 = PLANE('',#628);
#628 = AXIS2_PLACEMENT_3D('',#629,#630,#631);
#629 = CARTESIAN_POINT('',(21.,14.6,62.300552486188));
#630 = DIRECTION('',(-0.,-1.,-0.));
#631 = DIRECTION('',(0.,0.,-1.));
#632 = ADVANCED_FACE('',(#633),#652,.T.);
#633 = FACE_BOUND('',#634,.T.);
#634 = EDGE_LOOP('',(#635,#636,#644,#651));
#635 = ORIENTED_EDGE('',*,*,#458,.T.);
#636 = ORIENTED_EDGE('',*,*,#637,.T.);
#637 = EDGE_CURVE('',#451,#638,#640,.T.);
#638 = VERTEX_POINT('',#639);
#639 = CARTESIAN_POINT('',(8.6,10.6,46.2));
#640 = LINE('',#641,#642);
#641 = CARTESIAN_POINT('',(8.6,10.6,4.));
#642 = VECTOR('',#643,1.);
#643 = DIRECTION('',(0.,0.,1.));
#644 = ORIENTED_EDGE('',*,*,#645,.F.);
#645 = EDGE_CURVE('',#116,#638,#646,.T.);
#646 = ELLIPSE('',#647,2.828427124746,2.);
#647 = AXIS2_PLACEMENT_3D('',#648,#649,#650);
#648 = CARTESIAN_POINT('',(8.6,12.6,46.2));
#649 = DIRECTION('',(0.707106781187,-0.,0.707106781187));
#650 = DIRECTION('',(0.707106781187,0.,-0.707106781187));
#651 = ORIENTED_EDGE('',*,*,#115,.F.);
#652 = CYLINDRICAL_SURFACE('',#653,2.);
#653 = AXIS2_PLACEMENT_3D('',#654,#655,#656);
#654 = CARTESIAN_POINT('',(8.6,12.6,4.));
#655 = DIRECTION('',(0.,0.,1.));
#656 = DIRECTION('',(-1.,0.,0.));
#657 = ADVANCED_FACE('',(#658),#676,.T.);
#658 = FACE_BOUND('',#659,.T.);
#659 = EDGE_LOOP('',(#660,#661,#662,#668,#669,#670));
#660 = ORIENTED_EDGE('',*,*,#281,.T.);
#661 = ORIENTED_EDGE('',*,*,#622,.T.);
#662 = ORIENTED_EDGE('',*,*,#663,.T.);
#663 = EDGE_CURVE('',#615,#591,#664,.T.);
#664 = LINE('',#665,#666);
#665 = CARTESIAN_POINT('',(35.4,14.6,48.2));
#666 = VECTOR('',#667,1.);
#667 = DIRECTION('',(-1.,0.,0.));
#668 = ORIENTED_EDGE('',*,*,#590,.T.);
#669 = ORIENTED_EDGE('',*,*,#123,.T.);
#670 = ORIENTED_EDGE('',*,*,#671,.T.);
#671 = EDGE_CURVE('',#116,#282,#672,.T.);
#672 = LINE('',#673,#674);
#673 = CARTESIAN_POINT('',(6.6,12.6,48.2));
#674 = VECTOR('',#675,1.);
#675 = DIRECTION('',(1.,0.,0.));
#676 = PLANE('',#677);
#677 = AXIS2_PLACEMENT_3D('',#678,#679,#680);
#678 = CARTESIAN_POINT('',(21.,12.6,48.2));
#679 = DIRECTION('',(0.,0.,1.));
#680 = DIRECTION('',(1.,0.,0.));
#681 = ADVANCED_FACE('',(#682),#701,.F.);
#682 = FACE_BOUND('',#683,.F.);
#683 = EDGE_LOOP('',(#684,#693,#699,#700));
#684 = ORIENTED_EDGE('',*,*,#685,.F.);
#685 = EDGE_CURVE('',#686,#686,#688,.T.);
#686 = VERTEX_POINT('',#687);
#687 = CARTESIAN_POINT('',(10.6,27.6,59.));
#688 = CIRCLE('',#689,2.6);
#689 = AXIS2_PLACEMENT_3D('',#690,#691,#692);
#690 = CARTESIAN_POINT('',(10.6,25.,59.));
#691 = DIRECTION('',(1.,0.,0.));
#692 = DIRECTION('',(0.,1.,0.));
#693 = ORIENTED_EDGE('',*,*,#694,.T.);
#694 = EDGE_CURVE('',#686,#157,#695,.T.);
#695 = LINE('',#696,#697);
#696 = CARTESIAN_POINT('',(35.4,27.6,59.));
#697 = VECTOR('',#698,1.);
#698 = DIRECTION('',(-1.,-0.,-0.));
#699 = ORIENTED_EDGE('',*,*,#156,.T.);
#700 = ORIENTED_EDGE('',*,*,#694,.F.);
#701 = CYLINDRICAL_SURFACE('',#702,2.6);
#702 = AXIS2_PLACEMENT_3D('',#703,#704,#705);
#703 = CARTESIAN_POINT('',(35.4,25.,59.));
#704 = DIRECTION('',(1.,0.,0.));
#705 = DIRECTION('',(0.,1.,0.));
#706 = ADVANCED_FACE('',(#707),#726,.T.);
#707 = FACE_BOUND('',#708,.T.);
#708 = EDGE_LOOP('',(#709,#710,#711,#720));
#709 = ORIENTED_EDGE('',*,*,#441,.T.);
#710 = ORIENTED_EDGE('',*,*,#289,.T.);
#711 = ORIENTED_EDGE('',*,*,#712,.T.);
#712 = EDGE_CURVE('',#282,#713,#715,.T.);
#713 = VERTEX_POINT('',#714);
#714 = CARTESIAN_POINT('',(33.4,10.6,46.2));
#715 = ELLIPSE('',#716,2.828427124746,2.);
#716 = AXIS2_PLACEMENT_3D('',#717,#718,#719);
#717 = CARTESIAN_POINT('',(33.4,12.6,46.2));
#718 = DIRECTION('',(0.707106781187,0.,-0.707106781187));
#719 = DIRECTION('',(0.707106781187,0.,0.707106781187));
#720 = ORIENTED_EDGE('',*,*,#721,.F.);
#721 = EDGE_CURVE('',#442,#713,#722,.T.);
#722 = LINE('',#723,#724);
#723 = CARTESIAN_POINT('',(33.4,10.6,4.));
#724 = VECTOR('',#725,1.);
#725 = DIRECTION('',(0.,0.,1.));
#726 = CYLINDRICAL_SURFACE('',#727,2.);
#727 = AXIS2_PLACEMENT_3D('',#728,#729,#730);
#728 = CARTESIAN_POINT('',(33.4,12.6,4.));
#729 = DIRECTION('',(0.,0.,1.));
#730 = DIRECTION('',(0.,-1.,0.));
#731 = ADVANCED_FACE('',(#732),#751,.F.);
#732 = FACE_BOUND('',#733,.F.);
#733 = EDGE_LOOP('',(#734,#735,#743,#750));
#734 = ORIENTED_EDGE('',*,*,#305,.F.);
#735 = ORIENTED_EDGE('',*,*,#736,.T.);
#736 = EDGE_CURVE('',#306,#737,#739,.T.);
#737 = VERTEX_POINT('',#738);
#738 = CARTESIAN_POINT('',(31.4,27.6,59.));
#739 = LINE('',#740,#741);
#740 = CARTESIAN_POINT('',(35.4,27.6,59.));
#741 = VECTOR('',#742,1.);
#742 = DIRECTION('',(-1.,-0.,-0.));
#743 = ORIENTED_EDGE('',*,*,#744,.T.);
#744 = EDGE_CURVE('',#737,#737,#745,.T.);
#745 = CIRCLE('',#746,2.6);
#746 = AXIS2_PLACEMENT_3D('',#747,#748,#749);
#747 = CARTESIAN_POINT('',(31.4,25.,59.));
#748 = DIRECTION('',(1.,0.,0.));
#749 = DIRECTION('',(0.,1.,0.));
#750 = ORIENTED_EDGE('',*,*,#736,.F.);
#751 = CYLINDRICAL_SURFACE('',#752,2.6);
#752 = AXIS2_PLACEMENT_3D('',#753,#754,#755);
#753 = CARTESIAN_POINT('',(35.4,25.,59.));
#754 = DIRECTION('',(1.,0.,0.));
#755 = DIRECTION('',(0.,1.,0.));
#756 = ADVANCED_FACE('',(#757),#782,.F.);
#757 = FACE_BOUND('',#758,.F.);
#758 = EDGE_LOOP('',(#759,#769,#775,#776));
#759 = ORIENTED_EDGE('',*,*,#760,.F.);
#760 = EDGE_CURVE('',#761,#763,#765,.T.);
#761 = VERTEX_POINT('',#762);
#762 = CARTESIAN_POINT('',(10.6,35.4,48.2));
#763 = VERTEX_POINT('',#764);
#764 = CARTESIAN_POINT('',(31.4,35.4,48.2));
#765 = LINE('',#766,#767);
#766 = CARTESIAN_POINT('',(10.6,35.4,48.2));
#767 = VECTOR('',#768,1.);
#768 = DIRECTION('',(1.,0.,0.));
#769 = ORIENTED_EDGE('',*,*,#770,.T.);
#770 = EDGE_CURVE('',#761,#384,#771,.T.);
#771 = LINE('',#772,#773);
#772 = CARTESIAN_POINT('',(10.6,35.4,48.2));
#773 = VECTOR('',#774,1.);
#774 = DIRECTION('',(0.,1.,-2.2E-16));
#775 = ORIENTED_EDGE('',*,*,#381,.F.);
#776 = ORIENTED_EDGE('',*,*,#777,.F.);
#777 = EDGE_CURVE('',#763,#382,#778,.T.);
#778 = LINE('',#779,#780);
#779 = CARTESIAN_POINT('',(31.4,35.4,48.2));
#780 = VECTOR('',#781,1.);
#781 = DIRECTION('',(0.,1.,-2.2E-16));
#782 = PLANE('',#783);
#783 = AXIS2_PLACEMENT_3D('',#784,#785,#786);
#784 = CARTESIAN_POINT('',(10.6,35.4,48.2));
#785 = DIRECTION('',(0.,-2.2E-16,-1.));
#786 = DIRECTION('',(1.,0.,0.));
#787 = ADVANCED_FACE('',(#788),#799,.F.);
#788 = FACE_BOUND('',#789,.F.);
#789 = EDGE_LOOP('',(#790,#791,#792,#798));
#790 = ORIENTED_EDGE('',*,*,#450,.F.);
#791 = ORIENTED_EDGE('',*,*,#637,.T.);
#792 = ORIENTED_EDGE('',*,*,#793,.T.);
#793 = EDGE_CURVE('',#638,#713,#794,.T.);
#794 = LINE('',#795,#796);
#795 = CARTESIAN_POINT('',(6.6,10.6,46.2));
#796 = VECTOR('',#797,1.);
#797 = DIRECTION('',(1.,0.,0.));
#798 = ORIENTED_EDGE('',*,*,#721,.F.);
#799 = PLANE('',#800);
#800 = AXIS2_PLACEMENT_3D('',#801,#802,#803);
#801 = CARTESIAN_POINT('',(6.6,10.6,4.));
#802 = DIRECTION('',(0.,1.,0.));
#803 = DIRECTION('',(1.,0.,0.));
#804 = ADVANCED_FACE('',(#805),#830,.F.);
#805 = FACE_BOUND('',#806,.F.);
#806 = EDGE_LOOP('',(#807,#817,#823,#824));
#807 = ORIENTED_EDGE('',*,*,#808,.F.);
#808 = EDGE_CURVE('',#809,#811,#813,.T.);
#809 = VERTEX_POINT('',#810);
#810 = CARTESIAN_POINT('',(4.,-1.E-15,0.));
#811 = VERTEX_POINT('',#812);
#812 = CARTESIAN_POINT('',(38.,-1.E-15,0.));
#813 = LINE('',#814,#815);
#814 = CARTESIAN_POINT('',(0.,0.,0.));
#815 = VECTOR('',#816,1.);
#816 = DIRECTION('',(1.,0.,0.));
#817 = ORIENTED_EDGE('',*,*,#818,.T.);
#818 = EDGE_CURVE('',#809,#468,#819,.T.);
#819 = LINE('',#820,#821);
#820 = CARTESIAN_POINT('',(4.,-8.9E-16,0.));
#821 = VECTOR('',#822,1.);
#822 = DIRECTION('',(0.,0.,1.));
#823 = ORIENTED_EDGE('',*,*,#467,.T.);
#824 = ORIENTED_EDGE('',*,*,#825,.F.);
#825 = EDGE_CURVE('',#811,#470,#826,.T.);
#826 = LINE('',#827,#828);
#827 = CARTESIAN_POINT('',(38.,-8.9E-16,0.));
#828 = VECTOR('',#829,1.);
#829 = DIRECTION('',(0.,0.,1.));
#830 = PLANE('',#831);
#831 = AXIS2_PLACEMENT_3D('',#832,#833,#834);
#832 = CARTESIAN_POINT('',(0.,0.,0.));
#833 = DIRECTION('',(0.,1.,0.));
#834 = DIRECTION('',(1.,0.,0.));
#835 = ADVANCED_FACE('',(#836),#855,.T.);
#836 = FACE_BOUND('',#837,.F.);
#837 = EDGE_LOOP('',(#838,#847,#853,#854));
#838 = ORIENTED_EDGE('',*,*,#839,.T.);
#839 = EDGE_CURVE('',#809,#840,#842,.T.);
#840 = VERTEX_POINT('',#841);
#841 = CARTESIAN_POINT('',(-1.E-15,4.,0.));
#842 = CIRCLE('',#843,4.);
#843 = AXIS2_PLACEMENT_3D('',#844,#845,#846);
#844 = CARTESIAN_POINT('',(4.,4.,0.));
#845 = DIRECTION('',(-0.,-0.,-1.));
#846 = DIRECTION('',(0.,-1.,0.));
#847 = ORIENTED_EDGE('',*,*,#848,.T.);
#848 = EDGE_CURVE('',#840,#521,#849,.T.);
#849 = LINE('',#850,#851);
#850 = CARTESIAN_POINT('',(-8.9E-16,4.,0.));
#851 = VECTOR('',#852,1.);
#852 = DIRECTION('',(0.,0.,1.));
#853 = ORIENTED_EDGE('',*,*,#528,.F.);
#854 = ORIENTED_EDGE('',*,*,#818,.F.);
#855 = CYLINDRICAL_SURFACE('',#856,4.);
#856 = AXIS2_PLACEMENT_3D('',#857,#858,#859);
#857 = CARTESIAN_POINT('',(4.,4.,0.));
#858 = DIRECTION('',(0.,0.,1.));
#859 = DIRECTION('',(0.,-1.,0.));
#860 = ADVANCED_FACE('',(#861),#880,.T.);
#861 = FACE_BOUND('',#862,.T.);
#862 = EDGE_LOOP('',(#863,#872,#878,#879));
#863 = ORIENTED_EDGE('',*,*,#864,.T.);
#864 = EDGE_CURVE('',#811,#865,#867,.T.);
#865 = VERTEX_POINT('',#866);
#866 = CARTESIAN_POINT('',(42.,4.,0.));
#867 = CIRCLE('',#868,4.);
#868 = AXIS2_PLACEMENT_3D('',#869,#870,#871);
#869 = CARTESIAN_POINT('',(38.,4.,0.));
#870 = DIRECTION('',(-0.,0.,1.));
#871 = DIRECTION('',(0.,-1.,0.));
#872 = ORIENTED_EDGE('',*,*,#873,.T.);
#873 = EDGE_CURVE('',#865,#478,#874,.T.);
#874 = LINE('',#875,#876);
#875 = CARTESIAN_POINT('',(42.,4.,0.));
#876 = VECTOR('',#877,1.);
#877 = DIRECTION('',(0.,0.,1.));
#878 = ORIENTED_EDGE('',*,*,#477,.F.);
#879 = ORIENTED_EDGE('',*,*,#825,.F.);
#880 = CYLINDRICAL_SURFACE('',#881,4.);
#881 = AXIS2_PLACEMENT_3D('',#882,#883,#884);
#882 = CARTESIAN_POINT('',(38.,4.,0.));
#883 = DIRECTION('',(0.,0.,1.));
#884 = DIRECTION('',(0.,-1.,0.));
#885 = ADVANCED_FACE('',(#886),#904,.F.);
#886 = FACE_BOUND('',#887,.F.);
#887 = EDGE_LOOP('',(#888,#896,#902,#903));
#888 = ORIENTED_EDGE('',*,*,#889,.F.);
#889 = EDGE_CURVE('',#890,#840,#892,.T.);
#890 = VERTEX_POINT('',#891);
#891 = CARTESIAN_POINT('',(-1.E-15,46.,0.));
#892 = LINE('',#893,#894);
#893 = CARTESIAN_POINT('',(0.,50.,0.));
#894 = VECTOR('',#895,1.);
#895 = DIRECTION('',(0.,-1.,0.));
#896 = ORIENTED_EDGE('',*,*,#897,.T.);
#897 = EDGE_CURVE('',#890,#512,#898,.T.);
#898 = LINE('',#899,#900);
#899 = CARTESIAN_POINT('',(-8.9E-16,46.,0.));
#900 = VECTOR('',#901,1.);
#901 = DIRECTION('',(0.,0.,1.));
#902 = ORIENTED_EDGE('',*,*,#520,.T.);
#903 = ORIENTED_EDGE('',*,*,#848,.F.);
#904 = PLANE('',#905);
#905 = AXIS2_PLACEMENT_3D('',#906,#907,#908);
#906 = CARTESIAN_POINT('',(0.,50.,0.));
#907 = DIRECTION('',(1.,0.,0.));
#908 = DIRECTION('',(0.,-1.,0.));
#909 = ADVANCED_FACE('',(#910),#928,.F.);
#910 = FACE_BOUND('',#911,.F.);
#911 = EDGE_LOOP('',(#912,#920,#921,#922));
#912 = ORIENTED_EDGE('',*,*,#913,.F.);
#913 = EDGE_CURVE('',#865,#914,#916,.T.);
#914 = VERTEX_POINT('',#915);
#915 = CARTESIAN_POINT('',(42.,46.,0.));
#916 = LINE('',#917,#918);
#917 = CARTESIAN_POINT('',(42.,0.,0.));
#918 = VECTOR('',#919,1.);
#919 = DIRECTION('',(0.,1.,0.));
#920 = ORIENTED_EDGE('',*,*,#873,.T.);
#921 = ORIENTED_EDGE('',*,*,#486,.T.);
#922 = ORIENTED_EDGE('',*,*,#923,.F.);
#923 = EDGE_CURVE('',#914,#487,#924,.T.);
#924 = LINE('',#925,#926);
#925 = CARTESIAN_POINT('',(42.,46.,0.));
#926 = VECTOR('',#927,1.);
#927 = DIRECTION('',(0.,0.,1.));
#928 = PLANE('',#929);
#929 = AXIS2_PLACEMENT_3D('',#930,#931,#932);
#930 = CARTESIAN_POINT('',(42.,0.,0.));
#931 = DIRECTION('',(-1.,0.,0.));
#932 = DIRECTION('',(0.,1.,0.));
#933 = ADVANCED_FACE('',(#934),#953,.T.);
#934 = FACE_BOUND('',#935,.F.);
#935 = EDGE_LOOP('',(#936,#945,#951,#952));
#936 = ORIENTED_EDGE('',*,*,#937,.T.);
#937 = EDGE_CURVE('',#890,#938,#940,.T.);
#938 = VERTEX_POINT('',#939);
#939 = CARTESIAN_POINT('',(4.,50.,0.));
#940 = CIRCLE('',#941,4.);
#941 = AXIS2_PLACEMENT_3D('',#942,#943,#944);
#942 = CARTESIAN_POINT('',(4.,46.,0.));
#943 = DIRECTION('',(-0.,-0.,-1.));
#944 = DIRECTION('',(0.,-1.,0.));
#945 = ORIENTED_EDGE('',*,*,#946,.T.);
#946 = EDGE_CURVE('',#938,#504,#947,.T.);
#947 = LINE('',#948,#949);
#948 = CARTESIAN_POINT('',(4.,50.,0.));
#949 = VECTOR('',#950,1.);
#950 = DIRECTION('',(0.,0.,1.));
#951 = ORIENTED_EDGE('',*,*,#511,.F.);
#952 = ORIENTED_EDGE('',*,*,#897,.F.);
#953 = CYLINDRICAL_SURFACE('',#954,4.);
#954 = AXIS2_PLACEMENT_3D('',#955,#956,#957);
#955 = CARTESIAN_POINT('',(4.,46.,0.));
#956 = DIRECTION('',(0.,0.,1.));
#957 = DIRECTION('',(-1.,0.,0.));
#958 = ADVANCED_FACE('',(#959),#978,.T.);
#959 = FACE_BOUND('',#960,.T.);
#960 = EDGE_LOOP('',(#961,#970,#976,#977));
#961 = ORIENTED_EDGE('',*,*,#962,.T.);
#962 = EDGE_CURVE('',#914,#963,#965,.T.);
#963 = VERTEX_POINT('',#964);
#964 = CARTESIAN_POINT('',(38.,50.,0.));
#965 = CIRCLE('',#966,4.);
#966 = AXIS2_PLACEMENT_3D('',#967,#968,#969);
#967 = CARTESIAN_POINT('',(38.,46.,0.));
#968 = DIRECTION('',(-0.,0.,1.));
#969 = DIRECTION('',(0.,-1.,0.));
#970 = ORIENTED_EDGE('',*,*,#971,.T.);
#971 = EDGE_CURVE('',#963,#495,#972,.T.);
#972 = LINE('',#973,#974);
#973 = CARTESIAN_POINT('',(38.,50.,0.));
#974 = VECTOR('',#975,1.);
#975 = DIRECTION('',(0.,0.,1.));
#976 = ORIENTED_EDGE('',*,*,#494,.F.);
#977 = ORIENTED_EDGE('',*,*,#923,.F.);
#978 = CYLINDRICAL_SURFACE('',#979,4.);
#979 = AXIS2_PLACEMENT_3D('',#980,#981,#982);
#980 = CARTESIAN_POINT('',(38.,46.,0.));
#981 = DIRECTION('',(0.,0.,1.));
#982 = DIRECTION('',(1.,0.,0.));
#983 = ADVANCED_FACE('',(#984),#995,.F.);
#984 = FACE_BOUND('',#985,.F.);
#985 = EDGE_LOOP('',(#986,#992,#993,#994));
#986 = ORIENTED_EDGE('',*,*,#987,.F.);
#987 = EDGE_CURVE('',#963,#938,#988,.T.);
#988 = LINE('',#989,#990);
#989 = CARTESIAN_POINT('',(42.,50.,0.));
#990 = VECTOR('',#991,1.);
#991 = DIRECTION('',(-1.,0.,0.));
#992 = ORIENTED_EDGE('',*,*,#971,.T.);
#993 = ORIENTED_EDGE('',*,*,#503,.T.);
#994 = ORIENTED_EDGE('',*,*,#946,.F.);
#995 = PLANE('',#996);
#996 = AXIS2_PLACEMENT_3D('',#997,#998,#999);
#997 = CARTESIAN_POINT('',(42.,50.,0.));
#998 = DIRECTION('',(0.,-1.,0.));
#999 = DIRECTION('',(-1.,0.,0.));
#1000 = ADVANCED_FACE('',(#1001),#1020,.F.);
#1001 = FACE_BOUND('',#1002,.T.);
#1002 = EDGE_LOOP('',(#1003,#1011,#1012,#1013));
#1003 = ORIENTED_EDGE('',*,*,#1004,.T.);
#1004 = EDGE_CURVE('',#1005,#538,#1007,.T.);
#1005 = VERTEX_POINT('',#1006);
#1006 = CARTESIAN_POINT('',(7.645,5.,0.));
#1007 = LINE('',#1008,#1009);
#1008 = CARTESIAN_POINT('',(7.645,5.,0.));
#1009 = VECTOR('',#1010,1.);
#1010 = DIRECTION('',(0.,0.,1.));
#1011 = ORIENTED_EDGE('',*,*,#537,.T.);
#1012 = ORIENTED_EDGE('',*,*,#1004,.F.);
#1013 = ORIENTED_EDGE('',*,*,#1014,.F.);
#1014 = EDGE_CURVE('',#1005,#1005,#1015,.T.);
#1015 = CIRCLE('',#1016,2.6);
#1016 = AXIS2_PLACEMENT_3D('',#1017,#1018,#1019);
#1017 = CARTESIAN_POINT('',(5.045,5.,0.));
#1018 = DIRECTION('',(0.,0.,1.));
#1019 = DIRECTION('',(1.,0.,0.));
#1020 = CYLINDRICAL_SURFACE('',#1021,2.6);
#1021 = AXIS2_PLACEMENT_3D('',#1022,#1023,#1024);
#1022 = CARTESIAN_POINT('',(5.045,5.,0.));
#1023 = DIRECTION('',(-0.,-0.,-1.));
#1024 = DIRECTION('',(1.,0.,0.));
#1025 = ADVANCED_FACE('',(#1026),#1045,.F.);
#1026 = FACE_BOUND('',#1027,.T.);
#1027 = EDGE_LOOP('',(#1028,#1036,#1037,#1038));
#1028 = ORIENTED_EDGE('',*,*,#1029,.T.);
#1029 = EDGE_CURVE('',#1030,#549,#1032,.T.);
#1030 = VERTEX_POINT('',#1031);
#1031 = CARTESIAN_POINT('',(39.555,5.,0.));
#1032 = LINE('',#1033,#1034);
#1033 = CARTESIAN_POINT('',(39.555,5.,0.));
#1034 = VECTOR('',#1035,1.);
#1035 = DIRECTION('',(0.,0.,1.));
#1036 = ORIENTED_EDGE('',*,*,#548,.T.);
#1037 = ORIENTED_EDGE('',*,*,#1029,.F.);
#1038 = ORIENTED_EDGE('',*,*,#1039,.F.);
#1039 = EDGE_CURVE('',#1030,#1030,#1040,.T.);
#1040 = CIRCLE('',#1041,2.6);
#1041 = AXIS2_PLACEMENT_3D('',#1042,#1043,#1044);
#1042 = CARTESIAN_POINT('',(36.955,5.,0.));
#1043 = DIRECTION('',(0.,0.,1.));
#1044 = DIRECTION('',(1.,0.,0.));
#1045 = CYLINDRICAL_SURFACE('',#1046,2.6);
#1046 = AXIS2_PLACEMENT_3D('',#1047,#1048,#1049);
#1047 = CARTESIAN_POINT('',(36.955,5.,0.));
#1048 = DIRECTION('',(-0.,-0.,-1.));
#1049 = DIRECTION('',(1.,0.,0.));
#1050 = ADVANCED_FACE('',(#1051),#1070,.F.);
#1051 = FACE_BOUND('',#1052,.T.);
#1052 = EDGE_LOOP('',(#1053,#1061,#1062,#1063));
#1053 = ORIENTED_EDGE('',*,*,#1054,.T.);
#1054 = EDGE_CURVE('',#1055,#560,#1057,.T.);
#1055 = VERTEX_POINT('',#1056);
#1056 = CARTESIAN_POINT('',(7.645,45.,0.));
#1057 = LINE('',#1058,#1059);
#1058 = CARTESIAN_POINT('',(7.645,45.,0.));
#1059 = VECTOR('',#1060,1.);
#1060 = DIRECTION('',(0.,0.,1.));
#1061 = ORIENTED_EDGE('',*,*,#559,.T.);
#1062 = ORIENTED_EDGE('',*,*,#1054,.F.);
#1063 = ORIENTED_EDGE('',*,*,#1064,.F.);
#1064 = EDGE_CURVE('',#1055,#1055,#1065,.T.);
#1065 = CIRCLE('',#1066,2.6);
#1066 = AXIS2_PLACEMENT_3D('',#1067,#1068,#1069);
#1067 = CARTESIAN_POINT('',(5.045,45.,0.));
#1068 = DIRECTION('',(0.,0.,1.));
#1069 = DIRECTION('',(1.,0.,0.));
#1070 = CYLINDRICAL_SURFACE('',#1071,2.6);
#1071 = AXIS2_PLACEMENT_3D('',#1072,#1073,#1074);
#1072 = CARTESIAN_POINT('',(5.045,45.,0.));
#1073 = DIRECTION('',(-0.,-0.,-1.));
#1074 = DIRECTION('',(1.,0.,0.));
#1075 = ADVANCED_FACE('',(#1076),#1095,.F.);
#1076 = FACE_BOUND('',#1077,.T.);
#1077 = EDGE_LOOP('',(#1078,#1086,#1087,#1088));
#1078 = ORIENTED_EDGE('',*,*,#1079,.T.);
#1079 = EDGE_CURVE('',#1080,#571,#1082,.T.);
#1080 = VERTEX_POINT('',#1081);
#1081 = CARTESIAN_POINT('',(39.555,45.,0.));
#1082 = LINE('',#1083,#1084);
#1083 = CARTESIAN_POINT('',(39.555,45.,0.));
#1084 = VECTOR('',#1085,1.);
#1085 = DIRECTION('',(0.,0.,1.));
#1086 = ORIENTED_EDGE('',*,*,#570,.T.);
#1087 = ORIENTED_EDGE('',*,*,#1079,.F.);
#1088 = ORIENTED_EDGE('',*,*,#1089,.F.);
#1089 = EDGE_CURVE('',#1080,#1080,#1090,.T.);
#1090 = CIRCLE('',#1091,2.6);
#1091 = AXIS2_PLACEMENT_3D('',#1092,#1093,#1094);
#1092 = CARTESIAN_POINT('',(36.955,45.,0.));
#1093 = DIRECTION('',(0.,0.,1.));
#1094 = DIRECTION('',(1.,0.,0.));
#1095 = CYLINDRICAL_SURFACE('',#1096,2.6);
#1096 = AXIS2_PLACEMENT_3D('',#1097,#1098,#1099);
#1097 = CARTESIAN_POINT('',(36.955,45.,0.));
#1098 = DIRECTION('',(-0.,-0.,-1.));
#1099 = DIRECTION('',(1.,0.,0.));
#1100 = ADVANCED_FACE('',(#1101),#1107,.T.);
#1101 = FACE_BOUND('',#1102,.T.);
#1102 = EDGE_LOOP('',(#1103,#1104,#1105,#1106));
#1103 = ORIENTED_EDGE('',*,*,#645,.T.);
#1104 = ORIENTED_EDGE('',*,*,#793,.T.);
#1105 = ORIENTED_EDGE('',*,*,#712,.F.);
#1106 = ORIENTED_EDGE('',*,*,#671,.F.);
#1107 = CYLINDRICAL_SURFACE('',#1108,2.);
#1108 = AXIS2_PLACEMENT_3D('',#1109,#1110,#1111);
#1109 = CARTESIAN_POINT('',(6.6,12.6,46.2));
#1110 = DIRECTION('',(1.,0.,0.));
#1111 = DIRECTION('',(0.,0.,1.));
#1112 = ADVANCED_FACE('',(#1113),#1138,.T.);
#1113 = FACE_BOUND('',#1114,.T.);
#1114 = EDGE_LOOP('',(#1115,#1125,#1131,#1132));
#1115 = ORIENTED_EDGE('',*,*,#1116,.F.);
#1116 = EDGE_CURVE('',#1117,#1119,#1121,.T.);
#1117 = VERTEX_POINT('',#1118);
#1118 = CARTESIAN_POINT('',(10.6,14.6,0.));
#1119 = VERTEX_POINT('',#1120);
#1120 = CARTESIAN_POINT('',(31.4,14.6,0.));
#1121 = LINE('',#1122,#1123);
#1122 = CARTESIAN_POINT('',(10.6,14.6,0.));
#1123 = VECTOR('',#1124,1.);
#1124 = DIRECTION('',(1.,0.,0.));
#1125 = ORIENTED_EDGE('',*,*,#1126,.T.);
#1126 = EDGE_CURVE('',#1117,#591,#1127,.T.);
#1127 = LINE('',#1128,#1129);
#1128 = CARTESIAN_POINT('',(10.6,14.6,0.));
#1129 = VECTOR('',#1130,1.);
#1130 = DIRECTION('',(0.,0.,1.));
#1131 = ORIENTED_EDGE('',*,*,#663,.F.);
#1132 = ORIENTED_EDGE('',*,*,#1133,.F.);
#1133 = EDGE_CURVE('',#1119,#615,#1134,.T.);
#1134 = LINE('',#1135,#1136);
#1135 = CARTESIAN_POINT('',(31.4,14.6,4.));
#1136 = VECTOR('',#1137,1.);
#1137 = DIRECTION('',(0.,0.,1.));
#1138 = PLANE('',#1139);
#1139 = AXIS2_PLACEMENT_3D('',#1140,#1141,#1142);
#1140 = CARTESIAN_POINT('',(21.,14.6,34.5));
#1141 = DIRECTION('',(0.,1.,0.));
#1142 = DIRECTION('',(0.,0.,1.));
#1143 = ADVANCED_FACE('',(#1144),#1169,.T.);
#1144 = FACE_BOUND('',#1145,.T.);
#1145 = EDGE_LOOP('',(#1146,#1156,#1162,#1163));
#1146 = ORIENTED_EDGE('',*,*,#1147,.F.);
#1147 = EDGE_CURVE('',#1148,#1150,#1152,.T.);
#1148 = VERTEX_POINT('',#1149);
#1149 = CARTESIAN_POINT('',(31.4,35.4,0.));
#1150 = VERTEX_POINT('',#1151);
#1151 = CARTESIAN_POINT('',(10.6,35.4,0.));
#1152 = LINE('',#1153,#1154);
#1153 = CARTESIAN_POINT('',(31.4,35.4,0.));
#1154 = VECTOR('',#1155,1.);
#1155 = DIRECTION('',(-1.,0.,0.));
#1156 = ORIENTED_EDGE('',*,*,#1157,.T.);
#1157 = EDGE_CURVE('',#1148,#763,#1158,.T.);
#1158 = LINE('',#1159,#1160);
#1159 = CARTESIAN_POINT('',(31.4,35.4,4.));
#1160 = VECTOR('',#1161,1.);
#1161 = DIRECTION('',(0.,0.,1.));
#1162 = ORIENTED_EDGE('',*,*,#760,.F.);
#1163 = ORIENTED_EDGE('',*,*,#1164,.F.);
#1164 = EDGE_CURVE('',#1150,#761,#1165,.T.);
#1165 = LINE('',#1166,#1167);
#1166 = CARTESIAN_POINT('',(10.6,35.4,4.));
#1167 = VECTOR('',#1168,1.);
#1168 = DIRECTION('',(0.,0.,1.));
#1169 = PLANE('',#1170);
#1170 = AXIS2_PLACEMENT_3D('',#1171,#1172,#1173);
#1171 = CARTESIAN_POINT('',(21.,35.4,34.5));
#1172 = DIRECTION('',(-0.,-1.,-0.));
#1173 = DIRECTION('',(0.,0.,-1.));
#1174 = ADVANCED_FACE('',(#1175,#1185,#1201,#1204,#1207,#1210),#1213,.F.
  );
#1175 = FACE_BOUND('',#1176,.F.);
#1176 = EDGE_LOOP('',(#1177,#1178,#1179,#1180,#1181,#1182,#1183,#1184));
#1177 = ORIENTED_EDGE('',*,*,#808,.T.);
#1178 = ORIENTED_EDGE('',*,*,#864,.T.);
#1179 = ORIENTED_EDGE('',*,*,#913,.T.);
#1180 = ORIENTED_EDGE('',*,*,#962,.T.);
#1181 = ORIENTED_EDGE('',*,*,#987,.T.);
#1182 = ORIENTED_EDGE('',*,*,#937,.F.);
#1183 = ORIENTED_EDGE('',*,*,#889,.T.);
#1184 = ORIENTED_EDGE('',*,*,#839,.F.);
#1185 = FACE_BOUND('',#1186,.T.);
#1186 = EDGE_LOOP('',(#1187,#1188,#1194,#1195));
#1187 = ORIENTED_EDGE('',*,*,#1116,.T.);
#1188 = ORIENTED_EDGE('',*,*,#1189,.T.);
#1189 = EDGE_CURVE('',#1119,#1148,#1190,.T.);
#1190 = LINE('',#1191,#1192);
#1191 = CARTESIAN_POINT('',(31.4,14.6,0.));
#1192 = VECTOR('',#1193,1.);
#1193 = DIRECTION('',(0.,1.,0.));
#1194 = ORIENTED_EDGE('',*,*,#1147,.T.);
#1195 = ORIENTED_EDGE('',*,*,#1196,.T.);
#1196 = EDGE_CURVE('',#1150,#1117,#1197,.T.);
#1197 = LINE('',#1198,#1199);
#1198 = CARTESIAN_POINT('',(10.6,35.4,0.));
#1199 = VECTOR('',#1200,1.);
#1200 = DIRECTION('',(0.,-1.,0.));
#1201 = FACE_BOUND('',#1202,.T.);
#1202 = EDGE_LOOP('',(#1203));
#1203 = ORIENTED_EDGE('',*,*,#1064,.T.);
#1204 = FACE_BOUND('',#1205,.T.);
#1205 = EDGE_LOOP('',(#1206));
#1206 = ORIENTED_EDGE('',*,*,#1089,.T.);
#1207 = FACE_BOUND('',#1208,.T.);
#1208 = EDGE_LOOP('',(#1209));
#1209 = ORIENTED_EDGE('',*,*,#1039,.T.);
#1210 = FACE_BOUND('',#1211,.T.);
#1211 = EDGE_LOOP('',(#1212));
#1212 = ORIENTED_EDGE('',*,*,#1014,.T.);
#1213 = PLANE('',#1214);
#1214 = AXIS2_PLACEMENT_3D('',#1215,#1216,#1217);
#1215 = CARTESIAN_POINT('',(21.,25.,0.));
#1216 = DIRECTION('',(0.,0.,1.));
#1217 = DIRECTION('',(1.,0.,0.));
#1218 = ADVANCED_FACE('',(#1219,#1233),#1236,.T.);
#1219 = FACE_BOUND('',#1220,.T.);
#1220 = EDGE_LOOP('',(#1221,#1222,#1223,#1229,#1230,#1231,#1232));
#1221 = ORIENTED_EDGE('',*,*,#770,.T.);
#1222 = ORIENTED_EDGE('',*,*,#407,.T.);
#1223 = ORIENTED_EDGE('',*,*,#1224,.F.);
#1224 = EDGE_CURVE('',#599,#400,#1225,.T.);
#1225 = LINE('',#1226,#1227);
#1226 = CARTESIAN_POINT('',(10.6,35.4,69.));
#1227 = VECTOR('',#1228,1.);
#1228 = DIRECTION('',(0.,1.,-2.2E-16));
#1229 = ORIENTED_EDGE('',*,*,#598,.F.);
#1230 = ORIENTED_EDGE('',*,*,#1126,.F.);
#1231 = ORIENTED_EDGE('',*,*,#1196,.F.);
#1232 = ORIENTED_EDGE('',*,*,#1164,.T.);
#1233 = FACE_BOUND('',#1234,.T.);
#1234 = EDGE_LOOP('',(#1235));
#1235 = ORIENTED_EDGE('',*,*,#685,.F.);
#1236 = PLANE('',#1237);
#1237 = AXIS2_PLACEMENT_3D('',#1238,#1239,#1240);
#1238 = CARTESIAN_POINT('',(10.6,25.972281449893,35.527718550107));
#1239 = DIRECTION('',(1.,0.,0.));
#1240 = DIRECTION('',(0.,0.,1.));
#1241 = ADVANCED_FACE('',(#1242),#1253,.T.);
#1242 = FACE_BOUND('',#1243,.T.);
#1243 = EDGE_LOOP('',(#1244,#1245,#1246,#1252));
#1244 = ORIENTED_EDGE('',*,*,#1224,.T.);
#1245 = ORIENTED_EDGE('',*,*,#399,.T.);
#1246 = ORIENTED_EDGE('',*,*,#1247,.F.);
#1247 = EDGE_CURVE('',#607,#392,#1248,.T.);
#1248 = LINE('',#1249,#1250);
#1249 = CARTESIAN_POINT('',(31.4,35.4,69.));
#1250 = VECTOR('',#1251,1.);
#1251 = DIRECTION('',(0.,1.,-2.2E-16));
#1252 = ORIENTED_EDGE('',*,*,#606,.F.);
#1253 = PLANE('',#1254);
#1254 = AXIS2_PLACEMENT_3D('',#1255,#1256,#1257);
#1255 = CARTESIAN_POINT('',(21.,27.,69.));
#1256 = DIRECTION('',(-0.,-0.,-1.));
#1257 = DIRECTION('',(-1.,0.,0.));
#1258 = ADVANCED_FACE('',(#1259,#1268),#1271,.T.);
#1259 = FACE_BOUND('',#1260,.T.);
#1260 = EDGE_LOOP('',(#1261,#1262,#1263,#1264,#1265,#1266,#1267));
#1261 = ORIENTED_EDGE('',*,*,#1247,.T.);
#1262 = ORIENTED_EDGE('',*,*,#391,.T.);
#1263 = ORIENTED_EDGE('',*,*,#777,.F.);
#1264 = ORIENTED_EDGE('',*,*,#1157,.F.);
#1265 = ORIENTED_EDGE('',*,*,#1189,.F.);
#1266 = ORIENTED_EDGE('',*,*,#1133,.T.);
#1267 = ORIENTED_EDGE('',*,*,#614,.T.);
#1268 = FACE_BOUND('',#1269,.T.);
#1269 = EDGE_LOOP('',(#1270));
#1270 = ORIENTED_EDGE('',*,*,#744,.T.);
#1271 = PLANE('',#1272);
#1272 = AXIS2_PLACEMENT_3D('',#1273,#1274,#1275);
#1273 = CARTESIAN_POINT('',(31.4,25.972281449893,35.527718550107));
#1274 = DIRECTION('',(-1.,-0.,-0.));
#1275 = DIRECTION('',(0.,0.,-1.));
#1276 = ( GEOMETRIC_REPRESENTATION_CONTEXT(3) 
GLOBAL_UNCERTAINTY_ASSIGNED_CONTEXT((#1280)) 
GLOBAL_UNIT_ASSIGNED_CONTEXT((#1277,#1278,#1279)) REPRESENTATION_CONTEXT
('Context #1','3D Context with UNIT and UNCERTAINTY') );
#1277 = ( LENGTH_UNIT() NAMED_UNIT(*) SI_UNIT(.MILLI.,.METRE.) );
#1278 = ( NAMED_UNIT(*) PLANE_ANGLE_UNIT() SI_UNIT($,.RADIAN.) );
#1279 = ( NAMED_UNIT(*) SI_UNIT($,.STERADIAN.) SOLID_ANGLE_UNIT() );
#1280 = UNCERTAINTY_MEASURE_WITH_UNIT(LENGTH_MEASURE(2.E-05),#1277,
  'distance_accuracy_value','confusion accuracy');
#1281 = PRODUCT_RELATED_PRODUCT_CATEGORY('part',$,(#7));
#1282 = MECHANICAL_DESIGN_GEOMETRIC_PRESENTATION_REPRESENTATION('',(
    #1283),#1276);
#1283 = STYLED_ITEM('color',(#1284),#15);
#1284 = PRESENTATION_STYLE_ASSIGNMENT((#1285,#1291));
#1285 = SURFACE_STYLE_USAGE(.BOTH.,#1286);
#1286 = SURFACE_SIDE_STYLE('',(#1287));
#1287 = SURFACE_STYLE_FILL_AREA(#1288);
#1288 = FILL_AREA_STYLE('',(#1289));
#1289 = FILL_AREA_STYLE_COLOUR('',#1290);
#1290 = COLOUR_RGB('',0.447058818107,0.474509808674,0.501960817233);
#1291 = CURVE_STYLE('',#1292,POSITIVE_LENGTH_MEASURE(0.1),#1293);
#1292 = DRAUGHTING_PRE_DEFINED_CURVE_FONT('continuous');
#1293 = COLOUR_RGB('',9.803921802644E-02,9.803921802644E-02,
  9.803921802644E-02);
ENDSEC;
END-ISO-10303-21;
