ISO-10303-21;
HEADER;
FILE_DESCRIPTION(('FreeCAD Model'),'2;1');
FILE_NAME('Open CASCADE Shape Model','2026-08-04T09:32:32',('Author'),(
    ''),'Open CASCADE STEP processor 7.8','FreeCAD','Unknown');
FILE_SCHEMA(('AUTOMOTIVE_DESIGN { 1 0 10303 214 1 1 1 1 }'));
ENDSEC;
DATA;
#1 = APPLICATION_PROTOCOL_DEFINITION('international standard',
  'automotive_design',2000,#2);
#2 = APPLICATION_CONTEXT(
  'core data for automotive mechanical design processes');
#3 = SHAPE_DEFINITION_REPRESENTATION(#4,#10);
#4 = PRODUCT_DEFINITION_SHAPE('','',#5);
#5 = PRODUCT_DEFINITION('design','',#6,#9);
#6 = PRODUCT_DEFINITION_FORMATION('','',#7);
#7 = PRODUCT('ToolMount','ToolMount','',(#8));
#8 = PRODUCT_CONTEXT('',#2,'mechanical');
#9 = PRODUCT_DEFINITION_CONTEXT('part definition',#2,'design');
#10 = ADVANCED_BREP_SHAPE_REPRESENTATION('',(#11,#15),#1850);
#11 = AXIS2_PLACEMENT_3D('',#12,#13,#14);
#12 = CARTESIAN_POINT('',(0.,0.,0.));
#13 = DIRECTION('',(0.,0.,1.));
#14 = DIRECTION('',(1.,0.,-0.));
#15 = MANIFOLD_SOLID_BREP('',#16);
#16 = CLOSED_SHELL('',(#17,#50,#296,#316,#363,#387,#411,#435,#459,#483,
    #508,#533,#558,#583,#608,#633,#658,#683,#708,#733,#758,#783,#808,
    #833,#858,#883,#908,#933,#1159,#1177,#1197,#1217,#1237,#1257,#1277,
    #1320,#1435,#1452,#1469,#1481,#1491,#1515,#1539,#1556,#1580,#1604,
    #1621,#1631,#1655,#1679,#1696,#1713,#1730,#1755,#1780,#1805,#1820,
    #1835));
#17 = ADVANCED_FACE('',(#18),#45,.F.);
#18 = FACE_BOUND('',#19,.T.);
#19 = EDGE_LOOP('',(#20,#30,#37,#38));
#20 = ORIENTED_EDGE('',*,*,#21,.T.);
#21 = EDGE_CURVE('',#22,#24,#26,.T.);
#22 = VERTEX_POINT('',#23);
#23 = CARTESIAN_POINT('',(63.15,-8.,-9.75));
#24 = VERTEX_POINT('',#25);
#25 = CARTESIAN_POINT('',(63.15,-4.5,-9.75));
#26 = LINE('',#27,#28);
#27 = CARTESIAN_POINT('',(63.15,-8.,-9.75));
#28 = VECTOR('',#29,1.);
#29 = DIRECTION('',(0.,1.,2.2E-16));
#30 = ORIENTED_EDGE('',*,*,#31,.T.);
#31 = EDGE_CURVE('',#24,#24,#32,.T.);
#32 = CIRCLE('',#33,2.8);
#33 = AXIS2_PLACEMENT_3D('',#34,#35,#36);
#34 = CARTESIAN_POINT('',(60.35,-4.5,-9.75));
#35 = DIRECTION('',(-0.,1.,4.4E-16));
#36 = DIRECTION('',(1.,0.,0.));
#37 = ORIENTED_EDGE('',*,*,#21,.F.);
#38 = ORIENTED_EDGE('',*,*,#39,.F.);
#39 = EDGE_CURVE('',#22,#22,#40,.T.);
#40 = CIRCLE('',#41,2.8);
#41 = AXIS2_PLACEMENT_3D('',#42,#43,#44);
#42 = CARTESIAN_POINT('',(60.35,-8.,-9.75));
#43 = DIRECTION('',(-0.,1.,4.4E-16));
#44 = DIRECTION('',(1.,0.,0.));
#45 = CYLINDRICAL_SURFACE('',#46,2.8);
#46 = AXIS2_PLACEMENT_3D('',#47,#48,#49);
#47 = CARTESIAN_POINT('',(60.35,-8.,-9.75));
#48 = DIRECTION('',(-0.,-1.,-2.2E-16));
#49 = DIRECTION('',(1.,0.,0.));
#50 = ADVANCED_FACE('',(#51,#101,#112,#123,#134,#145,#156,#167,#178,#189
    ,#200,#211,#222,#233,#244,#255,#266,#269,#280),#291,.T.);
#51 = FACE_BOUND('',#52,.T.);
#52 = EDGE_LOOP('',(#53,#63,#71,#79,#87,#95));
#53 = ORIENTED_EDGE('',*,*,#54,.F.);
#54 = EDGE_CURVE('',#55,#57,#59,.T.);
#55 = VERTEX_POINT('',#56);
#56 = CARTESIAN_POINT('',(0.,-8.,22.75));
#57 = VERTEX_POINT('',#58);
#58 = CARTESIAN_POINT('',(56.,-8.,22.75));
#59 = LINE('',#60,#61);
#60 = CARTESIAN_POINT('',(0.,-8.,22.75));
#61 = VECTOR('',#62,1.);
#62 = DIRECTION('',(1.,0.,0.));
#63 = ORIENTED_EDGE('',*,*,#64,.T.);
#64 = EDGE_CURVE('',#55,#65,#67,.T.);
#65 = VERTEX_POINT('',#66);
#66 = CARTESIAN_POINT('',(0.,-8.,-27.75));
#67 = LINE('',#68,#69);
#68 = CARTESIAN_POINT('',(0.,-8.,-22.75));
#69 = VECTOR('',#70,1.);
#70 = DIRECTION('',(-0.,-0.,-1.));
#71 = ORIENTED_EDGE('',*,*,#72,.T.);
#72 = EDGE_CURVE('',#65,#73,#75,.T.);
#73 = VERTEX_POINT('',#74);
#74 = CARTESIAN_POINT('',(95.,-8.,-27.75));
#75 = LINE('',#76,#77);
#76 = CARTESIAN_POINT('',(0.,-8.,-27.75));
#77 = VECTOR('',#78,1.);
#78 = DIRECTION('',(1.,0.,0.));
#79 = ORIENTED_EDGE('',*,*,#80,.T.);
#80 = EDGE_CURVE('',#73,#81,#83,.T.);
#81 = VERTEX_POINT('',#82);
#82 = CARTESIAN_POINT('',(95.,-8.,47.25));
#83 = LINE('',#84,#85);
#84 = CARTESIAN_POINT('',(95.,-8.,22.75));
#85 = VECTOR('',#86,1.);
#86 = DIRECTION('',(0.,0.,1.));
#87 = ORIENTED_EDGE('',*,*,#88,.F.);
#88 = EDGE_CURVE('',#89,#81,#91,.T.);
#89 = VERTEX_POINT('',#90);
#90 = CARTESIAN_POINT('',(56.,-8.,47.25));
#91 = LINE('',#92,#93);
#92 = CARTESIAN_POINT('',(56.,-8.,47.25));
#93 = VECTOR('',#94,1.);
#94 = DIRECTION('',(1.,0.,0.));
#95 = ORIENTED_EDGE('',*,*,#96,.F.);
#96 = EDGE_CURVE('',#57,#89,#97,.T.);
#97 = LINE('',#98,#99);
#98 = CARTESIAN_POINT('',(56.,-8.,22.75));
#99 = VECTOR('',#100,1.);
#100 = DIRECTION('',(0.,0.,1.));
#101 = FACE_BOUND('',#102,.T.);
#102 = EDGE_LOOP('',(#103));
#103 = ORIENTED_EDGE('',*,*,#104,.F.);
#104 = EDGE_CURVE('',#105,#105,#107,.T.);
#105 = VERTEX_POINT('',#106);
#106 = CARTESIAN_POINT('',(8.78,-8.,9.75));
#107 = CIRCLE('',#108,2.6);
#108 = AXIS2_PLACEMENT_3D('',#109,#110,#111);
#109 = CARTESIAN_POINT('',(6.18,-8.,9.75));
#110 = DIRECTION('',(0.,-1.,0.));
#111 = DIRECTION('',(1.,0.,0.));
#112 = FACE_BOUND('',#113,.T.);
#113 = EDGE_LOOP('',(#114));
#114 = ORIENTED_EDGE('',*,*,#115,.F.);
#115 = EDGE_CURVE('',#116,#116,#118,.T.);
#116 = VERTEX_POINT('',#117);
#117 = CARTESIAN_POINT('',(7.78,-8.,0.));
#118 = CIRCLE('',#119,1.6);
#119 = AXIS2_PLACEMENT_3D('',#120,#121,#122);
#120 = CARTESIAN_POINT('',(6.18,-8.,0.));
#121 = DIRECTION('',(0.,-1.,0.));
#122 = DIRECTION('',(1.,0.,0.));
#123 = FACE_BOUND('',#124,.T.);
#124 = EDGE_LOOP('',(#125));
#125 = ORIENTED_EDGE('',*,*,#126,.F.);
#126 = EDGE_CURVE('',#127,#127,#129,.T.);
#127 = VERTEX_POINT('',#128);
#128 = CARTESIAN_POINT('',(24.005,-8.,11.9));
#129 = CIRCLE('',#130,4.375);
#130 = AXIS2_PLACEMENT_3D('',#131,#132,#133);
#131 = CARTESIAN_POINT('',(19.63,-8.,11.9));
#132 = DIRECTION('',(0.,-1.,0.));
#133 = DIRECTION('',(1.,0.,0.));
#134 = FACE_BOUND('',#135,.T.);
#135 = EDGE_LOOP('',(#136));
#136 = ORIENTED_EDGE('',*,*,#137,.F.);
#137 = EDGE_CURVE('',#138,#138,#140,.T.);
#138 = VERTEX_POINT('',#139);
#139 = CARTESIAN_POINT('',(7.78,-8.,-9.75));
#140 = CIRCLE('',#141,1.6);
#141 = AXIS2_PLACEMENT_3D('',#142,#143,#144);
#142 = CARTESIAN_POINT('',(6.18,-8.,-9.75));
#143 = DIRECTION('',(0.,-1.,0.));
#144 = DIRECTION('',(1.,0.,0.));
#145 = FACE_BOUND('',#146,.T.);
#146 = EDGE_LOOP('',(#147));
#147 = ORIENTED_EDGE('',*,*,#148,.F.);
#148 = EDGE_CURVE('',#149,#149,#151,.T.);
#149 = VERTEX_POINT('',#150);
#150 = CARTESIAN_POINT('',(8.78,-8.,-18.15));
#151 = CIRCLE('',#152,2.6);
#152 = AXIS2_PLACEMENT_3D('',#153,#154,#155);
#153 = CARTESIAN_POINT('',(6.18,-8.,-18.15));
#154 = DIRECTION('',(0.,-1.,0.));
#155 = DIRECTION('',(1.,0.,0.));
#156 = FACE_BOUND('',#157,.T.);
#157 = EDGE_LOOP('',(#158));
#158 = ORIENTED_EDGE('',*,*,#159,.F.);
#159 = EDGE_CURVE('',#160,#160,#162,.T.);
#160 = VERTEX_POINT('',#161);
#161 = CARTESIAN_POINT('',(19.78,-8.,-9.75));
#162 = CIRCLE('',#163,1.6);
#163 = AXIS2_PLACEMENT_3D('',#164,#165,#166);
#164 = CARTESIAN_POINT('',(18.18,-8.,-9.75));
#165 = DIRECTION('',(0.,-1.,0.));
#166 = DIRECTION('',(1.,0.,0.));
#167 = FACE_BOUND('',#168,.T.);
#168 = EDGE_LOOP('',(#169));
#169 = ORIENTED_EDGE('',*,*,#170,.F.);
#170 = EDGE_CURVE('',#171,#171,#173,.T.);
#171 = VERTEX_POINT('',#172);
#172 = CARTESIAN_POINT('',(44.005,-8.,11.9));
#173 = CIRCLE('',#174,4.375);
#174 = AXIS2_PLACEMENT_3D('',#175,#176,#177);
#175 = CARTESIAN_POINT('',(39.63,-8.,11.9));
#176 = DIRECTION('',(0.,-1.,0.));
#177 = DIRECTION('',(1.,0.,0.));
#178 = FACE_BOUND('',#179,.T.);
#179 = EDGE_LOOP('',(#180));
#180 = ORIENTED_EDGE('',*,*,#181,.F.);
#181 = EDGE_CURVE('',#182,#182,#184,.T.);
#182 = VERTEX_POINT('',#183);
#183 = CARTESIAN_POINT('',(42.68,-8.,-9.75));
#184 = CIRCLE('',#185,1.6);
#185 = AXIS2_PLACEMENT_3D('',#186,#187,#188);
#186 = CARTESIAN_POINT('',(41.08,-8.,-9.75));
#187 = DIRECTION('',(0.,-1.,0.));
#188 = DIRECTION('',(1.,0.,0.));
#189 = FACE_BOUND('',#190,.T.);
#190 = EDGE_LOOP('',(#191));
#191 = ORIENTED_EDGE('',*,*,#192,.F.);
#192 = EDGE_CURVE('',#193,#193,#195,.T.);
#193 = VERTEX_POINT('',#194);
#194 = CARTESIAN_POINT('',(74.5,-8.,44.1));
#195 = CIRCLE('',#196,2.);
#196 = AXIS2_PLACEMENT_3D('',#197,#198,#199);
#197 = CARTESIAN_POINT('',(72.5,-8.,44.1));
#198 = DIRECTION('',(0.,-1.,0.));
#199 = DIRECTION('',(1.,0.,0.));
#200 = FACE_BOUND('',#201,.T.);
#201 = EDGE_LOOP('',(#202));
#202 = ORIENTED_EDGE('',*,*,#203,.F.);
#203 = EDGE_CURVE('',#204,#204,#206,.T.);
#204 = VERTEX_POINT('',#205);
#205 = CARTESIAN_POINT('',(93.5,-8.,44.1));
#206 = CIRCLE('',#207,2.);
#207 = AXIS2_PLACEMENT_3D('',#208,#209,#210);
#208 = CARTESIAN_POINT('',(91.5,-8.,44.1));
#209 = DIRECTION('',(0.,-1.,0.));
#210 = DIRECTION('',(1.,0.,0.));
#211 = FACE_BOUND('',#212,.T.);
#212 = EDGE_LOOP('',(#213));
#213 = ORIENTED_EDGE('',*,*,#214,.F.);
#214 = EDGE_CURVE('',#215,#215,#217,.T.);
#215 = VERTEX_POINT('',#216);
#216 = CARTESIAN_POINT('',(55.68,-8.,9.75));
#217 = CIRCLE('',#218,2.6);
#218 = AXIS2_PLACEMENT_3D('',#219,#220,#221);
#219 = CARTESIAN_POINT('',(53.08,-8.,9.75));
#220 = DIRECTION('',(0.,-1.,0.));
#221 = DIRECTION('',(1.,0.,0.));
#222 = FACE_BOUND('',#223,.T.);
#223 = EDGE_LOOP('',(#224));
#224 = ORIENTED_EDGE('',*,*,#225,.F.);
#225 = EDGE_CURVE('',#226,#226,#228,.T.);
#226 = VERTEX_POINT('',#227);
#227 = CARTESIAN_POINT('',(54.68,-8.,0.));
#228 = CIRCLE('',#229,1.6);
#229 = AXIS2_PLACEMENT_3D('',#230,#231,#232);
#230 = CARTESIAN_POINT('',(53.08,-8.,0.));
#231 = DIRECTION('',(0.,-1.,0.));
#232 = DIRECTION('',(1.,0.,0.));
#233 = FACE_BOUND('',#234,.T.);
#234 = EDGE_LOOP('',(#235));
#235 = ORIENTED_EDGE('',*,*,#236,.F.);
#236 = EDGE_CURVE('',#237,#237,#239,.T.);
#237 = VERTEX_POINT('',#238);
#238 = CARTESIAN_POINT('',(63.15,-8.,9.75));
#239 = CIRCLE('',#240,2.8);
#240 = AXIS2_PLACEMENT_3D('',#241,#242,#243);
#241 = CARTESIAN_POINT('',(60.35,-8.,9.75));
#242 = DIRECTION('',(0.,-1.,0.));
#243 = DIRECTION('',(1.,0.,0.));
#244 = FACE_BOUND('',#245,.T.);
#245 = EDGE_LOOP('',(#246));
#246 = ORIENTED_EDGE('',*,*,#247,.F.);
#247 = EDGE_CURVE('',#248,#248,#250,.T.);
#248 = VERTEX_POINT('',#249);
#249 = CARTESIAN_POINT('',(54.68,-8.,-9.75));
#250 = CIRCLE('',#251,1.6);
#251 = AXIS2_PLACEMENT_3D('',#252,#253,#254);
#252 = CARTESIAN_POINT('',(53.08,-8.,-9.75));
#253 = DIRECTION('',(0.,-1.,0.));
#254 = DIRECTION('',(1.,0.,0.));
#255 = FACE_BOUND('',#256,.T.);
#256 = EDGE_LOOP('',(#257));
#257 = ORIENTED_EDGE('',*,*,#258,.F.);
#258 = EDGE_CURVE('',#259,#259,#261,.T.);
#259 = VERTEX_POINT('',#260);
#260 = CARTESIAN_POINT('',(55.68,-8.,-18.15));
#261 = CIRCLE('',#262,2.6);
#262 = AXIS2_PLACEMENT_3D('',#263,#264,#265);
#263 = CARTESIAN_POINT('',(53.08,-8.,-18.15));
#264 = DIRECTION('',(0.,-1.,0.));
#265 = DIRECTION('',(1.,0.,0.));
#266 = FACE_BOUND('',#267,.T.);
#267 = EDGE_LOOP('',(#268));
#268 = ORIENTED_EDGE('',*,*,#39,.T.);
#269 = FACE_BOUND('',#270,.T.);
#270 = EDGE_LOOP('',(#271));
#271 = ORIENTED_EDGE('',*,*,#272,.F.);
#272 = EDGE_CURVE('',#273,#273,#275,.T.);
#273 = VERTEX_POINT('',#274);
#274 = CARTESIAN_POINT('',(93.45,-8.,9.75));
#275 = CIRCLE('',#276,2.8);
#276 = AXIS2_PLACEMENT_3D('',#277,#278,#279);
#277 = CARTESIAN_POINT('',(90.65,-8.,9.75));
#278 = DIRECTION('',(0.,-1.,0.));
#279 = DIRECTION('',(1.,0.,0.));
#280 = FACE_BOUND('',#281,.T.);
#281 = EDGE_LOOP('',(#282));
#282 = ORIENTED_EDGE('',*,*,#283,.T.);
#283 = EDGE_CURVE('',#284,#284,#286,.T.);
#284 = VERTEX_POINT('',#285);
#285 = CARTESIAN_POINT('',(93.45,-8.,-9.75));
#286 = CIRCLE('',#287,2.8);
#287 = AXIS2_PLACEMENT_3D('',#288,#289,#290);
#288 = CARTESIAN_POINT('',(90.65,-8.,-9.75));
#289 = DIRECTION('',(-0.,1.,4.4E-16));
#290 = DIRECTION('',(1.,0.,0.));
#291 = PLANE('',#292);
#292 = AXIS2_PLACEMENT_3D('',#293,#294,#295);
#293 = CARTESIAN_POINT('',(51.535294117647,-8.,5.714705882353));
#294 = DIRECTION('',(-0.,-1.,-0.));
#295 = DIRECTION('',(0.,0.,-1.));
#296 = ADVANCED_FACE('',(#297,#300),#311,.F.);
#297 = FACE_BOUND('',#298,.T.);
#298 = EDGE_LOOP('',(#299));
#299 = ORIENTED_EDGE('',*,*,#31,.F.);
#300 = FACE_BOUND('',#301,.T.);
#301 = EDGE_LOOP('',(#302));
#302 = ORIENTED_EDGE('',*,*,#303,.F.);
#303 = EDGE_CURVE('',#304,#304,#306,.T.);
#304 = VERTEX_POINT('',#305);
#305 = CARTESIAN_POINT('',(58.75,-4.5,-9.75));
#306 = CIRCLE('',#307,1.6);
#307 = AXIS2_PLACEMENT_3D('',#308,#309,#310);
#308 = CARTESIAN_POINT('',(60.35,-4.5,-9.75));
#309 = DIRECTION('',(-0.,-1.,-2.2E-16));
#310 = DIRECTION('',(-1.,0.,0.));
#311 = PLANE('',#312);
#312 = AXIS2_PLACEMENT_3D('',#313,#314,#315);
#313 = CARTESIAN_POINT('',(75.5,-4.5,-9.75));
#314 = DIRECTION('',(0.,1.,0.));
#315 = DIRECTION('',(0.,0.,1.));
#316 = ADVANCED_FACE('',(#317),#358,.T.);
#317 = FACE_BOUND('',#318,.T.);
#318 = EDGE_LOOP('',(#319,#329,#335,#336,#344,#352));
#319 = ORIENTED_EDGE('',*,*,#320,.T.);
#320 = EDGE_CURVE('',#321,#323,#325,.T.);
#321 = VERTEX_POINT('',#322);
#322 = CARTESIAN_POINT('',(95.,0.,22.75));
#323 = VERTEX_POINT('',#324);
#324 = CARTESIAN_POINT('',(0.,0.,22.75));
#325 = LINE('',#326,#327);
#326 = CARTESIAN_POINT('',(95.,0.,22.75));
#327 = VECTOR('',#328,1.);
#328 = DIRECTION('',(-1.,0.,0.));
#329 = ORIENTED_EDGE('',*,*,#330,.T.);
#330 = EDGE_CURVE('',#323,#55,#331,.T.);
#331 = LINE('',#332,#333);
#332 = CARTESIAN_POINT('',(0.,0.,22.75));
#333 = VECTOR('',#334,1.);
#334 = DIRECTION('',(0.,-1.,0.));
#335 = ORIENTED_EDGE('',*,*,#54,.T.);
#336 = ORIENTED_EDGE('',*,*,#337,.F.);
#337 = EDGE_CURVE('',#338,#57,#340,.T.);
#338 = VERTEX_POINT('',#339);
#339 = CARTESIAN_POINT('',(56.,-2.,22.75));
#340 = LINE('',#341,#342);
#341 = CARTESIAN_POINT('',(56.,-2.,22.75));
#342 = VECTOR('',#343,1.);
#343 = DIRECTION('',(0.,-1.,0.));
#344 = ORIENTED_EDGE('',*,*,#345,.F.);
#345 = EDGE_CURVE('',#346,#338,#348,.T.);
#346 = VERTEX_POINT('',#347);
#347 = CARTESIAN_POINT('',(95.,-2.,22.75));
#348 = LINE('',#349,#350);
#349 = CARTESIAN_POINT('',(95.,-2.,22.75));
#350 = VECTOR('',#351,1.);
#351 = DIRECTION('',(-1.,0.,0.));
#352 = ORIENTED_EDGE('',*,*,#353,.T.);
#353 = EDGE_CURVE('',#346,#321,#354,.T.);
#354 = LINE('',#355,#356);
#355 = CARTESIAN_POINT('',(95.,-8.,22.75));
#356 = VECTOR('',#357,1.);
#357 = DIRECTION('',(0.,1.,0.));
#358 = PLANE('',#359);
#359 = AXIS2_PLACEMENT_3D('',#360,#361,#362);
#360 = CARTESIAN_POINT('',(47.5,-4.,22.75));
#361 = DIRECTION('',(0.,0.,1.));
#362 = DIRECTION('',(1.,0.,0.));
#363 = ADVANCED_FACE('',(#364),#382,.T.);
#364 = FACE_BOUND('',#365,.T.);
#365 = EDGE_LOOP('',(#366,#367,#375,#381));
#366 = ORIENTED_EDGE('',*,*,#330,.F.);
#367 = ORIENTED_EDGE('',*,*,#368,.T.);
#368 = EDGE_CURVE('',#323,#369,#371,.T.);
#369 = VERTEX_POINT('',#370);
#370 = CARTESIAN_POINT('',(0.,0.,-27.75));
#371 = LINE('',#372,#373);
#372 = CARTESIAN_POINT('',(0.,2.83E-15,12.75));
#373 = VECTOR('',#374,1.);
#374 = DIRECTION('',(0.,-2.2E-16,-1.));
#375 = ORIENTED_EDGE('',*,*,#376,.T.);
#376 = EDGE_CURVE('',#369,#65,#377,.T.);
#377 = LINE('',#378,#379);
#378 = CARTESIAN_POINT('',(0.,0.,-27.75));
#379 = VECTOR('',#380,1.);
#380 = DIRECTION('',(-0.,-1.,-0.));
#381 = ORIENTED_EDGE('',*,*,#64,.F.);
#382 = PLANE('',#383);
#383 = AXIS2_PLACEMENT_3D('',#384,#385,#386);
#384 = CARTESIAN_POINT('',(0.,-4.,-2.5));
#385 = DIRECTION('',(-1.,-0.,-0.));
#386 = DIRECTION('',(0.,0.,-1.));
#387 = ADVANCED_FACE('',(#388),#406,.F.);
#388 = FACE_BOUND('',#389,.F.);
#389 = EDGE_LOOP('',(#390,#398,#404,#405));
#390 = ORIENTED_EDGE('',*,*,#391,.T.);
#391 = EDGE_CURVE('',#338,#392,#394,.T.);
#392 = VERTEX_POINT('',#393);
#393 = CARTESIAN_POINT('',(56.,-2.,47.25));
#394 = LINE('',#395,#396);
#395 = CARTESIAN_POINT('',(56.,-2.,22.75));
#396 = VECTOR('',#397,1.);
#397 = DIRECTION('',(0.,0.,1.));
#398 = ORIENTED_EDGE('',*,*,#399,.T.);
#399 = EDGE_CURVE('',#392,#89,#400,.T.);
#400 = LINE('',#401,#402);
#401 = CARTESIAN_POINT('',(56.,-2.,47.25));
#402 = VECTOR('',#403,1.);
#403 = DIRECTION('',(0.,-1.,0.));
#404 = ORIENTED_EDGE('',*,*,#96,.F.);
#405 = ORIENTED_EDGE('',*,*,#337,.F.);
#406 = PLANE('',#407);
#407 = AXIS2_PLACEMENT_3D('',#408,#409,#410);
#408 = CARTESIAN_POINT('',(56.,-2.,22.75));
#409 = DIRECTION('',(1.,0.,0.));
#410 = DIRECTION('',(0.,-1.,0.));
#411 = ADVANCED_FACE('',(#412),#430,.T.);
#412 = FACE_BOUND('',#413,.F.);
#413 = EDGE_LOOP('',(#414,#415,#416,#424));
#414 = ORIENTED_EDGE('',*,*,#376,.T.);
#415 = ORIENTED_EDGE('',*,*,#72,.T.);
#416 = ORIENTED_EDGE('',*,*,#417,.T.);
#417 = EDGE_CURVE('',#73,#418,#420,.T.);
#418 = VERTEX_POINT('',#419);
#419 = CARTESIAN_POINT('',(95.,0.,-27.75));
#420 = LINE('',#421,#422);
#421 = CARTESIAN_POINT('',(95.,-8.,-27.75));
#422 = VECTOR('',#423,1.);
#423 = DIRECTION('',(0.,1.,0.));
#424 = ORIENTED_EDGE('',*,*,#425,.T.);
#425 = EDGE_CURVE('',#418,#369,#426,.T.);
#426 = LINE('',#427,#428);
#427 = CARTESIAN_POINT('',(95.,0.,-27.75));
#428 = VECTOR('',#429,1.);
#429 = DIRECTION('',(-1.,-0.,-0.));
#430 = PLANE('',#431);
#431 = AXIS2_PLACEMENT_3D('',#432,#433,#434);
#432 = CARTESIAN_POINT('',(47.5,-4.,-27.75));
#433 = DIRECTION('',(-0.,-0.,-1.));
#434 = DIRECTION('',(-1.,-0.,-0.));
#435 = ADVANCED_FACE('',(#436),#454,.T.);
#436 = FACE_BOUND('',#437,.T.);
#437 = EDGE_LOOP('',(#438,#446,#452,#453));
#438 = ORIENTED_EDGE('',*,*,#439,.T.);
#439 = EDGE_CURVE('',#81,#440,#442,.T.);
#440 = VERTEX_POINT('',#441);
#441 = CARTESIAN_POINT('',(95.,-2.,47.25));
#442 = LINE('',#443,#444);
#443 = CARTESIAN_POINT('',(95.,-8.,47.25));
#444 = VECTOR('',#445,1.);
#445 = DIRECTION('',(0.,1.,0.));
#446 = ORIENTED_EDGE('',*,*,#447,.T.);
#447 = EDGE_CURVE('',#440,#392,#448,.T.);
#448 = LINE('',#449,#450);
#449 = CARTESIAN_POINT('',(95.,-2.,47.25));
#450 = VECTOR('',#451,1.);
#451 = DIRECTION('',(-1.,0.,0.));
#452 = ORIENTED_EDGE('',*,*,#399,.T.);
#453 = ORIENTED_EDGE('',*,*,#88,.T.);
#454 = PLANE('',#455);
#455 = AXIS2_PLACEMENT_3D('',#456,#457,#458);
#456 = CARTESIAN_POINT('',(75.5,-5.,47.25));
#457 = DIRECTION('',(0.,0.,1.));
#458 = DIRECTION('',(1.,0.,0.));
#459 = ADVANCED_FACE('',(#460),#478,.T.);
#460 = FACE_BOUND('',#461,.T.);
#461 = EDGE_LOOP('',(#462,#463,#469,#470,#471,#472));
#462 = ORIENTED_EDGE('',*,*,#353,.F.);
#463 = ORIENTED_EDGE('',*,*,#464,.T.);
#464 = EDGE_CURVE('',#346,#440,#465,.T.);
#465 = LINE('',#466,#467);
#466 = CARTESIAN_POINT('',(95.,-2.,22.75));
#467 = VECTOR('',#468,1.);
#468 = DIRECTION('',(0.,0.,1.));
#469 = ORIENTED_EDGE('',*,*,#439,.F.);
#470 = ORIENTED_EDGE('',*,*,#80,.F.);
#471 = ORIENTED_EDGE('',*,*,#417,.T.);
#472 = ORIENTED_EDGE('',*,*,#473,.F.);
#473 = EDGE_CURVE('',#321,#418,#474,.T.);
#474 = LINE('',#475,#476);
#475 = CARTESIAN_POINT('',(95.,0.,-22.75));
#476 = VECTOR('',#477,1.);
#477 = DIRECTION('',(-0.,-0.,-1.));
#478 = PLANE('',#479);
#479 = AXIS2_PLACEMENT_3D('',#480,#481,#482);
#480 = CARTESIAN_POINT('',(95.,-4.295180722892,9.454819277108));
#481 = DIRECTION('',(1.,0.,0.));
#482 = DIRECTION('',(0.,0.,1.));
#483 = ADVANCED_FACE('',(#484),#503,.F.);
#484 = FACE_BOUND('',#485,.F.);
#485 = EDGE_LOOP('',(#486,#487,#495,#502));
#486 = ORIENTED_EDGE('',*,*,#104,.F.);
#487 = ORIENTED_EDGE('',*,*,#488,.T.);
#488 = EDGE_CURVE('',#105,#489,#491,.T.);
#489 = VERTEX_POINT('',#490);
#490 = CARTESIAN_POINT('',(8.78,0.,9.75));
#491 = LINE('',#492,#493);
#492 = CARTESIAN_POINT('',(8.78,-8.,9.75));
#493 = VECTOR('',#494,1.);
#494 = DIRECTION('',(0.,1.,-2.2E-16));
#495 = ORIENTED_EDGE('',*,*,#496,.T.);
#496 = EDGE_CURVE('',#489,#489,#497,.T.);
#497 = CIRCLE('',#498,2.6);
#498 = AXIS2_PLACEMENT_3D('',#499,#500,#501);
#499 = CARTESIAN_POINT('',(6.18,0.,9.75));
#500 = DIRECTION('',(0.,-1.,2.2E-16));
#501 = DIRECTION('',(1.,0.,0.));
#502 = ORIENTED_EDGE('',*,*,#488,.F.);
#503 = CYLINDRICAL_SURFACE('',#504,2.6);
#504 = AXIS2_PLACEMENT_3D('',#505,#506,#507);
#505 = CARTESIAN_POINT('',(6.18,-8.,9.75));
#506 = DIRECTION('',(0.,-1.,2.2E-16));
#507 = DIRECTION('',(1.,0.,0.));
#508 = ADVANCED_FACE('',(#509),#528,.F.);
#509 = FACE_BOUND('',#510,.F.);
#510 = EDGE_LOOP('',(#511,#512,#520,#527));
#511 = ORIENTED_EDGE('',*,*,#115,.F.);
#512 = ORIENTED_EDGE('',*,*,#513,.T.);
#513 = EDGE_CURVE('',#116,#514,#516,.T.);
#514 = VERTEX_POINT('',#515);
#515 = CARTESIAN_POINT('',(7.78,0.,-2.E-15));
#516 = LINE('',#517,#518);
#517 = CARTESIAN_POINT('',(7.78,-8.,0.));
#518 = VECTOR('',#519,1.);
#519 = DIRECTION('',(0.,1.,-2.2E-16));
#520 = ORIENTED_EDGE('',*,*,#521,.T.);
#521 = EDGE_CURVE('',#514,#514,#522,.T.);
#522 = CIRCLE('',#523,1.6);
#523 = AXIS2_PLACEMENT_3D('',#524,#525,#526);
#524 = CARTESIAN_POINT('',(6.18,0.,-1.78E-15));
#525 = DIRECTION('',(0.,-1.,2.2E-16));
#526 = DIRECTION('',(1.,0.,0.));
#527 = ORIENTED_EDGE('',*,*,#513,.F.);
#528 = CYLINDRICAL_SURFACE('',#529,1.6);
#529 = AXIS2_PLACEMENT_3D('',#530,#531,#532);
#530 = CARTESIAN_POINT('',(6.18,-8.,0.));
#531 = DIRECTION('',(0.,-1.,2.2E-16));
#532 = DIRECTION('',(1.,0.,0.));
#533 = ADVANCED_FACE('',(#534),#553,.F.);
#534 = FACE_BOUND('',#535,.F.);
#535 = EDGE_LOOP('',(#536,#544,#551,#552));
#536 = ORIENTED_EDGE('',*,*,#537,.T.);
#537 = EDGE_CURVE('',#127,#538,#540,.T.);
#538 = VERTEX_POINT('',#539);
#539 = CARTESIAN_POINT('',(24.005,-2.5,11.9));
#540 = LINE('',#541,#542);
#541 = CARTESIAN_POINT('',(24.005,-8.,11.9));
#542 = VECTOR('',#543,1.);
#543 = DIRECTION('',(0.,1.,-2.2E-16));
#544 = ORIENTED_EDGE('',*,*,#545,.T.);
#545 = EDGE_CURVE('',#538,#538,#546,.T.);
#546 = CIRCLE('',#547,4.375);
#547 = AXIS2_PLACEMENT_3D('',#548,#549,#550);
#548 = CARTESIAN_POINT('',(19.63,-2.5,11.9));
#549 = DIRECTION('',(0.,-1.,0.));
#550 = DIRECTION('',(1.,0.,0.));
#551 = ORIENTED_EDGE('',*,*,#537,.F.);
#552 = ORIENTED_EDGE('',*,*,#126,.F.);
#553 = CYLINDRICAL_SURFACE('',#554,4.375);
#554 = AXIS2_PLACEMENT_3D('',#555,#556,#557);
#555 = CARTESIAN_POINT('',(19.63,-8.,11.9));
#556 = DIRECTION('',(0.,-1.,2.2E-16));
#557 = DIRECTION('',(1.,0.,0.));
#558 = ADVANCED_FACE('',(#559),#578,.F.);
#559 = FACE_BOUND('',#560,.F.);
#560 = EDGE_LOOP('',(#561,#562,#570,#577));
#561 = ORIENTED_EDGE('',*,*,#137,.F.);
#562 = ORIENTED_EDGE('',*,*,#563,.T.);
#563 = EDGE_CURVE('',#138,#564,#566,.T.);
#564 = VERTEX_POINT('',#565);
#565 = CARTESIAN_POINT('',(7.78,0.,-9.75));
#566 = LINE('',#567,#568);
#567 = CARTESIAN_POINT('',(7.78,-8.,-9.75));
#568 = VECTOR('',#569,1.);
#569 = DIRECTION('',(0.,1.,-2.2E-16));
#570 = ORIENTED_EDGE('',*,*,#571,.T.);
#571 = EDGE_CURVE('',#564,#564,#572,.T.);
#572 = CIRCLE('',#573,1.6);
#573 = AXIS2_PLACEMENT_3D('',#574,#575,#576);
#574 = CARTESIAN_POINT('',(6.18,0.,-9.75));
#575 = DIRECTION('',(0.,-1.,2.2E-16));
#576 = DIRECTION('',(1.,0.,0.));
#577 = ORIENTED_EDGE('',*,*,#563,.F.);
#578 = CYLINDRICAL_SURFACE('',#579,1.6);
#579 = AXIS2_PLACEMENT_3D('',#580,#581,#582);
#580 = CARTESIAN_POINT('',(6.18,-8.,-9.75));
#581 = DIRECTION('',(0.,-1.,2.2E-16));
#582 = DIRECTION('',(1.,0.,0.));
#583 = ADVANCED_FACE('',(#584),#603,.F.);
#584 = FACE_BOUND('',#585,.F.);
#585 = EDGE_LOOP('',(#586,#587,#595,#602));
#586 = ORIENTED_EDGE('',*,*,#148,.F.);
#587 = ORIENTED_EDGE('',*,*,#588,.T.);
#588 = EDGE_CURVE('',#149,#589,#591,.T.);
#589 = VERTEX_POINT('',#590);
#590 = CARTESIAN_POINT('',(8.78,0.,-18.15));
#591 = LINE('',#592,#593);
#592 = CARTESIAN_POINT('',(8.78,-8.,-18.15));
#593 = VECTOR('',#594,1.);
#594 = DIRECTION('',(0.,1.,-2.2E-16));
#595 = ORIENTED_EDGE('',*,*,#596,.T.);
#596 = EDGE_CURVE('',#589,#589,#597,.T.);
#597 = CIRCLE('',#598,2.6);
#598 = AXIS2_PLACEMENT_3D('',#599,#600,#601);
#599 = CARTESIAN_POINT('',(6.18,0.,-18.15));
#600 = DIRECTION('',(0.,-1.,2.2E-16));
#601 = DIRECTION('',(1.,0.,0.));
#602 = ORIENTED_EDGE('',*,*,#588,.F.);
#603 = CYLINDRICAL_SURFACE('',#604,2.6);
#604 = AXIS2_PLACEMENT_3D('',#605,#606,#607);
#605 = CARTESIAN_POINT('',(6.18,-8.,-18.15));
#606 = DIRECTION('',(0.,-1.,2.2E-16));
#607 = DIRECTION('',(1.,0.,0.));
#608 = ADVANCED_FACE('',(#609),#628,.F.);
#609 = FACE_BOUND('',#610,.F.);
#610 = EDGE_LOOP('',(#611,#612,#620,#627));
#611 = ORIENTED_EDGE('',*,*,#159,.F.);
#612 = ORIENTED_EDGE('',*,*,#613,.T.);
#613 = EDGE_CURVE('',#160,#614,#616,.T.);
#614 = VERTEX_POINT('',#615);
#615 = CARTESIAN_POINT('',(19.78,0.,-9.75));
#616 = LINE('',#617,#618);
#617 = CARTESIAN_POINT('',(19.78,-8.,-9.75));
#618 = VECTOR('',#619,1.);
#619 = DIRECTION('',(0.,1.,-2.2E-16));
#620 = ORIENTED_EDGE('',*,*,#621,.T.);
#621 = EDGE_CURVE('',#614,#614,#622,.T.);
#622 = CIRCLE('',#623,1.6);
#623 = AXIS2_PLACEMENT_3D('',#624,#625,#626);
#624 = CARTESIAN_POINT('',(18.18,0.,-9.75));
#625 = DIRECTION('',(0.,-1.,2.2E-16));
#626 = DIRECTION('',(1.,0.,0.));
#627 = ORIENTED_EDGE('',*,*,#613,.F.);
#628 = CYLINDRICAL_SURFACE('',#629,1.6);
#629 = AXIS2_PLACEMENT_3D('',#630,#631,#632);
#630 = CARTESIAN_POINT('',(18.18,-8.,-9.75));
#631 = DIRECTION('',(0.,-1.,2.2E-16));
#632 = DIRECTION('',(1.,0.,0.));
#633 = ADVANCED_FACE('',(#634),#653,.F.);
#634 = FACE_BOUND('',#635,.F.);
#635 = EDGE_LOOP('',(#636,#644,#651,#652));
#636 = ORIENTED_EDGE('',*,*,#637,.T.);
#637 = EDGE_CURVE('',#171,#638,#640,.T.);
#638 = VERTEX_POINT('',#639);
#639 = CARTESIAN_POINT('',(44.005,-2.5,11.9));
#640 = LINE('',#641,#642);
#641 = CARTESIAN_POINT('',(44.005,-8.,11.9));
#642 = VECTOR('',#643,1.);
#643 = DIRECTION('',(0.,1.,-2.2E-16));
#644 = ORIENTED_EDGE('',*,*,#645,.T.);
#645 = EDGE_CURVE('',#638,#638,#646,.T.);
#646 = CIRCLE('',#647,4.375);
#647 = AXIS2_PLACEMENT_3D('',#648,#649,#650);
#648 = CARTESIAN_POINT('',(39.63,-2.5,11.9));
#649 = DIRECTION('',(0.,-1.,0.));
#650 = DIRECTION('',(1.,0.,0.));
#651 = ORIENTED_EDGE('',*,*,#637,.F.);
#652 = ORIENTED_EDGE('',*,*,#170,.F.);
#653 = CYLINDRICAL_SURFACE('',#654,4.375);
#654 = AXIS2_PLACEMENT_3D('',#655,#656,#657);
#655 = CARTESIAN_POINT('',(39.63,-8.,11.9));
#656 = DIRECTION('',(0.,-1.,2.2E-16));
#657 = DIRECTION('',(1.,0.,0.));
#658 = ADVANCED_FACE('',(#659),#678,.F.);
#659 = FACE_BOUND('',#660,.F.);
#660 = EDGE_LOOP('',(#661,#662,#670,#677));
#661 = ORIENTED_EDGE('',*,*,#181,.F.);
#662 = ORIENTED_EDGE('',*,*,#663,.T.);
#663 = EDGE_CURVE('',#182,#664,#666,.T.);
#664 = VERTEX_POINT('',#665);
#665 = CARTESIAN_POINT('',(42.68,0.,-9.75));
#666 = LINE('',#667,#668);
#667 = CARTESIAN_POINT('',(42.68,-8.,-9.75));
#668 = VECTOR('',#669,1.);
#669 = DIRECTION('',(0.,1.,-2.2E-16));
#670 = ORIENTED_EDGE('',*,*,#671,.T.);
#671 = EDGE_CURVE('',#664,#664,#672,.T.);
#672 = CIRCLE('',#673,1.6);
#673 = AXIS2_PLACEMENT_3D('',#674,#675,#676);
#674 = CARTESIAN_POINT('',(41.08,0.,-9.75));
#675 = DIRECTION('',(0.,-1.,2.2E-16));
#676 = DIRECTION('',(1.,0.,0.));
#677 = ORIENTED_EDGE('',*,*,#663,.F.);
#678 = CYLINDRICAL_SURFACE('',#679,1.6);
#679 = AXIS2_PLACEMENT_3D('',#680,#681,#682);
#680 = CARTESIAN_POINT('',(41.08,-8.,-9.75));
#681 = DIRECTION('',(0.,-1.,2.2E-16));
#682 = DIRECTION('',(1.,0.,0.));
#683 = ADVANCED_FACE('',(#684),#703,.F.);
#684 = FACE_BOUND('',#685,.F.);
#685 = EDGE_LOOP('',(#686,#687,#695,#702));
#686 = ORIENTED_EDGE('',*,*,#192,.F.);
#687 = ORIENTED_EDGE('',*,*,#688,.T.);
#688 = EDGE_CURVE('',#193,#689,#691,.T.);
#689 = VERTEX_POINT('',#690);
#690 = CARTESIAN_POINT('',(74.5,-2.,44.1));
#691 = LINE('',#692,#693);
#692 = CARTESIAN_POINT('',(74.5,-8.,44.1));
#693 = VECTOR('',#694,1.);
#694 = DIRECTION('',(0.,1.,-2.2E-16));
#695 = ORIENTED_EDGE('',*,*,#696,.T.);
#696 = EDGE_CURVE('',#689,#689,#697,.T.);
#697 = CIRCLE('',#698,2.);
#698 = AXIS2_PLACEMENT_3D('',#699,#700,#701);
#699 = CARTESIAN_POINT('',(72.5,-2.,44.1));
#700 = DIRECTION('',(0.,-1.,2.2E-16));
#701 = DIRECTION('',(1.,0.,0.));
#702 = ORIENTED_EDGE('',*,*,#688,.F.);
#703 = CYLINDRICAL_SURFACE('',#704,2.);
#704 = AXIS2_PLACEMENT_3D('',#705,#706,#707);
#705 = CARTESIAN_POINT('',(72.5,-8.,44.1));
#706 = DIRECTION('',(0.,-1.,2.2E-16));
#707 = DIRECTION('',(1.,0.,0.));
#708 = ADVANCED_FACE('',(#709),#728,.F.);
#709 = FACE_BOUND('',#710,.F.);
#710 = EDGE_LOOP('',(#711,#712,#720,#727));
#711 = ORIENTED_EDGE('',*,*,#203,.F.);
#712 = ORIENTED_EDGE('',*,*,#713,.T.);
#713 = EDGE_CURVE('',#204,#714,#716,.T.);
#714 = VERTEX_POINT('',#715);
#715 = CARTESIAN_POINT('',(93.5,-2.,44.1));
#716 = LINE('',#717,#718);
#717 = CARTESIAN_POINT('',(93.5,-8.,44.1));
#718 = VECTOR('',#719,1.);
#719 = DIRECTION('',(0.,1.,-2.2E-16));
#720 = ORIENTED_EDGE('',*,*,#721,.T.);
#721 = EDGE_CURVE('',#714,#714,#722,.T.);
#722 = CIRCLE('',#723,2.);
#723 = AXIS2_PLACEMENT_3D('',#724,#725,#726);
#724 = CARTESIAN_POINT('',(91.5,-2.,44.1));
#725 = DIRECTION('',(0.,-1.,2.2E-16));
#726 = DIRECTION('',(1.,0.,0.));
#727 = ORIENTED_EDGE('',*,*,#713,.F.);
#728 = CYLINDRICAL_SURFACE('',#729,2.);
#729 = AXIS2_PLACEMENT_3D('',#730,#731,#732);
#730 = CARTESIAN_POINT('',(91.5,-8.,44.1));
#731 = DIRECTION('',(0.,-1.,2.2E-16));
#732 = DIRECTION('',(1.,0.,0.));
#733 = ADVANCED_FACE('',(#734),#753,.F.);
#734 = FACE_BOUND('',#735,.F.);
#735 = EDGE_LOOP('',(#736,#737,#745,#752));
#736 = ORIENTED_EDGE('',*,*,#214,.F.);
#737 = ORIENTED_EDGE('',*,*,#738,.T.);
#738 = EDGE_CURVE('',#215,#739,#741,.T.);
#739 = VERTEX_POINT('',#740);
#740 = CARTESIAN_POINT('',(55.68,0.,9.75));
#741 = LINE('',#742,#743);
#742 = CARTESIAN_POINT('',(55.68,-8.,9.75));
#743 = VECTOR('',#744,1.);
#744 = DIRECTION('',(0.,1.,-2.2E-16));
#745 = ORIENTED_EDGE('',*,*,#746,.T.);
#746 = EDGE_CURVE('',#739,#739,#747,.T.);
#747 = CIRCLE('',#748,2.6);
#748 = AXIS2_PLACEMENT_3D('',#749,#750,#751);
#749 = CARTESIAN_POINT('',(53.08,0.,9.75));
#750 = DIRECTION('',(0.,-1.,2.2E-16));
#751 = DIRECTION('',(1.,0.,0.));
#752 = ORIENTED_EDGE('',*,*,#738,.F.);
#753 = CYLINDRICAL_SURFACE('',#754,2.6);
#754 = AXIS2_PLACEMENT_3D('',#755,#756,#757);
#755 = CARTESIAN_POINT('',(53.08,-8.,9.75));
#756 = DIRECTION('',(0.,-1.,2.2E-16));
#757 = DIRECTION('',(1.,0.,0.));
#758 = ADVANCED_FACE('',(#759),#778,.F.);
#759 = FACE_BOUND('',#760,.F.);
#760 = EDGE_LOOP('',(#761,#762,#770,#777));
#761 = ORIENTED_EDGE('',*,*,#225,.F.);
#762 = ORIENTED_EDGE('',*,*,#763,.T.);
#763 = EDGE_CURVE('',#226,#764,#766,.T.);
#764 = VERTEX_POINT('',#765);
#765 = CARTESIAN_POINT('',(54.68,0.,-2.E-15));
#766 = LINE('',#767,#768);
#767 = CARTESIAN_POINT('',(54.68,-8.,0.));
#768 = VECTOR('',#769,1.);
#769 = DIRECTION('',(0.,1.,-2.2E-16));
#770 = ORIENTED_EDGE('',*,*,#771,.T.);
#771 = EDGE_CURVE('',#764,#764,#772,.T.);
#772 = CIRCLE('',#773,1.6);
#773 = AXIS2_PLACEMENT_3D('',#774,#775,#776);
#774 = CARTESIAN_POINT('',(53.08,0.,-1.78E-15));
#775 = DIRECTION('',(0.,-1.,2.2E-16));
#776 = DIRECTION('',(1.,0.,0.));
#777 = ORIENTED_EDGE('',*,*,#763,.F.);
#778 = CYLINDRICAL_SURFACE('',#779,1.6);
#779 = AXIS2_PLACEMENT_3D('',#780,#781,#782);
#780 = CARTESIAN_POINT('',(53.08,-8.,0.));
#781 = DIRECTION('',(0.,-1.,2.2E-16));
#782 = DIRECTION('',(1.,0.,0.));
#783 = ADVANCED_FACE('',(#784),#803,.F.);
#784 = FACE_BOUND('',#785,.F.);
#785 = EDGE_LOOP('',(#786,#794,#801,#802));
#786 = ORIENTED_EDGE('',*,*,#787,.T.);
#787 = EDGE_CURVE('',#237,#788,#790,.T.);
#788 = VERTEX_POINT('',#789);
#789 = CARTESIAN_POINT('',(63.15,-4.5,9.75));
#790 = LINE('',#791,#792);
#791 = CARTESIAN_POINT('',(63.15,-8.,9.75));
#792 = VECTOR('',#793,1.);
#793 = DIRECTION('',(0.,1.,-2.2E-16));
#794 = ORIENTED_EDGE('',*,*,#795,.T.);
#795 = EDGE_CURVE('',#788,#788,#796,.T.);
#796 = CIRCLE('',#797,2.8);
#797 = AXIS2_PLACEMENT_3D('',#798,#799,#800);
#798 = CARTESIAN_POINT('',(60.35,-4.5,9.75));
#799 = DIRECTION('',(0.,-1.,0.));
#800 = DIRECTION('',(1.,0.,0.));
#801 = ORIENTED_EDGE('',*,*,#787,.F.);
#802 = ORIENTED_EDGE('',*,*,#236,.F.);
#803 = CYLINDRICAL_SURFACE('',#804,2.8);
#804 = AXIS2_PLACEMENT_3D('',#805,#806,#807);
#805 = CARTESIAN_POINT('',(60.35,-8.,9.75));
#806 = DIRECTION('',(0.,-1.,2.2E-16));
#807 = DIRECTION('',(1.,0.,0.));
#808 = ADVANCED_FACE('',(#809),#828,.F.);
#809 = FACE_BOUND('',#810,.F.);
#810 = EDGE_LOOP('',(#811,#812,#820,#827));
#811 = ORIENTED_EDGE('',*,*,#247,.F.);
#812 = ORIENTED_EDGE('',*,*,#813,.T.);
#813 = EDGE_CURVE('',#248,#814,#816,.T.);
#814 = VERTEX_POINT('',#815);
#815 = CARTESIAN_POINT('',(54.68,0.,-9.75));
#816 = LINE('',#817,#818);
#817 = CARTESIAN_POINT('',(54.68,-8.,-9.75));
#818 = VECTOR('',#819,1.);
#819 = DIRECTION('',(0.,1.,-2.2E-16));
#820 = ORIENTED_EDGE('',*,*,#821,.T.);
#821 = EDGE_CURVE('',#814,#814,#822,.T.);
#822 = CIRCLE('',#823,1.6);
#823 = AXIS2_PLACEMENT_3D('',#824,#825,#826);
#824 = CARTESIAN_POINT('',(53.08,0.,-9.75));
#825 = DIRECTION('',(0.,-1.,2.2E-16));
#826 = DIRECTION('',(1.,0.,0.));
#827 = ORIENTED_EDGE('',*,*,#813,.F.);
#828 = CYLINDRICAL_SURFACE('',#829,1.6);
#829 = AXIS2_PLACEMENT_3D('',#830,#831,#832);
#830 = CARTESIAN_POINT('',(53.08,-8.,-9.75));
#831 = DIRECTION('',(0.,-1.,2.2E-16));
#832 = DIRECTION('',(1.,0.,0.));
#833 = ADVANCED_FACE('',(#834),#853,.F.);
#834 = FACE_BOUND('',#835,.F.);
#835 = EDGE_LOOP('',(#836,#837,#845,#852));
#836 = ORIENTED_EDGE('',*,*,#258,.F.);
#837 = ORIENTED_EDGE('',*,*,#838,.T.);
#838 = EDGE_CURVE('',#259,#839,#841,.T.);
#839 = VERTEX_POINT('',#840);
#840 = CARTESIAN_POINT('',(55.68,0.,-18.15));
#841 = LINE('',#842,#843);
#842 = CARTESIAN_POINT('',(55.68,-8.,-18.15));
#843 = VECTOR('',#844,1.);
#844 = DIRECTION('',(0.,1.,-2.2E-16));
#845 = ORIENTED_EDGE('',*,*,#846,.T.);
#846 = EDGE_CURVE('',#839,#839,#847,.T.);
#847 = CIRCLE('',#848,2.6);
#848 = AXIS2_PLACEMENT_3D('',#849,#850,#851);
#849 = CARTESIAN_POINT('',(53.08,0.,-18.15));
#850 = DIRECTION('',(0.,-1.,2.2E-16));
#851 = DIRECTION('',(1.,0.,0.));
#852 = ORIENTED_EDGE('',*,*,#838,.F.);
#853 = CYLINDRICAL_SURFACE('',#854,2.6);
#854 = AXIS2_PLACEMENT_3D('',#855,#856,#857);
#855 = CARTESIAN_POINT('',(53.08,-8.,-18.15));
#856 = DIRECTION('',(0.,-1.,2.2E-16));
#857 = DIRECTION('',(1.,0.,0.));
#858 = ADVANCED_FACE('',(#859),#878,.F.);
#859 = FACE_BOUND('',#860,.F.);
#860 = EDGE_LOOP('',(#861,#869,#876,#877));
#861 = ORIENTED_EDGE('',*,*,#862,.T.);
#862 = EDGE_CURVE('',#273,#863,#865,.T.);
#863 = VERTEX_POINT('',#864);
#864 = CARTESIAN_POINT('',(93.45,-4.5,9.75));
#865 = LINE('',#866,#867);
#866 = CARTESIAN_POINT('',(93.45,-8.,9.75));
#867 = VECTOR('',#868,1.);
#868 = DIRECTION('',(0.,1.,-2.2E-16));
#869 = ORIENTED_EDGE('',*,*,#870,.T.);
#870 = EDGE_CURVE('',#863,#863,#871,.T.);
#871 = CIRCLE('',#872,2.8);
#872 = AXIS2_PLACEMENT_3D('',#873,#874,#875);
#873 = CARTESIAN_POINT('',(90.65,-4.5,9.75));
#874 = DIRECTION('',(0.,-1.,0.));
#875 = DIRECTION('',(1.,0.,0.));
#876 = ORIENTED_EDGE('',*,*,#862,.F.);
#877 = ORIENTED_EDGE('',*,*,#272,.F.);
#878 = CYLINDRICAL_SURFACE('',#879,2.8);
#879 = AXIS2_PLACEMENT_3D('',#880,#881,#882);
#880 = CARTESIAN_POINT('',(90.65,-8.,9.75));
#881 = DIRECTION('',(0.,-1.,2.2E-16));
#882 = DIRECTION('',(1.,0.,0.));
#883 = ADVANCED_FACE('',(#884),#903,.F.);
#884 = FACE_BOUND('',#885,.T.);
#885 = EDGE_LOOP('',(#886,#894,#901,#902));
#886 = ORIENTED_EDGE('',*,*,#887,.T.);
#887 = EDGE_CURVE('',#284,#888,#890,.T.);
#888 = VERTEX_POINT('',#889);
#889 = CARTESIAN_POINT('',(93.45,-4.5,-9.75));
#890 = LINE('',#891,#892);
#891 = CARTESIAN_POINT('',(93.45,-8.,-9.75));
#892 = VECTOR('',#893,1.);
#893 = DIRECTION('',(0.,1.,2.2E-16));
#894 = ORIENTED_EDGE('',*,*,#895,.T.);
#895 = EDGE_CURVE('',#888,#888,#896,.T.);
#896 = CIRCLE('',#897,2.8);
#897 = AXIS2_PLACEMENT_3D('',#898,#899,#900);
#898 = CARTESIAN_POINT('',(90.65,-4.5,-9.75));
#899 = DIRECTION('',(-0.,1.,4.4E-16));
#900 = DIRECTION('',(1.,0.,0.));
#901 = ORIENTED_EDGE('',*,*,#887,.F.);
#902 = ORIENTED_EDGE('',*,*,#283,.F.);
#903 = CYLINDRICAL_SURFACE('',#904,2.8);
#904 = AXIS2_PLACEMENT_3D('',#905,#906,#907);
#905 = CARTESIAN_POINT('',(90.65,-8.,-9.75));
#906 = DIRECTION('',(-0.,-1.,-2.2E-16));
#907 = DIRECTION('',(1.,0.,0.));
#908 = ADVANCED_FACE('',(#909),#928,.F.);
#909 = FACE_BOUND('',#910,.T.);
#910 = EDGE_LOOP('',(#911,#919,#926,#927));
#911 = ORIENTED_EDGE('',*,*,#912,.F.);
#912 = EDGE_CURVE('',#913,#304,#915,.T.);
#913 = VERTEX_POINT('',#914);
#914 = CARTESIAN_POINT('',(58.75,4.5,-9.75));
#915 = LINE('',#916,#917);
#916 = CARTESIAN_POINT('',(58.75,4.5,-9.75));
#917 = VECTOR('',#918,1.);
#918 = DIRECTION('',(-0.,-1.,-2.2E-16));
#919 = ORIENTED_EDGE('',*,*,#920,.F.);
#920 = EDGE_CURVE('',#913,#913,#921,.T.);
#921 = CIRCLE('',#922,1.6);
#922 = AXIS2_PLACEMENT_3D('',#923,#924,#925);
#923 = CARTESIAN_POINT('',(60.35,4.5,-9.75));
#924 = DIRECTION('',(-0.,-1.,-4.4E-16));
#925 = DIRECTION('',(-1.,0.,0.));
#926 = ORIENTED_EDGE('',*,*,#912,.T.);
#927 = ORIENTED_EDGE('',*,*,#303,.T.);
#928 = CYLINDRICAL_SURFACE('',#929,1.6);
#929 = AXIS2_PLACEMENT_3D('',#930,#931,#932);
#930 = CARTESIAN_POINT('',(60.35,4.5,-9.75));
#931 = DIRECTION('',(0.,1.,2.2E-16));
#932 = DIRECTION('',(-1.,0.,0.));
#933 = ADVANCED_FACE('',(#934,#940,#1102,#1105,#1108,#1119,#1130,#1133,
    #1136,#1139,#1142,#1145,#1148,#1151),#1154,.T.);
#934 = FACE_BOUND('',#935,.T.);
#935 = EDGE_LOOP('',(#936,#937,#938,#939));
#936 = ORIENTED_EDGE('',*,*,#473,.T.);
#937 = ORIENTED_EDGE('',*,*,#425,.T.);
#938 = ORIENTED_EDGE('',*,*,#368,.F.);
#939 = ORIENTED_EDGE('',*,*,#320,.F.);
#940 = FACE_BOUND('',#941,.T.);
#941 = EDGE_LOOP('',(#942,#952,#960,#968,#976,#984,#992,#1000,#1008,
    #1016,#1024,#1032,#1040,#1048,#1056,#1064,#1072,#1080,#1088,#1096));
#942 = ORIENTED_EDGE('',*,*,#943,.F.);
#943 = EDGE_CURVE('',#944,#946,#948,.T.);
#944 = VERTEX_POINT('',#945);
#945 = CARTESIAN_POINT('',(68.464376360265,3.E-15,-6.75));
#946 = VERTEX_POINT('',#947);
#947 = CARTESIAN_POINT('',(68.464376360265,3.E-15,6.75));
#948 = LINE('',#949,#950);
#949 = CARTESIAN_POINT('',(68.464376360265,1.78E-15,12.75));
#950 = VECTOR('',#951,1.);
#951 = DIRECTION('',(0.,0.,1.));
#952 = ORIENTED_EDGE('',*,*,#953,.F.);
#953 = EDGE_CURVE('',#954,#944,#956,.T.);
#954 = VERTEX_POINT('',#955);
#955 = CARTESIAN_POINT('',(58.,3.E-15,-6.75));
#956 = LINE('',#957,#958);
#957 = CARTESIAN_POINT('',(58.,3.E-15,-6.75));
#958 = VECTOR('',#959,1.);
#959 = DIRECTION('',(1.,0.,0.));
#960 = ORIENTED_EDGE('',*,*,#961,.F.);
#961 = EDGE_CURVE('',#962,#954,#964,.T.);
#962 = VERTEX_POINT('',#963);
#963 = CARTESIAN_POINT('',(58.,3.E-15,-12.75));
#964 = LINE('',#965,#966);
#965 = CARTESIAN_POINT('',(58.,2.83E-15,-12.75));
#966 = VECTOR('',#967,1.);
#967 = DIRECTION('',(0.,0.,1.));
#968 = ORIENTED_EDGE('',*,*,#969,.F.);
#969 = EDGE_CURVE('',#970,#962,#972,.T.);
#970 = VERTEX_POINT('',#971);
#971 = CARTESIAN_POINT('',(68.464376360265,-1.83E-13,-12.75));
#972 = LINE('',#973,#974);
#973 = CARTESIAN_POINT('',(95.,0.,-12.75));
#974 = VECTOR('',#975,1.);
#975 = DIRECTION('',(-1.,-0.,-0.));
#976 = ORIENTED_EDGE('',*,*,#977,.T.);
#977 = EDGE_CURVE('',#970,#978,#980,.T.);
#978 = VERTEX_POINT('',#979);
#979 = CARTESIAN_POINT('',(68.464376360265,-1.83E-13,-14.75));
#980 = LINE('',#981,#982);
#981 = CARTESIAN_POINT('',(68.464376360265,-1.8341E-13,-12.75));
#982 = VECTOR('',#983,1.);
#983 = DIRECTION('',(-0.,-0.,-1.));
#984 = ORIENTED_EDGE('',*,*,#985,.F.);
#985 = EDGE_CURVE('',#986,#978,#988,.T.);
#986 = VERTEX_POINT('',#987);
#987 = CARTESIAN_POINT('',(82.535623639735,-1.86E-13,-14.75));
#988 = LINE('',#989,#990);
#989 = CARTESIAN_POINT('',(95.,0.,-14.75));
#990 = VECTOR('',#991,1.);
#991 = DIRECTION('',(-1.,-0.,-0.));
#992 = ORIENTED_EDGE('',*,*,#993,.F.);
#993 = EDGE_CURVE('',#994,#986,#996,.T.);
#994 = VERTEX_POINT('',#995);
#995 = CARTESIAN_POINT('',(82.535623639735,-1.86E-13,-12.75));
#996 = LINE('',#997,#998);
#997 = CARTESIAN_POINT('',(82.535623639735,-1.8607E-13,-12.75));
#998 = VECTOR('',#999,1.);
#999 = DIRECTION('',(-0.,-0.,-1.));
#1000 = ORIENTED_EDGE('',*,*,#1001,.F.);
#1001 = EDGE_CURVE('',#1002,#994,#1004,.T.);
#1002 = VERTEX_POINT('',#1003);
#1003 = CARTESIAN_POINT('',(93.,3.E-15,-12.75));
#1004 = LINE('',#1005,#1006);
#1005 = CARTESIAN_POINT('',(95.,0.,-12.75));
#1006 = VECTOR('',#1007,1.);
#1007 = DIRECTION('',(-1.,-0.,-0.));
#1008 = ORIENTED_EDGE('',*,*,#1009,.T.);
#1009 = EDGE_CURVE('',#1002,#1010,#1012,.T.);
#1010 = VERTEX_POINT('',#1011);
#1011 = CARTESIAN_POINT('',(93.,3.E-15,-6.75));
#1012 = LINE('',#1013,#1014);
#1013 = CARTESIAN_POINT('',(93.,2.83E-15,-12.75));
#1014 = VECTOR('',#1015,1.);
#1015 = DIRECTION('',(0.,0.,1.));
#1016 = ORIENTED_EDGE('',*,*,#1017,.F.);
#1017 = EDGE_CURVE('',#1018,#1010,#1020,.T.);
#1018 = VERTEX_POINT('',#1019);
#1019 = CARTESIAN_POINT('',(82.535623639735,3.E-15,-6.75));
#1020 = LINE('',#1021,#1022);
#1021 = CARTESIAN_POINT('',(58.,3.E-15,-6.75));
#1022 = VECTOR('',#1023,1.);
#1023 = DIRECTION('',(1.,0.,0.));
#1024 = ORIENTED_EDGE('',*,*,#1025,.F.);
#1025 = EDGE_CURVE('',#1026,#1018,#1028,.T.);
#1026 = VERTEX_POINT('',#1027);
#1027 = CARTESIAN_POINT('',(82.535623639735,3.E-15,6.75));
#1028 = LINE('',#1029,#1030);
#1029 = CARTESIAN_POINT('',(82.535623639735,1.78E-15,-12.75));
#1030 = VECTOR('',#1031,1.);
#1031 = DIRECTION('',(-0.,-0.,-1.));
#1032 = ORIENTED_EDGE('',*,*,#1033,.T.);
#1033 = EDGE_CURVE('',#1026,#1034,#1036,.T.);
#1034 = VERTEX_POINT('',#1035);
#1035 = CARTESIAN_POINT('',(93.,3.E-15,6.75));
#1036 = LINE('',#1037,#1038);
#1037 = CARTESIAN_POINT('',(58.,3.E-15,6.75));
#1038 = VECTOR('',#1039,1.);
#1039 = DIRECTION('',(1.,0.,0.));
#1040 = ORIENTED_EDGE('',*,*,#1041,.F.);
#1041 = EDGE_CURVE('',#1042,#1034,#1044,.T.);
#1042 = VERTEX_POINT('',#1043);
#1043 = CARTESIAN_POINT('',(93.,3.E-15,12.75));
#1044 = LINE('',#1045,#1046);
#1045 = CARTESIAN_POINT('',(93.,2.83E-15,12.75));
#1046 = VECTOR('',#1047,1.);
#1047 = DIRECTION('',(-0.,-0.,-1.));
#1048 = ORIENTED_EDGE('',*,*,#1049,.T.);
#1049 = EDGE_CURVE('',#1042,#1050,#1052,.T.);
#1050 = VERTEX_POINT('',#1051);
#1051 = CARTESIAN_POINT('',(82.535623639735,-1.86E-13,12.75));
#1052 = LINE('',#1053,#1054);
#1053 = CARTESIAN_POINT('',(95.,0.,12.75));
#1054 = VECTOR('',#1055,1.);
#1055 = DIRECTION('',(-1.,0.,0.));
#1056 = ORIENTED_EDGE('',*,*,#1057,.T.);
#1057 = EDGE_CURVE('',#1050,#1058,#1060,.T.);
#1058 = VERTEX_POINT('',#1059);
#1059 = CARTESIAN_POINT('',(82.535623639735,-1.86E-13,14.75));
#1060 = LINE('',#1061,#1062);
#1061 = CARTESIAN_POINT('',(82.535623639735,-1.8607E-13,12.75));
#1062 = VECTOR('',#1063,1.);
#1063 = DIRECTION('',(0.,0.,1.));
#1064 = ORIENTED_EDGE('',*,*,#1065,.T.);
#1065 = EDGE_CURVE('',#1058,#1066,#1068,.T.);
#1066 = VERTEX_POINT('',#1067);
#1067 = CARTESIAN_POINT('',(68.464376360265,-1.83E-13,14.75));
#1068 = LINE('',#1069,#1070);
#1069 = CARTESIAN_POINT('',(95.,0.,14.75));
#1070 = VECTOR('',#1071,1.);
#1071 = DIRECTION('',(-1.,0.,0.));
#1072 = ORIENTED_EDGE('',*,*,#1073,.F.);
#1073 = EDGE_CURVE('',#1074,#1066,#1076,.T.);
#1074 = VERTEX_POINT('',#1075);
#1075 = CARTESIAN_POINT('',(68.464376360265,-1.83E-13,12.75));
#1076 = LINE('',#1077,#1078);
#1077 = CARTESIAN_POINT('',(68.464376360265,-1.8341E-13,12.75));
#1078 = VECTOR('',#1079,1.);
#1079 = DIRECTION('',(0.,0.,1.));
#1080 = ORIENTED_EDGE('',*,*,#1081,.T.);
#1081 = EDGE_CURVE('',#1074,#1082,#1084,.T.);
#1082 = VERTEX_POINT('',#1083);
#1083 = CARTESIAN_POINT('',(58.,3.E-15,12.75));
#1084 = LINE('',#1085,#1086);
#1085 = CARTESIAN_POINT('',(95.,0.,12.75));
#1086 = VECTOR('',#1087,1.);
#1087 = DIRECTION('',(-1.,0.,0.));
#1088 = ORIENTED_EDGE('',*,*,#1089,.T.);
#1089 = EDGE_CURVE('',#1082,#1090,#1092,.T.);
#1090 = VERTEX_POINT('',#1091);
#1091 = CARTESIAN_POINT('',(58.,3.E-15,6.75));
#1092 = LINE('',#1093,#1094);
#1093 = CARTESIAN_POINT('',(58.,2.83E-15,12.75));
#1094 = VECTOR('',#1095,1.);
#1095 = DIRECTION('',(-0.,-0.,-1.));
#1096 = ORIENTED_EDGE('',*,*,#1097,.T.);
#1097 = EDGE_CURVE('',#1090,#946,#1098,.T.);
#1098 = LINE('',#1099,#1100);
#1099 = CARTESIAN_POINT('',(58.,3.E-15,6.75));
#1100 = VECTOR('',#1101,1.);
#1101 = DIRECTION('',(1.,0.,0.));
#1102 = FACE_BOUND('',#1103,.T.);
#1103 = EDGE_LOOP('',(#1104));
#1104 = ORIENTED_EDGE('',*,*,#846,.T.);
#1105 = FACE_BOUND('',#1106,.T.);
#1106 = EDGE_LOOP('',(#1107));
#1107 = ORIENTED_EDGE('',*,*,#596,.T.);
#1108 = FACE_BOUND('',#1109,.T.);
#1109 = EDGE_LOOP('',(#1110));
#1110 = ORIENTED_EDGE('',*,*,#1111,.T.);
#1111 = EDGE_CURVE('',#1112,#1112,#1114,.T.);
#1112 = VERTEX_POINT('',#1113);
#1113 = CARTESIAN_POINT('',(22.23,0.,11.9));
#1114 = CIRCLE('',#1115,2.6);
#1115 = AXIS2_PLACEMENT_3D('',#1116,#1117,#1118);
#1116 = CARTESIAN_POINT('',(19.63,0.,11.9));
#1117 = DIRECTION('',(0.,-1.,2.2E-16));
#1118 = DIRECTION('',(1.,0.,0.));
#1119 = FACE_BOUND('',#1120,.T.);
#1120 = EDGE_LOOP('',(#1121));
#1121 = ORIENTED_EDGE('',*,*,#1122,.T.);
#1122 = EDGE_CURVE('',#1123,#1123,#1125,.T.);
#1123 = VERTEX_POINT('',#1124);
#1124 = CARTESIAN_POINT('',(42.23,0.,11.9));
#1125 = CIRCLE('',#1126,2.6);
#1126 = AXIS2_PLACEMENT_3D('',#1127,#1128,#1129);
#1127 = CARTESIAN_POINT('',(39.63,0.,11.9));
#1128 = DIRECTION('',(0.,-1.,2.2E-16));
#1129 = DIRECTION('',(1.,0.,0.));
#1130 = FACE_BOUND('',#1131,.T.);
#1131 = EDGE_LOOP('',(#1132));
#1132 = ORIENTED_EDGE('',*,*,#746,.T.);
#1133 = FACE_BOUND('',#1134,.T.);
#1134 = EDGE_LOOP('',(#1135));
#1135 = ORIENTED_EDGE('',*,*,#496,.T.);
#1136 = FACE_BOUND('',#1137,.T.);
#1137 = EDGE_LOOP('',(#1138));
#1138 = ORIENTED_EDGE('',*,*,#771,.T.);
#1139 = FACE_BOUND('',#1140,.T.);
#1140 = EDGE_LOOP('',(#1141));
#1141 = ORIENTED_EDGE('',*,*,#621,.T.);
#1142 = FACE_BOUND('',#1143,.T.);
#1143 = EDGE_LOOP('',(#1144));
#1144 = ORIENTED_EDGE('',*,*,#671,.T.);
#1145 = FACE_BOUND('',#1146,.T.);
#1146 = EDGE_LOOP('',(#1147));
#1147 = ORIENTED_EDGE('',*,*,#821,.T.);
#1148 = FACE_BOUND('',#1149,.T.);
#1149 = EDGE_LOOP('',(#1150));
#1150 = ORIENTED_EDGE('',*,*,#521,.T.);
#1151 = FACE_BOUND('',#1152,.T.);
#1152 = EDGE_LOOP('',(#1153));
#1153 = ORIENTED_EDGE('',*,*,#571,.T.);
#1154 = PLANE('',#1155);
#1155 = AXIS2_PLACEMENT_3D('',#1156,#1157,#1158);
#1156 = CARTESIAN_POINT('',(47.5,0.,-2.5));
#1157 = DIRECTION('',(0.,1.,0.));
#1158 = DIRECTION('',(0.,0.,1.));
#1159 = ADVANCED_FACE('',(#1160,#1166,#1169),#1172,.F.);
#1160 = FACE_BOUND('',#1161,.F.);
#1161 = EDGE_LOOP('',(#1162,#1163,#1164,#1165));
#1162 = ORIENTED_EDGE('',*,*,#464,.T.);
#1163 = ORIENTED_EDGE('',*,*,#447,.T.);
#1164 = ORIENTED_EDGE('',*,*,#391,.F.);
#1165 = ORIENTED_EDGE('',*,*,#345,.F.);
#1166 = FACE_BOUND('',#1167,.F.);
#1167 = EDGE_LOOP('',(#1168));
#1168 = ORIENTED_EDGE('',*,*,#721,.F.);
#1169 = FACE_BOUND('',#1170,.F.);
#1170 = EDGE_LOOP('',(#1171));
#1171 = ORIENTED_EDGE('',*,*,#696,.F.);
#1172 = PLANE('',#1173);
#1173 = AXIS2_PLACEMENT_3D('',#1174,#1175,#1176);
#1174 = CARTESIAN_POINT('',(95.,-2.,22.75));
#1175 = DIRECTION('',(0.,-1.,0.));
#1176 = DIRECTION('',(-1.,0.,0.));
#1177 = ADVANCED_FACE('',(#1178,#1181),#1192,.F.);
#1178 = FACE_BOUND('',#1179,.F.);
#1179 = EDGE_LOOP('',(#1180));
#1180 = ORIENTED_EDGE('',*,*,#545,.F.);
#1181 = FACE_BOUND('',#1182,.F.);
#1182 = EDGE_LOOP('',(#1183));
#1183 = ORIENTED_EDGE('',*,*,#1184,.T.);
#1184 = EDGE_CURVE('',#1185,#1185,#1187,.T.);
#1185 = VERTEX_POINT('',#1186);
#1186 = CARTESIAN_POINT('',(22.23,-2.5,11.9));
#1187 = CIRCLE('',#1188,2.6);
#1188 = AXIS2_PLACEMENT_3D('',#1189,#1190,#1191);
#1189 = CARTESIAN_POINT('',(19.63,-2.5,11.9));
#1190 = DIRECTION('',(0.,-1.,2.2E-16));
#1191 = DIRECTION('',(1.,0.,0.));
#1192 = PLANE('',#1193);
#1193 = AXIS2_PLACEMENT_3D('',#1194,#1195,#1196);
#1194 = CARTESIAN_POINT('',(29.63,-2.5,11.9));
#1195 = DIRECTION('',(0.,1.,-2.3E-16));
#1196 = DIRECTION('',(0.,2.3E-16,1.));
#1197 = ADVANCED_FACE('',(#1198,#1201),#1212,.F.);
#1198 = FACE_BOUND('',#1199,.F.);
#1199 = EDGE_LOOP('',(#1200));
#1200 = ORIENTED_EDGE('',*,*,#645,.F.);
#1201 = FACE_BOUND('',#1202,.F.);
#1202 = EDGE_LOOP('',(#1203));
#1203 = ORIENTED_EDGE('',*,*,#1204,.T.);
#1204 = EDGE_CURVE('',#1205,#1205,#1207,.T.);
#1205 = VERTEX_POINT('',#1206);
#1206 = CARTESIAN_POINT('',(42.23,-2.5,11.9));
#1207 = CIRCLE('',#1208,2.6);
#1208 = AXIS2_PLACEMENT_3D('',#1209,#1210,#1211);
#1209 = CARTESIAN_POINT('',(39.63,-2.5,11.9));
#1210 = DIRECTION('',(0.,-1.,2.2E-16));
#1211 = DIRECTION('',(1.,0.,0.));
#1212 = PLANE('',#1213);
#1213 = AXIS2_PLACEMENT_3D('',#1214,#1215,#1216);
#1214 = CARTESIAN_POINT('',(29.63,-2.5,11.9));
#1215 = DIRECTION('',(0.,1.,-2.3E-16));
#1216 = DIRECTION('',(0.,2.3E-16,1.));
#1217 = ADVANCED_FACE('',(#1218,#1221),#1232,.F.);
#1218 = FACE_BOUND('',#1219,.F.);
#1219 = EDGE_LOOP('',(#1220));
#1220 = ORIENTED_EDGE('',*,*,#795,.F.);
#1221 = FACE_BOUND('',#1222,.F.);
#1222 = EDGE_LOOP('',(#1223));
#1223 = ORIENTED_EDGE('',*,*,#1224,.F.);
#1224 = EDGE_CURVE('',#1225,#1225,#1227,.T.);
#1225 = VERTEX_POINT('',#1226);
#1226 = CARTESIAN_POINT('',(58.75,-4.5,9.75));
#1227 = CIRCLE('',#1228,1.6);
#1228 = AXIS2_PLACEMENT_3D('',#1229,#1230,#1231);
#1229 = CARTESIAN_POINT('',(60.35,-4.5,9.75));
#1230 = DIRECTION('',(0.,1.,-2.2E-16));
#1231 = DIRECTION('',(-1.,0.,0.));
#1232 = PLANE('',#1233);
#1233 = AXIS2_PLACEMENT_3D('',#1234,#1235,#1236);
#1234 = CARTESIAN_POINT('',(75.5,-4.5,9.75));
#1235 = DIRECTION('',(0.,1.,0.));
#1236 = DIRECTION('',(0.,0.,1.));
#1237 = ADVANCED_FACE('',(#1238,#1241),#1252,.F.);
#1238 = FACE_BOUND('',#1239,.F.);
#1239 = EDGE_LOOP('',(#1240));
#1240 = ORIENTED_EDGE('',*,*,#870,.F.);
#1241 = FACE_BOUND('',#1242,.F.);
#1242 = EDGE_LOOP('',(#1243));
#1243 = ORIENTED_EDGE('',*,*,#1244,.F.);
#1244 = EDGE_CURVE('',#1245,#1245,#1247,.T.);
#1245 = VERTEX_POINT('',#1246);
#1246 = CARTESIAN_POINT('',(89.05,-4.5,9.75));
#1247 = CIRCLE('',#1248,1.6);
#1248 = AXIS2_PLACEMENT_3D('',#1249,#1250,#1251);
#1249 = CARTESIAN_POINT('',(90.65,-4.5,9.75));
#1250 = DIRECTION('',(0.,1.,-2.2E-16));
#1251 = DIRECTION('',(-1.,0.,0.));
#1252 = PLANE('',#1253);
#1253 = AXIS2_PLACEMENT_3D('',#1254,#1255,#1256);
#1254 = CARTESIAN_POINT('',(75.5,-4.5,9.75));
#1255 = DIRECTION('',(0.,1.,0.));
#1256 = DIRECTION('',(0.,0.,1.));
#1257 = ADVANCED_FACE('',(#1258,#1261),#1272,.F.);
#1258 = FACE_BOUND('',#1259,.T.);
#1259 = EDGE_LOOP('',(#1260));
#1260 = ORIENTED_EDGE('',*,*,#895,.F.);
#1261 = FACE_BOUND('',#1262,.T.);
#1262 = EDGE_LOOP('',(#1263));
#1263 = ORIENTED_EDGE('',*,*,#1264,.F.);
#1264 = EDGE_CURVE('',#1265,#1265,#1267,.T.);
#1265 = VERTEX_POINT('',#1266);
#1266 = CARTESIAN_POINT('',(89.05,-4.5,-9.75));
#1267 = CIRCLE('',#1268,1.6);
#1268 = AXIS2_PLACEMENT_3D('',#1269,#1270,#1271);
#1269 = CARTESIAN_POINT('',(90.65,-4.5,-9.75));
#1270 = DIRECTION('',(-0.,-1.,-2.2E-16));
#1271 = DIRECTION('',(-1.,0.,0.));
#1272 = PLANE('',#1273);
#1273 = AXIS2_PLACEMENT_3D('',#1274,#1275,#1276);
#1274 = CARTESIAN_POINT('',(75.5,-4.5,-9.75));
#1275 = DIRECTION('',(0.,1.,0.));
#1276 = DIRECTION('',(0.,0.,1.));
#1277 = ADVANCED_FACE('',(#1278,#1312),#1315,.T.);
#1278 = FACE_BOUND('',#1279,.F.);
#1279 = EDGE_LOOP('',(#1280,#1290,#1298,#1306));
#1280 = ORIENTED_EDGE('',*,*,#1281,.F.);
#1281 = EDGE_CURVE('',#1282,#1284,#1286,.T.);
#1282 = VERTEX_POINT('',#1283);
#1283 = CARTESIAN_POINT('',(66.013167019495,4.5,-12.75));
#1284 = VERTEX_POINT('',#1285);
#1285 = CARTESIAN_POINT('',(58.,4.5,-12.75));
#1286 = LINE('',#1287,#1288);
#1287 = CARTESIAN_POINT('',(93.,4.5,-12.75));
#1288 = VECTOR('',#1289,1.);
#1289 = DIRECTION('',(-1.,-0.,-0.));
#1290 = ORIENTED_EDGE('',*,*,#1291,.F.);
#1291 = EDGE_CURVE('',#1292,#1282,#1294,.T.);
#1292 = VERTEX_POINT('',#1293);
#1293 = CARTESIAN_POINT('',(66.013167019495,4.5,-6.75));
#1294 = LINE('',#1295,#1296);
#1295 = CARTESIAN_POINT('',(66.013167019495,4.5,-12.75));
#1296 = VECTOR('',#1297,1.);
#1297 = DIRECTION('',(-0.,-0.,-1.));
#1298 = ORIENTED_EDGE('',*,*,#1299,.T.);
#1299 = EDGE_CURVE('',#1292,#1300,#1302,.T.);
#1300 = VERTEX_POINT('',#1301);
#1301 = CARTESIAN_POINT('',(58.,4.5,-6.75));
#1302 = LINE('',#1303,#1304);
#1303 = CARTESIAN_POINT('',(93.,4.5,-6.75));
#1304 = VECTOR('',#1305,1.);
#1305 = DIRECTION('',(-1.,-0.,-0.));
#1306 = ORIENTED_EDGE('',*,*,#1307,.F.);
#1307 = EDGE_CURVE('',#1284,#1300,#1308,.T.);
#1308 = LINE('',#1309,#1310);
#1309 = CARTESIAN_POINT('',(58.,4.5,-12.75));
#1310 = VECTOR('',#1311,1.);
#1311 = DIRECTION('',(0.,0.,1.));
#1312 = FACE_BOUND('',#1313,.F.);
#1313 = EDGE_LOOP('',(#1314));
#1314 = ORIENTED_EDGE('',*,*,#920,.F.);
#1315 = PLANE('',#1316);
#1316 = AXIS2_PLACEMENT_3D('',#1317,#1318,#1319);
#1317 = CARTESIAN_POINT('',(93.,4.5,-12.75));
#1318 = DIRECTION('',(0.,1.,0.));
#1319 = DIRECTION('',(1.,0.,0.));
#1320 = ADVANCED_FACE('',(#1321),#1430,.F.);
#1321 = FACE_BOUND('',#1322,.F.);
#1322 = EDGE_LOOP('',(#1323,#1324,#1333,#1341,#1348,#1349,#1358,#1366,
    #1373,#1374,#1381,#1382,#1391,#1399,#1406,#1407,#1414,#1415,#1422,
    #1423));
#1323 = ORIENTED_EDGE('',*,*,#993,.F.);
#1324 = ORIENTED_EDGE('',*,*,#1325,.T.);
#1325 = EDGE_CURVE('',#994,#1326,#1328,.T.);
#1326 = VERTEX_POINT('',#1327);
#1327 = CARTESIAN_POINT('',(84.986832980505,4.5,-12.75));
#1328 = CIRCLE('',#1329,9.75);
#1329 = AXIS2_PLACEMENT_3D('',#1330,#1331,#1332);
#1330 = CARTESIAN_POINT('',(75.5,6.75,-12.75));
#1331 = DIRECTION('',(0.,0.,1.));
#1332 = DIRECTION('',(1.,0.,0.));
#1333 = ORIENTED_EDGE('',*,*,#1334,.F.);
#1334 = EDGE_CURVE('',#1335,#1326,#1337,.T.);
#1335 = VERTEX_POINT('',#1336);
#1336 = CARTESIAN_POINT('',(84.986832980505,4.5,-6.75));
#1337 = LINE('',#1338,#1339);
#1338 = CARTESIAN_POINT('',(84.986832980505,4.5,-12.75));
#1339 = VECTOR('',#1340,1.);
#1340 = DIRECTION('',(-0.,-0.,-1.));
#1341 = ORIENTED_EDGE('',*,*,#1342,.F.);
#1342 = EDGE_CURVE('',#1018,#1335,#1343,.T.);
#1343 = CIRCLE('',#1344,9.75);
#1344 = AXIS2_PLACEMENT_3D('',#1345,#1346,#1347);
#1345 = CARTESIAN_POINT('',(75.5,6.75,-6.75));
#1346 = DIRECTION('',(0.,0.,1.));
#1347 = DIRECTION('',(1.,0.,0.));
#1348 = ORIENTED_EDGE('',*,*,#1025,.F.);
#1349 = ORIENTED_EDGE('',*,*,#1350,.T.);
#1350 = EDGE_CURVE('',#1026,#1351,#1353,.T.);
#1351 = VERTEX_POINT('',#1352);
#1352 = CARTESIAN_POINT('',(84.986832980505,4.5,6.75));
#1353 = CIRCLE('',#1354,9.75);
#1354 = AXIS2_PLACEMENT_3D('',#1355,#1356,#1357);
#1355 = CARTESIAN_POINT('',(75.5,6.75,6.75));
#1356 = DIRECTION('',(0.,0.,1.));
#1357 = DIRECTION('',(1.,0.,0.));
#1358 = ORIENTED_EDGE('',*,*,#1359,.T.);
#1359 = EDGE_CURVE('',#1351,#1360,#1362,.T.);
#1360 = VERTEX_POINT('',#1361);
#1361 = CARTESIAN_POINT('',(84.986832980505,4.5,12.75));
#1362 = LINE('',#1363,#1364);
#1363 = CARTESIAN_POINT('',(84.986832980505,4.5,12.75));
#1364 = VECTOR('',#1365,1.);
#1365 = DIRECTION('',(0.,0.,1.));
#1366 = ORIENTED_EDGE('',*,*,#1367,.F.);
#1367 = EDGE_CURVE('',#1050,#1360,#1368,.T.);
#1368 = CIRCLE('',#1369,9.75);
#1369 = AXIS2_PLACEMENT_3D('',#1370,#1371,#1372);
#1370 = CARTESIAN_POINT('',(75.5,6.75,12.75));
#1371 = DIRECTION('',(0.,0.,1.));
#1372 = DIRECTION('',(1.,0.,0.));
#1373 = ORIENTED_EDGE('',*,*,#1057,.T.);
#1374 = ORIENTED_EDGE('',*,*,#1375,.F.);
#1375 = EDGE_CURVE('',#1066,#1058,#1376,.T.);
#1376 = CIRCLE('',#1377,9.75);
#1377 = AXIS2_PLACEMENT_3D('',#1378,#1379,#1380);
#1378 = CARTESIAN_POINT('',(75.5,6.75,14.75));
#1379 = DIRECTION('',(0.,0.,1.));
#1380 = DIRECTION('',(1.,0.,0.));
#1381 = ORIENTED_EDGE('',*,*,#1073,.F.);
#1382 = ORIENTED_EDGE('',*,*,#1383,.F.);
#1383 = EDGE_CURVE('',#1384,#1074,#1386,.T.);
#1384 = VERTEX_POINT('',#1385);
#1385 = CARTESIAN_POINT('',(66.013167019495,4.5,12.75));
#1386 = CIRCLE('',#1387,9.75);
#1387 = AXIS2_PLACEMENT_3D('',#1388,#1389,#1390);
#1388 = CARTESIAN_POINT('',(75.5,6.75,12.75));
#1389 = DIRECTION('',(0.,0.,1.));
#1390 = DIRECTION('',(1.,0.,0.));
#1391 = ORIENTED_EDGE('',*,*,#1392,.F.);
#1392 = EDGE_CURVE('',#1393,#1384,#1395,.T.);
#1393 = VERTEX_POINT('',#1394);
#1394 = CARTESIAN_POINT('',(66.013167019495,4.5,6.75));
#1395 = LINE('',#1396,#1397);
#1396 = CARTESIAN_POINT('',(66.013167019495,4.5,12.75));
#1397 = VECTOR('',#1398,1.);
#1398 = DIRECTION('',(0.,0.,1.));
#1399 = ORIENTED_EDGE('',*,*,#1400,.T.);
#1400 = EDGE_CURVE('',#1393,#946,#1401,.T.);
#1401 = CIRCLE('',#1402,9.75);
#1402 = AXIS2_PLACEMENT_3D('',#1403,#1404,#1405);
#1403 = CARTESIAN_POINT('',(75.5,6.75,6.75));
#1404 = DIRECTION('',(0.,0.,1.));
#1405 = DIRECTION('',(1.,0.,0.));
#1406 = ORIENTED_EDGE('',*,*,#943,.F.);
#1407 = ORIENTED_EDGE('',*,*,#1408,.F.);
#1408 = EDGE_CURVE('',#1292,#944,#1409,.T.);
#1409 = CIRCLE('',#1410,9.75);
#1410 = AXIS2_PLACEMENT_3D('',#1411,#1412,#1413);
#1411 = CARTESIAN_POINT('',(75.5,6.75,-6.75));
#1412 = DIRECTION('',(0.,0.,1.));
#1413 = DIRECTION('',(1.,0.,0.));
#1414 = ORIENTED_EDGE('',*,*,#1291,.T.);
#1415 = ORIENTED_EDGE('',*,*,#1416,.T.);
#1416 = EDGE_CURVE('',#1282,#970,#1417,.T.);
#1417 = CIRCLE('',#1418,9.75);
#1418 = AXIS2_PLACEMENT_3D('',#1419,#1420,#1421);
#1419 = CARTESIAN_POINT('',(75.5,6.75,-12.75));
#1420 = DIRECTION('',(0.,0.,1.));
#1421 = DIRECTION('',(1.,0.,0.));
#1422 = ORIENTED_EDGE('',*,*,#977,.T.);
#1423 = ORIENTED_EDGE('',*,*,#1424,.T.);
#1424 = EDGE_CURVE('',#978,#986,#1425,.T.);
#1425 = CIRCLE('',#1426,9.75);
#1426 = AXIS2_PLACEMENT_3D('',#1427,#1428,#1429);
#1427 = CARTESIAN_POINT('',(75.5,6.75,-14.75));
#1428 = DIRECTION('',(0.,0.,1.));
#1429 = DIRECTION('',(1.,0.,0.));
#1430 = CYLINDRICAL_SURFACE('',#1431,9.75);
#1431 = AXIS2_PLACEMENT_3D('',#1432,#1433,#1434);
#1432 = CARTESIAN_POINT('',(75.5,6.75,12.75));
#1433 = DIRECTION('',(0.,0.,1.));
#1434 = DIRECTION('',(1.,0.,0.));
#1435 = ADVANCED_FACE('',(#1436),#1447,.F.);
#1436 = FACE_BOUND('',#1437,.T.);
#1437 = EDGE_LOOP('',(#1438,#1444,#1445,#1446));
#1438 = ORIENTED_EDGE('',*,*,#1439,.T.);
#1439 = EDGE_CURVE('',#1300,#954,#1440,.T.);
#1440 = LINE('',#1441,#1442);
#1441 = CARTESIAN_POINT('',(58.,4.5,-6.75));
#1442 = VECTOR('',#1443,1.);
#1443 = DIRECTION('',(-0.,-1.,-0.));
#1444 = ORIENTED_EDGE('',*,*,#953,.T.);
#1445 = ORIENTED_EDGE('',*,*,#1408,.F.);
#1446 = ORIENTED_EDGE('',*,*,#1299,.T.);
#1447 = PLANE('',#1448);
#1448 = AXIS2_PLACEMENT_3D('',#1449,#1450,#1451);
#1449 = CARTESIAN_POINT('',(75.5,2.25,-6.75));
#1450 = DIRECTION('',(-0.,-0.,-1.));
#1451 = DIRECTION('',(-1.,-0.,-0.));
#1452 = ADVANCED_FACE('',(#1453),#1464,.T.);
#1453 = FACE_BOUND('',#1454,.F.);
#1454 = EDGE_LOOP('',(#1455,#1456,#1457,#1458));
#1455 = ORIENTED_EDGE('',*,*,#1307,.T.);
#1456 = ORIENTED_EDGE('',*,*,#1439,.T.);
#1457 = ORIENTED_EDGE('',*,*,#961,.F.);
#1458 = ORIENTED_EDGE('',*,*,#1459,.F.);
#1459 = EDGE_CURVE('',#1284,#962,#1460,.T.);
#1460 = LINE('',#1461,#1462);
#1461 = CARTESIAN_POINT('',(58.,4.5,-12.75));
#1462 = VECTOR('',#1463,1.);
#1463 = DIRECTION('',(-0.,-1.,-0.));
#1464 = PLANE('',#1465);
#1465 = AXIS2_PLACEMENT_3D('',#1466,#1467,#1468);
#1466 = CARTESIAN_POINT('',(58.,4.5,-12.75));
#1467 = DIRECTION('',(-1.,-0.,-0.));
#1468 = DIRECTION('',(0.,1.,0.));
#1469 = ADVANCED_FACE('',(#1470),#1476,.T.);
#1470 = FACE_BOUND('',#1471,.F.);
#1471 = EDGE_LOOP('',(#1472,#1473,#1474,#1475));
#1472 = ORIENTED_EDGE('',*,*,#969,.F.);
#1473 = ORIENTED_EDGE('',*,*,#1416,.F.);
#1474 = ORIENTED_EDGE('',*,*,#1281,.T.);
#1475 = ORIENTED_EDGE('',*,*,#1459,.T.);
#1476 = PLANE('',#1477);
#1477 = AXIS2_PLACEMENT_3D('',#1478,#1479,#1480);
#1478 = CARTESIAN_POINT('',(48.672093023256,-3.005813953488,-12.75));
#1479 = DIRECTION('',(-0.,-0.,-1.));
#1480 = DIRECTION('',(-1.,-0.,-0.));
#1481 = ADVANCED_FACE('',(#1482),#1486,.F.);
#1482 = FACE_BOUND('',#1483,.T.);
#1483 = EDGE_LOOP('',(#1484,#1485));
#1484 = ORIENTED_EDGE('',*,*,#985,.T.);
#1485 = ORIENTED_EDGE('',*,*,#1424,.T.);
#1486 = PLANE('',#1487);
#1487 = AXIS2_PLACEMENT_3D('',#1488,#1489,#1490);
#1488 = CARTESIAN_POINT('',(47.5,-4.,-14.75));
#1489 = DIRECTION('',(-0.,-0.,-1.));
#1490 = DIRECTION('',(-1.,-0.,-0.));
#1491 = ADVANCED_FACE('',(#1492),#1510,.T.);
#1492 = FACE_BOUND('',#1493,.F.);
#1493 = EDGE_LOOP('',(#1494,#1495,#1503,#1509));
#1494 = ORIENTED_EDGE('',*,*,#1001,.F.);
#1495 = ORIENTED_EDGE('',*,*,#1496,.T.);
#1496 = EDGE_CURVE('',#1002,#1497,#1499,.T.);
#1497 = VERTEX_POINT('',#1498);
#1498 = CARTESIAN_POINT('',(93.,4.5,-12.75));
#1499 = LINE('',#1500,#1501);
#1500 = CARTESIAN_POINT('',(93.,3.E-15,-12.75));
#1501 = VECTOR('',#1502,1.);
#1502 = DIRECTION('',(0.,1.,0.));
#1503 = ORIENTED_EDGE('',*,*,#1504,.T.);
#1504 = EDGE_CURVE('',#1497,#1326,#1505,.T.);
#1505 = LINE('',#1506,#1507);
#1506 = CARTESIAN_POINT('',(93.,4.5,-12.75));
#1507 = VECTOR('',#1508,1.);
#1508 = DIRECTION('',(-1.,-0.,-0.));
#1509 = ORIENTED_EDGE('',*,*,#1325,.F.);
#1510 = PLANE('',#1511);
#1511 = AXIS2_PLACEMENT_3D('',#1512,#1513,#1514);
#1512 = CARTESIAN_POINT('',(48.672093023256,-3.005813953488,-12.75));
#1513 = DIRECTION('',(-0.,-0.,-1.));
#1514 = DIRECTION('',(-1.,-0.,-0.));
#1515 = ADVANCED_FACE('',(#1516),#1534,.T.);
#1516 = FACE_BOUND('',#1517,.F.);
#1517 = EDGE_LOOP('',(#1518,#1519,#1527,#1533));
#1518 = ORIENTED_EDGE('',*,*,#1009,.T.);
#1519 = ORIENTED_EDGE('',*,*,#1520,.T.);
#1520 = EDGE_CURVE('',#1010,#1521,#1523,.T.);
#1521 = VERTEX_POINT('',#1522);
#1522 = CARTESIAN_POINT('',(93.,4.5,-6.75));
#1523 = LINE('',#1524,#1525);
#1524 = CARTESIAN_POINT('',(93.,3.E-15,-6.75));
#1525 = VECTOR('',#1526,1.);
#1526 = DIRECTION('',(0.,1.,0.));
#1527 = ORIENTED_EDGE('',*,*,#1528,.F.);
#1528 = EDGE_CURVE('',#1497,#1521,#1529,.T.);
#1529 = LINE('',#1530,#1531);
#1530 = CARTESIAN_POINT('',(93.,4.5,-12.75));
#1531 = VECTOR('',#1532,1.);
#1532 = DIRECTION('',(0.,0.,1.));
#1533 = ORIENTED_EDGE('',*,*,#1496,.F.);
#1534 = PLANE('',#1535);
#1535 = AXIS2_PLACEMENT_3D('',#1536,#1537,#1538);
#1536 = CARTESIAN_POINT('',(93.,2.83E-15,-12.75));
#1537 = DIRECTION('',(1.,0.,0.));
#1538 = DIRECTION('',(0.,-1.,0.));
#1539 = ADVANCED_FACE('',(#1540),#1551,.F.);
#1540 = FACE_BOUND('',#1541,.T.);
#1541 = EDGE_LOOP('',(#1542,#1543,#1544,#1545));
#1542 = ORIENTED_EDGE('',*,*,#1342,.F.);
#1543 = ORIENTED_EDGE('',*,*,#1017,.T.);
#1544 = ORIENTED_EDGE('',*,*,#1520,.T.);
#1545 = ORIENTED_EDGE('',*,*,#1546,.T.);
#1546 = EDGE_CURVE('',#1521,#1335,#1547,.T.);
#1547 = LINE('',#1548,#1549);
#1548 = CARTESIAN_POINT('',(93.,4.5,-6.75));
#1549 = VECTOR('',#1550,1.);
#1550 = DIRECTION('',(-1.,-0.,-0.));
#1551 = PLANE('',#1552);
#1552 = AXIS2_PLACEMENT_3D('',#1553,#1554,#1555);
#1553 = CARTESIAN_POINT('',(75.5,2.25,-6.75));
#1554 = DIRECTION('',(-0.,-0.,-1.));
#1555 = DIRECTION('',(-1.,-0.,-0.));
#1556 = ADVANCED_FACE('',(#1557),#1575,.F.);
#1557 = FACE_BOUND('',#1558,.F.);
#1558 = EDGE_LOOP('',(#1559,#1560,#1561,#1569));
#1559 = ORIENTED_EDGE('',*,*,#1350,.F.);
#1560 = ORIENTED_EDGE('',*,*,#1033,.T.);
#1561 = ORIENTED_EDGE('',*,*,#1562,.T.);
#1562 = EDGE_CURVE('',#1034,#1563,#1565,.T.);
#1563 = VERTEX_POINT('',#1564);
#1564 = CARTESIAN_POINT('',(93.,4.5,6.75));
#1565 = LINE('',#1566,#1567);
#1566 = CARTESIAN_POINT('',(93.,3.E-15,6.75));
#1567 = VECTOR('',#1568,1.);
#1568 = DIRECTION('',(0.,1.,0.));
#1569 = ORIENTED_EDGE('',*,*,#1570,.T.);
#1570 = EDGE_CURVE('',#1563,#1351,#1571,.T.);
#1571 = LINE('',#1572,#1573);
#1572 = CARTESIAN_POINT('',(93.,4.5,6.75));
#1573 = VECTOR('',#1574,1.);
#1574 = DIRECTION('',(-1.,0.,0.));
#1575 = PLANE('',#1576);
#1576 = AXIS2_PLACEMENT_3D('',#1577,#1578,#1579);
#1577 = CARTESIAN_POINT('',(75.5,2.25,6.75));
#1578 = DIRECTION('',(0.,0.,1.));
#1579 = DIRECTION('',(1.,0.,0.));
#1580 = ADVANCED_FACE('',(#1581),#1599,.T.);
#1581 = FACE_BOUND('',#1582,.T.);
#1582 = EDGE_LOOP('',(#1583,#1584,#1585,#1593));
#1583 = ORIENTED_EDGE('',*,*,#1041,.T.);
#1584 = ORIENTED_EDGE('',*,*,#1562,.T.);
#1585 = ORIENTED_EDGE('',*,*,#1586,.F.);
#1586 = EDGE_CURVE('',#1587,#1563,#1589,.T.);
#1587 = VERTEX_POINT('',#1588);
#1588 = CARTESIAN_POINT('',(93.,4.5,12.75));
#1589 = LINE('',#1590,#1591);
#1590 = CARTESIAN_POINT('',(93.,4.5,12.75));
#1591 = VECTOR('',#1592,1.);
#1592 = DIRECTION('',(-0.,-0.,-1.));
#1593 = ORIENTED_EDGE('',*,*,#1594,.F.);
#1594 = EDGE_CURVE('',#1042,#1587,#1595,.T.);
#1595 = LINE('',#1596,#1597);
#1596 = CARTESIAN_POINT('',(93.,3.E-15,12.75));
#1597 = VECTOR('',#1598,1.);
#1598 = DIRECTION('',(0.,1.,0.));
#1599 = PLANE('',#1600);
#1600 = AXIS2_PLACEMENT_3D('',#1601,#1602,#1603);
#1601 = CARTESIAN_POINT('',(93.,2.83E-15,12.75));
#1602 = DIRECTION('',(1.,0.,0.));
#1603 = DIRECTION('',(0.,1.,0.));
#1604 = ADVANCED_FACE('',(#1605),#1616,.T.);
#1605 = FACE_BOUND('',#1606,.T.);
#1606 = EDGE_LOOP('',(#1607,#1608,#1609,#1615));
#1607 = ORIENTED_EDGE('',*,*,#1049,.F.);
#1608 = ORIENTED_EDGE('',*,*,#1594,.T.);
#1609 = ORIENTED_EDGE('',*,*,#1610,.T.);
#1610 = EDGE_CURVE('',#1587,#1360,#1611,.T.);
#1611 = LINE('',#1612,#1613);
#1612 = CARTESIAN_POINT('',(93.,4.5,12.75));
#1613 = VECTOR('',#1614,1.);
#1614 = DIRECTION('',(-1.,0.,0.));
#1615 = ORIENTED_EDGE('',*,*,#1367,.F.);
#1616 = PLANE('',#1617);
#1617 = AXIS2_PLACEMENT_3D('',#1618,#1619,#1620);
#1618 = CARTESIAN_POINT('',(48.672093023256,-3.005813953488,12.75));
#1619 = DIRECTION('',(0.,0.,1.));
#1620 = DIRECTION('',(1.,0.,0.));
#1621 = ADVANCED_FACE('',(#1622),#1626,.F.);
#1622 = FACE_BOUND('',#1623,.F.);
#1623 = EDGE_LOOP('',(#1624,#1625));
#1624 = ORIENTED_EDGE('',*,*,#1065,.T.);
#1625 = ORIENTED_EDGE('',*,*,#1375,.T.);
#1626 = PLANE('',#1627);
#1627 = AXIS2_PLACEMENT_3D('',#1628,#1629,#1630);
#1628 = CARTESIAN_POINT('',(47.5,-4.,14.75));
#1629 = DIRECTION('',(0.,0.,1.));
#1630 = DIRECTION('',(1.,0.,0.));
#1631 = ADVANCED_FACE('',(#1632),#1650,.T.);
#1632 = FACE_BOUND('',#1633,.T.);
#1633 = EDGE_LOOP('',(#1634,#1635,#1636,#1644));
#1634 = ORIENTED_EDGE('',*,*,#1081,.F.);
#1635 = ORIENTED_EDGE('',*,*,#1383,.F.);
#1636 = ORIENTED_EDGE('',*,*,#1637,.T.);
#1637 = EDGE_CURVE('',#1384,#1638,#1640,.T.);
#1638 = VERTEX_POINT('',#1639);
#1639 = CARTESIAN_POINT('',(58.,4.5,12.75));
#1640 = LINE('',#1641,#1642);
#1641 = CARTESIAN_POINT('',(93.,4.5,12.75));
#1642 = VECTOR('',#1643,1.);
#1643 = DIRECTION('',(-1.,0.,0.));
#1644 = ORIENTED_EDGE('',*,*,#1645,.T.);
#1645 = EDGE_CURVE('',#1638,#1082,#1646,.T.);
#1646 = LINE('',#1647,#1648);
#1647 = CARTESIAN_POINT('',(58.,4.5,12.75));
#1648 = VECTOR('',#1649,1.);
#1649 = DIRECTION('',(0.,-1.,0.));
#1650 = PLANE('',#1651);
#1651 = AXIS2_PLACEMENT_3D('',#1652,#1653,#1654);
#1652 = CARTESIAN_POINT('',(48.672093023256,-3.005813953488,12.75));
#1653 = DIRECTION('',(0.,0.,1.));
#1654 = DIRECTION('',(1.,0.,0.));
#1655 = ADVANCED_FACE('',(#1656),#1674,.T.);
#1656 = FACE_BOUND('',#1657,.T.);
#1657 = EDGE_LOOP('',(#1658,#1666,#1672,#1673));
#1658 = ORIENTED_EDGE('',*,*,#1659,.T.);
#1659 = EDGE_CURVE('',#1638,#1660,#1662,.T.);
#1660 = VERTEX_POINT('',#1661);
#1661 = CARTESIAN_POINT('',(58.,4.5,6.75));
#1662 = LINE('',#1663,#1664);
#1663 = CARTESIAN_POINT('',(58.,4.5,12.75));
#1664 = VECTOR('',#1665,1.);
#1665 = DIRECTION('',(-0.,-0.,-1.));
#1666 = ORIENTED_EDGE('',*,*,#1667,.T.);
#1667 = EDGE_CURVE('',#1660,#1090,#1668,.T.);
#1668 = LINE('',#1669,#1670);
#1669 = CARTESIAN_POINT('',(58.,4.5,6.75));
#1670 = VECTOR('',#1671,1.);
#1671 = DIRECTION('',(0.,-1.,0.));
#1672 = ORIENTED_EDGE('',*,*,#1089,.F.);
#1673 = ORIENTED_EDGE('',*,*,#1645,.F.);
#1674 = PLANE('',#1675);
#1675 = AXIS2_PLACEMENT_3D('',#1676,#1677,#1678);
#1676 = CARTESIAN_POINT('',(58.,4.5,12.75));
#1677 = DIRECTION('',(-1.,0.,0.));
#1678 = DIRECTION('',(0.,-1.,0.));
#1679 = ADVANCED_FACE('',(#1680),#1691,.F.);
#1680 = FACE_BOUND('',#1681,.F.);
#1681 = EDGE_LOOP('',(#1682,#1683,#1684,#1685));
#1682 = ORIENTED_EDGE('',*,*,#1667,.T.);
#1683 = ORIENTED_EDGE('',*,*,#1097,.T.);
#1684 = ORIENTED_EDGE('',*,*,#1400,.F.);
#1685 = ORIENTED_EDGE('',*,*,#1686,.T.);
#1686 = EDGE_CURVE('',#1393,#1660,#1687,.T.);
#1687 = LINE('',#1688,#1689);
#1688 = CARTESIAN_POINT('',(93.,4.5,6.75));
#1689 = VECTOR('',#1690,1.);
#1690 = DIRECTION('',(-1.,0.,0.));
#1691 = PLANE('',#1692);
#1692 = AXIS2_PLACEMENT_3D('',#1693,#1694,#1695);
#1693 = CARTESIAN_POINT('',(75.5,2.25,6.75));
#1694 = DIRECTION('',(0.,0.,1.));
#1695 = DIRECTION('',(1.,0.,0.));
#1696 = ADVANCED_FACE('',(#1697),#1708,.F.);
#1697 = FACE_BOUND('',#1698,.F.);
#1698 = EDGE_LOOP('',(#1699,#1700,#1706,#1707));
#1699 = ORIENTED_EDGE('',*,*,#1184,.F.);
#1700 = ORIENTED_EDGE('',*,*,#1701,.T.);
#1701 = EDGE_CURVE('',#1185,#1112,#1702,.T.);
#1702 = LINE('',#1703,#1704);
#1703 = CARTESIAN_POINT('',(22.23,-8.,11.9));
#1704 = VECTOR('',#1705,1.);
#1705 = DIRECTION('',(0.,1.,-2.2E-16));
#1706 = ORIENTED_EDGE('',*,*,#1111,.T.);
#1707 = ORIENTED_EDGE('',*,*,#1701,.F.);
#1708 = CYLINDRICAL_SURFACE('',#1709,2.6);
#1709 = AXIS2_PLACEMENT_3D('',#1710,#1711,#1712);
#1710 = CARTESIAN_POINT('',(19.63,-8.,11.9));
#1711 = DIRECTION('',(0.,-1.,2.2E-16));
#1712 = DIRECTION('',(1.,0.,0.));
#1713 = ADVANCED_FACE('',(#1714),#1725,.F.);
#1714 = FACE_BOUND('',#1715,.F.);
#1715 = EDGE_LOOP('',(#1716,#1717,#1723,#1724));
#1716 = ORIENTED_EDGE('',*,*,#1204,.F.);
#1717 = ORIENTED_EDGE('',*,*,#1718,.T.);
#1718 = EDGE_CURVE('',#1205,#1123,#1719,.T.);
#1719 = LINE('',#1720,#1721);
#1720 = CARTESIAN_POINT('',(42.23,-8.,11.9));
#1721 = VECTOR('',#1722,1.);
#1722 = DIRECTION('',(0.,1.,-2.2E-16));
#1723 = ORIENTED_EDGE('',*,*,#1122,.T.);
#1724 = ORIENTED_EDGE('',*,*,#1718,.F.);
#1725 = CYLINDRICAL_SURFACE('',#1726,2.6);
#1726 = AXIS2_PLACEMENT_3D('',#1727,#1728,#1729);
#1727 = CARTESIAN_POINT('',(39.63,-8.,11.9));
#1728 = DIRECTION('',(0.,-1.,2.2E-16));
#1729 = DIRECTION('',(1.,0.,0.));
#1730 = ADVANCED_FACE('',(#1731),#1750,.F.);
#1731 = FACE_BOUND('',#1732,.F.);
#1732 = EDGE_LOOP('',(#1733,#1741,#1748,#1749));
#1733 = ORIENTED_EDGE('',*,*,#1734,.F.);
#1734 = EDGE_CURVE('',#1735,#1225,#1737,.T.);
#1735 = VERTEX_POINT('',#1736);
#1736 = CARTESIAN_POINT('',(58.75,4.5,9.75));
#1737 = LINE('',#1738,#1739);
#1738 = CARTESIAN_POINT('',(58.75,4.5,9.75));
#1739 = VECTOR('',#1740,1.);
#1740 = DIRECTION('',(0.,-1.,2.2E-16));
#1741 = ORIENTED_EDGE('',*,*,#1742,.F.);
#1742 = EDGE_CURVE('',#1735,#1735,#1743,.T.);
#1743 = CIRCLE('',#1744,1.6);
#1744 = AXIS2_PLACEMENT_3D('',#1745,#1746,#1747);
#1745 = CARTESIAN_POINT('',(60.35,4.5,9.75));
#1746 = DIRECTION('',(0.,1.,-0.));
#1747 = DIRECTION('',(-1.,0.,0.));
#1748 = ORIENTED_EDGE('',*,*,#1734,.T.);
#1749 = ORIENTED_EDGE('',*,*,#1224,.T.);
#1750 = CYLINDRICAL_SURFACE('',#1751,1.6);
#1751 = AXIS2_PLACEMENT_3D('',#1752,#1753,#1754);
#1752 = CARTESIAN_POINT('',(60.35,4.5,9.75));
#1753 = DIRECTION('',(0.,1.,-2.2E-16));
#1754 = DIRECTION('',(-1.,0.,0.));
#1755 = ADVANCED_FACE('',(#1756),#1775,.F.);
#1756 = FACE_BOUND('',#1757,.F.);
#1757 = EDGE_LOOP('',(#1758,#1766,#1773,#1774));
#1758 = ORIENTED_EDGE('',*,*,#1759,.F.);
#1759 = EDGE_CURVE('',#1760,#1245,#1762,.T.);
#1760 = VERTEX_POINT('',#1761);
#1761 = CARTESIAN_POINT('',(89.05,4.5,9.75));
#1762 = LINE('',#1763,#1764);
#1763 = CARTESIAN_POINT('',(89.05,4.5,9.75));
#1764 = VECTOR('',#1765,1.);
#1765 = DIRECTION('',(0.,-1.,2.2E-16));
#1766 = ORIENTED_EDGE('',*,*,#1767,.F.);
#1767 = EDGE_CURVE('',#1760,#1760,#1768,.T.);
#1768 = CIRCLE('',#1769,1.6);
#1769 = AXIS2_PLACEMENT_3D('',#1770,#1771,#1772);
#1770 = CARTESIAN_POINT('',(90.65,4.5,9.75));
#1771 = DIRECTION('',(0.,1.,-0.));
#1772 = DIRECTION('',(-1.,0.,0.));
#1773 = ORIENTED_EDGE('',*,*,#1759,.T.);
#1774 = ORIENTED_EDGE('',*,*,#1244,.T.);
#1775 = CYLINDRICAL_SURFACE('',#1776,1.6);
#1776 = AXIS2_PLACEMENT_3D('',#1777,#1778,#1779);
#1777 = CARTESIAN_POINT('',(90.65,4.5,9.75));
#1778 = DIRECTION('',(0.,1.,-2.2E-16));
#1779 = DIRECTION('',(-1.,0.,0.));
#1780 = ADVANCED_FACE('',(#1781),#1800,.F.);
#1781 = FACE_BOUND('',#1782,.T.);
#1782 = EDGE_LOOP('',(#1783,#1791,#1798,#1799));
#1783 = ORIENTED_EDGE('',*,*,#1784,.F.);
#1784 = EDGE_CURVE('',#1785,#1265,#1787,.T.);
#1785 = VERTEX_POINT('',#1786);
#1786 = CARTESIAN_POINT('',(89.05,4.5,-9.75));
#1787 = LINE('',#1788,#1789);
#1788 = CARTESIAN_POINT('',(89.05,4.5,-9.75));
#1789 = VECTOR('',#1790,1.);
#1790 = DIRECTION('',(-0.,-1.,-2.2E-16));
#1791 = ORIENTED_EDGE('',*,*,#1792,.F.);
#1792 = EDGE_CURVE('',#1785,#1785,#1793,.T.);
#1793 = CIRCLE('',#1794,1.6);
#1794 = AXIS2_PLACEMENT_3D('',#1795,#1796,#1797);
#1795 = CARTESIAN_POINT('',(90.65,4.5,-9.75));
#1796 = DIRECTION('',(-0.,-1.,-4.4E-16));
#1797 = DIRECTION('',(-1.,0.,0.));
#1798 = ORIENTED_EDGE('',*,*,#1784,.T.);
#1799 = ORIENTED_EDGE('',*,*,#1264,.T.);
#1800 = CYLINDRICAL_SURFACE('',#1801,1.6);
#1801 = AXIS2_PLACEMENT_3D('',#1802,#1803,#1804);
#1802 = CARTESIAN_POINT('',(90.65,4.5,-9.75));
#1803 = DIRECTION('',(0.,1.,2.2E-16));
#1804 = DIRECTION('',(-1.,0.,0.));
#1805 = ADVANCED_FACE('',(#1806,#1812),#1815,.T.);
#1806 = FACE_BOUND('',#1807,.F.);
#1807 = EDGE_LOOP('',(#1808,#1809,#1810,#1811));
#1808 = ORIENTED_EDGE('',*,*,#1504,.F.);
#1809 = ORIENTED_EDGE('',*,*,#1528,.T.);
#1810 = ORIENTED_EDGE('',*,*,#1546,.T.);
#1811 = ORIENTED_EDGE('',*,*,#1334,.T.);
#1812 = FACE_BOUND('',#1813,.F.);
#1813 = EDGE_LOOP('',(#1814));
#1814 = ORIENTED_EDGE('',*,*,#1792,.F.);
#1815 = PLANE('',#1816);
#1816 = AXIS2_PLACEMENT_3D('',#1817,#1818,#1819);
#1817 = CARTESIAN_POINT('',(93.,4.5,-12.75));
#1818 = DIRECTION('',(0.,1.,0.));
#1819 = DIRECTION('',(1.,0.,0.));
#1820 = ADVANCED_FACE('',(#1821,#1827),#1830,.T.);
#1821 = FACE_BOUND('',#1822,.T.);
#1822 = EDGE_LOOP('',(#1823,#1824,#1825,#1826));
#1823 = ORIENTED_EDGE('',*,*,#1610,.F.);
#1824 = ORIENTED_EDGE('',*,*,#1586,.T.);
#1825 = ORIENTED_EDGE('',*,*,#1570,.T.);
#1826 = ORIENTED_EDGE('',*,*,#1359,.T.);
#1827 = FACE_BOUND('',#1828,.T.);
#1828 = EDGE_LOOP('',(#1829));
#1829 = ORIENTED_EDGE('',*,*,#1767,.F.);
#1830 = PLANE('',#1831);
#1831 = AXIS2_PLACEMENT_3D('',#1832,#1833,#1834);
#1832 = CARTESIAN_POINT('',(93.,4.5,12.75));
#1833 = DIRECTION('',(0.,1.,0.));
#1834 = DIRECTION('',(-1.,0.,0.));
#1835 = ADVANCED_FACE('',(#1836,#1842),#1845,.T.);
#1836 = FACE_BOUND('',#1837,.T.);
#1837 = EDGE_LOOP('',(#1838,#1839,#1840,#1841));
#1838 = ORIENTED_EDGE('',*,*,#1637,.F.);
#1839 = ORIENTED_EDGE('',*,*,#1392,.F.);
#1840 = ORIENTED_EDGE('',*,*,#1686,.T.);
#1841 = ORIENTED_EDGE('',*,*,#1659,.F.);
#1842 = FACE_BOUND('',#1843,.T.);
#1843 = EDGE_LOOP('',(#1844));
#1844 = ORIENTED_EDGE('',*,*,#1742,.F.);
#1845 = PLANE('',#1846);
#1846 = AXIS2_PLACEMENT_3D('',#1847,#1848,#1849);
#1847 = CARTESIAN_POINT('',(93.,4.5,12.75));
#1848 = DIRECTION('',(0.,1.,0.));
#1849 = DIRECTION('',(-1.,0.,0.));
#1850 = ( GEOMETRIC_REPRESENTATION_CONTEXT(3) 
GLOBAL_UNCERTAINTY_ASSIGNED_CONTEXT((#1854)) 
GLOBAL_UNIT_ASSIGNED_CONTEXT((#1851,#1852,#1853)) REPRESENTATION_CONTEXT
('Context #1','3D Context with UNIT and UNCERTAINTY') );
#1851 = ( LENGTH_UNIT() NAMED_UNIT(*) SI_UNIT(.MILLI.,.METRE.) );
#1852 = ( NAMED_UNIT(*) PLANE_ANGLE_UNIT() SI_UNIT($,.RADIAN.) );
#1853 = ( NAMED_UNIT(*) SI_UNIT($,.STERADIAN.) SOLID_ANGLE_UNIT() );
#1854 = UNCERTAINTY_MEASURE_WITH_UNIT(LENGTH_MEASURE(1.E-07),#1851,
  'distance_accuracy_value','confusion accuracy');
#1855 = PRODUCT_RELATED_PRODUCT_CATEGORY('part',$,(#7));
#1856 = MECHANICAL_DESIGN_GEOMETRIC_PRESENTATION_REPRESENTATION('',(
    #1857),#1850);
#1857 = STYLED_ITEM('color',(#1858),#15);
#1858 = PRESENTATION_STYLE_ASSIGNMENT((#1859,#1865));
#1859 = SURFACE_STYLE_USAGE(.BOTH.,#1860);
#1860 = SURFACE_SIDE_STYLE('',(#1861));
#1861 = SURFACE_STYLE_FILL_AREA(#1862);
#1862 = FILL_AREA_STYLE('',(#1863));
#1863 = FILL_AREA_STYLE_COLOUR('',#1864);
#1864 = COLOUR_RGB('',0.447058818107,0.474509808674,0.501960817233);
#1865 = CURVE_STYLE('',#1866,POSITIVE_LENGTH_MEASURE(0.1),#1867);
#1866 = DRAUGHTING_PRE_DEFINED_CURVE_FONT('continuous');
#1867 = COLOUR_RGB('',9.803921802644E-02,9.803921802644E-02,
  9.803921802644E-02);
ENDSEC;
END-ISO-10303-21;
