ISO-10303-21;
HEADER;
FILE_DESCRIPTION(('FreeCAD Model'),'2;1');
FILE_NAME('Open CASCADE Shape Model','2026-08-04T09:36:17',('Author'),(
    ''),'Open CASCADE STEP processor 7.8','FreeCAD','Unknown');
FILE_SCHEMA(('AUTOMOTIVE_DESIGN { 1 0 10303 214 1 1 1 1 }'));
ENDSEC;
DATA;
#1 = APPLICATION_PROTOCOL_DEFINITION('international standard',
  'automotive_design',2000,#2);
#2 = APPLICATION_CONTEXT(
  'core data for automotive mechanical design processes');
#3 = SHAPE_DEFINITION_REPRESENTATION(#4,#10);
#4 = PRODUCT_DEFINITION_SHAPE('','',#5);
#5 = PRODUCT_DEFINITION('design','',#6,#9);
#6 = PRODUCT_DEFINITION_FORMATION('','',#7);
#7 = PRODUCT('Holder','Holder','',(#8));
#8 = PRODUCT_CONTEXT('',#2,'mechanical');
#9 = PRODUCT_DEFINITION_CONTEXT('part definition',#2,'design');
#10 = ADVANCED_BREP_SHAPE_REPRESENTATION('',(#11,#15),#899);
#11 = AXIS2_PLACEMENT_3D('',#12,#13,#14);
#12 = CARTESIAN_POINT('',(0.,0.,0.));
#13 = DIRECTION('',(0.,0.,1.));
#14 = DIRECTION('',(1.,0.,-0.));
#15 = MANIFOLD_SOLID_BREP('',#16);
#16 = CLOSED_SHELL('',(#17,#79,#110,#242,#374,#391,#416,#441,#458,#497,
    #514,#553,#597,#614,#653,#670,#687,#726,#743,#783,#800,#817,#834,
    #851,#868,#885));
#17 = ADVANCED_FACE('',(#18,#52,#63),#74,.F.);
#18 = FACE_BOUND('',#19,.F.);
#19 = EDGE_LOOP('',(#20,#30,#38,#46));
#20 = ORIENTED_EDGE('',*,*,#21,.T.);
#21 = EDGE_CURVE('',#22,#24,#26,.T.);
#22 = VERTEX_POINT('',#23);
#23 = CARTESIAN_POINT('',(11.,9.9,0.));
#24 = VERTEX_POINT('',#25);
#25 = CARTESIAN_POINT('',(11.,9.9,36.9));
#26 = LINE('',#27,#28);
#27 = CARTESIAN_POINT('',(11.,9.9,0.));
#28 = VECTOR('',#29,1.);
#29 = DIRECTION('',(0.,0.,1.));
#30 = ORIENTED_EDGE('',*,*,#31,.T.);
#31 = EDGE_CURVE('',#24,#32,#34,.T.);
#32 = VERTEX_POINT('',#33);
#33 = CARTESIAN_POINT('',(28.95,9.9,36.9));
#34 = LINE('',#35,#36);
#35 = CARTESIAN_POINT('',(11.,9.9,36.9));
#36 = VECTOR('',#37,1.);
#37 = DIRECTION('',(1.,0.,0.));
#38 = ORIENTED_EDGE('',*,*,#39,.F.);
#39 = EDGE_CURVE('',#40,#32,#42,.T.);
#40 = VERTEX_POINT('',#41);
#41 = CARTESIAN_POINT('',(28.95,9.9,0.));
#42 = LINE('',#43,#44);
#43 = CARTESIAN_POINT('',(28.95,9.9,0.));
#44 = VECTOR('',#45,1.);
#45 = DIRECTION('',(0.,0.,1.));
#46 = ORIENTED_EDGE('',*,*,#47,.F.);
#47 = EDGE_CURVE('',#22,#40,#48,.T.);
#48 = LINE('',#49,#50);
#49 = CARTESIAN_POINT('',(11.,9.9,0.));
#50 = VECTOR('',#51,1.);
#51 = DIRECTION('',(1.,0.,0.));
#52 = FACE_BOUND('',#53,.F.);
#53 = EDGE_LOOP('',(#54));
#54 = ORIENTED_EDGE('',*,*,#55,.T.);
#55 = EDGE_CURVE('',#56,#56,#58,.T.);
#56 = VERTEX_POINT('',#57);
#57 = CARTESIAN_POINT('',(26.05,9.9,32.4));
#58 = CIRCLE('',#59,2.6);
#59 = AXIS2_PLACEMENT_3D('',#60,#61,#62);
#60 = CARTESIAN_POINT('',(23.45,9.9,32.4));
#61 = DIRECTION('',(0.,-1.,0.));
#62 = DIRECTION('',(1.,0.,0.));
#63 = FACE_BOUND('',#64,.F.);
#64 = EDGE_LOOP('',(#65));
#65 = ORIENTED_EDGE('',*,*,#66,.T.);
#66 = EDGE_CURVE('',#67,#67,#69,.T.);
#67 = VERTEX_POINT('',#68);
#68 = CARTESIAN_POINT('',(26.05,9.9,4.5));
#69 = CIRCLE('',#70,2.6);
#70 = AXIS2_PLACEMENT_3D('',#71,#72,#73);
#71 = CARTESIAN_POINT('',(23.45,9.9,4.5));
#72 = DIRECTION('',(0.,-1.,0.));
#73 = DIRECTION('',(1.,0.,0.));
#74 = PLANE('',#75);
#75 = AXIS2_PLACEMENT_3D('',#76,#77,#78);
#76 = CARTESIAN_POINT('',(11.,9.9,0.));
#77 = DIRECTION('',(0.,1.,0.));
#78 = DIRECTION('',(1.,0.,0.));
#79 = ADVANCED_FACE('',(#80),#105,.T.);
#80 = FACE_BOUND('',#81,.T.);
#81 = EDGE_LOOP('',(#82,#83,#91,#99));
#82 = ORIENTED_EDGE('',*,*,#21,.T.);
#83 = ORIENTED_EDGE('',*,*,#84,.T.);
#84 = EDGE_CURVE('',#24,#85,#87,.T.);
#85 = VERTEX_POINT('',#86);
#86 = CARTESIAN_POINT('',(11.,4.539823785126,36.9));
#87 = LINE('',#88,#89);
#88 = CARTESIAN_POINT('',(11.,9.9,36.9));
#89 = VECTOR('',#90,1.);
#90 = DIRECTION('',(0.,-1.,0.));
#91 = ORIENTED_EDGE('',*,*,#92,.F.);
#92 = EDGE_CURVE('',#93,#85,#95,.T.);
#93 = VERTEX_POINT('',#94);
#94 = CARTESIAN_POINT('',(11.,4.539823785126,0.));
#95 = LINE('',#96,#97);
#96 = CARTESIAN_POINT('',(11.,4.539823785126,0.));
#97 = VECTOR('',#98,1.);
#98 = DIRECTION('',(0.,0.,1.));
#99 = ORIENTED_EDGE('',*,*,#100,.F.);
#100 = EDGE_CURVE('',#22,#93,#101,.T.);
#101 = LINE('',#102,#103);
#102 = CARTESIAN_POINT('',(11.,9.9,0.));
#103 = VECTOR('',#104,1.);
#104 = DIRECTION('',(0.,-1.,0.));
#105 = PLANE('',#106);
#106 = AXIS2_PLACEMENT_3D('',#107,#108,#109);
#107 = CARTESIAN_POINT('',(11.,9.9,0.));
#108 = DIRECTION('',(1.,0.,0.));
#109 = DIRECTION('',(0.,-1.,0.));
#110 = ADVANCED_FACE('',(#111),#237,.F.);
#111 = FACE_BOUND('',#112,.F.);
#112 = EDGE_LOOP('',(#113,#114,#115,#123,#131,#139,#147,#155,#164,#172,
    #180,#188,#197,#206,#214,#222,#230));
#113 = ORIENTED_EDGE('',*,*,#100,.F.);
#114 = ORIENTED_EDGE('',*,*,#47,.T.);
#115 = ORIENTED_EDGE('',*,*,#116,.T.);
#116 = EDGE_CURVE('',#40,#117,#119,.T.);
#117 = VERTEX_POINT('',#118);
#118 = CARTESIAN_POINT('',(28.95,13.9,0.));
#119 = LINE('',#120,#121);
#120 = CARTESIAN_POINT('',(28.95,9.9,0.));
#121 = VECTOR('',#122,1.);
#122 = DIRECTION('',(0.,1.,0.));
#123 = ORIENTED_EDGE('',*,*,#124,.T.);
#124 = EDGE_CURVE('',#117,#125,#127,.T.);
#125 = VERTEX_POINT('',#126);
#126 = CARTESIAN_POINT('',(-28.95,13.9,0.));
#127 = LINE('',#128,#129);
#128 = CARTESIAN_POINT('',(28.95,13.9,0.));
#129 = VECTOR('',#130,1.);
#130 = DIRECTION('',(-1.,0.,0.));
#131 = ORIENTED_EDGE('',*,*,#132,.T.);
#132 = EDGE_CURVE('',#125,#133,#135,.T.);
#133 = VERTEX_POINT('',#134);
#134 = CARTESIAN_POINT('',(-28.95,9.9,0.));
#135 = LINE('',#136,#137);
#136 = CARTESIAN_POINT('',(-28.95,13.9,0.));
#137 = VECTOR('',#138,1.);
#138 = DIRECTION('',(0.,-1.,0.));
#139 = ORIENTED_EDGE('',*,*,#140,.T.);
#140 = EDGE_CURVE('',#133,#141,#143,.T.);
#141 = VERTEX_POINT('',#142);
#142 = CARTESIAN_POINT('',(-11.,9.9,0.));
#143 = LINE('',#144,#145);
#144 = CARTESIAN_POINT('',(-28.95,9.9,0.));
#145 = VECTOR('',#146,1.);
#146 = DIRECTION('',(1.,0.,0.));
#147 = ORIENTED_EDGE('',*,*,#148,.T.);
#148 = EDGE_CURVE('',#141,#149,#151,.T.);
#149 = VERTEX_POINT('',#150);
#150 = CARTESIAN_POINT('',(-11.,4.539823785126,0.));
#151 = LINE('',#152,#153);
#152 = CARTESIAN_POINT('',(-11.,9.9,0.));
#153 = VECTOR('',#154,1.);
#154 = DIRECTION('',(0.,-1.,0.));
#155 = ORIENTED_EDGE('',*,*,#156,.T.);
#156 = EDGE_CURVE('',#149,#157,#159,.T.);
#157 = VERTEX_POINT('',#158);
#158 = CARTESIAN_POINT('',(-4.,-11.20758671614,0.));
#159 = CIRCLE('',#160,11.9);
#160 = AXIS2_PLACEMENT_3D('',#161,#162,#163);
#161 = CARTESIAN_POINT('',(0.,0.,0.));
#162 = DIRECTION('',(0.,0.,1.));
#163 = DIRECTION('',(1.,0.,0.));
#164 = ORIENTED_EDGE('',*,*,#165,.F.);
#165 = EDGE_CURVE('',#166,#157,#168,.T.);
#166 = VERTEX_POINT('',#167);
#167 = CARTESIAN_POINT('',(-4.,-17.20758671614,0.));
#168 = LINE('',#169,#170);
#169 = CARTESIAN_POINT('',(-4.,-17.20758671614,0.));
#170 = VECTOR('',#171,1.);
#171 = DIRECTION('',(6.7E-16,1.,0.));
#172 = ORIENTED_EDGE('',*,*,#173,.T.);
#173 = EDGE_CURVE('',#166,#174,#176,.T.);
#174 = VERTEX_POINT('',#175);
#175 = CARTESIAN_POINT('',(-1.5,-17.20758671614,0.));
#176 = LINE('',#177,#178);
#177 = CARTESIAN_POINT('',(-4.,-17.20758671614,0.));
#178 = VECTOR('',#179,1.);
#179 = DIRECTION('',(1.,0.,0.));
#180 = ORIENTED_EDGE('',*,*,#181,.F.);
#181 = EDGE_CURVE('',#182,#174,#184,.T.);
#182 = VERTEX_POINT('',#183);
#183 = CARTESIAN_POINT('',(-1.5,-8.772684879785,0.));
#184 = LINE('',#185,#186);
#185 = CARTESIAN_POINT('',(-1.5,-1.3613265867,0.));
#186 = VECTOR('',#187,1.);
#187 = DIRECTION('',(0.,-1.,0.));
#188 = ORIENTED_EDGE('',*,*,#189,.F.);
#189 = EDGE_CURVE('',#190,#182,#192,.T.);
#190 = VERTEX_POINT('',#191);
#191 = CARTESIAN_POINT('',(8.9,0.,0.));
#192 = CIRCLE('',#193,8.9);
#193 = AXIS2_PLACEMENT_3D('',#194,#195,#196);
#194 = CARTESIAN_POINT('',(0.,0.,0.));
#195 = DIRECTION('',(0.,0.,1.));
#196 = DIRECTION('',(1.,0.,0.));
#197 = ORIENTED_EDGE('',*,*,#198,.F.);
#198 = EDGE_CURVE('',#199,#190,#201,.T.);
#199 = VERTEX_POINT('',#200);
#200 = CARTESIAN_POINT('',(1.5,-8.772684879785,0.));
#201 = CIRCLE('',#202,8.9);
#202 = AXIS2_PLACEMENT_3D('',#203,#204,#205);
#203 = CARTESIAN_POINT('',(0.,0.,0.));
#204 = DIRECTION('',(0.,0.,1.));
#205 = DIRECTION('',(1.,0.,0.));
#206 = ORIENTED_EDGE('',*,*,#207,.F.);
#207 = EDGE_CURVE('',#208,#199,#210,.T.);
#208 = VERTEX_POINT('',#209);
#209 = CARTESIAN_POINT('',(1.5,-17.20758671614,0.));
#210 = LINE('',#211,#212);
#211 = CARTESIAN_POINT('',(1.5,-8.8613265867,0.));
#212 = VECTOR('',#213,1.);
#213 = DIRECTION('',(0.,1.,0.));
#214 = ORIENTED_EDGE('',*,*,#215,.T.);
#215 = EDGE_CURVE('',#208,#216,#218,.T.);
#216 = VERTEX_POINT('',#217);
#217 = CARTESIAN_POINT('',(4.,-17.20758671614,0.));
#218 = LINE('',#219,#220);
#219 = CARTESIAN_POINT('',(-4.,-17.20758671614,0.));
#220 = VECTOR('',#221,1.);
#221 = DIRECTION('',(1.,0.,0.));
#222 = ORIENTED_EDGE('',*,*,#223,.T.);
#223 = EDGE_CURVE('',#216,#224,#226,.T.);
#224 = VERTEX_POINT('',#225);
#225 = CARTESIAN_POINT('',(4.,-11.20758671614,0.));
#226 = LINE('',#227,#228);
#227 = CARTESIAN_POINT('',(4.,-17.20758671614,0.));
#228 = VECTOR('',#229,1.);
#229 = DIRECTION('',(4.4E-16,1.,0.));
#230 = ORIENTED_EDGE('',*,*,#231,.T.);
#231 = EDGE_CURVE('',#224,#93,#232,.T.);
#232 = CIRCLE('',#233,11.9);
#233 = AXIS2_PLACEMENT_3D('',#234,#235,#236);
#234 = CARTESIAN_POINT('',(0.,0.,0.));
#235 = DIRECTION('',(0.,0.,1.));
#236 = DIRECTION('',(1.,0.,0.));
#237 = PLANE('',#238);
#238 = AXIS2_PLACEMENT_3D('',#239,#240,#241);
#239 = CARTESIAN_POINT('',(-2.E-16,3.984933542748,0.));
#240 = DIRECTION('',(0.,0.,1.));
#241 = DIRECTION('',(1.,0.,0.));
#242 = ADVANCED_FACE('',(#243),#369,.T.);
#243 = FACE_BOUND('',#244,.T.);
#244 = EDGE_LOOP('',(#245,#246,#247,#255,#263,#271,#279,#287,#296,#304,
    #312,#320,#329,#338,#346,#354,#362));
#245 = ORIENTED_EDGE('',*,*,#84,.F.);
#246 = ORIENTED_EDGE('',*,*,#31,.T.);
#247 = ORIENTED_EDGE('',*,*,#248,.T.);
#248 = EDGE_CURVE('',#32,#249,#251,.T.);
#249 = VERTEX_POINT('',#250);
#250 = CARTESIAN_POINT('',(28.95,13.9,36.9));
#251 = LINE('',#252,#253);
#252 = CARTESIAN_POINT('',(28.95,9.9,36.9));
#253 = VECTOR('',#254,1.);
#254 = DIRECTION('',(0.,1.,0.));
#255 = ORIENTED_EDGE('',*,*,#256,.T.);
#256 = EDGE_CURVE('',#249,#257,#259,.T.);
#257 = VERTEX_POINT('',#258);
#258 = CARTESIAN_POINT('',(-28.95,13.9,36.9));
#259 = LINE('',#260,#261);
#260 = CARTESIAN_POINT('',(28.95,13.9,36.9));
#261 = VECTOR('',#262,1.);
#262 = DIRECTION('',(-1.,0.,0.));
#263 = ORIENTED_EDGE('',*,*,#264,.T.);
#264 = EDGE_CURVE('',#257,#265,#267,.T.);
#265 = VERTEX_POINT('',#266);
#266 = CARTESIAN_POINT('',(-28.95,9.9,36.9));
#267 = LINE('',#268,#269);
#268 = CARTESIAN_POINT('',(-28.95,13.9,36.9));
#269 = VECTOR('',#270,1.);
#270 = DIRECTION('',(0.,-1.,0.));
#271 = ORIENTED_EDGE('',*,*,#272,.T.);
#272 = EDGE_CURVE('',#265,#273,#275,.T.);
#273 = VERTEX_POINT('',#274);
#274 = CARTESIAN_POINT('',(-11.,9.9,36.9));
#275 = LINE('',#276,#277);
#276 = CARTESIAN_POINT('',(-28.95,9.9,36.9));
#277 = VECTOR('',#278,1.);
#278 = DIRECTION('',(1.,0.,0.));
#279 = ORIENTED_EDGE('',*,*,#280,.T.);
#280 = EDGE_CURVE('',#273,#281,#283,.T.);
#281 = VERTEX_POINT('',#282);
#282 = CARTESIAN_POINT('',(-11.,4.539823785126,36.9));
#283 = LINE('',#284,#285);
#284 = CARTESIAN_POINT('',(-11.,9.9,36.9));
#285 = VECTOR('',#286,1.);
#286 = DIRECTION('',(0.,-1.,0.));
#287 = ORIENTED_EDGE('',*,*,#288,.T.);
#288 = EDGE_CURVE('',#281,#289,#291,.T.);
#289 = VERTEX_POINT('',#290);
#290 = CARTESIAN_POINT('',(-4.,-11.20758671614,36.9));
#291 = CIRCLE('',#292,11.9);
#292 = AXIS2_PLACEMENT_3D('',#293,#294,#295);
#293 = CARTESIAN_POINT('',(0.,0.,36.9));
#294 = DIRECTION('',(0.,0.,1.));
#295 = DIRECTION('',(1.,0.,0.));
#296 = ORIENTED_EDGE('',*,*,#297,.F.);
#297 = EDGE_CURVE('',#298,#289,#300,.T.);
#298 = VERTEX_POINT('',#299);
#299 = CARTESIAN_POINT('',(-4.,-17.20758671614,36.9));
#300 = LINE('',#301,#302);
#301 = CARTESIAN_POINT('',(-4.,-17.20758671614,36.9));
#302 = VECTOR('',#303,1.);
#303 = DIRECTION('',(6.7E-16,1.,0.));
#304 = ORIENTED_EDGE('',*,*,#305,.T.);
#305 = EDGE_CURVE('',#298,#306,#308,.T.);
#306 = VERTEX_POINT('',#307);
#307 = CARTESIAN_POINT('',(-1.5,-17.20758671614,36.9));
#308 = LINE('',#309,#310);
#309 = CARTESIAN_POINT('',(-4.,-17.20758671614,36.9));
#310 = VECTOR('',#311,1.);
#311 = DIRECTION('',(1.,0.,0.));
#312 = ORIENTED_EDGE('',*,*,#313,.F.);
#313 = EDGE_CURVE('',#314,#306,#316,.T.);
#314 = VERTEX_POINT('',#315);
#315 = CARTESIAN_POINT('',(-1.5,-8.772684879784,36.9));
#316 = LINE('',#317,#318);
#317 = CARTESIAN_POINT('',(-1.5,-6.707586716149,36.9));
#318 = VECTOR('',#319,1.);
#319 = DIRECTION('',(0.,-1.,0.));
#320 = ORIENTED_EDGE('',*,*,#321,.F.);
#321 = EDGE_CURVE('',#322,#314,#324,.T.);
#322 = VERTEX_POINT('',#323);
#323 = CARTESIAN_POINT('',(8.9,0.,36.9));
#324 = CIRCLE('',#325,8.9);
#325 = AXIS2_PLACEMENT_3D('',#326,#327,#328);
#326 = CARTESIAN_POINT('',(0.,0.,36.9));
#327 = DIRECTION('',(0.,0.,1.));
#328 = DIRECTION('',(1.,0.,0.));
#329 = ORIENTED_EDGE('',*,*,#330,.F.);
#330 = EDGE_CURVE('',#331,#322,#333,.T.);
#331 = VERTEX_POINT('',#332);
#332 = CARTESIAN_POINT('',(1.5,-8.772684879785,36.9));
#333 = CIRCLE('',#334,8.9);
#334 = AXIS2_PLACEMENT_3D('',#335,#336,#337);
#335 = CARTESIAN_POINT('',(0.,0.,36.9));
#336 = DIRECTION('',(0.,0.,1.));
#337 = DIRECTION('',(1.,0.,0.));
#338 = ORIENTED_EDGE('',*,*,#339,.F.);
#339 = EDGE_CURVE('',#340,#331,#342,.T.);
#340 = VERTEX_POINT('',#341);
#341 = CARTESIAN_POINT('',(1.5,-17.20758671614,36.9));
#342 = LINE('',#343,#344);
#343 = CARTESIAN_POINT('',(1.5,-21.70758671614,36.9));
#344 = VECTOR('',#345,1.);
#345 = DIRECTION('',(0.,1.,0.));
#346 = ORIENTED_EDGE('',*,*,#347,.T.);
#347 = EDGE_CURVE('',#340,#348,#350,.T.);
#348 = VERTEX_POINT('',#349);
#349 = CARTESIAN_POINT('',(4.,-17.20758671614,36.9));
#350 = LINE('',#351,#352);
#351 = CARTESIAN_POINT('',(-4.,-17.20758671614,36.9));
#352 = VECTOR('',#353,1.);
#353 = DIRECTION('',(1.,0.,0.));
#354 = ORIENTED_EDGE('',*,*,#355,.T.);
#355 = EDGE_CURVE('',#348,#356,#358,.T.);
#356 = VERTEX_POINT('',#357);
#357 = CARTESIAN_POINT('',(4.,-11.20758671614,36.9));
#358 = LINE('',#359,#360);
#359 = CARTESIAN_POINT('',(4.,-17.20758671614,36.9));
#360 = VECTOR('',#361,1.);
#361 = DIRECTION('',(4.4E-16,1.,0.));
#362 = ORIENTED_EDGE('',*,*,#363,.T.);
#363 = EDGE_CURVE('',#356,#85,#364,.T.);
#364 = CIRCLE('',#365,11.9);
#365 = AXIS2_PLACEMENT_3D('',#366,#367,#368);
#366 = CARTESIAN_POINT('',(0.,0.,36.9));
#367 = DIRECTION('',(0.,0.,1.));
#368 = DIRECTION('',(1.,0.,0.));
#369 = PLANE('',#370);
#370 = AXIS2_PLACEMENT_3D('',#371,#372,#373);
#371 = CARTESIAN_POINT('',(-2.E-16,3.984933542748,36.9));
#372 = DIRECTION('',(0.,0.,1.));
#373 = DIRECTION('',(1.,0.,0.));
#374 = ADVANCED_FACE('',(#375),#386,.F.);
#375 = FACE_BOUND('',#376,.F.);
#376 = EDGE_LOOP('',(#377,#378,#379,#385));
#377 = ORIENTED_EDGE('',*,*,#39,.T.);
#378 = ORIENTED_EDGE('',*,*,#248,.T.);
#379 = ORIENTED_EDGE('',*,*,#380,.F.);
#380 = EDGE_CURVE('',#117,#249,#381,.T.);
#381 = LINE('',#382,#383);
#382 = CARTESIAN_POINT('',(28.95,13.9,0.));
#383 = VECTOR('',#384,1.);
#384 = DIRECTION('',(0.,0.,1.));
#385 = ORIENTED_EDGE('',*,*,#116,.F.);
#386 = PLANE('',#387);
#387 = AXIS2_PLACEMENT_3D('',#388,#389,#390);
#388 = CARTESIAN_POINT('',(28.95,9.9,0.));
#389 = DIRECTION('',(-1.,0.,0.));
#390 = DIRECTION('',(0.,1.,0.));
#391 = ADVANCED_FACE('',(#392),#411,.F.);
#392 = FACE_BOUND('',#393,.F.);
#393 = EDGE_LOOP('',(#394,#395,#403,#410));
#394 = ORIENTED_EDGE('',*,*,#55,.F.);
#395 = ORIENTED_EDGE('',*,*,#396,.T.);
#396 = EDGE_CURVE('',#56,#397,#399,.T.);
#397 = VERTEX_POINT('',#398);
#398 = CARTESIAN_POINT('',(26.05,13.9,32.4));
#399 = LINE('',#400,#401);
#400 = CARTESIAN_POINT('',(26.05,9.9,32.4));
#401 = VECTOR('',#402,1.);
#402 = DIRECTION('',(0.,1.,-2.2E-16));
#403 = ORIENTED_EDGE('',*,*,#404,.T.);
#404 = EDGE_CURVE('',#397,#397,#405,.T.);
#405 = CIRCLE('',#406,2.6);
#406 = AXIS2_PLACEMENT_3D('',#407,#408,#409);
#407 = CARTESIAN_POINT('',(23.45,13.9,32.4));
#408 = DIRECTION('',(0.,-1.,2.2E-16));
#409 = DIRECTION('',(1.,0.,0.));
#410 = ORIENTED_EDGE('',*,*,#396,.F.);
#411 = CYLINDRICAL_SURFACE('',#412,2.6);
#412 = AXIS2_PLACEMENT_3D('',#413,#414,#415);
#413 = CARTESIAN_POINT('',(23.45,9.9,32.4));
#414 = DIRECTION('',(0.,-1.,2.2E-16));
#415 = DIRECTION('',(1.,0.,0.));
#416 = ADVANCED_FACE('',(#417),#436,.F.);
#417 = FACE_BOUND('',#418,.F.);
#418 = EDGE_LOOP('',(#419,#420,#428,#435));
#419 = ORIENTED_EDGE('',*,*,#66,.F.);
#420 = ORIENTED_EDGE('',*,*,#421,.T.);
#421 = EDGE_CURVE('',#67,#422,#424,.T.);
#422 = VERTEX_POINT('',#423);
#423 = CARTESIAN_POINT('',(26.05,13.9,4.5));
#424 = LINE('',#425,#426);
#425 = CARTESIAN_POINT('',(26.05,9.9,4.5));
#426 = VECTOR('',#427,1.);
#427 = DIRECTION('',(0.,1.,-2.2E-16));
#428 = ORIENTED_EDGE('',*,*,#429,.T.);
#429 = EDGE_CURVE('',#422,#422,#430,.T.);
#430 = CIRCLE('',#431,2.6);
#431 = AXIS2_PLACEMENT_3D('',#432,#433,#434);
#432 = CARTESIAN_POINT('',(23.45,13.9,4.5));
#433 = DIRECTION('',(0.,-1.,2.2E-16));
#434 = DIRECTION('',(1.,0.,0.));
#435 = ORIENTED_EDGE('',*,*,#421,.F.);
#436 = CYLINDRICAL_SURFACE('',#437,2.6);
#437 = AXIS2_PLACEMENT_3D('',#438,#439,#440);
#438 = CARTESIAN_POINT('',(23.45,9.9,4.5));
#439 = DIRECTION('',(0.,-1.,2.2E-16));
#440 = DIRECTION('',(1.,0.,0.));
#441 = ADVANCED_FACE('',(#442),#453,.T.);
#442 = FACE_BOUND('',#443,.F.);
#443 = EDGE_LOOP('',(#444,#450,#451,#452));
#444 = ORIENTED_EDGE('',*,*,#445,.T.);
#445 = EDGE_CURVE('',#224,#356,#446,.T.);
#446 = LINE('',#447,#448);
#447 = CARTESIAN_POINT('',(4.,-11.20758671614,0.));
#448 = VECTOR('',#449,1.);
#449 = DIRECTION('',(0.,0.,1.));
#450 = ORIENTED_EDGE('',*,*,#363,.T.);
#451 = ORIENTED_EDGE('',*,*,#92,.F.);
#452 = ORIENTED_EDGE('',*,*,#231,.F.);
#453 = CYLINDRICAL_SURFACE('',#454,11.9);
#454 = AXIS2_PLACEMENT_3D('',#455,#456,#457);
#455 = CARTESIAN_POINT('',(0.,0.,0.));
#456 = DIRECTION('',(-0.,-0.,-1.));
#457 = DIRECTION('',(1.,0.,0.));
#458 = ADVANCED_FACE('',(#459,#470,#481),#492,.F.);
#459 = FACE_BOUND('',#460,.F.);
#460 = EDGE_LOOP('',(#461,#467,#468,#469));
#461 = ORIENTED_EDGE('',*,*,#462,.T.);
#462 = EDGE_CURVE('',#216,#348,#463,.T.);
#463 = LINE('',#464,#465);
#464 = CARTESIAN_POINT('',(4.,-17.20758671614,0.));
#465 = VECTOR('',#466,1.);
#466 = DIRECTION('',(0.,0.,1.));
#467 = ORIENTED_EDGE('',*,*,#355,.T.);
#468 = ORIENTED_EDGE('',*,*,#445,.F.);
#469 = ORIENTED_EDGE('',*,*,#223,.F.);
#470 = FACE_BOUND('',#471,.F.);
#471 = EDGE_LOOP('',(#472));
#472 = ORIENTED_EDGE('',*,*,#473,.T.);
#473 = EDGE_CURVE('',#474,#474,#476,.T.);
#474 = VERTEX_POINT('',#475);
#475 = CARTESIAN_POINT('',(4.,-12.60758671614,30.3));
#476 = CIRCLE('',#477,1.6);
#477 = AXIS2_PLACEMENT_3D('',#478,#479,#480);
#478 = CARTESIAN_POINT('',(4.,-14.20758671614,30.3));
#479 = DIRECTION('',(1.,0.,0.));
#480 = DIRECTION('',(0.,1.,0.));
#481 = FACE_BOUND('',#482,.F.);
#482 = EDGE_LOOP('',(#483));
#483 = ORIENTED_EDGE('',*,*,#484,.T.);
#484 = EDGE_CURVE('',#485,#485,#487,.T.);
#485 = VERTEX_POINT('',#486);
#486 = CARTESIAN_POINT('',(4.,-12.60758671614,6.6));
#487 = CIRCLE('',#488,1.6);
#488 = AXIS2_PLACEMENT_3D('',#489,#490,#491);
#489 = CARTESIAN_POINT('',(4.,-14.20758671614,6.6));
#490 = DIRECTION('',(1.,0.,0.));
#491 = DIRECTION('',(0.,1.,0.));
#492 = PLANE('',#493);
#493 = AXIS2_PLACEMENT_3D('',#494,#495,#496);
#494 = CARTESIAN_POINT('',(4.,-17.20758671614,0.));
#495 = DIRECTION('',(-1.,4.4E-16,0.));
#496 = DIRECTION('',(4.4E-16,1.,0.));
#497 = ADVANCED_FACE('',(#498),#509,.F.);
#498 = FACE_BOUND('',#499,.F.);
#499 = EDGE_LOOP('',(#500,#501,#507,#508));
#500 = ORIENTED_EDGE('',*,*,#215,.F.);
#501 = ORIENTED_EDGE('',*,*,#502,.F.);
#502 = EDGE_CURVE('',#340,#208,#503,.T.);
#503 = LINE('',#504,#505);
#504 = CARTESIAN_POINT('',(1.5,-17.20758671614,18.45));
#505 = VECTOR('',#506,1.);
#506 = DIRECTION('',(0.,0.,-1.));
#507 = ORIENTED_EDGE('',*,*,#347,.T.);
#508 = ORIENTED_EDGE('',*,*,#462,.F.);
#509 = PLANE('',#510);
#510 = AXIS2_PLACEMENT_3D('',#511,#512,#513);
#511 = CARTESIAN_POINT('',(-4.,-17.20758671614,0.));
#512 = DIRECTION('',(0.,1.,0.));
#513 = DIRECTION('',(1.,0.,0.));
#514 = ADVANCED_FACE('',(#515,#526,#537),#548,.F.);
#515 = FACE_BOUND('',#516,.F.);
#516 = EDGE_LOOP('',(#517,#518,#519,#520));
#517 = ORIENTED_EDGE('',*,*,#339,.F.);
#518 = ORIENTED_EDGE('',*,*,#502,.T.);
#519 = ORIENTED_EDGE('',*,*,#207,.T.);
#520 = ORIENTED_EDGE('',*,*,#521,.F.);
#521 = EDGE_CURVE('',#331,#199,#522,.T.);
#522 = LINE('',#523,#524);
#523 = CARTESIAN_POINT('',(1.5,-8.772684879785,0.));
#524 = VECTOR('',#525,1.);
#525 = DIRECTION('',(-0.,-0.,-1.));
#526 = FACE_BOUND('',#527,.F.);
#527 = EDGE_LOOP('',(#528));
#528 = ORIENTED_EDGE('',*,*,#529,.F.);
#529 = EDGE_CURVE('',#530,#530,#532,.T.);
#530 = VERTEX_POINT('',#531);
#531 = CARTESIAN_POINT('',(1.5,-12.60758671614,6.6));
#532 = CIRCLE('',#533,1.6);
#533 = AXIS2_PLACEMENT_3D('',#534,#535,#536);
#534 = CARTESIAN_POINT('',(1.5,-14.20758671614,6.6));
#535 = DIRECTION('',(1.,0.,0.));
#536 = DIRECTION('',(-0.,1.,0.));
#537 = FACE_BOUND('',#538,.F.);
#538 = EDGE_LOOP('',(#539));
#539 = ORIENTED_EDGE('',*,*,#540,.F.);
#540 = EDGE_CURVE('',#541,#541,#543,.T.);
#541 = VERTEX_POINT('',#542);
#542 = CARTESIAN_POINT('',(1.5,-12.60758671614,30.3));
#543 = CIRCLE('',#544,1.6);
#544 = AXIS2_PLACEMENT_3D('',#545,#546,#547);
#545 = CARTESIAN_POINT('',(1.5,-14.20758671614,30.3));
#546 = DIRECTION('',(1.,0.,0.));
#547 = DIRECTION('',(-0.,1.,0.));
#548 = PLANE('',#549);
#549 = AXIS2_PLACEMENT_3D('',#550,#551,#552);
#550 = CARTESIAN_POINT('',(1.5,-21.70758671614,36.9));
#551 = DIRECTION('',(1.,0.,0.));
#552 = DIRECTION('',(-0.,1.,0.));
#553 = ADVANCED_FACE('',(#554,#570,#581),#592,.F.);
#554 = FACE_BOUND('',#555,.F.);
#555 = EDGE_LOOP('',(#556,#557,#563,#564));
#556 = ORIENTED_EDGE('',*,*,#313,.F.);
#557 = ORIENTED_EDGE('',*,*,#558,.T.);
#558 = EDGE_CURVE('',#314,#182,#559,.T.);
#559 = LINE('',#560,#561);
#560 = CARTESIAN_POINT('',(-1.5,-8.772684879785,0.));
#561 = VECTOR('',#562,1.);
#562 = DIRECTION('',(-0.,-0.,-1.));
#563 = ORIENTED_EDGE('',*,*,#181,.T.);
#564 = ORIENTED_EDGE('',*,*,#565,.T.);
#565 = EDGE_CURVE('',#174,#306,#566,.T.);
#566 = LINE('',#567,#568);
#567 = CARTESIAN_POINT('',(-1.5,-17.20758671614,18.45));
#568 = VECTOR('',#569,1.);
#569 = DIRECTION('',(0.,0.,1.));
#570 = FACE_BOUND('',#571,.F.);
#571 = EDGE_LOOP('',(#572));
#572 = ORIENTED_EDGE('',*,*,#573,.T.);
#573 = EDGE_CURVE('',#574,#574,#576,.T.);
#574 = VERTEX_POINT('',#575);
#575 = CARTESIAN_POINT('',(-1.5,-12.60758671614,6.6));
#576 = CIRCLE('',#577,1.6);
#577 = AXIS2_PLACEMENT_3D('',#578,#579,#580);
#578 = CARTESIAN_POINT('',(-1.5,-14.20758671614,6.6));
#579 = DIRECTION('',(1.,0.,0.));
#580 = DIRECTION('',(-0.,1.,0.));
#581 = FACE_BOUND('',#582,.F.);
#582 = EDGE_LOOP('',(#583));
#583 = ORIENTED_EDGE('',*,*,#584,.T.);
#584 = EDGE_CURVE('',#585,#585,#587,.T.);
#585 = VERTEX_POINT('',#586);
#586 = CARTESIAN_POINT('',(-1.5,-12.60758671614,30.3));
#587 = CIRCLE('',#588,1.6);
#588 = AXIS2_PLACEMENT_3D('',#589,#590,#591);
#589 = CARTESIAN_POINT('',(-1.5,-14.20758671614,30.3));
#590 = DIRECTION('',(1.,0.,0.));
#591 = DIRECTION('',(-0.,1.,0.));
#592 = PLANE('',#593);
#593 = AXIS2_PLACEMENT_3D('',#594,#595,#596);
#594 = CARTESIAN_POINT('',(-1.5,-6.707586716149,36.9));
#595 = DIRECTION('',(-1.,0.,0.));
#596 = DIRECTION('',(0.,-1.,0.));
#597 = ADVANCED_FACE('',(#598),#609,.F.);
#598 = FACE_BOUND('',#599,.F.);
#599 = EDGE_LOOP('',(#600,#601,#607,#608));
#600 = ORIENTED_EDGE('',*,*,#173,.F.);
#601 = ORIENTED_EDGE('',*,*,#602,.T.);
#602 = EDGE_CURVE('',#166,#298,#603,.T.);
#603 = LINE('',#604,#605);
#604 = CARTESIAN_POINT('',(-4.,-17.20758671614,0.));
#605 = VECTOR('',#606,1.);
#606 = DIRECTION('',(0.,0.,1.));
#607 = ORIENTED_EDGE('',*,*,#305,.T.);
#608 = ORIENTED_EDGE('',*,*,#565,.F.);
#609 = PLANE('',#610);
#610 = AXIS2_PLACEMENT_3D('',#611,#612,#613);
#611 = CARTESIAN_POINT('',(-4.,-17.20758671614,0.));
#612 = DIRECTION('',(0.,1.,0.));
#613 = DIRECTION('',(1.,0.,0.));
#614 = ADVANCED_FACE('',(#615,#626,#637),#648,.T.);
#615 = FACE_BOUND('',#616,.T.);
#616 = EDGE_LOOP('',(#617,#618,#619,#625));
#617 = ORIENTED_EDGE('',*,*,#602,.T.);
#618 = ORIENTED_EDGE('',*,*,#297,.T.);
#619 = ORIENTED_EDGE('',*,*,#620,.F.);
#620 = EDGE_CURVE('',#157,#289,#621,.T.);
#621 = LINE('',#622,#623);
#622 = CARTESIAN_POINT('',(-4.,-11.20758671614,0.));
#623 = VECTOR('',#624,1.);
#624 = DIRECTION('',(0.,0.,1.));
#625 = ORIENTED_EDGE('',*,*,#165,.F.);
#626 = FACE_BOUND('',#627,.T.);
#627 = EDGE_LOOP('',(#628));
#628 = ORIENTED_EDGE('',*,*,#629,.T.);
#629 = EDGE_CURVE('',#630,#630,#632,.T.);
#630 = VERTEX_POINT('',#631);
#631 = CARTESIAN_POINT('',(-4.,-12.60758671614,30.3));
#632 = CIRCLE('',#633,1.6);
#633 = AXIS2_PLACEMENT_3D('',#634,#635,#636);
#634 = CARTESIAN_POINT('',(-4.,-14.20758671614,30.3));
#635 = DIRECTION('',(1.,0.,0.));
#636 = DIRECTION('',(0.,1.,0.));
#637 = FACE_BOUND('',#638,.T.);
#638 = EDGE_LOOP('',(#639));
#639 = ORIENTED_EDGE('',*,*,#640,.T.);
#640 = EDGE_CURVE('',#641,#641,#643,.T.);
#641 = VERTEX_POINT('',#642);
#642 = CARTESIAN_POINT('',(-4.,-12.60758671614,6.6));
#643 = CIRCLE('',#644,1.6);
#644 = AXIS2_PLACEMENT_3D('',#645,#646,#647);
#645 = CARTESIAN_POINT('',(-4.,-14.20758671614,6.6));
#646 = DIRECTION('',(1.,0.,0.));
#647 = DIRECTION('',(0.,1.,0.));
#648 = PLANE('',#649);
#649 = AXIS2_PLACEMENT_3D('',#650,#651,#652);
#650 = CARTESIAN_POINT('',(-4.,-17.20758671614,0.));
#651 = DIRECTION('',(-1.,6.7E-16,0.));
#652 = DIRECTION('',(6.7E-16,1.,0.));
#653 = ADVANCED_FACE('',(#654),#665,.T.);
#654 = FACE_BOUND('',#655,.F.);
#655 = EDGE_LOOP('',(#656,#662,#663,#664));
#656 = ORIENTED_EDGE('',*,*,#657,.T.);
#657 = EDGE_CURVE('',#149,#281,#658,.T.);
#658 = LINE('',#659,#660);
#659 = CARTESIAN_POINT('',(-11.,4.539823785126,0.));
#660 = VECTOR('',#661,1.);
#661 = DIRECTION('',(0.,0.,1.));
#662 = ORIENTED_EDGE('',*,*,#288,.T.);
#663 = ORIENTED_EDGE('',*,*,#620,.F.);
#664 = ORIENTED_EDGE('',*,*,#156,.F.);
#665 = CYLINDRICAL_SURFACE('',#666,11.9);
#666 = AXIS2_PLACEMENT_3D('',#667,#668,#669);
#667 = CARTESIAN_POINT('',(0.,0.,0.));
#668 = DIRECTION('',(-0.,-0.,-1.));
#669 = DIRECTION('',(1.,0.,0.));
#670 = ADVANCED_FACE('',(#671),#682,.F.);
#671 = FACE_BOUND('',#672,.F.);
#672 = EDGE_LOOP('',(#673,#679,#680,#681));
#673 = ORIENTED_EDGE('',*,*,#674,.T.);
#674 = EDGE_CURVE('',#141,#273,#675,.T.);
#675 = LINE('',#676,#677);
#676 = CARTESIAN_POINT('',(-11.,9.9,0.));
#677 = VECTOR('',#678,1.);
#678 = DIRECTION('',(0.,0.,1.));
#679 = ORIENTED_EDGE('',*,*,#280,.T.);
#680 = ORIENTED_EDGE('',*,*,#657,.F.);
#681 = ORIENTED_EDGE('',*,*,#148,.F.);
#682 = PLANE('',#683);
#683 = AXIS2_PLACEMENT_3D('',#684,#685,#686);
#684 = CARTESIAN_POINT('',(-11.,9.9,0.));
#685 = DIRECTION('',(1.,0.,0.));
#686 = DIRECTION('',(0.,-1.,0.));
#687 = ADVANCED_FACE('',(#688,#699,#710),#721,.F.);
#688 = FACE_BOUND('',#689,.F.);
#689 = EDGE_LOOP('',(#690,#696,#697,#698));
#690 = ORIENTED_EDGE('',*,*,#691,.T.);
#691 = EDGE_CURVE('',#133,#265,#692,.T.);
#692 = LINE('',#693,#694);
#693 = CARTESIAN_POINT('',(-28.95,9.9,0.));
#694 = VECTOR('',#695,1.);
#695 = DIRECTION('',(0.,0.,1.));
#696 = ORIENTED_EDGE('',*,*,#272,.T.);
#697 = ORIENTED_EDGE('',*,*,#674,.F.);
#698 = ORIENTED_EDGE('',*,*,#140,.F.);
#699 = FACE_BOUND('',#700,.F.);
#700 = EDGE_LOOP('',(#701));
#701 = ORIENTED_EDGE('',*,*,#702,.T.);
#702 = EDGE_CURVE('',#703,#703,#705,.T.);
#703 = VERTEX_POINT('',#704);
#704 = CARTESIAN_POINT('',(-20.85,9.9,32.4));
#705 = CIRCLE('',#706,2.6);
#706 = AXIS2_PLACEMENT_3D('',#707,#708,#709);
#707 = CARTESIAN_POINT('',(-23.45,9.9,32.4));
#708 = DIRECTION('',(0.,-1.,0.));
#709 = DIRECTION('',(1.,0.,0.));
#710 = FACE_BOUND('',#711,.F.);
#711 = EDGE_LOOP('',(#712));
#712 = ORIENTED_EDGE('',*,*,#713,.T.);
#713 = EDGE_CURVE('',#714,#714,#716,.T.);
#714 = VERTEX_POINT('',#715);
#715 = CARTESIAN_POINT('',(-20.85,9.9,4.5));
#716 = CIRCLE('',#717,2.6);
#717 = AXIS2_PLACEMENT_3D('',#718,#719,#720);
#718 = CARTESIAN_POINT('',(-23.45,9.9,4.5));
#719 = DIRECTION('',(0.,-1.,0.));
#720 = DIRECTION('',(1.,0.,0.));
#721 = PLANE('',#722);
#722 = AXIS2_PLACEMENT_3D('',#723,#724,#725);
#723 = CARTESIAN_POINT('',(-28.95,9.9,0.));
#724 = DIRECTION('',(0.,1.,0.));
#725 = DIRECTION('',(1.,0.,0.));
#726 = ADVANCED_FACE('',(#727),#738,.F.);
#727 = FACE_BOUND('',#728,.F.);
#728 = EDGE_LOOP('',(#729,#735,#736,#737));
#729 = ORIENTED_EDGE('',*,*,#730,.T.);
#730 = EDGE_CURVE('',#125,#257,#731,.T.);
#731 = LINE('',#732,#733);
#732 = CARTESIAN_POINT('',(-28.95,13.9,0.));
#733 = VECTOR('',#734,1.);
#734 = DIRECTION('',(0.,0.,1.));
#735 = ORIENTED_EDGE('',*,*,#264,.T.);
#736 = ORIENTED_EDGE('',*,*,#691,.F.);
#737 = ORIENTED_EDGE('',*,*,#132,.F.);
#738 = PLANE('',#739);
#739 = AXIS2_PLACEMENT_3D('',#740,#741,#742);
#740 = CARTESIAN_POINT('',(-28.95,13.9,0.));
#741 = DIRECTION('',(1.,0.,0.));
#742 = DIRECTION('',(0.,-1.,0.));
#743 = ADVANCED_FACE('',(#744,#750,#753,#764,#767),#778,.F.);
#744 = FACE_BOUND('',#745,.F.);
#745 = EDGE_LOOP('',(#746,#747,#748,#749));
#746 = ORIENTED_EDGE('',*,*,#380,.T.);
#747 = ORIENTED_EDGE('',*,*,#256,.T.);
#748 = ORIENTED_EDGE('',*,*,#730,.F.);
#749 = ORIENTED_EDGE('',*,*,#124,.F.);
#750 = FACE_BOUND('',#751,.F.);
#751 = EDGE_LOOP('',(#752));
#752 = ORIENTED_EDGE('',*,*,#404,.F.);
#753 = FACE_BOUND('',#754,.F.);
#754 = EDGE_LOOP('',(#755));
#755 = ORIENTED_EDGE('',*,*,#756,.F.);
#756 = EDGE_CURVE('',#757,#757,#759,.T.);
#757 = VERTEX_POINT('',#758);
#758 = CARTESIAN_POINT('',(-20.85,13.9,32.4));
#759 = CIRCLE('',#760,2.6);
#760 = AXIS2_PLACEMENT_3D('',#761,#762,#763);
#761 = CARTESIAN_POINT('',(-23.45,13.9,32.4));
#762 = DIRECTION('',(0.,-1.,2.2E-16));
#763 = DIRECTION('',(1.,0.,0.));
#764 = FACE_BOUND('',#765,.F.);
#765 = EDGE_LOOP('',(#766));
#766 = ORIENTED_EDGE('',*,*,#429,.F.);
#767 = FACE_BOUND('',#768,.F.);
#768 = EDGE_LOOP('',(#769));
#769 = ORIENTED_EDGE('',*,*,#770,.F.);
#770 = EDGE_CURVE('',#771,#771,#773,.T.);
#771 = VERTEX_POINT('',#772);
#772 = CARTESIAN_POINT('',(-20.85,13.9,4.5));
#773 = CIRCLE('',#774,2.6);
#774 = AXIS2_PLACEMENT_3D('',#775,#776,#777);
#775 = CARTESIAN_POINT('',(-23.45,13.9,4.5));
#776 = DIRECTION('',(0.,-1.,2.2E-16));
#777 = DIRECTION('',(1.,0.,0.));
#778 = PLANE('',#779);
#779 = AXIS2_PLACEMENT_3D('',#780,#781,#782);
#780 = CARTESIAN_POINT('',(28.95,13.9,0.));
#781 = DIRECTION('',(0.,-1.,0.));
#782 = DIRECTION('',(-1.,0.,0.));
#783 = ADVANCED_FACE('',(#784),#795,.F.);
#784 = FACE_BOUND('',#785,.F.);
#785 = EDGE_LOOP('',(#786,#792,#793,#794));
#786 = ORIENTED_EDGE('',*,*,#787,.F.);
#787 = EDGE_CURVE('',#474,#541,#788,.T.);
#788 = LINE('',#789,#790);
#789 = CARTESIAN_POINT('',(4.,-12.60758671614,30.3));
#790 = VECTOR('',#791,1.);
#791 = DIRECTION('',(-1.,-0.,-0.));
#792 = ORIENTED_EDGE('',*,*,#473,.F.);
#793 = ORIENTED_EDGE('',*,*,#787,.T.);
#794 = ORIENTED_EDGE('',*,*,#540,.T.);
#795 = CYLINDRICAL_SURFACE('',#796,1.6);
#796 = AXIS2_PLACEMENT_3D('',#797,#798,#799);
#797 = CARTESIAN_POINT('',(4.,-14.20758671614,30.3));
#798 = DIRECTION('',(1.,0.,0.));
#799 = DIRECTION('',(0.,1.,0.));
#800 = ADVANCED_FACE('',(#801),#812,.F.);
#801 = FACE_BOUND('',#802,.F.);
#802 = EDGE_LOOP('',(#803,#809,#810,#811));
#803 = ORIENTED_EDGE('',*,*,#804,.F.);
#804 = EDGE_CURVE('',#485,#530,#805,.T.);
#805 = LINE('',#806,#807);
#806 = CARTESIAN_POINT('',(4.,-12.60758671614,6.6));
#807 = VECTOR('',#808,1.);
#808 = DIRECTION('',(-1.,-0.,-0.));
#809 = ORIENTED_EDGE('',*,*,#484,.F.);
#810 = ORIENTED_EDGE('',*,*,#804,.T.);
#811 = ORIENTED_EDGE('',*,*,#529,.T.);
#812 = CYLINDRICAL_SURFACE('',#813,1.6);
#813 = AXIS2_PLACEMENT_3D('',#814,#815,#816);
#814 = CARTESIAN_POINT('',(4.,-14.20758671614,6.6));
#815 = DIRECTION('',(1.,0.,0.));
#816 = DIRECTION('',(0.,1.,0.));
#817 = ADVANCED_FACE('',(#818),#829,.F.);
#818 = FACE_BOUND('',#819,.F.);
#819 = EDGE_LOOP('',(#820,#821,#827,#828));
#820 = ORIENTED_EDGE('',*,*,#573,.F.);
#821 = ORIENTED_EDGE('',*,*,#822,.T.);
#822 = EDGE_CURVE('',#574,#641,#823,.T.);
#823 = LINE('',#824,#825);
#824 = CARTESIAN_POINT('',(4.,-12.60758671614,6.6));
#825 = VECTOR('',#826,1.);
#826 = DIRECTION('',(-1.,-0.,-0.));
#827 = ORIENTED_EDGE('',*,*,#640,.T.);
#828 = ORIENTED_EDGE('',*,*,#822,.F.);
#829 = CYLINDRICAL_SURFACE('',#830,1.6);
#830 = AXIS2_PLACEMENT_3D('',#831,#832,#833);
#831 = CARTESIAN_POINT('',(4.,-14.20758671614,6.6));
#832 = DIRECTION('',(1.,0.,0.));
#833 = DIRECTION('',(0.,1.,0.));
#834 = ADVANCED_FACE('',(#835),#846,.F.);
#835 = FACE_BOUND('',#836,.F.);
#836 = EDGE_LOOP('',(#837,#838,#844,#845));
#837 = ORIENTED_EDGE('',*,*,#584,.F.);
#838 = ORIENTED_EDGE('',*,*,#839,.T.);
#839 = EDGE_CURVE('',#585,#630,#840,.T.);
#840 = LINE('',#841,#842);
#841 = CARTESIAN_POINT('',(4.,-12.60758671614,30.3));
#842 = VECTOR('',#843,1.);
#843 = DIRECTION('',(-1.,-0.,-0.));
#844 = ORIENTED_EDGE('',*,*,#629,.T.);
#845 = ORIENTED_EDGE('',*,*,#839,.F.);
#846 = CYLINDRICAL_SURFACE('',#847,1.6);
#847 = AXIS2_PLACEMENT_3D('',#848,#849,#850);
#848 = CARTESIAN_POINT('',(4.,-14.20758671614,30.3));
#849 = DIRECTION('',(1.,0.,0.));
#850 = DIRECTION('',(0.,1.,0.));
#851 = ADVANCED_FACE('',(#852),#863,.F.);
#852 = FACE_BOUND('',#853,.F.);
#853 = EDGE_LOOP('',(#854,#855,#861,#862));
#854 = ORIENTED_EDGE('',*,*,#702,.F.);
#855 = ORIENTED_EDGE('',*,*,#856,.T.);
#856 = EDGE_CURVE('',#703,#757,#857,.T.);
#857 = LINE('',#858,#859);
#858 = CARTESIAN_POINT('',(-20.85,9.9,32.4));
#859 = VECTOR('',#860,1.);
#860 = DIRECTION('',(0.,1.,-2.2E-16));
#861 = ORIENTED_EDGE('',*,*,#756,.T.);
#862 = ORIENTED_EDGE('',*,*,#856,.F.);
#863 = CYLINDRICAL_SURFACE('',#864,2.6);
#864 = AXIS2_PLACEMENT_3D('',#865,#866,#867);
#865 = CARTESIAN_POINT('',(-23.45,9.9,32.4));
#866 = DIRECTION('',(0.,-1.,2.2E-16));
#867 = DIRECTION('',(1.,0.,0.));
#868 = ADVANCED_FACE('',(#869),#880,.F.);
#869 = FACE_BOUND('',#870,.F.);
#870 = EDGE_LOOP('',(#871,#872,#878,#879));
#871 = ORIENTED_EDGE('',*,*,#713,.F.);
#872 = ORIENTED_EDGE('',*,*,#873,.T.);
#873 = EDGE_CURVE('',#714,#771,#874,.T.);
#874 = LINE('',#875,#876);
#875 = CARTESIAN_POINT('',(-20.85,9.9,4.5));
#876 = VECTOR('',#877,1.);
#877 = DIRECTION('',(0.,1.,-2.2E-16));
#878 = ORIENTED_EDGE('',*,*,#770,.T.);
#879 = ORIENTED_EDGE('',*,*,#873,.F.);
#880 = CYLINDRICAL_SURFACE('',#881,2.6);
#881 = AXIS2_PLACEMENT_3D('',#882,#883,#884);
#882 = CARTESIAN_POINT('',(-23.45,9.9,4.5));
#883 = DIRECTION('',(0.,-1.,2.2E-16));
#884 = DIRECTION('',(1.,0.,0.));
#885 = ADVANCED_FACE('',(#886),#894,.F.);
#886 = FACE_BOUND('',#887,.T.);
#887 = EDGE_LOOP('',(#888,#889,#890,#891,#892,#893));
#888 = ORIENTED_EDGE('',*,*,#321,.T.);
#889 = ORIENTED_EDGE('',*,*,#558,.T.);
#890 = ORIENTED_EDGE('',*,*,#189,.F.);
#891 = ORIENTED_EDGE('',*,*,#198,.F.);
#892 = ORIENTED_EDGE('',*,*,#521,.F.);
#893 = ORIENTED_EDGE('',*,*,#330,.T.);
#894 = CYLINDRICAL_SURFACE('',#895,8.9);
#895 = AXIS2_PLACEMENT_3D('',#896,#897,#898);
#896 = CARTESIAN_POINT('',(0.,0.,0.));
#897 = DIRECTION('',(-0.,-0.,-1.));
#898 = DIRECTION('',(1.,0.,0.));
#899 = ( GEOMETRIC_REPRESENTATION_CONTEXT(3) 
GLOBAL_UNCERTAINTY_ASSIGNED_CONTEXT((#903)) GLOBAL_UNIT_ASSIGNED_CONTEXT
((#900,#901,#902)) REPRESENTATION_CONTEXT('Context #1',
  '3D Context with UNIT and UNCERTAINTY') );
#900 = ( LENGTH_UNIT() NAMED_UNIT(*) SI_UNIT(.MILLI.,.METRE.) );
#901 = ( NAMED_UNIT(*) PLANE_ANGLE_UNIT() SI_UNIT($,.RADIAN.) );
#902 = ( NAMED_UNIT(*) SI_UNIT($,.STERADIAN.) SOLID_ANGLE_UNIT() );
#903 = UNCERTAINTY_MEASURE_WITH_UNIT(LENGTH_MEASURE(1.E-05),#900,
  'distance_accuracy_value','confusion accuracy');
#904 = PRODUCT_RELATED_PRODUCT_CATEGORY('part',$,(#7));
#905 = MECHANICAL_DESIGN_GEOMETRIC_PRESENTATION_REPRESENTATION('',(#906)
  ,#899);
#906 = STYLED_ITEM('color',(#907),#15);
#907 = PRESENTATION_STYLE_ASSIGNMENT((#908,#914));
#908 = SURFACE_STYLE_USAGE(.BOTH.,#909);
#909 = SURFACE_SIDE_STYLE('',(#910));
#910 = SURFACE_STYLE_FILL_AREA(#911);
#911 = FILL_AREA_STYLE('',(#912));
#912 = FILL_AREA_STYLE_COLOUR('',#913);
#913 = COLOUR_RGB('',0.447058818107,0.474509808674,0.501960817233);
#914 = CURVE_STYLE('',#915,POSITIVE_LENGTH_MEASURE(0.1),#916);
#915 = DRAUGHTING_PRE_DEFINED_CURVE_FONT('continuous');
#916 = COLOUR_RGB('',9.803921802644E-02,9.803921802644E-02,
  9.803921802644E-02);
ENDSEC;
END-ISO-10303-21;
