ISO-10303-21;
HEADER;
FILE_DESCRIPTION(('FreeCAD Model'),'2;1');
FILE_NAME('Open CASCADE Shape Model','2026-08-04T09:39:29',('Author'),(
    ''),'Open CASCADE STEP processor 7.8','FreeCAD','Unknown');
FILE_SCHEMA(('AUTOMOTIVE_DESIGN { 1 0 10303 214 1 1 1 1 }'));
ENDSEC;
DATA;
#1 = APPLICATION_PROTOCOL_DEFINITION('international standard',
  'automotive_design',2000,#2);
#2 = APPLICATION_CONTEXT(
  'core data for automotive mechanical design processes');
#3 = SHAPE_DEFINITION_REPRESENTATION(#4,#10);
#4 = PRODUCT_DEFINITION_SHAPE('','',#5);
#5 = PRODUCT_DEFINITION('design','',#6,#9);
#6 = PRODUCT_DEFINITION_FORMATION('','',#7);
#7 = PRODUCT('Body','Body','',(#8));
#8 = PRODUCT_CONTEXT('',#2,'mechanical');
#9 = PRODUCT_DEFINITION_CONTEXT('part definition',#2,'design');
#10 = ADVANCED_BREP_SHAPE_REPRESENTATION('',(#11,#15),#1431);
#11 = AXIS2_PLACEMENT_3D('',#12,#13,#14);
#12 = CARTESIAN_POINT('',(0.,0.,0.));
#13 = DIRECTION('',(0.,0.,1.));
#14 = DIRECTION('',(1.,0.,-0.));
#15 = MANIFOLD_SOLID_BREP('',#16);
#16 = CLOSED_SHELL('',(#17,#111,#158,#183,#231,#255,#339,#364,#436,#460,
    #478,#503,#532,#631,#648,#673,#753,#861,#901,#926,#951,#976,#1001,
    #1107,#1124,#1148,#1160,#1169,#1186,#1203,#1220,#1237,#1254,#1266,
    #1291,#1308,#1320,#1337,#1354,#1371,#1388,#1405,#1422));
#17 = ADVANCED_FACE('',(#18,#95),#106,.T.);
#18 = FACE_BOUND('',#19,.T.);
#19 = EDGE_LOOP('',(#20,#30,#38,#46,#54,#63,#71,#80,#88));
#20 = ORIENTED_EDGE('',*,*,#21,.F.);
#21 = EDGE_CURVE('',#22,#24,#26,.T.);
#22 = VERTEX_POINT('',#23);
#23 = CARTESIAN_POINT('',(35.,15.65,-122.6));
#24 = VERTEX_POINT('',#25);
#25 = CARTESIAN_POINT('',(13.5,15.65,-122.6));
#26 = LINE('',#27,#28);
#27 = CARTESIAN_POINT('',(35.,15.65,-122.6));
#28 = VECTOR('',#29,1.);
#29 = DIRECTION('',(-1.,0.,0.));
#30 = ORIENTED_EDGE('',*,*,#31,.F.);
#31 = EDGE_CURVE('',#32,#22,#34,.T.);
#32 = VERTEX_POINT('',#33);
#33 = CARTESIAN_POINT('',(35.,41.8,-122.6));
#34 = LINE('',#35,#36);
#35 = CARTESIAN_POINT('',(35.,41.8,-122.6));
#36 = VECTOR('',#37,1.);
#37 = DIRECTION('',(0.,-1.,2.2E-16));
#38 = ORIENTED_EDGE('',*,*,#39,.T.);
#39 = EDGE_CURVE('',#32,#40,#42,.T.);
#40 = VERTEX_POINT('',#41);
#41 = CARTESIAN_POINT('',(-5.5,41.8,-122.6));
#42 = LINE('',#43,#44);
#43 = CARTESIAN_POINT('',(0.,41.8,-122.6));
#44 = VECTOR('',#45,1.);
#45 = DIRECTION('',(-1.,-0.,-0.));
#46 = ORIENTED_EDGE('',*,*,#47,.T.);
#47 = EDGE_CURVE('',#40,#48,#50,.T.);
#48 = VERTEX_POINT('',#49);
#49 = CARTESIAN_POINT('',(-5.5,35.65,-122.6));
#50 = LINE('',#51,#52);
#51 = CARTESIAN_POINT('',(-5.5,41.8,-122.6));
#52 = VECTOR('',#53,1.);
#53 = DIRECTION('',(0.,-1.,2.2E-16));
#54 = ORIENTED_EDGE('',*,*,#55,.T.);
#55 = EDGE_CURVE('',#48,#56,#58,.T.);
#56 = VERTEX_POINT('',#57);
#57 = CARTESIAN_POINT('',(-1.5,31.65,-122.6));
#58 = CIRCLE('',#59,4.);
#59 = AXIS2_PLACEMENT_3D('',#60,#61,#62);
#60 = CARTESIAN_POINT('',(-1.5,35.65,-122.6));
#61 = DIRECTION('',(-0.,0.,1.));
#62 = DIRECTION('',(0.,-1.,0.));
#63 = ORIENTED_EDGE('',*,*,#64,.F.);
#64 = EDGE_CURVE('',#65,#56,#67,.T.);
#65 = VERTEX_POINT('',#66);
#66 = CARTESIAN_POINT('',(5.5,31.65,-122.6));
#67 = LINE('',#68,#69);
#68 = CARTESIAN_POINT('',(4.625,31.65,-122.6));
#69 = VECTOR('',#70,1.);
#70 = DIRECTION('',(-1.,0.,0.));
#71 = ORIENTED_EDGE('',*,*,#72,.F.);
#72 = EDGE_CURVE('',#73,#65,#75,.T.);
#73 = VERTEX_POINT('',#74);
#74 = CARTESIAN_POINT('',(9.5,27.65,-122.6));
#75 = CIRCLE('',#76,4.);
#76 = AXIS2_PLACEMENT_3D('',#77,#78,#79);
#77 = CARTESIAN_POINT('',(5.5,27.65,-122.6));
#78 = DIRECTION('',(-0.,0.,1.));
#79 = DIRECTION('',(0.,-1.,0.));
#80 = ORIENTED_EDGE('',*,*,#81,.T.);
#81 = EDGE_CURVE('',#73,#82,#84,.T.);
#82 = VERTEX_POINT('',#83);
#83 = CARTESIAN_POINT('',(9.5,19.65,-122.6));
#84 = LINE('',#85,#86);
#85 = CARTESIAN_POINT('',(9.5,22.1875,-122.6));
#86 = VECTOR('',#87,1.);
#87 = DIRECTION('',(0.,-1.,0.));
#88 = ORIENTED_EDGE('',*,*,#89,.F.);
#89 = EDGE_CURVE('',#24,#82,#90,.T.);
#90 = CIRCLE('',#91,4.);
#91 = AXIS2_PLACEMENT_3D('',#92,#93,#94);
#92 = CARTESIAN_POINT('',(13.5,19.65,-122.6));
#93 = DIRECTION('',(-0.,-0.,-1.));
#94 = DIRECTION('',(0.,-1.,0.));
#95 = FACE_BOUND('',#96,.T.);
#96 = EDGE_LOOP('',(#97));
#97 = ORIENTED_EDGE('',*,*,#98,.F.);
#98 = EDGE_CURVE('',#99,#99,#101,.T.);
#99 = VERTEX_POINT('',#100);
#100 = CARTESIAN_POINT('',(25.21,21.15,-122.6));
#101 = CIRCLE('',#102,4.1);
#102 = AXIS2_PLACEMENT_3D('',#103,#104,#105);
#103 = CARTESIAN_POINT('',(21.11,21.15,-122.6));
#104 = DIRECTION('',(0.,0.,1.));
#105 = DIRECTION('',(1.,0.,0.));
#106 = PLANE('',#107);
#107 = AXIS2_PLACEMENT_3D('',#108,#109,#110);
#108 = CARTESIAN_POINT('',(14.75,28.725,-122.6));
#109 = DIRECTION('',(0.,0.,1.));
#110 = DIRECTION('',(1.,0.,0.));
#111 = ADVANCED_FACE('',(#112),#153,.T.);
#112 = FACE_BOUND('',#113,.T.);
#113 = EDGE_LOOP('',(#114,#115,#123,#131,#139,#147));
#114 = ORIENTED_EDGE('',*,*,#21,.T.);
#115 = ORIENTED_EDGE('',*,*,#116,.F.);
#116 = EDGE_CURVE('',#117,#24,#119,.T.);
#117 = VERTEX_POINT('',#118);
#118 = CARTESIAN_POINT('',(13.5,15.65,-127.6));
#119 = LINE('',#120,#121);
#120 = CARTESIAN_POINT('',(13.5,15.65,-127.6));
#121 = VECTOR('',#122,1.);
#122 = DIRECTION('',(0.,0.,1.));
#123 = ORIENTED_EDGE('',*,*,#124,.T.);
#124 = EDGE_CURVE('',#117,#125,#127,.T.);
#125 = VERTEX_POINT('',#126);
#126 = CARTESIAN_POINT('',(30.,15.65,-127.6));
#127 = LINE('',#128,#129);
#128 = CARTESIAN_POINT('',(0.,15.65,-127.6));
#129 = VECTOR('',#130,1.);
#130 = DIRECTION('',(1.,0.,0.));
#131 = ORIENTED_EDGE('',*,*,#132,.T.);
#132 = EDGE_CURVE('',#125,#133,#135,.T.);
#133 = VERTEX_POINT('',#134);
#134 = CARTESIAN_POINT('',(30.,15.65,-144.));
#135 = LINE('',#136,#137);
#136 = CARTESIAN_POINT('',(30.,15.65,-127.6));
#137 = VECTOR('',#138,1.);
#138 = DIRECTION('',(0.,0.,-1.));
#139 = ORIENTED_EDGE('',*,*,#140,.T.);
#140 = EDGE_CURVE('',#133,#141,#143,.T.);
#141 = VERTEX_POINT('',#142);
#142 = CARTESIAN_POINT('',(34.999999999999,15.65,-144.));
#143 = LINE('',#144,#145);
#144 = CARTESIAN_POINT('',(80.,15.65,-144.));
#145 = VECTOR('',#146,1.);
#146 = DIRECTION('',(1.,0.,0.));
#147 = ORIENTED_EDGE('',*,*,#148,.T.);
#148 = EDGE_CURVE('',#141,#22,#149,.T.);
#149 = LINE('',#150,#151);
#150 = CARTESIAN_POINT('',(34.999999999999,15.65,-144.));
#151 = VECTOR('',#152,1.);
#152 = DIRECTION('',(0.,0.,1.));
#153 = PLANE('',#154);
#154 = AXIS2_PLACEMENT_3D('',#155,#156,#157);
#155 = CARTESIAN_POINT('',(38.905693950178,15.65,-134.3943060498));
#156 = DIRECTION('',(0.,-1.,2.4E-16));
#157 = DIRECTION('',(0.,-2.4E-16,-1.));
#158 = ADVANCED_FACE('',(#159),#178,.T.);
#159 = FACE_BOUND('',#160,.F.);
#160 = EDGE_LOOP('',(#161,#170,#176,#177));
#161 = ORIENTED_EDGE('',*,*,#162,.T.);
#162 = EDGE_CURVE('',#117,#163,#165,.T.);
#163 = VERTEX_POINT('',#164);
#164 = CARTESIAN_POINT('',(9.5,19.65,-127.6));
#165 = CIRCLE('',#166,4.);
#166 = AXIS2_PLACEMENT_3D('',#167,#168,#169);
#167 = CARTESIAN_POINT('',(13.5,19.65,-127.6));
#168 = DIRECTION('',(-0.,-0.,-1.));
#169 = DIRECTION('',(0.,-1.,0.));
#170 = ORIENTED_EDGE('',*,*,#171,.T.);
#171 = EDGE_CURVE('',#163,#82,#172,.T.);
#172 = LINE('',#173,#174);
#173 = CARTESIAN_POINT('',(9.5,19.65,-127.6));
#174 = VECTOR('',#175,1.);
#175 = DIRECTION('',(0.,0.,1.));
#176 = ORIENTED_EDGE('',*,*,#89,.F.);
#177 = ORIENTED_EDGE('',*,*,#116,.F.);
#178 = CYLINDRICAL_SURFACE('',#179,4.);
#179 = AXIS2_PLACEMENT_3D('',#180,#181,#182);
#180 = CARTESIAN_POINT('',(13.5,19.65,-127.6));
#181 = DIRECTION('',(0.,0.,1.));
#182 = DIRECTION('',(0.,-1.,0.));
#183 = ADVANCED_FACE('',(#184),#226,.T.);
#184 = FACE_BOUND('',#185,.T.);
#185 = EDGE_LOOP('',(#186,#194,#202,#210,#218,#224,#225));
#186 = ORIENTED_EDGE('',*,*,#187,.T.);
#187 = EDGE_CURVE('',#141,#188,#190,.T.);
#188 = VERTEX_POINT('',#189);
#189 = CARTESIAN_POINT('',(34.999999999999,27.65,-144.));
#190 = LINE('',#191,#192);
#191 = CARTESIAN_POINT('',(34.999999999999,15.65,-144.));
#192 = VECTOR('',#193,1.);
#193 = DIRECTION('',(0.,1.,0.));
#194 = ORIENTED_EDGE('',*,*,#195,.T.);
#195 = EDGE_CURVE('',#188,#196,#198,.T.);
#196 = VERTEX_POINT('',#197);
#197 = CARTESIAN_POINT('',(34.999999999999,27.65,-139.));
#198 = LINE('',#199,#200);
#199 = CARTESIAN_POINT('',(34.999999999999,27.65,-144.));
#200 = VECTOR('',#201,1.);
#201 = DIRECTION('',(0.,0.,1.));
#202 = ORIENTED_EDGE('',*,*,#203,.F.);
#203 = EDGE_CURVE('',#204,#196,#206,.T.);
#204 = VERTEX_POINT('',#205);
#205 = CARTESIAN_POINT('',(34.999999999999,31.65,-139.));
#206 = LINE('',#207,#208);
#207 = CARTESIAN_POINT('',(34.999999999999,28.458175604627,-139.));
#208 = VECTOR('',#209,1.);
#209 = DIRECTION('',(1.84E-15,-1.,0.));
#210 = ORIENTED_EDGE('',*,*,#211,.F.);
#211 = EDGE_CURVE('',#212,#204,#214,.T.);
#212 = VERTEX_POINT('',#213);
#213 = CARTESIAN_POINT('',(34.999999999999,41.8,-139.));
#214 = LINE('',#215,#216);
#215 = CARTESIAN_POINT('',(34.999999999999,41.8,-139.));
#216 = VECTOR('',#217,1.);
#217 = DIRECTION('',(0.,-1.,2.2E-16));
#218 = ORIENTED_EDGE('',*,*,#219,.T.);
#219 = EDGE_CURVE('',#212,#32,#220,.T.);
#220 = LINE('',#221,#222);
#221 = CARTESIAN_POINT('',(34.999999999999,41.8,-139.));
#222 = VECTOR('',#223,1.);
#223 = DIRECTION('',(5.719E-14,0.,1.));
#224 = ORIENTED_EDGE('',*,*,#31,.T.);
#225 = ORIENTED_EDGE('',*,*,#148,.F.);
#226 = PLANE('',#227);
#227 = AXIS2_PLACEMENT_3D('',#228,#229,#230);
#228 = CARTESIAN_POINT('',(34.999999999999,28.191351209253,
    -132.7663512092));
#229 = DIRECTION('',(1.,1.84E-15,-4.923E-14));
#230 = DIRECTION('',(4.923E-14,0.,1.));
#231 = ADVANCED_FACE('',(#232),#250,.T.);
#232 = FACE_BOUND('',#233,.T.);
#233 = EDGE_LOOP('',(#234,#242,#243,#244));
#234 = ORIENTED_EDGE('',*,*,#235,.F.);
#235 = EDGE_CURVE('',#163,#236,#238,.T.);
#236 = VERTEX_POINT('',#237);
#237 = CARTESIAN_POINT('',(9.5,27.65,-127.6));
#238 = LINE('',#239,#240);
#239 = CARTESIAN_POINT('',(9.5,22.1875,-127.6));
#240 = VECTOR('',#241,1.);
#241 = DIRECTION('',(0.,1.,0.));
#242 = ORIENTED_EDGE('',*,*,#171,.T.);
#243 = ORIENTED_EDGE('',*,*,#81,.F.);
#244 = ORIENTED_EDGE('',*,*,#245,.F.);
#245 = EDGE_CURVE('',#236,#73,#246,.T.);
#246 = LINE('',#247,#248);
#247 = CARTESIAN_POINT('',(9.5,27.65,-127.6));
#248 = VECTOR('',#249,1.);
#249 = DIRECTION('',(0.,0.,1.));
#250 = PLANE('',#251);
#251 = AXIS2_PLACEMENT_3D('',#252,#253,#254);
#252 = CARTESIAN_POINT('',(9.5,15.65,-144.));
#253 = DIRECTION('',(-1.,0.,0.));
#254 = DIRECTION('',(0.,1.,0.));
#255 = ADVANCED_FACE('',(#256,#290,#301,#312,#323),#334,.T.);
#256 = FACE_BOUND('',#257,.T.);
#257 = EDGE_LOOP('',(#258,#266,#267,#268,#276,#284));
#258 = ORIENTED_EDGE('',*,*,#259,.T.);
#259 = EDGE_CURVE('',#260,#40,#262,.T.);
#260 = VERTEX_POINT('',#261);
#261 = CARTESIAN_POINT('',(-5.5,41.8,0.));
#262 = LINE('',#263,#264);
#263 = CARTESIAN_POINT('',(-5.5,41.8,0.));
#264 = VECTOR('',#265,1.);
#265 = DIRECTION('',(0.,0.,-1.));
#266 = ORIENTED_EDGE('',*,*,#39,.F.);
#267 = ORIENTED_EDGE('',*,*,#219,.F.);
#268 = ORIENTED_EDGE('',*,*,#269,.F.);
#269 = EDGE_CURVE('',#270,#212,#272,.T.);
#270 = VERTEX_POINT('',#271);
#271 = CARTESIAN_POINT('',(85.5,41.8,-139.));
#272 = LINE('',#273,#274);
#273 = CARTESIAN_POINT('',(80.,41.8,-139.));
#274 = VECTOR('',#275,1.);
#275 = DIRECTION('',(-1.,0.,0.));
#276 = ORIENTED_EDGE('',*,*,#277,.F.);
#277 = EDGE_CURVE('',#278,#270,#280,.T.);
#278 = VERTEX_POINT('',#279);
#279 = CARTESIAN_POINT('',(85.5,41.8,0.));
#280 = LINE('',#281,#282);
#281 = CARTESIAN_POINT('',(85.5,41.8,0.));
#282 = VECTOR('',#283,1.);
#283 = DIRECTION('',(0.,0.,-1.));
#284 = ORIENTED_EDGE('',*,*,#285,.F.);
#285 = EDGE_CURVE('',#260,#278,#286,.T.);
#286 = LINE('',#287,#288);
#287 = CARTESIAN_POINT('',(80.,41.8,0.));
#288 = VECTOR('',#289,1.);
#289 = DIRECTION('',(1.,0.,0.));
#290 = FACE_BOUND('',#291,.T.);
#291 = EDGE_LOOP('',(#292));
#292 = ORIENTED_EDGE('',*,*,#293,.T.);
#293 = EDGE_CURVE('',#294,#294,#296,.T.);
#294 = VERTEX_POINT('',#295);
#295 = CARTESIAN_POINT('',(2.99999999995,41.8,-27.6));
#296 = CIRCLE('',#297,2.6);
#297 = AXIS2_PLACEMENT_3D('',#298,#299,#300);
#298 = CARTESIAN_POINT('',(5.59999999995,41.8,-27.6));
#299 = DIRECTION('',(0.,1.,-2.2E-16));
#300 = DIRECTION('',(-1.,0.,0.));
#301 = FACE_BOUND('',#302,.T.);
#302 = EDGE_LOOP('',(#303));
#303 = ORIENTED_EDGE('',*,*,#304,.T.);
#304 = EDGE_CURVE('',#305,#305,#307,.T.);
#305 = VERTEX_POINT('',#306);
#306 = CARTESIAN_POINT('',(2.99999999995,41.8,-87.4));
#307 = CIRCLE('',#308,2.6);
#308 = AXIS2_PLACEMENT_3D('',#309,#310,#311);
#309 = CARTESIAN_POINT('',(5.59999999995,41.8,-87.4));
#310 = DIRECTION('',(0.,1.,-2.2E-16));
#311 = DIRECTION('',(-1.,0.,0.));
#312 = FACE_BOUND('',#313,.T.);
#313 = EDGE_LOOP('',(#314));
#314 = ORIENTED_EDGE('',*,*,#315,.T.);
#315 = EDGE_CURVE('',#316,#316,#318,.T.);
#316 = VERTEX_POINT('',#317);
#317 = CARTESIAN_POINT('',(71.79999999995,41.8,-27.6));
#318 = CIRCLE('',#319,2.6);
#319 = AXIS2_PLACEMENT_3D('',#320,#321,#322);
#320 = CARTESIAN_POINT('',(74.39999999995,41.8,-27.6));
#321 = DIRECTION('',(0.,1.,-2.2E-16));
#322 = DIRECTION('',(-1.,0.,0.));
#323 = FACE_BOUND('',#324,.T.);
#324 = EDGE_LOOP('',(#325));
#325 = ORIENTED_EDGE('',*,*,#326,.T.);
#326 = EDGE_CURVE('',#327,#327,#329,.T.);
#327 = VERTEX_POINT('',#328);
#328 = CARTESIAN_POINT('',(71.79999999995,41.8,-87.4));
#329 = CIRCLE('',#330,2.6);
#330 = AXIS2_PLACEMENT_3D('',#331,#332,#333);
#331 = CARTESIAN_POINT('',(74.39999999995,41.8,-87.4));
#332 = DIRECTION('',(0.,1.,-2.2E-16));
#333 = DIRECTION('',(-1.,0.,0.));
#334 = PLANE('',#335);
#335 = AXIS2_PLACEMENT_3D('',#336,#337,#338);
#336 = CARTESIAN_POINT('',(41.443913043478,41.8,-68.05608695652));
#337 = DIRECTION('',(-0.,-1.,-0.));
#338 = DIRECTION('',(0.,0.,-1.));
#339 = ADVANCED_FACE('',(#340),#359,.F.);
#340 = FACE_BOUND('',#341,.F.);
#341 = EDGE_LOOP('',(#342,#351,#357,#358));
#342 = ORIENTED_EDGE('',*,*,#343,.T.);
#343 = EDGE_CURVE('',#236,#344,#346,.T.);
#344 = VERTEX_POINT('',#345);
#345 = CARTESIAN_POINT('',(5.5,31.65,-127.6));
#346 = CIRCLE('',#347,4.);
#347 = AXIS2_PLACEMENT_3D('',#348,#349,#350);
#348 = CARTESIAN_POINT('',(5.5,27.65,-127.6));
#349 = DIRECTION('',(-0.,0.,1.));
#350 = DIRECTION('',(0.,-1.,0.));
#351 = ORIENTED_EDGE('',*,*,#352,.T.);
#352 = EDGE_CURVE('',#344,#65,#353,.T.);
#353 = LINE('',#354,#355);
#354 = CARTESIAN_POINT('',(5.5,31.65,-127.6));
#355 = VECTOR('',#356,1.);
#356 = DIRECTION('',(0.,0.,1.));
#357 = ORIENTED_EDGE('',*,*,#72,.F.);
#358 = ORIENTED_EDGE('',*,*,#245,.F.);
#359 = CYLINDRICAL_SURFACE('',#360,4.);
#360 = AXIS2_PLACEMENT_3D('',#361,#362,#363);
#361 = CARTESIAN_POINT('',(5.5,27.65,-127.6));
#362 = DIRECTION('',(0.,0.,1.));
#363 = DIRECTION('',(1.,0.,-0.));
#364 = ADVANCED_FACE('',(#365),#431,.T.);
#365 = FACE_BOUND('',#366,.T.);
#366 = EDGE_LOOP('',(#367,#377,#385,#393,#401,#409,#415,#416,#417,#425)
  );
#367 = ORIENTED_EDGE('',*,*,#368,.F.);
#368 = EDGE_CURVE('',#369,#371,#373,.T.);
#369 = VERTEX_POINT('',#370);
#370 = CARTESIAN_POINT('',(-5.5,46.3,5.));
#371 = VERTEX_POINT('',#372);
#372 = CARTESIAN_POINT('',(-5.5,4.,5.));
#373 = LINE('',#374,#375);
#374 = CARTESIAN_POINT('',(-5.5,46.3,5.));
#375 = VECTOR('',#376,1.);
#376 = DIRECTION('',(0.,-1.,0.));
#377 = ORIENTED_EDGE('',*,*,#378,.F.);
#378 = EDGE_CURVE('',#379,#369,#381,.T.);
#379 = VERTEX_POINT('',#380);
#380 = CARTESIAN_POINT('',(-5.5,46.3,-144.));
#381 = LINE('',#382,#383);
#382 = CARTESIAN_POINT('',(-5.5,46.3,0.));
#383 = VECTOR('',#384,1.);
#384 = DIRECTION('',(0.,0.,1.));
#385 = ORIENTED_EDGE('',*,*,#386,.F.);
#386 = EDGE_CURVE('',#387,#379,#389,.T.);
#387 = VERTEX_POINT('',#388);
#388 = CARTESIAN_POINT('',(-5.5,41.8,-144.));
#389 = LINE('',#390,#391);
#390 = CARTESIAN_POINT('',(-5.5,41.8,-144.));
#391 = VECTOR('',#392,1.);
#392 = DIRECTION('',(0.,1.,0.));
#393 = ORIENTED_EDGE('',*,*,#394,.F.);
#394 = EDGE_CURVE('',#395,#387,#397,.T.);
#395 = VERTEX_POINT('',#396);
#396 = CARTESIAN_POINT('',(-5.5,41.8,-127.6));
#397 = LINE('',#398,#399);
#398 = CARTESIAN_POINT('',(-5.5,41.8,0.));
#399 = VECTOR('',#400,1.);
#400 = DIRECTION('',(0.,0.,-1.));
#401 = ORIENTED_EDGE('',*,*,#402,.T.);
#402 = EDGE_CURVE('',#395,#403,#405,.T.);
#403 = VERTEX_POINT('',#404);
#404 = CARTESIAN_POINT('',(-5.5,35.65,-127.6));
#405 = LINE('',#406,#407);
#406 = CARTESIAN_POINT('',(-5.5,41.8,-127.6));
#407 = VECTOR('',#408,1.);
#408 = DIRECTION('',(0.,-1.,2.2E-16));
#409 = ORIENTED_EDGE('',*,*,#410,.T.);
#410 = EDGE_CURVE('',#403,#48,#411,.T.);
#411 = LINE('',#412,#413);
#412 = CARTESIAN_POINT('',(-5.5,35.65,-127.6));
#413 = VECTOR('',#414,1.);
#414 = DIRECTION('',(0.,0.,1.));
#415 = ORIENTED_EDGE('',*,*,#47,.F.);
#416 = ORIENTED_EDGE('',*,*,#259,.F.);
#417 = ORIENTED_EDGE('',*,*,#418,.T.);
#418 = EDGE_CURVE('',#260,#419,#421,.T.);
#419 = VERTEX_POINT('',#420);
#420 = CARTESIAN_POINT('',(-5.5,4.,0.));
#421 = LINE('',#422,#423);
#422 = CARTESIAN_POINT('',(-5.5,46.3,0.));
#423 = VECTOR('',#424,1.);
#424 = DIRECTION('',(0.,-1.,0.));
#425 = ORIENTED_EDGE('',*,*,#426,.T.);
#426 = EDGE_CURVE('',#419,#371,#427,.T.);
#427 = LINE('',#428,#429);
#428 = CARTESIAN_POINT('',(-5.5,4.,0.));
#429 = VECTOR('',#430,1.);
#430 = DIRECTION('',(0.,0.,1.));
#431 = PLANE('',#432);
#432 = AXIS2_PLACEMENT_3D('',#433,#434,#435);
#433 = CARTESIAN_POINT('',(-5.5,37.103539173628,-62.47511853691));
#434 = DIRECTION('',(-1.,-0.,-0.));
#435 = DIRECTION('',(0.,0.,-1.));
#436 = ADVANCED_FACE('',(#437),#455,.F.);
#437 = FACE_BOUND('',#438,.F.);
#438 = EDGE_LOOP('',(#439,#447,#453,#454));
#439 = ORIENTED_EDGE('',*,*,#440,.F.);
#440 = EDGE_CURVE('',#441,#344,#443,.T.);
#441 = VERTEX_POINT('',#442);
#442 = CARTESIAN_POINT('',(-1.5,31.65,-127.6));
#443 = LINE('',#444,#445);
#444 = CARTESIAN_POINT('',(3.375,31.65,-127.6));
#445 = VECTOR('',#446,1.);
#446 = DIRECTION('',(1.,0.,0.));
#447 = ORIENTED_EDGE('',*,*,#448,.T.);
#448 = EDGE_CURVE('',#441,#56,#449,.T.);
#449 = LINE('',#450,#451);
#450 = CARTESIAN_POINT('',(-1.5,31.65,-127.6));
#451 = VECTOR('',#452,1.);
#452 = DIRECTION('',(0.,0.,1.));
#453 = ORIENTED_EDGE('',*,*,#64,.F.);
#454 = ORIENTED_EDGE('',*,*,#352,.F.);
#455 = PLANE('',#456);
#456 = AXIS2_PLACEMENT_3D('',#457,#458,#459);
#457 = CARTESIAN_POINT('',(-5.5,31.65,-144.));
#458 = DIRECTION('',(0.,1.,0.));
#459 = DIRECTION('',(1.,0.,0.));
#460 = ADVANCED_FACE('',(#461),#473,.T.);
#461 = FACE_BOUND('',#462,.T.);
#462 = EDGE_LOOP('',(#463,#470,#471,#472));
#463 = ORIENTED_EDGE('',*,*,#464,.T.);
#464 = EDGE_CURVE('',#403,#441,#465,.T.);
#465 = CIRCLE('',#466,4.);
#466 = AXIS2_PLACEMENT_3D('',#467,#468,#469);
#467 = CARTESIAN_POINT('',(-1.5,35.65,-127.6));
#468 = DIRECTION('',(-0.,0.,1.));
#469 = DIRECTION('',(0.,-1.,0.));
#470 = ORIENTED_EDGE('',*,*,#448,.T.);
#471 = ORIENTED_EDGE('',*,*,#55,.F.);
#472 = ORIENTED_EDGE('',*,*,#410,.F.);
#473 = CYLINDRICAL_SURFACE('',#474,4.);
#474 = AXIS2_PLACEMENT_3D('',#475,#476,#477);
#475 = CARTESIAN_POINT('',(-1.5,35.65,-127.6));
#476 = DIRECTION('',(0.,0.,1.));
#477 = DIRECTION('',(-1.,0.,0.));
#478 = ADVANCED_FACE('',(#479),#498,.F.);
#479 = FACE_BOUND('',#480,.F.);
#480 = EDGE_LOOP('',(#481,#489,#496,#497));
#481 = ORIENTED_EDGE('',*,*,#482,.T.);
#482 = EDGE_CURVE('',#99,#483,#485,.T.);
#483 = VERTEX_POINT('',#484);
#484 = CARTESIAN_POINT('',(25.21,21.15,-125.6));
#485 = LINE('',#486,#487);
#486 = CARTESIAN_POINT('',(25.21,21.15,-122.6));
#487 = VECTOR('',#488,1.);
#488 = DIRECTION('',(-0.,-0.,-1.));
#489 = ORIENTED_EDGE('',*,*,#490,.T.);
#490 = EDGE_CURVE('',#483,#483,#491,.T.);
#491 = CIRCLE('',#492,4.1);
#492 = AXIS2_PLACEMENT_3D('',#493,#494,#495);
#493 = CARTESIAN_POINT('',(21.11,21.15,-125.6));
#494 = DIRECTION('',(0.,0.,1.));
#495 = DIRECTION('',(1.,0.,0.));
#496 = ORIENTED_EDGE('',*,*,#482,.F.);
#497 = ORIENTED_EDGE('',*,*,#98,.F.);
#498 = CYLINDRICAL_SURFACE('',#499,4.1);
#499 = AXIS2_PLACEMENT_3D('',#500,#501,#502);
#500 = CARTESIAN_POINT('',(21.11,21.15,-122.6));
#501 = DIRECTION('',(0.,0.,1.));
#502 = DIRECTION('',(1.,0.,0.));
#503 = ADVANCED_FACE('',(#504),#527,.T.);
#504 = FACE_BOUND('',#505,.T.);
#505 = EDGE_LOOP('',(#506,#507,#515,#521,#522,#523,#524,#525,#526));
#506 = ORIENTED_EDGE('',*,*,#402,.F.);
#507 = ORIENTED_EDGE('',*,*,#508,.T.);
#508 = EDGE_CURVE('',#395,#509,#511,.T.);
#509 = VERTEX_POINT('',#510);
#510 = CARTESIAN_POINT('',(30.,41.8,-127.6));
#511 = LINE('',#512,#513);
#512 = CARTESIAN_POINT('',(0.,41.8,-127.6));
#513 = VECTOR('',#514,1.);
#514 = DIRECTION('',(1.,0.,0.));
#515 = ORIENTED_EDGE('',*,*,#516,.T.);
#516 = EDGE_CURVE('',#509,#125,#517,.T.);
#517 = LINE('',#518,#519);
#518 = CARTESIAN_POINT('',(30.,41.8,-127.6));
#519 = VECTOR('',#520,1.);
#520 = DIRECTION('',(0.,-1.,2.2E-16));
#521 = ORIENTED_EDGE('',*,*,#124,.F.);
#522 = ORIENTED_EDGE('',*,*,#162,.T.);
#523 = ORIENTED_EDGE('',*,*,#235,.T.);
#524 = ORIENTED_EDGE('',*,*,#343,.T.);
#525 = ORIENTED_EDGE('',*,*,#440,.F.);
#526 = ORIENTED_EDGE('',*,*,#464,.F.);
#527 = PLANE('',#528);
#528 = AXIS2_PLACEMENT_3D('',#529,#530,#531);
#529 = CARTESIAN_POINT('',(12.25,28.725,-127.6));
#530 = DIRECTION('',(-0.,-0.,-1.));
#531 = DIRECTION('',(-1.,0.,0.));
#532 = ADVANCED_FACE('',(#533),#626,.T.);
#533 = FACE_BOUND('',#534,.T.);
#534 = EDGE_LOOP('',(#535,#536,#537,#545,#551,#552,#560,#568,#577,#585,
    #594,#602,#611,#619));
#535 = ORIENTED_EDGE('',*,*,#187,.F.);
#536 = ORIENTED_EDGE('',*,*,#140,.F.);
#537 = ORIENTED_EDGE('',*,*,#538,.F.);
#538 = EDGE_CURVE('',#539,#133,#541,.T.);
#539 = VERTEX_POINT('',#540);
#540 = CARTESIAN_POINT('',(30.,41.8,-144.));
#541 = LINE('',#542,#543);
#542 = CARTESIAN_POINT('',(30.,41.8,-144.));
#543 = VECTOR('',#544,1.);
#544 = DIRECTION('',(0.,-1.,2.2E-16));
#545 = ORIENTED_EDGE('',*,*,#546,.T.);
#546 = EDGE_CURVE('',#539,#387,#547,.T.);
#547 = LINE('',#548,#549);
#548 = CARTESIAN_POINT('',(0.,41.8,-144.));
#549 = VECTOR('',#550,1.);
#550 = DIRECTION('',(-1.,-0.,-0.));
#551 = ORIENTED_EDGE('',*,*,#386,.T.);
#552 = ORIENTED_EDGE('',*,*,#553,.F.);
#553 = EDGE_CURVE('',#554,#379,#556,.T.);
#554 = VERTEX_POINT('',#555);
#555 = CARTESIAN_POINT('',(85.5,46.3,-144.));
#556 = LINE('',#557,#558);
#557 = CARTESIAN_POINT('',(0.,46.3,-144.));
#558 = VECTOR('',#559,1.);
#559 = DIRECTION('',(-1.,-0.,-0.));
#560 = ORIENTED_EDGE('',*,*,#561,.T.);
#561 = EDGE_CURVE('',#554,#562,#564,.T.);
#562 = VERTEX_POINT('',#563);
#563 = CARTESIAN_POINT('',(85.5,19.65,-144.));
#564 = LINE('',#565,#566);
#565 = CARTESIAN_POINT('',(85.5,41.8,-144.));
#566 = VECTOR('',#567,1.);
#567 = DIRECTION('',(0.,-1.,2.2E-16));
#568 = ORIENTED_EDGE('',*,*,#569,.T.);
#569 = EDGE_CURVE('',#562,#570,#572,.T.);
#570 = VERTEX_POINT('',#571);
#571 = CARTESIAN_POINT('',(81.5,15.65,-144.));
#572 = CIRCLE('',#573,4.);
#573 = AXIS2_PLACEMENT_3D('',#574,#575,#576);
#574 = CARTESIAN_POINT('',(81.5,19.65,-144.));
#575 = DIRECTION('',(-0.,-2.2E-16,-1.));
#576 = DIRECTION('',(0.,-1.,2.2E-16));
#577 = ORIENTED_EDGE('',*,*,#578,.F.);
#578 = EDGE_CURVE('',#579,#570,#581,.T.);
#579 = VERTEX_POINT('',#580);
#580 = CARTESIAN_POINT('',(55.999999999999,15.65,-144.));
#581 = LINE('',#582,#583);
#582 = CARTESIAN_POINT('',(80.,15.65,-144.));
#583 = VECTOR('',#584,1.);
#584 = DIRECTION('',(1.,0.,0.));
#585 = ORIENTED_EDGE('',*,*,#586,.T.);
#586 = EDGE_CURVE('',#579,#587,#589,.T.);
#587 = VERTEX_POINT('',#588);
#588 = CARTESIAN_POINT('',(51.999999999999,19.65,-144.));
#589 = CIRCLE('',#590,4.);
#590 = AXIS2_PLACEMENT_3D('',#591,#592,#593);
#591 = CARTESIAN_POINT('',(55.999999999999,19.65,-144.));
#592 = DIRECTION('',(-0.,-0.,-1.));
#593 = DIRECTION('',(0.,-1.,0.));
#594 = ORIENTED_EDGE('',*,*,#595,.F.);
#595 = EDGE_CURVE('',#596,#587,#598,.T.);
#596 = VERTEX_POINT('',#597);
#597 = CARTESIAN_POINT('',(51.999999999999,27.65,-144.));
#598 = LINE('',#599,#600);
#599 = CARTESIAN_POINT('',(51.999999999999,31.65,-144.));
#600 = VECTOR('',#601,1.);
#601 = DIRECTION('',(0.,-1.,0.));
#602 = ORIENTED_EDGE('',*,*,#603,.T.);
#603 = EDGE_CURVE('',#596,#604,#606,.T.);
#604 = VERTEX_POINT('',#605);
#605 = CARTESIAN_POINT('',(47.999999999999,31.65,-144.));
#606 = CIRCLE('',#607,4.);
#607 = AXIS2_PLACEMENT_3D('',#608,#609,#610);
#608 = CARTESIAN_POINT('',(47.999999999999,27.65,-144.));
#609 = DIRECTION('',(-0.,0.,1.));
#610 = DIRECTION('',(0.,-1.,0.));
#611 = ORIENTED_EDGE('',*,*,#612,.F.);
#612 = EDGE_CURVE('',#613,#604,#615,.T.);
#613 = VERTEX_POINT('',#614);
#614 = CARTESIAN_POINT('',(38.999999999999,31.65,-144.));
#615 = LINE('',#616,#617);
#616 = CARTESIAN_POINT('',(34.999999999999,31.65,-144.));
#617 = VECTOR('',#618,1.);
#618 = DIRECTION('',(1.,0.,0.));
#619 = ORIENTED_EDGE('',*,*,#620,.T.);
#620 = EDGE_CURVE('',#613,#188,#621,.T.);
#621 = CIRCLE('',#622,4.);
#622 = AXIS2_PLACEMENT_3D('',#623,#624,#625);
#623 = CARTESIAN_POINT('',(38.999999999999,27.65,-144.));
#624 = DIRECTION('',(-0.,0.,1.));
#625 = DIRECTION('',(0.,-1.,0.));
#626 = PLANE('',#627);
#627 = AXIS2_PLACEMENT_3D('',#628,#629,#630);
#628 = CARTESIAN_POINT('',(43.815556925606,34.790556925606,-144.));
#629 = DIRECTION('',(-0.,-0.,-1.));
#630 = DIRECTION('',(-1.,0.,0.));
#631 = ADVANCED_FACE('',(#632),#643,.F.);
#632 = FACE_BOUND('',#633,.F.);
#633 = EDGE_LOOP('',(#634,#635,#636,#637));
#634 = ORIENTED_EDGE('',*,*,#516,.T.);
#635 = ORIENTED_EDGE('',*,*,#132,.T.);
#636 = ORIENTED_EDGE('',*,*,#538,.F.);
#637 = ORIENTED_EDGE('',*,*,#638,.F.);
#638 = EDGE_CURVE('',#509,#539,#639,.T.);
#639 = LINE('',#640,#641);
#640 = CARTESIAN_POINT('',(30.,41.8,-127.6));
#641 = VECTOR('',#642,1.);
#642 = DIRECTION('',(0.,0.,-1.));
#643 = PLANE('',#644);
#644 = AXIS2_PLACEMENT_3D('',#645,#646,#647);
#645 = CARTESIAN_POINT('',(30.,41.8,-127.6));
#646 = DIRECTION('',(1.,0.,0.));
#647 = DIRECTION('',(0.,-2.2E-16,-1.));
#648 = ADVANCED_FACE('',(#649),#668,.F.);
#649 = FACE_BOUND('',#650,.F.);
#650 = EDGE_LOOP('',(#651,#652,#653,#662));
#651 = ORIENTED_EDGE('',*,*,#620,.T.);
#652 = ORIENTED_EDGE('',*,*,#195,.T.);
#653 = ORIENTED_EDGE('',*,*,#654,.F.);
#654 = EDGE_CURVE('',#655,#196,#657,.T.);
#655 = VERTEX_POINT('',#656);
#656 = CARTESIAN_POINT('',(38.999999999999,31.65,-139.));
#657 = CIRCLE('',#658,4.);
#658 = AXIS2_PLACEMENT_3D('',#659,#660,#661);
#659 = CARTESIAN_POINT('',(38.999999999999,27.65,-139.));
#660 = DIRECTION('',(-0.,0.,1.));
#661 = DIRECTION('',(0.,-1.,0.));
#662 = ORIENTED_EDGE('',*,*,#663,.F.);
#663 = EDGE_CURVE('',#613,#655,#664,.T.);
#664 = LINE('',#665,#666);
#665 = CARTESIAN_POINT('',(38.999999999999,31.65,-144.));
#666 = VECTOR('',#667,1.);
#667 = DIRECTION('',(0.,0.,1.));
#668 = CYLINDRICAL_SURFACE('',#669,4.);
#669 = AXIS2_PLACEMENT_3D('',#670,#671,#672);
#670 = CARTESIAN_POINT('',(38.999999999999,27.65,-144.));
#671 = DIRECTION('',(0.,0.,1.));
#672 = DIRECTION('',(0.,1.,0.));
#673 = ADVANCED_FACE('',(#674,#737),#748,.T.);
#674 = FACE_BOUND('',#675,.T.);
#675 = EDGE_LOOP('',(#676,#684,#685,#686,#687,#688,#696,#705,#713,#722,
    #730));
#676 = ORIENTED_EDGE('',*,*,#677,.F.);
#677 = EDGE_CURVE('',#270,#678,#680,.T.);
#678 = VERTEX_POINT('',#679);
#679 = CARTESIAN_POINT('',(85.5,19.65,-139.));
#680 = LINE('',#681,#682);
#681 = CARTESIAN_POINT('',(85.5,41.8,-139.));
#682 = VECTOR('',#683,1.);
#683 = DIRECTION('',(0.,-1.,2.2E-16));
#684 = ORIENTED_EDGE('',*,*,#269,.T.);
#685 = ORIENTED_EDGE('',*,*,#211,.T.);
#686 = ORIENTED_EDGE('',*,*,#203,.T.);
#687 = ORIENTED_EDGE('',*,*,#654,.F.);
#688 = ORIENTED_EDGE('',*,*,#689,.F.);
#689 = EDGE_CURVE('',#690,#655,#692,.T.);
#690 = VERTEX_POINT('',#691);
#691 = CARTESIAN_POINT('',(47.999999999999,31.65,-139.));
#692 = LINE('',#693,#694);
#693 = CARTESIAN_POINT('',(47.624999999999,31.65,-139.));
#694 = VECTOR('',#695,1.);
#695 = DIRECTION('',(-1.,0.,0.));
#696 = ORIENTED_EDGE('',*,*,#697,.F.);
#697 = EDGE_CURVE('',#698,#690,#700,.T.);
#698 = VERTEX_POINT('',#699);
#699 = CARTESIAN_POINT('',(51.999999999999,27.65,-139.));
#700 = CIRCLE('',#701,4.);
#701 = AXIS2_PLACEMENT_3D('',#702,#703,#704);
#702 = CARTESIAN_POINT('',(47.999999999999,27.65,-139.));
#703 = DIRECTION('',(-0.,0.,1.));
#704 = DIRECTION('',(0.,-1.,0.));
#705 = ORIENTED_EDGE('',*,*,#706,.F.);
#706 = EDGE_CURVE('',#707,#698,#709,.T.);
#707 = VERTEX_POINT('',#708);
#708 = CARTESIAN_POINT('',(51.999999999999,19.65,-139.));
#709 = LINE('',#710,#711);
#710 = CARTESIAN_POINT('',(51.999999999999,30.1875,-139.));
#711 = VECTOR('',#712,1.);
#712 = DIRECTION('',(0.,1.,0.));
#713 = ORIENTED_EDGE('',*,*,#714,.F.);
#714 = EDGE_CURVE('',#715,#707,#717,.T.);
#715 = VERTEX_POINT('',#716);
#716 = CARTESIAN_POINT('',(55.999999999999,15.65,-139.));
#717 = CIRCLE('',#718,4.);
#718 = AXIS2_PLACEMENT_3D('',#719,#720,#721);
#719 = CARTESIAN_POINT('',(55.999999999999,19.65,-139.));
#720 = DIRECTION('',(-0.,-0.,-1.));
#721 = DIRECTION('',(0.,-1.,0.));
#722 = ORIENTED_EDGE('',*,*,#723,.T.);
#723 = EDGE_CURVE('',#715,#724,#726,.T.);
#724 = VERTEX_POINT('',#725);
#725 = CARTESIAN_POINT('',(81.5,15.65,-139.));
#726 = LINE('',#727,#728);
#727 = CARTESIAN_POINT('',(80.,15.65,-139.));
#728 = VECTOR('',#729,1.);
#729 = DIRECTION('',(1.,0.,0.));
#730 = ORIENTED_EDGE('',*,*,#731,.F.);
#731 = EDGE_CURVE('',#678,#724,#732,.T.);
#732 = CIRCLE('',#733,4.);
#733 = AXIS2_PLACEMENT_3D('',#734,#735,#736);
#734 = CARTESIAN_POINT('',(81.5,19.65,-139.));
#735 = DIRECTION('',(-0.,-2.2E-16,-1.));
#736 = DIRECTION('',(0.,-1.,2.2E-16));
#737 = FACE_BOUND('',#738,.T.);
#738 = EDGE_LOOP('',(#739));
#739 = ORIENTED_EDGE('',*,*,#740,.F.);
#740 = EDGE_CURVE('',#741,#741,#743,.T.);
#741 = VERTEX_POINT('',#742);
#742 = CARTESIAN_POINT('',(72.1,21.65,-139.));
#743 = CIRCLE('',#744,5.1);
#744 = AXIS2_PLACEMENT_3D('',#745,#746,#747);
#745 = CARTESIAN_POINT('',(67.,21.65,-139.));
#746 = DIRECTION('',(0.,0.,1.));
#747 = DIRECTION('',(1.,0.,0.));
#748 = PLANE('',#749);
#749 = AXIS2_PLACEMENT_3D('',#750,#751,#752);
#750 = CARTESIAN_POINT('',(60.25,28.725,-139.));
#751 = DIRECTION('',(0.,0.,1.));
#752 = DIRECTION('',(1.,0.,0.));
#753 = ADVANCED_FACE('',(#754,#790,#801,#812,#823,#834,#845),#856,.T.);
#754 = FACE_BOUND('',#755,.T.);
#755 = EDGE_LOOP('',(#756,#764,#773,#781,#788,#789));
#756 = ORIENTED_EDGE('',*,*,#757,.F.);
#757 = EDGE_CURVE('',#758,#278,#760,.T.);
#758 = VERTEX_POINT('',#759);
#759 = CARTESIAN_POINT('',(85.5,4.,0.));
#760 = LINE('',#761,#762);
#761 = CARTESIAN_POINT('',(85.5,0.,0.));
#762 = VECTOR('',#763,1.);
#763 = DIRECTION('',(0.,1.,0.));
#764 = ORIENTED_EDGE('',*,*,#765,.T.);
#765 = EDGE_CURVE('',#758,#766,#768,.T.);
#766 = VERTEX_POINT('',#767);
#767 = CARTESIAN_POINT('',(81.5,-1.E-15,0.));
#768 = CIRCLE('',#769,4.);
#769 = AXIS2_PLACEMENT_3D('',#770,#771,#772);
#770 = CARTESIAN_POINT('',(81.5,4.,0.));
#771 = DIRECTION('',(-0.,-0.,-1.));
#772 = DIRECTION('',(0.,-1.,0.));
#773 = ORIENTED_EDGE('',*,*,#774,.F.);
#774 = EDGE_CURVE('',#775,#766,#777,.T.);
#775 = VERTEX_POINT('',#776);
#776 = CARTESIAN_POINT('',(-1.5,-1.E-15,0.));
#777 = LINE('',#778,#779);
#778 = CARTESIAN_POINT('',(80.,0.,0.));
#779 = VECTOR('',#780,1.);
#780 = DIRECTION('',(1.,0.,0.));
#781 = ORIENTED_EDGE('',*,*,#782,.F.);
#782 = EDGE_CURVE('',#419,#775,#783,.T.);
#783 = CIRCLE('',#784,4.);
#784 = AXIS2_PLACEMENT_3D('',#785,#786,#787);
#785 = CARTESIAN_POINT('',(-1.5,4.,0.));
#786 = DIRECTION('',(-0.,0.,1.));
#787 = DIRECTION('',(0.,-1.,0.));
#788 = ORIENTED_EDGE('',*,*,#418,.F.);
#789 = ORIENTED_EDGE('',*,*,#285,.T.);
#790 = FACE_BOUND('',#791,.T.);
#791 = EDGE_LOOP('',(#792));
#792 = ORIENTED_EDGE('',*,*,#793,.T.);
#793 = EDGE_CURVE('',#794,#794,#796,.T.);
#794 = VERTEX_POINT('',#795);
#795 = CARTESIAN_POINT('',(37.45,21.15,0.));
#796 = CIRCLE('',#797,16.3);
#797 = AXIS2_PLACEMENT_3D('',#798,#799,#800);
#798 = CARTESIAN_POINT('',(21.15,21.15,0.));
#799 = DIRECTION('',(0.,0.,1.));
#800 = DIRECTION('',(1.,0.,0.));
#801 = FACE_BOUND('',#802,.T.);
#802 = EDGE_LOOP('',(#803));
#803 = ORIENTED_EDGE('',*,*,#804,.F.);
#804 = EDGE_CURVE('',#805,#805,#807,.T.);
#805 = VERTEX_POINT('',#806);
#806 = CARTESIAN_POINT('',(72.1,21.65,0.));
#807 = CIRCLE('',#808,5.1);
#808 = AXIS2_PLACEMENT_3D('',#809,#810,#811);
#809 = CARTESIAN_POINT('',(67.,21.65,0.));
#810 = DIRECTION('',(0.,0.,-1.));
#811 = DIRECTION('',(1.,0.,0.));
#812 = FACE_BOUND('',#813,.T.);
#813 = EDGE_LOOP('',(#814));
#814 = ORIENTED_EDGE('',*,*,#815,.T.);
#815 = EDGE_CURVE('',#816,#816,#818,.T.);
#816 = VERTEX_POINT('',#817);
#817 = CARTESIAN_POINT('',(7.4,36.65,0.));
#818 = CIRCLE('',#819,1.75);
#819 = AXIS2_PLACEMENT_3D('',#820,#821,#822);
#820 = CARTESIAN_POINT('',(5.65,36.65,0.));
#821 = DIRECTION('',(0.,0.,1.));
#822 = DIRECTION('',(1.,0.,0.));
#823 = FACE_BOUND('',#824,.T.);
#824 = EDGE_LOOP('',(#825));
#825 = ORIENTED_EDGE('',*,*,#826,.T.);
#826 = EDGE_CURVE('',#827,#827,#829,.T.);
#827 = VERTEX_POINT('',#828);
#828 = CARTESIAN_POINT('',(38.4,36.65,0.));
#829 = CIRCLE('',#830,1.75);
#830 = AXIS2_PLACEMENT_3D('',#831,#832,#833);
#831 = CARTESIAN_POINT('',(36.65,36.65,0.));
#832 = DIRECTION('',(0.,0.,1.));
#833 = DIRECTION('',(1.,0.,0.));
#834 = FACE_BOUND('',#835,.T.);
#835 = EDGE_LOOP('',(#836));
#836 = ORIENTED_EDGE('',*,*,#837,.T.);
#837 = EDGE_CURVE('',#838,#838,#840,.T.);
#838 = VERTEX_POINT('',#839);
#839 = CARTESIAN_POINT('',(7.4,5.65,0.));
#840 = CIRCLE('',#841,1.75);
#841 = AXIS2_PLACEMENT_3D('',#842,#843,#844);
#842 = CARTESIAN_POINT('',(5.65,5.65,0.));
#843 = DIRECTION('',(0.,0.,1.));
#844 = DIRECTION('',(1.,0.,0.));
#845 = FACE_BOUND('',#846,.T.);
#846 = EDGE_LOOP('',(#847));
#847 = ORIENTED_EDGE('',*,*,#848,.T.);
#848 = EDGE_CURVE('',#849,#849,#851,.T.);
#849 = VERTEX_POINT('',#850);
#850 = CARTESIAN_POINT('',(38.4,5.65,0.));
#851 = CIRCLE('',#852,1.75);
#852 = AXIS2_PLACEMENT_3D('',#853,#854,#855);
#853 = CARTESIAN_POINT('',(36.65,5.65,0.));
#854 = DIRECTION('',(0.,0.,1.));
#855 = DIRECTION('',(1.,0.,0.));
#856 = PLANE('',#857);
#857 = AXIS2_PLACEMENT_3D('',#858,#859,#860);
#858 = CARTESIAN_POINT('',(40.,20.9,0.));
#859 = DIRECTION('',(-0.,-0.,-1.));
#860 = DIRECTION('',(-1.,0.,0.));
#861 = ADVANCED_FACE('',(#862),#896,.T.);
#862 = FACE_BOUND('',#863,.T.);
#863 = EDGE_LOOP('',(#864,#865,#866,#867,#873,#874,#882,#890));
#864 = ORIENTED_EDGE('',*,*,#757,.T.);
#865 = ORIENTED_EDGE('',*,*,#277,.T.);
#866 = ORIENTED_EDGE('',*,*,#677,.T.);
#867 = ORIENTED_EDGE('',*,*,#868,.F.);
#868 = EDGE_CURVE('',#562,#678,#869,.T.);
#869 = LINE('',#870,#871);
#870 = CARTESIAN_POINT('',(85.5,19.65,-144.));
#871 = VECTOR('',#872,1.);
#872 = DIRECTION('',(0.,2.2E-16,1.));
#873 = ORIENTED_EDGE('',*,*,#561,.F.);
#874 = ORIENTED_EDGE('',*,*,#875,.F.);
#875 = EDGE_CURVE('',#876,#554,#878,.T.);
#876 = VERTEX_POINT('',#877);
#877 = CARTESIAN_POINT('',(85.5,46.3,5.));
#878 = LINE('',#879,#880);
#879 = CARTESIAN_POINT('',(85.5,46.3,0.));
#880 = VECTOR('',#881,1.);
#881 = DIRECTION('',(0.,0.,-1.));
#882 = ORIENTED_EDGE('',*,*,#883,.F.);
#883 = EDGE_CURVE('',#884,#876,#886,.T.);
#884 = VERTEX_POINT('',#885);
#885 = CARTESIAN_POINT('',(85.5,4.,5.));
#886 = LINE('',#887,#888);
#887 = CARTESIAN_POINT('',(85.5,0.,5.));
#888 = VECTOR('',#889,1.);
#889 = DIRECTION('',(0.,1.,0.));
#890 = ORIENTED_EDGE('',*,*,#891,.F.);
#891 = EDGE_CURVE('',#758,#884,#892,.T.);
#892 = LINE('',#893,#894);
#893 = CARTESIAN_POINT('',(85.5,4.,0.));
#894 = VECTOR('',#895,1.);
#895 = DIRECTION('',(0.,0.,1.));
#896 = PLANE('',#897);
#897 = AXIS2_PLACEMENT_3D('',#898,#899,#900);
#898 = CARTESIAN_POINT('',(85.5,37.103539173628,-64.41171822081));
#899 = DIRECTION('',(1.,0.,0.));
#900 = DIRECTION('',(0.,0.,1.));
#901 = ADVANCED_FACE('',(#902),#921,.F.);
#902 = FACE_BOUND('',#903,.F.);
#903 = EDGE_LOOP('',(#904,#913,#919,#920));
#904 = ORIENTED_EDGE('',*,*,#905,.F.);
#905 = EDGE_CURVE('',#906,#906,#908,.T.);
#906 = VERTEX_POINT('',#907);
#907 = CARTESIAN_POINT('',(2.99999999995,46.3,-27.6));
#908 = CIRCLE('',#909,2.6);
#909 = AXIS2_PLACEMENT_3D('',#910,#911,#912);
#910 = CARTESIAN_POINT('',(5.59999999995,46.3,-27.6));
#911 = DIRECTION('',(0.,1.,-0.));
#912 = DIRECTION('',(-1.,0.,0.));
#913 = ORIENTED_EDGE('',*,*,#914,.T.);
#914 = EDGE_CURVE('',#906,#294,#915,.T.);
#915 = LINE('',#916,#917);
#916 = CARTESIAN_POINT('',(2.99999999995,46.3,-27.6));
#917 = VECTOR('',#918,1.);
#918 = DIRECTION('',(0.,-1.,2.2E-16));
#919 = ORIENTED_EDGE('',*,*,#293,.T.);
#920 = ORIENTED_EDGE('',*,*,#914,.F.);
#921 = CYLINDRICAL_SURFACE('',#922,2.6);
#922 = AXIS2_PLACEMENT_3D('',#923,#924,#925);
#923 = CARTESIAN_POINT('',(5.59999999995,46.3,-27.6));
#924 = DIRECTION('',(0.,1.,-2.2E-16));
#925 = DIRECTION('',(-1.,0.,0.));
#926 = ADVANCED_FACE('',(#927),#946,.F.);
#927 = FACE_BOUND('',#928,.F.);
#928 = EDGE_LOOP('',(#929,#938,#944,#945));
#929 = ORIENTED_EDGE('',*,*,#930,.F.);
#930 = EDGE_CURVE('',#931,#931,#933,.T.);
#931 = VERTEX_POINT('',#932);
#932 = CARTESIAN_POINT('',(2.99999999995,46.3,-87.4));
#933 = CIRCLE('',#934,2.6);
#934 = AXIS2_PLACEMENT_3D('',#935,#936,#937);
#935 = CARTESIAN_POINT('',(5.59999999995,46.3,-87.4));
#936 = DIRECTION('',(0.,1.,-0.));
#937 = DIRECTION('',(-1.,0.,0.));
#938 = ORIENTED_EDGE('',*,*,#939,.T.);
#939 = EDGE_CURVE('',#931,#305,#940,.T.);
#940 = LINE('',#941,#942);
#941 = CARTESIAN_POINT('',(2.99999999995,46.3,-87.4));
#942 = VECTOR('',#943,1.);
#943 = DIRECTION('',(0.,-1.,2.2E-16));
#944 = ORIENTED_EDGE('',*,*,#304,.T.);
#945 = ORIENTED_EDGE('',*,*,#939,.F.);
#946 = CYLINDRICAL_SURFACE('',#947,2.6);
#947 = AXIS2_PLACEMENT_3D('',#948,#949,#950);
#948 = CARTESIAN_POINT('',(5.59999999995,46.3,-87.4));
#949 = DIRECTION('',(0.,1.,-2.2E-16));
#950 = DIRECTION('',(-1.,0.,0.));
#951 = ADVANCED_FACE('',(#952),#971,.F.);
#952 = FACE_BOUND('',#953,.F.);
#953 = EDGE_LOOP('',(#954,#963,#969,#970));
#954 = ORIENTED_EDGE('',*,*,#955,.F.);
#955 = EDGE_CURVE('',#956,#956,#958,.T.);
#956 = VERTEX_POINT('',#957);
#957 = CARTESIAN_POINT('',(71.79999999995,46.3,-27.6));
#958 = CIRCLE('',#959,2.6);
#959 = AXIS2_PLACEMENT_3D('',#960,#961,#962);
#960 = CARTESIAN_POINT('',(74.39999999995,46.3,-27.6));
#961 = DIRECTION('',(0.,1.,-0.));
#962 = DIRECTION('',(-1.,0.,0.));
#963 = ORIENTED_EDGE('',*,*,#964,.T.);
#964 = EDGE_CURVE('',#956,#316,#965,.T.);
#965 = LINE('',#966,#967);
#966 = CARTESIAN_POINT('',(71.79999999995,46.3,-27.6));
#967 = VECTOR('',#968,1.);
#968 = DIRECTION('',(0.,-1.,2.2E-16));
#969 = ORIENTED_EDGE('',*,*,#315,.T.);
#970 = ORIENTED_EDGE('',*,*,#964,.F.);
#971 = CYLINDRICAL_SURFACE('',#972,2.6);
#972 = AXIS2_PLACEMENT_3D('',#973,#974,#975);
#973 = CARTESIAN_POINT('',(74.39999999995,46.3,-27.6));
#974 = DIRECTION('',(0.,1.,-2.2E-16));
#975 = DIRECTION('',(-1.,0.,0.));
#976 = ADVANCED_FACE('',(#977),#996,.F.);
#977 = FACE_BOUND('',#978,.F.);
#978 = EDGE_LOOP('',(#979,#988,#994,#995));
#979 = ORIENTED_EDGE('',*,*,#980,.F.);
#980 = EDGE_CURVE('',#981,#981,#983,.T.);
#981 = VERTEX_POINT('',#982);
#982 = CARTESIAN_POINT('',(71.79999999995,46.3,-87.4));
#983 = CIRCLE('',#984,2.6);
#984 = AXIS2_PLACEMENT_3D('',#985,#986,#987);
#985 = CARTESIAN_POINT('',(74.39999999995,46.3,-87.4));
#986 = DIRECTION('',(0.,1.,-0.));
#987 = DIRECTION('',(-1.,0.,0.));
#988 = ORIENTED_EDGE('',*,*,#989,.T.);
#989 = EDGE_CURVE('',#981,#327,#990,.T.);
#990 = LINE('',#991,#992);
#991 = CARTESIAN_POINT('',(71.79999999995,46.3,-87.4));
#992 = VECTOR('',#993,1.);
#993 = DIRECTION('',(0.,-1.,2.2E-16));
#994 = ORIENTED_EDGE('',*,*,#326,.T.);
#995 = ORIENTED_EDGE('',*,*,#989,.F.);
#996 = CYLINDRICAL_SURFACE('',#997,2.6);
#997 = AXIS2_PLACEMENT_3D('',#998,#999,#1000);
#998 = CARTESIAN_POINT('',(74.39999999995,46.3,-87.4));
#999 = DIRECTION('',(0.,1.,-2.2E-16));
#1000 = DIRECTION('',(-1.,0.,0.));
#1001 = ADVANCED_FACE('',(#1002,#1036,#1047,#1058,#1069,#1080,#1091),
  #1102,.T.);
#1002 = FACE_BOUND('',#1003,.T.);
#1003 = EDGE_LOOP('',(#1004,#1005,#1014,#1022,#1029,#1030));
#1004 = ORIENTED_EDGE('',*,*,#368,.T.);
#1005 = ORIENTED_EDGE('',*,*,#1006,.T.);
#1006 = EDGE_CURVE('',#371,#1007,#1009,.T.);
#1007 = VERTEX_POINT('',#1008);
#1008 = CARTESIAN_POINT('',(-1.5,-1.E-15,5.));
#1009 = CIRCLE('',#1010,4.);
#1010 = AXIS2_PLACEMENT_3D('',#1011,#1012,#1013);
#1011 = CARTESIAN_POINT('',(-1.5,4.,5.));
#1012 = DIRECTION('',(-0.,0.,1.));
#1013 = DIRECTION('',(0.,-1.,0.));
#1014 = ORIENTED_EDGE('',*,*,#1015,.T.);
#1015 = EDGE_CURVE('',#1007,#1016,#1018,.T.);
#1016 = VERTEX_POINT('',#1017);
#1017 = CARTESIAN_POINT('',(81.5,-1.E-15,5.));
#1018 = LINE('',#1019,#1020);
#1019 = CARTESIAN_POINT('',(80.,0.,5.));
#1020 = VECTOR('',#1021,1.);
#1021 = DIRECTION('',(1.,0.,0.));
#1022 = ORIENTED_EDGE('',*,*,#1023,.F.);
#1023 = EDGE_CURVE('',#884,#1016,#1024,.T.);
#1024 = CIRCLE('',#1025,4.);
#1025 = AXIS2_PLACEMENT_3D('',#1026,#1027,#1028);
#1026 = CARTESIAN_POINT('',(81.5,4.,5.));
#1027 = DIRECTION('',(-0.,-0.,-1.));
#1028 = DIRECTION('',(0.,-1.,0.));
#1029 = ORIENTED_EDGE('',*,*,#883,.T.);
#1030 = ORIENTED_EDGE('',*,*,#1031,.T.);
#1031 = EDGE_CURVE('',#876,#369,#1032,.T.);
#1032 = LINE('',#1033,#1034);
#1033 = CARTESIAN_POINT('',(0.,46.3,5.));
#1034 = VECTOR('',#1035,1.);
#1035 = DIRECTION('',(-1.,-0.,-0.));
#1036 = FACE_BOUND('',#1037,.T.);
#1037 = EDGE_LOOP('',(#1038));
#1038 = ORIENTED_EDGE('',*,*,#1039,.F.);
#1039 = EDGE_CURVE('',#1040,#1040,#1042,.T.);
#1040 = VERTEX_POINT('',#1041);
#1041 = CARTESIAN_POINT('',(37.45,21.15,5.));
#1042 = CIRCLE('',#1043,16.3);
#1043 = AXIS2_PLACEMENT_3D('',#1044,#1045,#1046);
#1044 = CARTESIAN_POINT('',(21.15,21.15,5.));
#1045 = DIRECTION('',(0.,0.,1.));
#1046 = DIRECTION('',(1.,0.,0.));
#1047 = FACE_BOUND('',#1048,.T.);
#1048 = EDGE_LOOP('',(#1049));
#1049 = ORIENTED_EDGE('',*,*,#1050,.T.);
#1050 = EDGE_CURVE('',#1051,#1051,#1053,.T.);
#1051 = VERTEX_POINT('',#1052);
#1052 = CARTESIAN_POINT('',(72.1,21.65,5.));
#1053 = CIRCLE('',#1054,5.1);
#1054 = AXIS2_PLACEMENT_3D('',#1055,#1056,#1057);
#1055 = CARTESIAN_POINT('',(67.,21.65,5.));
#1056 = DIRECTION('',(0.,0.,-1.));
#1057 = DIRECTION('',(1.,0.,0.));
#1058 = FACE_BOUND('',#1059,.T.);
#1059 = EDGE_LOOP('',(#1060));
#1060 = ORIENTED_EDGE('',*,*,#1061,.F.);
#1061 = EDGE_CURVE('',#1062,#1062,#1064,.T.);
#1062 = VERTEX_POINT('',#1063);
#1063 = CARTESIAN_POINT('',(7.4,36.65,5.));
#1064 = CIRCLE('',#1065,1.75);
#1065 = AXIS2_PLACEMENT_3D('',#1066,#1067,#1068);
#1066 = CARTESIAN_POINT('',(5.65,36.65,5.));
#1067 = DIRECTION('',(0.,0.,1.));
#1068 = DIRECTION('',(1.,0.,0.));
#1069 = FACE_BOUND('',#1070,.T.);
#1070 = EDGE_LOOP('',(#1071));
#1071 = ORIENTED_EDGE('',*,*,#1072,.F.);
#1072 = EDGE_CURVE('',#1073,#1073,#1075,.T.);
#1073 = VERTEX_POINT('',#1074);
#1074 = CARTESIAN_POINT('',(38.4,36.65,5.));
#1075 = CIRCLE('',#1076,1.75);
#1076 = AXIS2_PLACEMENT_3D('',#1077,#1078,#1079);
#1077 = CARTESIAN_POINT('',(36.65,36.65,5.));
#1078 = DIRECTION('',(0.,0.,1.));
#1079 = DIRECTION('',(1.,0.,0.));
#1080 = FACE_BOUND('',#1081,.T.);
#1081 = EDGE_LOOP('',(#1082));
#1082 = ORIENTED_EDGE('',*,*,#1083,.F.);
#1083 = EDGE_CURVE('',#1084,#1084,#1086,.T.);
#1084 = VERTEX_POINT('',#1085);
#1085 = CARTESIAN_POINT('',(7.4,5.65,5.));
#1086 = CIRCLE('',#1087,1.75);
#1087 = AXIS2_PLACEMENT_3D('',#1088,#1089,#1090);
#1088 = CARTESIAN_POINT('',(5.65,5.65,5.));
#1089 = DIRECTION('',(0.,0.,1.));
#1090 = DIRECTION('',(1.,0.,0.));
#1091 = FACE_BOUND('',#1092,.T.);
#1092 = EDGE_LOOP('',(#1093));
#1093 = ORIENTED_EDGE('',*,*,#1094,.F.);
#1094 = EDGE_CURVE('',#1095,#1095,#1097,.T.);
#1095 = VERTEX_POINT('',#1096);
#1096 = CARTESIAN_POINT('',(38.4,5.65,5.));
#1097 = CIRCLE('',#1098,1.75);
#1098 = AXIS2_PLACEMENT_3D('',#1099,#1100,#1101);
#1099 = CARTESIAN_POINT('',(36.65,5.65,5.));
#1100 = DIRECTION('',(0.,0.,1.));
#1101 = DIRECTION('',(1.,0.,0.));
#1102 = PLANE('',#1103);
#1103 = AXIS2_PLACEMENT_3D('',#1104,#1105,#1106);
#1104 = CARTESIAN_POINT('',(40.,23.15,5.));
#1105 = DIRECTION('',(0.,0.,1.));
#1106 = DIRECTION('',(1.,0.,0.));
#1107 = ADVANCED_FACE('',(#1108),#1119,.T.);
#1108 = FACE_BOUND('',#1109,.T.);
#1109 = EDGE_LOOP('',(#1110,#1111,#1117,#1118));
#1110 = ORIENTED_EDGE('',*,*,#782,.T.);
#1111 = ORIENTED_EDGE('',*,*,#1112,.T.);
#1112 = EDGE_CURVE('',#775,#1007,#1113,.T.);
#1113 = LINE('',#1114,#1115);
#1114 = CARTESIAN_POINT('',(-1.5,-8.9E-16,0.));
#1115 = VECTOR('',#1116,1.);
#1116 = DIRECTION('',(0.,0.,1.));
#1117 = ORIENTED_EDGE('',*,*,#1006,.F.);
#1118 = ORIENTED_EDGE('',*,*,#426,.F.);
#1119 = CYLINDRICAL_SURFACE('',#1120,4.);
#1120 = AXIS2_PLACEMENT_3D('',#1121,#1122,#1123);
#1121 = CARTESIAN_POINT('',(-1.5,4.,0.));
#1122 = DIRECTION('',(0.,0.,1.));
#1123 = DIRECTION('',(-1.,0.,0.));
#1124 = ADVANCED_FACE('',(#1125,#1131,#1134,#1137,#1140),#1143,.T.);
#1125 = FACE_BOUND('',#1126,.T.);
#1126 = EDGE_LOOP('',(#1127,#1128,#1129,#1130));
#1127 = ORIENTED_EDGE('',*,*,#553,.T.);
#1128 = ORIENTED_EDGE('',*,*,#378,.T.);
#1129 = ORIENTED_EDGE('',*,*,#1031,.F.);
#1130 = ORIENTED_EDGE('',*,*,#875,.T.);
#1131 = FACE_BOUND('',#1132,.T.);
#1132 = EDGE_LOOP('',(#1133));
#1133 = ORIENTED_EDGE('',*,*,#930,.F.);
#1134 = FACE_BOUND('',#1135,.T.);
#1135 = EDGE_LOOP('',(#1136));
#1136 = ORIENTED_EDGE('',*,*,#905,.F.);
#1137 = FACE_BOUND('',#1138,.T.);
#1138 = EDGE_LOOP('',(#1139));
#1139 = ORIENTED_EDGE('',*,*,#980,.F.);
#1140 = FACE_BOUND('',#1141,.T.);
#1141 = EDGE_LOOP('',(#1142));
#1142 = ORIENTED_EDGE('',*,*,#955,.F.);
#1143 = PLANE('',#1144);
#1144 = AXIS2_PLACEMENT_3D('',#1145,#1146,#1147);
#1145 = CARTESIAN_POINT('',(40.,46.3,-69.5));
#1146 = DIRECTION('',(0.,1.,0.));
#1147 = DIRECTION('',(0.,0.,1.));
#1148 = ADVANCED_FACE('',(#1149),#1155,.T.);
#1149 = FACE_BOUND('',#1150,.T.);
#1150 = EDGE_LOOP('',(#1151,#1152,#1153,#1154));
#1151 = ORIENTED_EDGE('',*,*,#638,.F.);
#1152 = ORIENTED_EDGE('',*,*,#508,.F.);
#1153 = ORIENTED_EDGE('',*,*,#394,.T.);
#1154 = ORIENTED_EDGE('',*,*,#546,.F.);
#1155 = PLANE('',#1156);
#1156 = AXIS2_PLACEMENT_3D('',#1157,#1158,#1159);
#1157 = CARTESIAN_POINT('',(12.25,41.8,-135.8));
#1158 = DIRECTION('',(-3.1E-16,-1.,-1.19E-15));
#1159 = DIRECTION('',(0.,1.19E-15,-1.));
#1160 = ADVANCED_FACE('',(#1161),#1164,.T.);
#1161 = FACE_BOUND('',#1162,.T.);
#1162 = EDGE_LOOP('',(#1163));
#1163 = ORIENTED_EDGE('',*,*,#490,.T.);
#1164 = PLANE('',#1165);
#1165 = AXIS2_PLACEMENT_3D('',#1166,#1167,#1168);
#1166 = CARTESIAN_POINT('',(21.11,21.15,-125.6));
#1167 = DIRECTION('',(0.,0.,1.));
#1168 = DIRECTION('',(1.,0.,0.));
#1169 = ADVANCED_FACE('',(#1170),#1181,.F.);
#1170 = FACE_BOUND('',#1171,.F.);
#1171 = EDGE_LOOP('',(#1172,#1173,#1174,#1175));
#1172 = ORIENTED_EDGE('',*,*,#612,.F.);
#1173 = ORIENTED_EDGE('',*,*,#663,.T.);
#1174 = ORIENTED_EDGE('',*,*,#689,.F.);
#1175 = ORIENTED_EDGE('',*,*,#1176,.F.);
#1176 = EDGE_CURVE('',#604,#690,#1177,.T.);
#1177 = LINE('',#1178,#1179);
#1178 = CARTESIAN_POINT('',(47.999999999999,31.65,-144.));
#1179 = VECTOR('',#1180,1.);
#1180 = DIRECTION('',(0.,0.,1.));
#1181 = PLANE('',#1182);
#1182 = AXIS2_PLACEMENT_3D('',#1183,#1184,#1185);
#1183 = CARTESIAN_POINT('',(34.999999999999,31.65,-144.));
#1184 = DIRECTION('',(0.,1.,0.));
#1185 = DIRECTION('',(1.,0.,0.));
#1186 = ADVANCED_FACE('',(#1187),#1198,.F.);
#1187 = FACE_BOUND('',#1188,.F.);
#1188 = EDGE_LOOP('',(#1189,#1190,#1191,#1192));
#1189 = ORIENTED_EDGE('',*,*,#603,.T.);
#1190 = ORIENTED_EDGE('',*,*,#1176,.T.);
#1191 = ORIENTED_EDGE('',*,*,#697,.F.);
#1192 = ORIENTED_EDGE('',*,*,#1193,.F.);
#1193 = EDGE_CURVE('',#596,#698,#1194,.T.);
#1194 = LINE('',#1195,#1196);
#1195 = CARTESIAN_POINT('',(51.999999999999,27.65,-144.));
#1196 = VECTOR('',#1197,1.);
#1197 = DIRECTION('',(0.,0.,1.));
#1198 = CYLINDRICAL_SURFACE('',#1199,4.);
#1199 = AXIS2_PLACEMENT_3D('',#1200,#1201,#1202);
#1200 = CARTESIAN_POINT('',(47.999999999999,27.65,-144.));
#1201 = DIRECTION('',(0.,0.,1.));
#1202 = DIRECTION('',(1.,0.,-0.));
#1203 = ADVANCED_FACE('',(#1204),#1215,.F.);
#1204 = FACE_BOUND('',#1205,.F.);
#1205 = EDGE_LOOP('',(#1206,#1207,#1208,#1209));
#1206 = ORIENTED_EDGE('',*,*,#595,.F.);
#1207 = ORIENTED_EDGE('',*,*,#1193,.T.);
#1208 = ORIENTED_EDGE('',*,*,#706,.F.);
#1209 = ORIENTED_EDGE('',*,*,#1210,.F.);
#1210 = EDGE_CURVE('',#587,#707,#1211,.T.);
#1211 = LINE('',#1212,#1213);
#1212 = CARTESIAN_POINT('',(51.999999999999,19.65,-144.));
#1213 = VECTOR('',#1214,1.);
#1214 = DIRECTION('',(0.,0.,1.));
#1215 = PLANE('',#1216);
#1216 = AXIS2_PLACEMENT_3D('',#1217,#1218,#1219);
#1217 = CARTESIAN_POINT('',(51.999999999999,31.65,-144.));
#1218 = DIRECTION('',(1.,0.,0.));
#1219 = DIRECTION('',(0.,-1.,0.));
#1220 = ADVANCED_FACE('',(#1221),#1232,.T.);
#1221 = FACE_BOUND('',#1222,.F.);
#1222 = EDGE_LOOP('',(#1223,#1224,#1225,#1226));
#1223 = ORIENTED_EDGE('',*,*,#586,.T.);
#1224 = ORIENTED_EDGE('',*,*,#1210,.T.);
#1225 = ORIENTED_EDGE('',*,*,#714,.F.);
#1226 = ORIENTED_EDGE('',*,*,#1227,.F.);
#1227 = EDGE_CURVE('',#579,#715,#1228,.T.);
#1228 = LINE('',#1229,#1230);
#1229 = CARTESIAN_POINT('',(55.999999999999,15.65,-144.));
#1230 = VECTOR('',#1231,1.);
#1231 = DIRECTION('',(0.,0.,1.));
#1232 = CYLINDRICAL_SURFACE('',#1233,4.);
#1233 = AXIS2_PLACEMENT_3D('',#1234,#1235,#1236);
#1234 = CARTESIAN_POINT('',(55.999999999999,19.65,-144.));
#1235 = DIRECTION('',(0.,0.,1.));
#1236 = DIRECTION('',(0.,-1.,0.));
#1237 = ADVANCED_FACE('',(#1238),#1249,.T.);
#1238 = FACE_BOUND('',#1239,.T.);
#1239 = EDGE_LOOP('',(#1240,#1241,#1242,#1243));
#1240 = ORIENTED_EDGE('',*,*,#723,.F.);
#1241 = ORIENTED_EDGE('',*,*,#1227,.F.);
#1242 = ORIENTED_EDGE('',*,*,#578,.T.);
#1243 = ORIENTED_EDGE('',*,*,#1244,.T.);
#1244 = EDGE_CURVE('',#570,#724,#1245,.T.);
#1245 = LINE('',#1246,#1247);
#1246 = CARTESIAN_POINT('',(81.5,15.65,-144.));
#1247 = VECTOR('',#1248,1.);
#1248 = DIRECTION('',(0.,2.2E-16,1.));
#1249 = PLANE('',#1250);
#1250 = AXIS2_PLACEMENT_3D('',#1251,#1252,#1253);
#1251 = CARTESIAN_POINT('',(38.905693950178,15.65,-134.3943060498));
#1252 = DIRECTION('',(0.,-1.,2.4E-16));
#1253 = DIRECTION('',(0.,-2.4E-16,-1.));
#1254 = ADVANCED_FACE('',(#1255),#1261,.T.);
#1255 = FACE_BOUND('',#1256,.F.);
#1256 = EDGE_LOOP('',(#1257,#1258,#1259,#1260));
#1257 = ORIENTED_EDGE('',*,*,#569,.T.);
#1258 = ORIENTED_EDGE('',*,*,#1244,.T.);
#1259 = ORIENTED_EDGE('',*,*,#731,.F.);
#1260 = ORIENTED_EDGE('',*,*,#868,.F.);
#1261 = CYLINDRICAL_SURFACE('',#1262,4.);
#1262 = AXIS2_PLACEMENT_3D('',#1263,#1264,#1265);
#1263 = CARTESIAN_POINT('',(81.5,19.65,-144.));
#1264 = DIRECTION('',(0.,2.2E-16,1.));
#1265 = DIRECTION('',(1.,0.,-0.));
#1266 = ADVANCED_FACE('',(#1267),#1286,.F.);
#1267 = FACE_BOUND('',#1268,.F.);
#1268 = EDGE_LOOP('',(#1269,#1277,#1284,#1285));
#1269 = ORIENTED_EDGE('',*,*,#1270,.T.);
#1270 = EDGE_CURVE('',#741,#1271,#1273,.T.);
#1271 = VERTEX_POINT('',#1272);
#1272 = CARTESIAN_POINT('',(72.1,21.65,-142.));
#1273 = LINE('',#1274,#1275);
#1274 = CARTESIAN_POINT('',(72.1,21.65,-139.));
#1275 = VECTOR('',#1276,1.);
#1276 = DIRECTION('',(-0.,-0.,-1.));
#1277 = ORIENTED_EDGE('',*,*,#1278,.T.);
#1278 = EDGE_CURVE('',#1271,#1271,#1279,.T.);
#1279 = CIRCLE('',#1280,5.1);
#1280 = AXIS2_PLACEMENT_3D('',#1281,#1282,#1283);
#1281 = CARTESIAN_POINT('',(67.,21.65,-142.));
#1282 = DIRECTION('',(0.,0.,1.));
#1283 = DIRECTION('',(1.,0.,0.));
#1284 = ORIENTED_EDGE('',*,*,#1270,.F.);
#1285 = ORIENTED_EDGE('',*,*,#740,.F.);
#1286 = CYLINDRICAL_SURFACE('',#1287,5.1);
#1287 = AXIS2_PLACEMENT_3D('',#1288,#1289,#1290);
#1288 = CARTESIAN_POINT('',(67.,21.65,-139.));
#1289 = DIRECTION('',(0.,0.,1.));
#1290 = DIRECTION('',(1.,0.,0.));
#1291 = ADVANCED_FACE('',(#1292),#1303,.T.);
#1292 = FACE_BOUND('',#1293,.F.);
#1293 = EDGE_LOOP('',(#1294,#1295,#1301,#1302));
#1294 = ORIENTED_EDGE('',*,*,#765,.T.);
#1295 = ORIENTED_EDGE('',*,*,#1296,.T.);
#1296 = EDGE_CURVE('',#766,#1016,#1297,.T.);
#1297 = LINE('',#1298,#1299);
#1298 = CARTESIAN_POINT('',(81.5,-8.9E-16,0.));
#1299 = VECTOR('',#1300,1.);
#1300 = DIRECTION('',(0.,0.,1.));
#1301 = ORIENTED_EDGE('',*,*,#1023,.F.);
#1302 = ORIENTED_EDGE('',*,*,#891,.F.);
#1303 = CYLINDRICAL_SURFACE('',#1304,4.);
#1304 = AXIS2_PLACEMENT_3D('',#1305,#1306,#1307);
#1305 = CARTESIAN_POINT('',(81.5,4.,0.));
#1306 = DIRECTION('',(0.,0.,1.));
#1307 = DIRECTION('',(1.,0.,-0.));
#1308 = ADVANCED_FACE('',(#1309),#1315,.T.);
#1309 = FACE_BOUND('',#1310,.T.);
#1310 = EDGE_LOOP('',(#1311,#1312,#1313,#1314));
#1311 = ORIENTED_EDGE('',*,*,#774,.T.);
#1312 = ORIENTED_EDGE('',*,*,#1296,.T.);
#1313 = ORIENTED_EDGE('',*,*,#1015,.F.);
#1314 = ORIENTED_EDGE('',*,*,#1112,.F.);
#1315 = PLANE('',#1316);
#1316 = AXIS2_PLACEMENT_3D('',#1317,#1318,#1319);
#1317 = CARTESIAN_POINT('',(40.,0.,2.5));
#1318 = DIRECTION('',(-0.,-1.,-0.));
#1319 = DIRECTION('',(0.,0.,-1.));
#1320 = ADVANCED_FACE('',(#1321),#1332,.F.);
#1321 = FACE_BOUND('',#1322,.T.);
#1322 = EDGE_LOOP('',(#1323,#1329,#1330,#1331));
#1323 = ORIENTED_EDGE('',*,*,#1324,.T.);
#1324 = EDGE_CURVE('',#794,#1040,#1325,.T.);
#1325 = LINE('',#1326,#1327);
#1326 = CARTESIAN_POINT('',(37.45,21.15,0.));
#1327 = VECTOR('',#1328,1.);
#1328 = DIRECTION('',(0.,0.,1.));
#1329 = ORIENTED_EDGE('',*,*,#1039,.T.);
#1330 = ORIENTED_EDGE('',*,*,#1324,.F.);
#1331 = ORIENTED_EDGE('',*,*,#793,.F.);
#1332 = CYLINDRICAL_SURFACE('',#1333,16.3);
#1333 = AXIS2_PLACEMENT_3D('',#1334,#1335,#1336);
#1334 = CARTESIAN_POINT('',(21.15,21.15,0.));
#1335 = DIRECTION('',(-0.,-0.,-1.));
#1336 = DIRECTION('',(1.,0.,0.));
#1337 = ADVANCED_FACE('',(#1338),#1349,.F.);
#1338 = FACE_BOUND('',#1339,.F.);
#1339 = EDGE_LOOP('',(#1340,#1341,#1347,#1348));
#1340 = ORIENTED_EDGE('',*,*,#804,.F.);
#1341 = ORIENTED_EDGE('',*,*,#1342,.T.);
#1342 = EDGE_CURVE('',#805,#1051,#1343,.T.);
#1343 = LINE('',#1344,#1345);
#1344 = CARTESIAN_POINT('',(72.1,21.65,0.));
#1345 = VECTOR('',#1346,1.);
#1346 = DIRECTION('',(0.,0.,1.));
#1347 = ORIENTED_EDGE('',*,*,#1050,.T.);
#1348 = ORIENTED_EDGE('',*,*,#1342,.F.);
#1349 = CYLINDRICAL_SURFACE('',#1350,5.1);
#1350 = AXIS2_PLACEMENT_3D('',#1351,#1352,#1353);
#1351 = CARTESIAN_POINT('',(67.,21.65,0.));
#1352 = DIRECTION('',(0.,0.,-1.));
#1353 = DIRECTION('',(1.,0.,0.));
#1354 = ADVANCED_FACE('',(#1355),#1366,.F.);
#1355 = FACE_BOUND('',#1356,.F.);
#1356 = EDGE_LOOP('',(#1357,#1358,#1364,#1365));
#1357 = ORIENTED_EDGE('',*,*,#1061,.F.);
#1358 = ORIENTED_EDGE('',*,*,#1359,.T.);
#1359 = EDGE_CURVE('',#1062,#816,#1360,.T.);
#1360 = LINE('',#1361,#1362);
#1361 = CARTESIAN_POINT('',(7.4,36.65,5.));
#1362 = VECTOR('',#1363,1.);
#1363 = DIRECTION('',(-0.,-0.,-1.));
#1364 = ORIENTED_EDGE('',*,*,#815,.T.);
#1365 = ORIENTED_EDGE('',*,*,#1359,.F.);
#1366 = CYLINDRICAL_SURFACE('',#1367,1.75);
#1367 = AXIS2_PLACEMENT_3D('',#1368,#1369,#1370);
#1368 = CARTESIAN_POINT('',(5.65,36.65,5.));
#1369 = DIRECTION('',(0.,0.,1.));
#1370 = DIRECTION('',(1.,0.,0.));
#1371 = ADVANCED_FACE('',(#1372),#1383,.F.);
#1372 = FACE_BOUND('',#1373,.F.);
#1373 = EDGE_LOOP('',(#1374,#1375,#1381,#1382));
#1374 = ORIENTED_EDGE('',*,*,#1072,.F.);
#1375 = ORIENTED_EDGE('',*,*,#1376,.T.);
#1376 = EDGE_CURVE('',#1073,#827,#1377,.T.);
#1377 = LINE('',#1378,#1379);
#1378 = CARTESIAN_POINT('',(38.4,36.65,5.));
#1379 = VECTOR('',#1380,1.);
#1380 = DIRECTION('',(-0.,-0.,-1.));
#1381 = ORIENTED_EDGE('',*,*,#826,.T.);
#1382 = ORIENTED_EDGE('',*,*,#1376,.F.);
#1383 = CYLINDRICAL_SURFACE('',#1384,1.75);
#1384 = AXIS2_PLACEMENT_3D('',#1385,#1386,#1387);
#1385 = CARTESIAN_POINT('',(36.65,36.65,5.));
#1386 = DIRECTION('',(0.,0.,1.));
#1387 = DIRECTION('',(1.,0.,0.));
#1388 = ADVANCED_FACE('',(#1389),#1400,.F.);
#1389 = FACE_BOUND('',#1390,.F.);
#1390 = EDGE_LOOP('',(#1391,#1392,#1398,#1399));
#1391 = ORIENTED_EDGE('',*,*,#1083,.F.);
#1392 = ORIENTED_EDGE('',*,*,#1393,.T.);
#1393 = EDGE_CURVE('',#1084,#838,#1394,.T.);
#1394 = LINE('',#1395,#1396);
#1395 = CARTESIAN_POINT('',(7.4,5.65,5.));
#1396 = VECTOR('',#1397,1.);
#1397 = DIRECTION('',(-0.,-0.,-1.));
#1398 = ORIENTED_EDGE('',*,*,#837,.T.);
#1399 = ORIENTED_EDGE('',*,*,#1393,.F.);
#1400 = CYLINDRICAL_SURFACE('',#1401,1.75);
#1401 = AXIS2_PLACEMENT_3D('',#1402,#1403,#1404);
#1402 = CARTESIAN_POINT('',(5.65,5.65,5.));
#1403 = DIRECTION('',(0.,0.,1.));
#1404 = DIRECTION('',(1.,0.,0.));
#1405 = ADVANCED_FACE('',(#1406),#1417,.F.);
#1406 = FACE_BOUND('',#1407,.F.);
#1407 = EDGE_LOOP('',(#1408,#1409,#1415,#1416));
#1408 = ORIENTED_EDGE('',*,*,#1094,.F.);
#1409 = ORIENTED_EDGE('',*,*,#1410,.T.);
#1410 = EDGE_CURVE('',#1095,#849,#1411,.T.);
#1411 = LINE('',#1412,#1413);
#1412 = CARTESIAN_POINT('',(38.4,5.65,5.));
#1413 = VECTOR('',#1414,1.);
#1414 = DIRECTION('',(-0.,-0.,-1.));
#1415 = ORIENTED_EDGE('',*,*,#848,.T.);
#1416 = ORIENTED_EDGE('',*,*,#1410,.F.);
#1417 = CYLINDRICAL_SURFACE('',#1418,1.75);
#1418 = AXIS2_PLACEMENT_3D('',#1419,#1420,#1421);
#1419 = CARTESIAN_POINT('',(36.65,5.65,5.));
#1420 = DIRECTION('',(0.,0.,1.));
#1421 = DIRECTION('',(1.,0.,0.));
#1422 = ADVANCED_FACE('',(#1423),#1426,.T.);
#1423 = FACE_BOUND('',#1424,.T.);
#1424 = EDGE_LOOP('',(#1425));
#1425 = ORIENTED_EDGE('',*,*,#1278,.T.);
#1426 = PLANE('',#1427);
#1427 = AXIS2_PLACEMENT_3D('',#1428,#1429,#1430);
#1428 = CARTESIAN_POINT('',(67.,21.65,-142.));
#1429 = DIRECTION('',(0.,0.,1.));
#1430 = DIRECTION('',(1.,0.,0.));
#1431 = ( GEOMETRIC_REPRESENTATION_CONTEXT(3) 
GLOBAL_UNCERTAINTY_ASSIGNED_CONTEXT((#1435)) 
GLOBAL_UNIT_ASSIGNED_CONTEXT((#1432,#1433,#1434)) REPRESENTATION_CONTEXT
('Context #1','3D Context with UNIT and UNCERTAINTY') );
#1432 = ( LENGTH_UNIT() NAMED_UNIT(*) SI_UNIT(.MILLI.,.METRE.) );
#1433 = ( NAMED_UNIT(*) PLANE_ANGLE_UNIT() SI_UNIT($,.RADIAN.) );
#1434 = ( NAMED_UNIT(*) SI_UNIT($,.STERADIAN.) SOLID_ANGLE_UNIT() );
#1435 = UNCERTAINTY_MEASURE_WITH_UNIT(LENGTH_MEASURE(1.E-05),#1432,
  'distance_accuracy_value','confusion accuracy');
#1436 = PRODUCT_RELATED_PRODUCT_CATEGORY('part',$,(#7));
#1437 = MECHANICAL_DESIGN_GEOMETRIC_PRESENTATION_REPRESENTATION('',(
    #1438),#1431);
#1438 = STYLED_ITEM('color',(#1439),#15);
#1439 = PRESENTATION_STYLE_ASSIGNMENT((#1440,#1446));
#1440 = SURFACE_STYLE_USAGE(.BOTH.,#1441);
#1441 = SURFACE_SIDE_STYLE('',(#1442));
#1442 = SURFACE_STYLE_FILL_AREA(#1443);
#1443 = FILL_AREA_STYLE('',(#1444));
#1444 = FILL_AREA_STYLE_COLOUR('',#1445);
#1445 = COLOUR_RGB('',0.447058818107,0.474509808674,0.501960817233);
#1446 = CURVE_STYLE('',#1447,POSITIVE_LENGTH_MEASURE(0.1),#1448);
#1447 = DRAUGHTING_PRE_DEFINED_CURVE_FONT('continuous');
#1448 = COLOUR_RGB('',9.803921802644E-02,9.803921802644E-02,
  9.803921802644E-02);
ENDSEC;
END-ISO-10303-21;
